<svg width="1375" height="602" viewBox="0 0 1375 602" fill="none" xmlns="http://www.w3.org/2000/svg">
<path d="M1159.84 68.1797C1075.69 68.1797 1003.1 116.938 968.389 187.734C930.65 153.714 880.652 132.916 825.833 132.916C741.538 132.916 668.539 182.087 634.105 253.297C610.689 219.689 571.848 197.651 527.772 197.651C456.288 197.651 398.301 255.638 398.301 327.123C398.301 398.608 456.288 456.595 527.772 456.595C565.925 456.595 600.359 440.066 624.05 413.759C652.423 498.053 732.035 558.795 825.833 558.795C909.989 558.795 982.714 510.036 1017.29 439.378C1055.03 473.399 1105.02 494.059 1159.84 494.059C1277.47 494.059 1372.78 398.746 1372.78 281.119C1372.78 163.493 1277.47 68.1797 1159.84 68.1797Z" fill="#F5188C" fill-opacity="0.4" stroke="#FE4E89" stroke-opacity="0.7" stroke-width="3.4434" stroke-linecap="round" stroke-linejoin="round"/>
<path d="M1159.84 0C1075.69 0 1003.1 48.7585 968.389 119.555C930.65 85.534 880.652 64.7358 825.833 64.7358C741.538 64.7358 668.539 113.908 634.105 185.117C610.689 151.509 571.848 129.472 527.772 129.472C456.288 129.472 398.301 187.458 398.301 258.943C398.301 330.566 456.288 388.415 527.772 388.415C565.925 388.415 600.359 371.887 624.05 345.579C652.423 429.874 732.035 490.753 825.833 490.753C909.989 490.753 982.714 441.994 1017.29 371.198C1055.03 405.219 1105.02 426.017 1159.84 426.017C1277.47 426.017 1372.78 330.566 1372.78 212.94C1372.78 95.4509 1277.47 0 1159.84 0Z" fill="#FC1C91"/>
<path d="M3 391.859C3 391.859 30.2717 391.859 30.2717 350.951C30.2717 350.951 33.7151 388.415 57.5434 388.415C57.5434 388.415 20.0792 405.495 20.0792 446.402C20.0792 446.402 23.5226 398.746 3 391.859Z" stroke="#FF6699" stroke-width="5.09623" stroke-linecap="round" stroke-linejoin="round"/>
<path d="M43.9082 442.959C43.9082 442.959 57.5441 442.959 57.5441 422.574C57.5441 422.574 59.3346 441.306 71.1799 441.306C71.1799 441.306 52.4478 449.846 52.4478 470.231C52.4478 470.231 54.1007 446.403 43.9082 442.959Z" stroke="#FF6699" stroke-width="5.09623" stroke-linecap="round" stroke-linejoin="round"/>
<path d="M1217.69 536.757C1217.69 536.757 1239.45 536.757 1239.45 504.113C1239.45 504.113 1242.21 534.14 1261.35 534.14C1261.35 534.14 1231.33 547.776 1231.33 580.419C1231.33 580.419 1234.08 542.266 1217.69 536.757Z" stroke="#FF6699" stroke-width="4.13208" stroke-linecap="round" stroke-linejoin="round"/>
<path d="M1250.33 577.664C1250.33 577.664 1261.35 577.664 1261.35 561.273C1261.35 561.273 1262.73 576.287 1272.23 576.287C1272.23 576.287 1257.22 583.173 1257.22 599.564C1257.22 599.564 1258.6 580.419 1250.33 577.664Z" stroke="#FF6699" stroke-width="4.13208" stroke-linecap="round" stroke-linejoin="round"/>
</svg>
