<svg width="227" height="297" viewBox="0 0 227 297" fill="none" xmlns="http://www.w3.org/2000/svg">
<path d="M80.8512 194.135C78.1956 200.312 72.4474 203.644 66.301 202.534C64.9962 202.298 63.7369 201.736 62.502 201.216C61.4698 200.781 60.4755 200.339 59.3215 200.585C53.4401 201.838 48.6225 199.619 44.2612 195.948C42.1001 194.129 40.0044 192.252 38.5235 189.786C36.9405 187.15 36.0034 184.348 36.1911 181.132C35.6162 181.111 35.1438 181.073 34.6732 181.082C31.7197 181.141 28.9732 180.382 26.3747 179.019C24.0181 177.783 22.4572 175.878 21.8027 173.312C21.4259 171.833 21.1786 170.309 21.0113 168.79C20.7839 166.732 20.001 165.028 18.3358 163.75C17.8025 163.34 17.3272 162.854 16.8297 162.399C13.9386 159.753 13.2597 156.506 14.3114 152.838C15.0032 150.425 16.4211 148.416 18.15 146.646C19.2178 145.553 20.3588 144.509 21.5797 143.594C23.6057 142.075 24.8576 140.195 25.1048 137.626C25.2273 136.353 25.5057 135.077 25.8628 133.846C26.7248 130.875 28.629 128.998 31.7757 128.534C32.1308 128.482 32.4793 128.383 32.988 128.272C32.9668 127.316 32.8791 126.397 32.9366 125.487C33.2109 121.15 35.2137 118.028 39.4524 116.633C41.1298 116.082 42.2844 115.12 43.0963 113.539C44.6041 110.6 46.6828 108.137 49.6 106.462C52.8476 104.598 56.2123 104.285 59.3339 106.436C61.8389 108.162 64.1378 108.223 66.6763 106.817C67.2067 106.523 67.8204 106.382 68.3888 106.153C73.7464 103.991 78.0317 106.527 80.8908 109.764C81.7852 110.776 82.1641 111.984 81.9902 113.456C82.6001 113.423 83.1334 113.378 83.6669 113.369C88.7926 113.288 93.3854 114.697 96.9722 118.499C97.9954 119.584 98.7112 121.004 99.3785 122.364C99.9123 123.453 100.208 124.67 100.52 125.853C100.871 127.181 101.574 128.149 102.833 128.759C106.506 130.539 108.193 133.822 109.266 137.51C109.892 139.665 109.461 141.667 107.927 143.332C107.108 144.22 106.663 145.228 106.3 146.362C105.914 147.569 105.261 148.691 104.663 149.983C105.069 150.284 105.542 150.64 106.02 150.99C109.048 153.201 111.11 156.081 112.087 159.719C112.668 161.881 112.515 163.969 111.513 165.983C111.35 166.313 111.211 166.657 111.022 166.97C109.383 169.686 108.742 172.57 109.085 175.768C109.463 179.299 108.513 182.534 106.413 185.471C103.99 188.86 100.769 190.518 96.6525 190.218C95.0057 190.098 93.9472 190.481 92.9729 191.894C91.4365 194.124 88.9943 194.911 86.3953 194.993C85.068 195.035 83.7266 194.711 82.3967 194.515C81.8675 194.438 81.3538 194.262 80.8512 194.135ZM75.2291 158.048C74.4113 158.667 73.5931 159.288 72.4843 160.128C72.7546 159.224 72.9191 158.674 73.1042 158.054C72.5136 157.66 71.973 157.3 71.3923 156.913C71.1253 158.8 71.836 160.404 73.2807 161.165C73.5608 161.312 74.0913 161.394 74.2814 161.236C75.3291 160.364 76.7041 159.72 76.8047 158.083C77.473 156.435 77.3486 155.915 75.9905 154.871C75.614 155.624 75.1893 156.345 74.9044 157.117C74.8169 157.355 75.1102 157.733 75.2291 158.048ZM33.3029 130.451C34.4959 131.677 35.0456 133.481 36.7447 134.388C37.4103 133.363 38.0216 132.421 38.7004 131.375C36.8616 130.569 35.1564 130.099 33.3003 130.49C32.1657 130.203 31.176 130.514 30.1524 131.173C31.5 133.807 33.4681 135.721 35.737 137.562C36.3273 136.504 36.3654 135.803 35.5415 134.989C34.6855 134.144 34.0166 133.1 33.3267 132.1C32.9826 131.6 32.7102 131.008 33.3029 130.451ZM16.231 153.454C19.223 156.413 29.0572 158.837 33.9684 157.833C33.8126 156.764 33.6561 155.689 33.5004 154.619C32.0225 154.214 30.5906 153.89 29.2063 153.424C27.758 152.936 26.312 152.398 24.9467 151.717C23.7524 151.121 22.633 150.35 21.5573 149.552C20.9652 149.113 20.3992 148.529 20.446 147.423C21.8537 148.497 23.0208 149.58 24.364 150.36C25.7832 151.185 27.3501 151.772 28.8893 152.369C30.34 152.931 31.8158 153.468 33.4745 153.59C33.6152 152.001 33.7373 150.618 33.8612 149.221C30.4146 147.87 27.8628 145.534 25.5692 142.756C21.9046 146.032 17.7095 148.568 16.231 153.454ZM95.1527 188.189C97.7792 188.667 100.171 188.385 101.876 187.382C103.263 186.565 103.435 186.247 103.029 184.707C102.797 183.824 102.474 182.955 102.097 182.122C100.491 178.56 98.1004 175.543 95.4471 172.717C95.255 172.512 94.9571 172.406 94.7006 172.25C94.1296 172.801 93.6237 173.288 93.1023 173.791C95.166 176.62 96.8845 179.517 98.0177 182.711C98.4849 184.026 98.7303 185.425 99.0055 186.8C99.0683 187.113 98.8381 187.486 98.7426 187.831C98.6045 187.841 98.4668 187.852 98.3286 187.863C97.6476 182.685 95.5153 178.168 92.4656 173.936C91.6093 174.343 90.9289 174.667 90.2772 174.977C91.3162 177.211 92.4055 179.209 93.1823 181.32C93.9811 183.49 94.4739 185.77 95.1527 188.189ZM44.0933 163.79C43.9421 165.879 44.3277 167.584 44.6081 169.308C44.8024 170.503 45.4143 171.096 46.5638 171.398C51.6865 172.745 56.6377 172.197 61.4697 170.162C61.8442 170.004 62.1802 169.756 62.6147 169.502C62.3435 168.666 62.1049 167.93 61.8602 167.176C55.517 168.441 49.7216 167.244 44.0933 163.79ZM70.3182 147.49C68.7744 143.28 61.8378 136.47 57.8441 135.165C55.6233 137.002 54.983 139.468 55.0046 142.371C57.6844 142.298 59.9549 143.211 62.2348 144.093C64.5963 145.007 66.6886 146.342 68.5214 148.189C69.1253 147.953 69.6768 147.739 70.3182 147.49ZM37.8019 138.808C40.633 139.136 43.2479 139.368 45.8388 139.759C48.4484 140.153 50.8113 141.275 53.1816 142.791C53.3234 141.393 53.4449 140.2 53.5607 139.065C50.6163 136.144 47.0456 134.615 43.2282 133.58C42.3501 133.342 41.4209 133.234 40.5101 133.203C40.0873 133.189 39.4581 133.38 39.2574 133.692C38.2617 135.243 37.5431 136.909 37.8019 138.808ZM34.2988 158.776C27.6162 159.842 21.748 157.769 16.0951 154.755C15.1662 158.525 17.5111 160.709 21.02 163.459C25.622 160.927 30.6138 161.303 35.8454 161.923C35.2898 160.793 34.8402 159.878 34.2988 158.776ZM73.9078 147.069C73.8914 146.732 73.9375 146.477 73.8603 146.268C72.1465 141.624 69.8431 137.363 66.1084 133.978C64.9468 132.925 63.7241 132.574 62.2573 133.001C61.4381 133.24 60.6156 133.486 59.8329 133.82C59.5002 133.962 59.2662 134.337 58.9381 134.653C59.8923 135.257 60.7467 135.736 61.5345 136.307C65.1929 138.956 68.2922 142.157 70.6304 146.022C71.246 147.04 71.9005 147.387 72.9795 147.193C73.2674 147.141 73.5598 147.115 73.9078 147.069ZM104.097 185.218C105.615 184.151 106.146 182.661 106.797 181.236C107.369 179.986 107.22 178.857 106.386 177.808C105.131 176.23 103.962 174.563 102.559 173.127C101.245 171.783 99.7182 170.63 98.1977 169.511C97.2798 168.835 96.4756 169.087 95.9016 170.054C95.663 170.457 95.5822 170.953 95.4272 171.413C99.3001 175.414 102.759 179.582 104.097 185.218ZM37.8148 139.815C38.0364 141.612 38.2392 143.254 38.4543 145C44.0094 144.194 49.1388 145.397 54.0423 148.027C53.6366 144.068 53.4737 143.847 50.4999 142.261C46.6258 140.196 42.3576 139.802 37.8148 139.815ZM61.7162 166.398C61.7383 166.242 61.7605 166.086 61.7826 165.93C60.7057 165.302 59.6439 164.647 58.546 164.057C57.9718 163.749 57.3565 163.449 56.7246 163.329C54.4811 162.904 52.3577 162.169 50.378 161.038C49.0082 160.255 47.6626 159.43 46.2697 158.602C45.9781 158.808 45.7161 158.958 45.4968 159.156C45.2724 159.359 45.0585 159.589 44.8935 159.841C43.712 161.647 43.9956 162.762 45.8422 163.828C50.1765 166.327 54.8642 167.118 59.794 166.732C60.4401 166.683 61.0759 166.513 61.7162 166.398ZM90.0547 115.747C90.1648 119.775 89.2363 123.068 88.2258 126.342C87.2227 129.592 85.5135 132.524 83.7166 135.553C85.3603 135.56 85.5746 135.356 86.919 133.774C90.2537 129.851 92.5023 125.321 94.427 120.602C94.6735 119.998 94.8268 119.356 95.083 118.543C93.4424 117.631 91.9215 116.785 90.0547 115.747ZM70.414 179.695C72.9652 179.868 74.7361 179.507 76.1362 178.525C73.6888 173.785 71.4656 168.958 72.5055 163.233C71.9793 163.346 71.4744 163.473 71.3087 163.783C68.5333 168.959 68.5867 174.289 70.414 179.695ZM35.8586 149.576C36.3613 149.545 36.6628 149.553 36.9552 149.505C41.4814 148.762 45.8503 149.078 49.9452 151.368C50.2338 151.529 50.6581 151.639 50.958 151.554C52.0599 151.244 53.1363 150.842 54.4479 150.398C54.1962 149.98 54.0495 149.502 53.7272 149.248C52.9642 148.648 52.1772 148.008 51.2931 147.643C47.6402 146.135 43.869 145.314 39.8561 145.545C37.8883 145.658 36.8369 146.554 36.2329 148.261C36.1132 148.6 36.0341 148.954 35.8586 149.576ZM46.1303 172.403C47.118 174.148 47.9524 175.622 48.9227 177.336C52.8851 177.755 56.9452 177.231 60.7967 175.36C61.0987 175.214 61.4579 174.904 61.5286 174.609C61.8322 173.34 62.0373 172.049 62.3112 170.591C57.1274 173.309 51.7683 173.454 46.1303 172.403ZM81.5736 173.819C78.6476 170.952 75.8675 168.094 75.3346 163.549C74.6862 163.598 74.1134 163.642 73.5756 163.684C72.6478 167.999 74.5635 175.473 77.278 178.315C79.234 177.434 80.666 176.041 81.5736 173.819ZM82.1092 132.06C84.2474 127.711 85.2165 118.574 83.9742 115.079C81.919 115.122 80.8376 115.469 79.1571 116.65C79.2968 117.085 79.454 117.541 79.5895 118.004C80.559 121.326 81.1992 124.731 80.6394 128.156C80.3575 129.875 80.8262 130.95 82.1092 132.06ZM49.7539 152.202C45.1056 149.677 40.4763 149.639 35.6919 150.549C35.414 152.305 35.1928 153.844 35.6376 155.477C39.7152 153.864 43.7183 154.073 47.696 155.45C48.399 154.342 49.012 153.374 49.7539 152.202ZM99.1583 164.226C99.951 162.335 99.9219 160.802 99.3799 159.251C98.9958 158.151 98.3639 157.345 97.1434 157.075C94.6438 156.522 92.1754 155.792 89.6534 155.382C87.5734 155.044 85.4349 155.062 83.2231 154.916C83.1549 155.755 83.1084 156.34 83.08 156.689C86.0497 157.489 88.9157 158.096 91.6628 159.046C94.4986 160.028 97.0099 161.658 99.1583 164.226ZM98.7137 165.26C98.5709 164.973 98.5172 164.791 98.4061 164.656C98.1344 164.325 97.8581 163.994 97.5461 163.702C93.5703 159.974 88.7002 158.388 83.405 157.855C83.1471 157.829 82.8571 158.122 82.3719 158.378C87.6859 160.557 91.6769 163.935 94.6272 168.574C96.2774 167.748 97.6904 166.838 98.7137 165.26ZM63.6359 178.503C62.9575 177.474 62.4036 176.634 61.7512 175.644C57.7268 178.223 53.2834 178.333 48.4122 178.249C49.3539 179.694 50.0231 180.769 50.7417 181.808C51.1875 182.453 51.8261 182.663 52.6398 182.671C55.7375 182.704 58.536 181.764 61.1573 180.207C61.9773 179.72 62.7343 179.127 63.6359 178.503ZM81.1568 150.154C85.4623 146.964 90.0659 144.539 95.5498 143.754C95.213 143.338 95.0419 143.087 94.8329 142.873C93.3075 141.313 91.1434 141.021 89.2831 140.127C89.0808 140.03 88.6878 140.196 88.4438 140.341C85.0383 142.364 82.5953 145.321 80.5103 148.613C80.098 149.262 80.2671 149.773 81.1568 150.154ZM36.6775 144.447C36.4333 142.936 36.1555 141.753 36.0733 140.557C35.9951 139.422 35.5363 138.684 34.6215 137.988C32.6137 136.461 30.8754 134.653 29.7961 132.308C29.7102 132.122 29.5034 131.992 29.3405 131.823C27.216 134.582 26.1918 137.678 29.3309 140.054C29.5246 140.2 29.6722 140.406 29.8587 140.564C31.7743 142.185 33.7534 143.694 36.6775 144.447ZM93.9031 188.332C93.5099 183.935 91.9611 180.102 89.9343 176.432C89.2092 175.119 89.1939 175.128 87.4664 175.628C87.4839 177.57 87.5726 179.472 88.2996 181.362C89.2656 183.872 89.9491 186.488 90.0172 189.215C90.0395 190.109 90.0402 191.004 90.0529 192.051C91.7634 191.193 92.3142 189.275 93.9031 188.332ZM83.1802 154.266C84.4453 154.257 85.664 154.194 86.8759 154.257C88.0928 154.321 89.308 154.479 90.515 154.655C91.7221 154.832 92.9256 155.049 94.1168 155.312C95.2224 155.556 96.3093 155.886 97.4048 156.178C96.2713 154.289 95.7822 152.538 96.7582 150.473C91.6624 149.496 87.1346 150.578 82.5909 152.458C82.8017 153.105 82.9646 153.605 83.1802 154.266ZM85.2433 114.93C85.1396 115.27 85.0634 115.389 85.0752 115.501C85.687 121.499 85.1969 127.355 82.9302 133.008C82.738 133.488 82.9046 134.111 82.9046 134.716C83.2106 134.651 83.2979 134.659 83.3257 134.622C83.5066 134.381 83.6885 134.139 83.8445 133.882C86.6161 129.316 88.2745 124.347 89.0829 119.093C89.2545 117.977 89.1184 116.813 89.125 115.541C87.6821 115.314 86.4473 115.119 85.2433 114.93ZM69.5288 179.701C67.8382 173.955 67.6337 168.541 70.3734 163.228C69.4236 163.827 68.6658 164.506 67.9669 165.241C65.5766 167.751 63.8886 170.607 63.7579 174.177C63.736 174.774 63.6941 175.505 63.9917 175.956C65.2263 177.828 66.7372 179.4 69.5288 179.701ZM57.8597 120.939C58.8672 116.315 58.7153 112.004 56.9237 107.814C56.7985 107.521 56.4786 107.186 56.1866 107.11C54.556 106.684 52.9894 106.784 51.5041 107.851C54.5858 111.664 55.2783 116.214 56.0932 120.883C56.7265 120.903 57.2609 120.92 57.8597 120.939ZM56.0899 149.289C59.695 148.45 62.9028 149.274 65.9468 150.821C66.5649 150.032 67.0803 149.374 67.6999 148.582C64.0098 145.452 59.8695 143.835 54.9958 143.207C55.3829 145.359 55.7166 147.212 56.0899 149.289ZM47.6214 125.513C46.6186 126.218 46.322 127.177 46.0896 128.099C45.767 129.378 45.0348 130.069 43.7679 130.377C42.5994 130.661 41.4886 131.132 40.5834 132.362C45.6763 132.843 50.0095 134.773 53.9198 137.78C54.1558 137.42 54.3233 137.234 54.41 137.016C54.5175 136.748 54.5573 136.453 54.6368 136.127C51.3887 133.196 48.7363 129.915 47.6214 125.513ZM106.281 134.785C101.531 135.149 97.6409 137.218 93.9511 140.186C94.7975 140.823 95.5074 141.357 96.2041 141.882C99.8772 140.291 103.676 139.545 107.708 139.276C107.697 137.596 107.068 136.188 106.281 134.785ZM96.0321 144.411C91.5601 144.983 87.716 146.801 84.0606 149.095C83.3889 149.517 82.7178 149.958 82.1275 150.481C81.9014 150.681 81.8995 151.135 81.6669 151.893C86.8388 149.801 91.7246 148.625 96.9111 149.704C97.5579 147.744 97.0509 146.115 96.0321 144.411ZM33.9881 162.484C29.7132 162.254 25.5311 162.057 21.5764 164.317C21.969 165.205 21.9004 166.296 22.905 166.659C25.502 167.597 28.1573 168.162 30.387 167.626C31.7575 165.669 32.8188 164.153 33.9881 162.484ZM95.8655 119.632C93.6423 125.797 90.6033 131.134 86.2664 135.625C87.1064 136.688 87.6666 136.278 88.2684 135.575C91.3733 131.952 94.4255 128.267 98.8254 125.972C98.2618 123.694 97.6409 121.576 95.8655 119.632ZM59.6786 132.065C58.396 127.277 58.396 127.277 58.9353 122.101C57.2938 122.119 55.6791 122.136 53.9687 122.154C53.1152 126.631 55.1605 130.043 56.9173 133.74C57.9606 133.107 58.7789 132.611 59.6786 132.065ZM98.7393 126.966C94.3828 129.428 91.3018 133.151 88.1646 136.885C88.5151 137.303 88.6853 137.555 88.9052 137.753C89.1187 137.946 89.3825 138.082 89.6678 138.272C93.3067 135.067 97.1472 132.31 101.513 130.381C100.617 129.277 99.7535 128.214 98.7393 126.966ZM74.3031 144.807C75.1385 143.519 75.3244 142.402 75.0559 141.134C74.3221 137.669 72.849 134.553 70.763 131.716C70.3816 131.197 69.8706 130.773 69.3895 130.274C68.0974 131.11 66.9527 131.852 65.5666 132.75C69.8657 135.795 72.0819 140.144 74.3031 144.807ZM58.3568 186.94C57.4969 186.838 56.6609 186.689 55.8212 186.666C55.5115 186.658 55.0732 186.865 54.8989 187.116C53.2779 189.449 51.804 191.937 51.8949 194.847C52.0169 198.759 52.3402 198.933 56.225 198.891C56.3317 198.89 56.4377 198.802 56.7553 198.66C55.4397 194.496 55.6143 190.431 58.3568 186.94ZM54.8633 155.821C54.9963 155.889 55.1289 155.958 55.2615 156.026C58.5107 153.996 61.9911 154.17 65.5826 155.041C65.5646 154.082 65.4814 153.297 65.5556 152.529C65.6281 151.783 65.3286 151.388 64.6906 151.118C61.9185 149.947 59.0506 149.671 56.0373 150.084C55.6374 152.043 55.2504 153.932 54.8633 155.821ZM34.5778 175.283C36.0012 174.384 37.2385 173.305 38.6772 172.777C40.159 172.232 41.8375 172.224 43.4933 171.972C43.1774 170.86 42.8658 169.762 42.5408 168.62C41.2103 168.506 39.9986 168.339 38.7832 168.315C36.8292 168.276 35.0336 168.86 33.4964 170.072C33.1148 170.372 32.6451 170.994 32.7206 171.365C33.0203 172.839 33.4576 174.306 34.5778 175.283ZM47.5243 180.496C44.2825 181.082 41.5303 182.13 39.3984 184.438C38.9913 184.88 38.4608 185.275 38.7394 186.007C39.3889 187.717 40.2206 189.311 41.7278 190.785C43.0598 187.073 45.0213 184.072 48.9404 182.655C48.4044 181.838 47.9843 181.197 47.5243 180.496ZM70.0415 129.722C73.0497 133.099 74.7524 136.967 76.0555 141.087C77.9091 139.621 78.3127 137.855 77.7117 135.886C77.1419 134.02 76.5212 132.15 75.7069 130.381C74.808 128.429 73.8584 128.13 71.8385 128.835C71.2809 129.03 70.7705 129.357 70.0415 129.722ZM45.8811 194.737C46.6102 192.775 47.0499 190.904 47.9704 189.311C48.8777 187.741 50.2733 186.452 51.4597 185.033C49.7313 183.287 49.5885 183.299 47.4605 184.462C45.0045 185.804 43.6608 187.981 42.6782 190.481C42.3301 191.367 42.5656 191.998 43.2694 192.561C44.1233 193.245 44.9517 193.96 45.8811 194.737ZM105.957 134.02C105.274 133.147 104.897 132.6 104.455 132.113C103.268 130.805 103.012 130.65 101.474 131.447C99.0965 132.678 96.7729 134.028 94.5129 135.465C93.095 136.366 91.8362 137.518 90.4536 138.599C92.3476 140.04 92.7183 140.057 94.3257 138.931C97.7374 136.539 101.194 134.247 105.957 134.02ZM52.8614 122.51C52.2347 122.686 51.6927 122.781 51.1978 122.988C47.9605 124.341 47.7915 124.503 49.218 127.856C50.3336 130.478 52.188 132.631 54.2524 134.584C54.544 134.86 54.9139 135.054 55.1936 135.248C56.4576 134.669 56.1368 133.975 55.6836 133.11C53.971 129.837 52.5263 126.474 52.8614 122.51ZM58.1521 107.904C58.5077 110.144 59.0326 112.23 59.1189 114.335C59.2078 116.499 58.8692 118.681 58.7117 120.942C59.5622 121.105 60.3256 121.251 61.1078 121.4C62.814 117.594 63.3674 113.816 62.2745 109.923C60.8497 109.225 59.5025 108.565 58.1521 107.904ZM66.0097 190.04C64.9829 189.586 64.0688 189.182 63.1761 188.787C61.4633 191.439 60.8179 194.108 61.4484 197.006C61.5846 197.634 61.8281 198.452 62.2976 198.754C63.5535 199.559 64.8953 200.313 66.6853 200.391C64.9272 196.969 64.1365 193.619 66.0097 190.04ZM60.1667 186.505C56.8245 190.256 56.0534 194.201 57.8238 198.742C58.7717 198.629 59.7219 198.515 60.8795 198.376C59.6908 194.716 60.2376 191.327 62.3661 188.144C61.5186 187.513 60.8576 187.021 60.1667 186.505ZM67.1832 190.366C65.116 192.557 65.5633 197.489 67.5958 200.134C67.7926 200.39 68.1842 200.627 68.497 200.642C69.7631 200.706 71.0205 200.616 72.3656 199.931C69.904 197.288 68.7319 194.329 69.1937 190.758C68.4721 190.617 67.8325 190.492 67.1832 190.366ZM47.5508 110.467C50.9185 114.306 50.9185 114.306 53.0592 121.065C53.7264 120.966 54.418 120.864 55.2931 120.734C54.4091 116.195 53.6594 111.835 50.4997 108.06C49.4827 108.89 48.5716 109.634 47.5508 110.467ZM36.9592 160.173C39.2827 159.82 41.2525 159.521 43.1342 159.235C44.3906 158.314 45.6363 157.402 47.1155 156.318C43.1713 154.95 39.5011 154.692 35.5633 156.477C36.0678 157.811 36.5289 159.031 36.9592 160.173ZM51.0336 197.986C51.1381 197.881 51.243 197.776 51.3474 197.672C50.9059 195.728 50.6951 193.768 51.4175 191.876C52.1296 190.012 52.9747 188.198 53.7795 186.321C53.3554 185.798 52.8926 186.012 52.3604 186.274C49.4699 187.697 47.0021 191.835 47.224 195.029C47.2503 195.403 47.4698 195.903 47.7624 196.095C48.8153 196.783 49.9377 197.364 51.0336 197.986ZM38.3743 184.315C40.8061 181.571 43.59 180.05 46.9844 179.516C46.8064 178.408 46.6453 177.407 46.49 176.439C43.5156 176.154 40.2835 177.188 38.4359 178.986C38.2285 179.188 37.9574 179.483 37.9682 179.723C38.0324 181.148 37.7123 182.615 38.3743 184.315ZM79.0448 161.655C80.5406 164.26 81.8675 166.664 84.866 167.552C85.5139 166.842 86.4986 166.474 86.6505 165.354C84.6052 164.142 82.3456 163.262 81.5997 160.74C83.2809 162.07 84.6511 163.846 86.9497 164.304C87.013 164.009 87.1018 163.826 87.0796 163.659C86.8125 161.659 84.368 159.437 82.3788 159.391C82.1531 159.385 81.8802 159.447 81.705 159.578C80.8356 160.228 79.9918 160.91 79.0448 161.655ZM88.2202 139.409C87.9656 139.102 87.7263 138.755 87.4309 138.466C85.7467 136.817 84.8707 136.817 83.3677 138.58C81.4066 140.879 79.962 143.495 78.8479 146.297C78.5872 146.954 78.3498 147.62 78.1309 148.204C79.1144 149.114 79.5213 148.637 79.9684 147.895C81.9806 144.56 84.3535 141.564 87.9343 139.757C88.0318 139.707 88.0876 139.575 88.2202 139.409ZM46.9833 123.686C45.1838 122.054 43.5392 120.503 41.8176 119.043C41.3992 118.688 40.6538 118.359 40.1866 118.487C38.6722 118.903 37.2842 119.624 36.4398 121.128C40.2249 122.419 40.3486 122.246 45.0893 126.44C45.6759 125.587 46.254 124.746 46.9833 123.686ZM42.3094 165.295C40.405 164.45 38.8742 163.72 37.299 163.104C36.8571 162.931 36.166 162.902 35.793 163.134C34.0839 164.197 32.7114 165.579 32.3874 167.693C32.3034 168.24 32.3368 168.805 32.3204 169.252C34.0863 168.537 35.6127 167.662 37.2493 167.33C38.8798 167 40.6204 167.216 42.4243 167.191C42.38 166.464 42.3362 165.742 42.3094 165.295ZM70.3347 190.824C69.7536 193.849 70.4793 196.699 72.2681 198.691C72.7332 199.209 73.2415 199.728 73.994 199.288C74.9189 198.746 75.9504 198.307 76.5761 197.255C74.8145 195.312 73.5453 193.196 73.2948 190.558C72.2461 190.652 71.3402 190.734 70.3347 190.824ZM66.2736 156.108C62.6917 155.063 59.364 155.063 56.0871 156.467C54.8984 156.977 54.6596 157.413 55.2133 158.572C55.6128 159.409 56.2777 160.12 56.9587 161.077C59.6811 158.74 62.6287 157.595 66.0015 157.691C66.1007 157.115 66.1697 156.712 66.2736 156.108ZM83.8141 167.972C81.0621 166.78 79.6774 164.722 78.5703 162.338C77.7221 162.858 77.0116 163.294 76.341 163.705C76.7639 167.299 79.7199 171.861 82.0575 172.574C82.611 171.117 82.1629 169.336 83.8141 167.972ZM64.4229 179.221C62.4378 180.286 60.7349 181.408 58.8782 182.137C57.0669 182.849 55.0974 183.159 53.1382 183.661C54.6864 184.722 56.3184 184.994 58.0917 184.855C59.1655 184.77 60.2574 184.93 61.3415 184.941C61.6817 184.944 62.0688 184.9 62.3577 184.739C64.0551 183.792 65.2872 182.416 66.1326 180.529C65.515 180.056 64.9436 179.619 64.4229 179.221ZM27.1051 138.985C26.7819 139.867 26.6364 140.46 26.3579 140.982C25.8637 141.911 26.1041 142.596 26.874 143.219C28.3962 144.449 29.8589 145.758 31.431 146.92C32.2314 147.512 33.0896 148.158 34.1923 148.183C34.733 147.147 35.2375 146.182 35.7911 145.124C32.1938 144.223 29.6186 141.908 27.1051 138.985ZM66.2816 119.484C69.2374 118.495 70.1558 116.363 70.2368 113.684C70.2547 113.076 70.3595 112.471 70.3899 111.863C70.4657 110.374 70.1669 108.98 69.251 107.59C68.3022 107.977 67.3738 108.357 66.2968 108.796C67.4667 112.401 67.331 115.889 66.2816 119.484ZM71.1656 181.579C69.6045 181.378 68.236 181.202 67.1749 181.066C65.5914 182.779 64.1992 184.287 62.7001 185.91C63.3809 186.374 63.9954 186.87 64.6774 187.243C66.6206 188.305 67.5853 188.105 68.9085 186.344C69.9443 184.964 70.7228 183.445 71.1656 181.579ZM34.8155 125.356C36.195 125.808 37.4541 126.08 38.5808 126.627C39.7737 127.205 40.8318 128.057 41.9644 128.764C42.5963 129.159 44.0632 128.878 44.4524 128.29C44.9786 127.494 44.3434 127.002 43.8576 126.606C42.2628 125.304 40.6649 123.991 38.9648 122.835C38.0278 122.198 36.8818 121.876 35.5548 122.204C35.3046 123.27 35.0598 124.312 34.8155 125.356ZM63.0377 109.951C64.4356 114.018 63.4399 117.843 61.9572 121.57C62.4496 121.904 62.7389 122.125 63.052 122.305C63.3592 122.481 63.6906 122.615 64.2102 122.862C66.2405 118.407 66.8807 113.98 65.4043 109.198C64.6014 109.454 63.9238 109.669 63.0377 109.951ZM52.2612 121.228C51.3445 117.402 50.251 113.844 46.8604 111.213C46.0431 112.483 45.2775 113.673 44.4073 115.025C47.4335 116.48 49.1494 118.865 50.3671 121.79C51.0259 121.595 51.5835 121.429 52.2612 121.228ZM101.377 161.019C104.903 162.055 109.317 161.946 110.929 160.832C110.751 158.911 110.464 158.138 109.395 156.789C106.788 158.076 103.989 158.78 100.976 158.723C101.134 159.626 101.248 160.282 101.377 161.019ZM98.4851 154.327C99.0246 155.251 99.4827 155.902 99.8004 156.615C100.173 157.452 100.733 157.754 101.643 157.78C103.881 157.844 106.013 157.451 108.056 156.562C108.414 156.406 108.716 156.124 109.169 155.815C108.462 154.944 107.859 154.189 107.243 153.444C106.71 152.801 106.151 152.644 105.336 153.092C103.317 154.201 101.149 154.735 98.4851 154.327ZM87.8042 166.213C88.8873 168.574 89.8608 170.696 90.9381 173.046C91.9021 172.276 92.857 171.627 93.6507 170.819C93.9449 170.519 94.0987 169.721 93.9107 169.365C92.51 166.719 90.6406 164.455 88.1706 162.631C88.025 164.058 87.8965 165.312 87.8042 166.213ZM75.8821 118.401C76.391 121.665 76.8766 124.774 77.386 128.039C77.9445 128.349 78.6688 128.749 79.4145 129.163C80.4577 125.859 79.6544 119.061 78.0229 117.219C77.2505 117.646 76.4627 118.08 75.8821 118.401ZM76.2836 127.445C76.0963 125.582 75.9702 123.943 75.7515 122.315C75.6296 121.412 75.368 120.525 75.14 119.637C74.9318 118.825 74.4234 118.358 73.5427 118.467C72.4136 118.607 71.289 118.78 69.8682 118.979C71.6205 121.609 73.049 124.021 73.3742 126.893C74.3209 127.073 75.154 127.231 76.2836 127.445ZM22.9255 171.62C25.7674 172.292 28.3762 173.087 31.1371 172.142C30.9856 170.868 30.8495 169.727 30.6952 168.432C27.9956 169.014 25.3972 168.429 22.5749 167.618C22.702 169.071 22.8056 170.252 22.9255 171.62ZM70.4916 117.189C71.533 116.993 72.653 117.377 73.0907 116.373C74.3728 113.432 75.183 110.399 74.0648 107.109C72.7802 106.827 71.5561 106.857 70.1982 107.362C72.0321 110.589 71.0025 113.83 70.4916 117.189ZM87.1868 180.43C86.4044 181.505 85.2588 181.92 85.5739 183.33C86.2923 186.552 86.7943 189.794 85.5336 193.023C88.4201 193.417 89.0018 192.983 89.0944 190.349C89.2119 186.998 88.2431 183.862 87.1868 180.43ZM68.1382 188.167C68.1557 188.321 68.1726 188.475 68.1901 188.629C69.4419 188.67 70.6951 188.759 71.9446 188.724C72.3062 188.714 72.7803 188.435 72.9946 188.133C74.4991 186.012 75.3113 183.651 75.4343 180.885C74.8468 180.95 74.4431 181.028 74.0383 181.034C72.6525 181.054 71.9126 181.664 71.487 183.068C70.8886 185.047 69.8788 186.87 68.1382 188.167ZM84.4987 193.189C85.8349 189.703 85.3809 186.505 84.6181 183.094C83.6908 183.49 82.9331 183.813 82.1216 184.159C82.3036 186.918 82.4687 189.597 80.9378 192.181C82.2334 192.548 83.2682 192.841 84.4987 193.189ZM67.6394 151.425C68.2426 151.709 68.8431 151.985 69.4384 152.273C70.0857 152.585 70.7286 152.908 71.3247 153.203C72.0847 152.702 72.7377 152.271 73.4609 151.794C73.1189 150.979 72.7875 150.191 72.4565 149.401C72.606 149.321 72.7565 149.241 72.906 149.161C73.3996 149.828 73.9774 150.449 74.3675 151.172C74.8994 152.16 75.5838 152.81 76.9111 152.896C77.3513 152.03 77.8038 151.14 78.2521 150.258C73.7046 147.748 69.3817 148.238 67.6394 151.425ZM111.094 161.984C107.753 162.75 104.602 162.785 101.333 162.07C101.217 162.787 101.114 163.429 100.982 164.247C103.018 164.808 104.939 165.407 106.894 165.861C109.949 166.57 110.638 166.047 111.099 162.885C111.134 162.65 111.099 162.404 111.094 161.984ZM31.5574 173.229C30.0466 173.297 28.7069 173.487 27.3905 173.383C26.0525 173.275 24.7378 172.879 23.2837 172.582C23.6891 174.486 24.597 175.812 25.9216 176.856C26.2883 177.146 26.7762 177.473 27.2012 177.464C29.1696 177.42 30.9615 176.814 32.5965 175.584C32.1911 174.665 31.8551 173.903 31.5574 173.229ZM99.6728 166.982C99.3215 167.262 99.0217 167.466 98.7684 167.715C98.5619 167.919 98.4114 168.18 98.1295 168.558C101.981 170.663 104.748 173.796 107.354 177.227C107.505 176.236 107.444 175.282 107.492 174.334C107.547 173.268 107.097 172.528 106.363 171.784C104.449 169.843 102.152 168.475 99.6728 166.982ZM45.6378 175.44C44.9985 173.755 44.0358 172.886 42.3076 173.1C41.826 173.16 41.3301 173.096 40.8423 173.115C38.4652 173.205 36.7222 174.36 35.3641 176.32C36.0794 177.062 36.7379 177.745 37.459 178.493C39.9162 176.707 42.4102 175.19 45.6378 175.44ZM61.9144 164.527C62.8492 162.808 64.3032 161.595 66.1082 160.851C65.8888 160.021 65.7046 159.325 65.4801 158.475C62.5902 158.675 60.0738 159.598 57.9754 161.606C59.2081 163.356 60.1758 164.073 61.9144 164.527ZM60.1884 122.322C58.9457 125.696 59.4685 128.677 60.6394 131.724C61.5513 131.543 62.2486 131.404 63.0595 131.243C62.2736 128.645 62.7565 126.214 63.6415 123.619C62.4381 123.168 61.3991 122.777 60.1884 122.322ZM77.5439 147.915C78.703 144.152 80.4636 140.621 83.2835 137.368C79.8036 138.051 76.0329 142.304 75.5429 145.732C75.3054 147.387 75.4597 147.575 77.5439 147.915ZM100.598 165.144C100.447 165.491 100.27 165.901 100.119 166.25C102.632 168.023 105.018 169.706 107.479 171.442C108.023 170.089 108.603 168.647 109.152 167.28C106.318 166.572 103.598 165.893 100.598 165.144ZM44.0385 115.958C43.3678 116.605 42.6958 117.253 42.0901 117.837C43.9835 119.663 45.8074 121.422 47.6664 123.214C47.855 123.139 48.0943 123.076 48.2984 122.954C48.7595 122.678 49.2028 122.374 49.6421 122.088C48.1416 118.659 46.3444 116.701 44.0385 115.958ZM79.2878 178.977C78.4201 179.409 77.6324 179.737 76.9198 180.185C76.6059 180.382 76.2721 180.807 76.2419 181.154C76.0216 183.635 75.1719 185.903 73.9374 188.149C78.0987 186.56 80.7083 183.745 79.2878 178.977ZM75.3746 107.504C75.3091 109.232 75.3911 110.765 75.1554 112.248C74.9139 113.768 74.3629 115.238 73.9074 116.874C75.6572 116.814 76.7938 116.235 77.4337 114.754C78.0793 113.261 78.3492 111.721 78.3046 110.102C78.2861 109.426 78.0791 108.899 77.4854 108.577C76.8152 108.212 76.1245 107.883 75.3746 107.504ZM107.595 140.147C103.758 140.215 100.287 141.063 96.7776 142.486C97.1599 143.134 97.4302 143.593 97.6987 144.047C98.9123 143.786 100.034 143.446 101.177 143.328C102.384 143.203 103.612 143.297 104.831 143.279C105.065 143.276 105.382 143.282 105.518 143.144C106.309 142.34 107.291 141.656 107.595 140.147ZM69.2309 119.585C68.0208 120.257 67.0328 120.804 66.7287 121.875C68.088 123.866 69.3421 125.703 70.6289 127.587C71.2768 127.385 71.9057 127.188 72.6539 126.955C72.0864 124.233 70.9971 121.857 69.2309 119.585ZM76.1485 129.157C77.1421 132.139 78.0861 134.972 79.0313 137.81C79.8824 137.208 80.7595 136.587 81.6143 135.984C81.2047 132.441 79.1543 130.447 76.1485 129.157ZM65.8845 122.583C65.3173 123.758 64.8076 124.653 64.4638 125.607C64.3311 125.975 64.4287 126.601 64.6757 126.899C65.478 127.866 66.3979 128.735 67.3113 129.683C68.1013 129.125 68.8233 128.616 69.5728 128.087C68.6749 126.058 67.7371 124.248 65.8845 122.583ZM56.0227 162.102C55.1786 160.984 54.5471 159.729 53.5501 158.927C52.1489 157.8 50.4771 157.008 48.892 156.057C48.4161 156.759 47.9536 157.441 47.4985 158.113C50.3028 160.319 53.5782 161.857 56.0227 162.102ZM98.5948 146.604C100.461 147.042 101.989 147.402 103.78 147.822C104.178 146.76 104.608 145.61 105.049 144.435C102.838 143.852 100.635 144.079 98.2607 145.079C98.3808 145.627 98.5069 146.202 98.5948 146.604ZM77.4896 196.733C78.1682 195.498 78.699 194.531 79.1845 193.649C77.9965 192.551 76.9725 191.619 75.9681 190.667C75.6268 190.343 75.33 189.723 74.8163 190.133C74.5303 190.361 74.4052 190.994 74.4601 191.411C74.7204 193.408 75.6834 195.043 77.4896 196.733ZM68.7351 162.796C68.15 162.431 67.6558 161.921 66.7987 162.146C63.9018 162.906 62.6895 165.695 64.0861 168.316C65.5755 166.547 67.0836 164.757 68.7351 162.796ZM81.2687 184.789C79.7228 186.28 78.3838 187.571 77.0878 188.821C77.8954 190.554 78.0831 190.727 79.9598 191.472C81.3893 189.484 81.3765 187.253 81.2687 184.789ZM90.0437 173.405C89.2703 171.055 88.5991 169.022 87.0638 167.255C86.5658 167.736 86.1904 168.097 85.926 168.352C86.48 170.2 86.9994 171.93 87.5708 173.835C88.2502 173.716 88.9984 173.586 90.0437 173.405ZM81.6134 176.306C81.0639 177.294 80.3905 177.991 80.3202 178.744C80.1996 180.038 80.4555 181.367 80.5585 182.754C81.165 182.526 81.6691 182.317 82.1872 182.146C83.1462 181.83 83.5409 181.214 83.3833 180.194C83.1769 178.857 82.8235 177.603 81.6134 176.306ZM32.9938 176.416C32.2195 176.794 31.5721 177.121 30.9145 177.425C30.2913 177.714 29.6565 177.978 28.9233 178.298C31.1796 179.689 34.3775 180.226 35.9733 179.506C34.9944 178.491 34.0386 177.5 32.9938 176.416ZM34.7221 128.137C36.6103 129.015 38.1414 129.725 39.8887 130.536C40.1814 130.294 40.6721 129.888 41.2622 129.4C39.338 127.722 37.3964 126.596 34.8067 126.397C34.7713 127.13 34.7426 127.719 34.7221 128.137ZM83.1468 174.343C82.6236 174.947 82.086 175.453 82.5971 176.172C83.5503 177.515 84.053 179.021 84.2425 180.814C86.1699 179.205 85.6498 177.161 85.9099 175.251C84.9843 174.947 84.1318 174.667 83.1468 174.343ZM81.4637 154.542C80.5768 155.196 79.9097 155.618 79.3355 156.141C79.0162 156.432 78.6895 156.875 78.6462 157.28C78.4858 158.767 77.7776 159.911 76.7103 160.895C76.3414 161.236 76.0179 161.625 75.6737 161.992C76.093 162.074 76.3781 161.995 76.5872 161.823C77.8518 160.784 79.1336 159.76 80.3423 158.658C81.4598 157.638 81.7579 156.317 81.4637 154.542ZM97.8118 153.296C100.649 153.769 103.165 153.651 105.509 152.039C104.096 150.707 103.952 150.592 103.1 151.075C101.495 151.984 99.792 152.273 97.8942 152.052C97.8657 152.482 97.8429 152.822 97.8118 153.296ZM53.2165 157.931C54.2446 155.255 52.658 154.129 51.0514 152.919C50.7602 153.151 50.4994 153.308 50.3051 153.523C49.291 154.648 49.2954 155.06 50.5026 156.039C51.335 156.715 52.2624 157.273 53.2165 157.931ZM78.6311 155.407C79.5707 154.714 80.6951 154.456 81.1912 153.369C80.6277 152.373 80.2276 151.337 79.1244 150.887C77.3963 153.269 77.3527 153.594 78.6311 155.407ZM42.9286 160.298C41.1467 160.282 39.5555 160.192 37.9097 161.082C39.2031 162.399 40.5854 162.949 42.3356 163.017C42.5308 162.121 42.7164 161.27 42.9286 160.298ZM84.7099 168.952C83.348 170.161 83.7311 171.546 83.5791 172.851C84.5508 173.32 85.4462 173.743 86.6178 173.594C86.2164 171.903 85.8136 170.409 84.7099 168.952ZM75.3648 154.077C73.247 153.087 72.2978 153.6 71.6754 155.941C72.2575 156.294 72.8669 156.665 73.6792 157.159C74.2713 156.077 74.7869 155.134 75.3648 154.077ZM67.4798 160.168C68.3179 159.748 69.0107 159.4 69.7541 159.029C69.6979 158.152 69.6446 157.317 69.5818 156.344C68.9799 156.217 68.4353 156.101 67.6969 155.944C67.9267 157.466 66.5128 158.577 67.4798 160.168ZM79.4648 110.224C79.3231 111.167 79.2471 111.882 79.1014 112.581C78.9548 113.285 78.7386 113.975 78.522 114.785C81.579 113.614 81.8189 112.485 79.4648 110.224ZM102.53 148.87C101.379 148.008 100.188 147.887 98.805 148.068C98.7107 148.827 98.6261 149.508 98.5291 150.289C100.102 150.202 101.488 150.192 102.53 148.87ZM67.2698 154.932C68.4052 155.075 69.1755 155.173 69.915 155.266C70.4913 154.681 70.5288 154.131 69.8747 153.715C69.0815 153.21 68.232 152.793 67.0174 152.123C67.1253 153.322 67.1948 154.099 67.2698 154.932ZM64.392 127.704C64.2429 127.764 64.0942 127.824 63.945 127.884C63.7319 128.933 63.7028 129.976 64.2428 131.207C64.9752 130.907 65.647 130.631 66.5948 130.243C65.7162 129.229 65.0541 128.467 64.392 127.704ZM71.8487 162.21C71.1434 161.398 70.6484 160.827 70.1174 160.217C69.4331 160.4 68.818 160.564 67.9082 160.808C69.1564 161.757 70.2115 162.274 71.8487 162.21ZM51.9393 152.136C52.6085 152.83 53.031 153.268 53.6754 153.936C53.8646 152.989 53.9937 152.34 54.1774 151.416C53.3278 151.689 52.7866 151.863 51.9393 152.136Z" fill="#129512"/>
<path d="M213.201 34.3974C213.178 34.5515 213.183 34.7433 213.12 34.9096C210.756 41.1224 206.964 45.9284 200.198 47.6169C198.557 48.0262 196.803 48.1226 195.103 48.1146C192.571 48.1026 189.756 47.2136 187.463 44.4184C189.604 39.0881 192.99 34.9741 198.873 33.515C203.509 32.3657 208.128 32.8116 212.693 34.0438C212.853 34.0876 212.984 34.2431 213.201 34.3974ZM196.393 40.9819C199.548 40.5676 202.849 37.4071 203.59 34.2551C201.108 34.0408 200.292 34.243 199.276 35.8182C198.231 37.4394 197.383 39.1883 196.393 40.9819ZM192.879 43.8443C193.653 44.0823 194.046 44.2573 194.455 44.319C196.208 44.5835 197.931 44.8977 199.473 45.8711C199.797 46.0752 200.318 46.1486 200.691 46.0552C202.035 45.7187 203.353 45.2824 204.598 44.2166C203.999 44.0825 203.602 43.9709 203.198 43.9065C201.276 43.6021 199.337 43.3847 197.433 42.9919C195.915 42.6792 194.57 42.9577 192.879 43.8443ZM192.433 42.3013C192.508 42.3974 192.584 42.4926 192.659 42.5886C193.471 42.2094 194.601 42.0478 195.035 41.4111C196.376 39.45 197.451 37.3074 198.629 35.2353C197.123 35.5013 195.759 35.722 195.072 37.0917C194.2 38.8324 193.313 40.5654 192.433 42.3013ZM198.323 41.7192C198.319 41.8925 198.316 42.0658 198.312 42.2391C199.004 42.4305 199.684 42.6976 200.387 42.7978C201.78 42.9951 203.208 42.988 204.579 43.2741C205.969 43.5642 206.7 42.955 207.436 41.8358C205.45 41.5758 203.648 41.337 201.846 41.106C201.543 41.0669 201.22 40.9934 200.932 41.0558C200.056 41.2454 199.192 41.4936 198.323 41.7192ZM189.683 44.7471C191.716 46.7476 195.223 47.4409 198.149 46.3772C197.276 46.0905 196.606 45.8571 195.927 45.6507C194.756 45.2947 193.525 45.0778 192.425 44.5717C191.462 44.1284 190.679 44.2438 189.683 44.7471ZM201.964 38.9902C204.825 38.6772 206.014 36.4291 207.596 34.5248C205.556 33.7667 205.065 33.9169 204.162 35.4183C203.453 36.5968 202.722 37.7616 201.964 38.9902ZM202.812 40.1446C204.163 40.9596 205.542 40.6022 206.827 40.8219C208.276 41.0699 209.141 40.6249 209.592 39.1479C207.313 39.0871 205.005 38.4469 202.812 40.1446ZM189.547 43.5225C190.155 43.2185 190.681 43.121 190.924 42.8063C192.093 41.2899 193.193 39.718 193.839 37.6468C192.265 38.9034 190.49 41.3293 189.547 43.5225ZM206.807 38.2424C210.627 38.6926 210.935 38.3102 211.593 35.5798C210.06 36.4324 208.594 37.2481 206.807 38.2424ZM211.044 34.8391C208.31 33.4458 207.902 35.72 206.945 37.053C208.249 36.3484 209.553 35.6443 211.044 34.8391Z" fill="#129512"/>
<path d="M175.165 0.234726C176.039 1.30132 176.846 2.21724 177.575 3.19108C179.024 5.12523 179.709 7.29701 179.521 9.73385C179.295 12.6652 178.352 15.3647 176.882 17.8807C175.165 20.8195 172.917 23.3204 170.291 25.4729C169.063 26.4787 168.537 26.3169 168.149 24.7566C167.617 22.6179 167.157 20.459 166.74 18.2949C165.827 13.5513 167.075 9.33585 169.9 5.49167C171.361 3.50287 172.993 1.71766 175.165 0.234726ZM173.932 5.53469C172.856 9.42082 173.876 12.1767 177.26 14.6279C177.554 13.6355 177.81 12.709 178.106 11.7948C178.4 10.8846 178.203 10.1085 177.561 9.4223C176.4 8.18034 175.241 6.93705 173.932 5.53469ZM172.797 11.059C172.529 11.897 172.354 12.6631 172.628 13.544C173.009 14.7639 173.254 16.0251 173.612 17.2533C173.8 17.9001 174.103 18.5135 174.509 19.5292C175.253 18.3049 175.749 17.4821 176.251 16.6622C176.703 15.9228 176.537 15.2788 175.986 14.6641C174.946 13.5053 173.922 12.332 172.797 11.059ZM171.505 10.6557C171.465 10.6503 171.384 10.6139 171.346 10.6399C170.591 11.1517 169.83 11.6552 169.092 12.1917C167.264 13.5209 166.998 14.5368 167.844 16.8205C170.083 15.3705 171.922 13.682 171.505 10.6557ZM175.269 2.30259C175.1 2.3156 174.931 2.32909 174.762 2.34211C174.681 3.07634 174.302 3.9532 174.573 4.51728C175.38 6.19559 176.624 7.58297 178.408 8.83717C178.288 5.97308 177.095 3.98242 175.269 2.30259ZM170.905 15.6113C167.176 17.9404 167.458 18.427 168.457 20.4794C170.796 19.6387 170.786 17.6502 170.905 15.6113ZM168.057 11.6128C170.816 10.5213 172.213 8.89319 172.18 6.70892C170.413 8.07093 168.017 8.77959 168.057 11.6128ZM172.199 15.353C171.32 18.8688 171.333 19.3303 172.383 21.9244C172.918 21.288 173.414 20.6966 173.797 20.2409C173.242 18.5438 172.756 17.0552 172.199 15.353ZM169.723 7.07115C172.091 6.01113 173.299 4.43019 173.146 2.62674C171.998 4.11636 170.978 5.44094 169.723 7.07115ZM169.432 23.7265C169.633 22.7599 169.835 21.7934 170.059 20.7104C168.294 21.5497 168.294 21.5497 169.432 23.7265ZM170.263 23.7398C171.762 22.8837 171.461 21.9968 170.98 21.0615C170.777 21.8216 170.573 22.5816 170.263 23.7398Z" fill="#129512"/>
<path d="M144.918 83.2633C145.391 83.7542 145.827 84.2202 146.278 84.6707C147.447 85.8406 148.669 86.9636 149.782 88.1845C150.52 88.9943 151.272 89.8637 151.735 90.8396C153.388 94.322 154.992 97.8316 156.449 101.399C156.841 102.358 156.793 103.574 156.683 104.645C156.402 107.387 155.954 110.112 155.607 112.849C155.239 115.76 154.29 118.432 152.604 120.856C151.501 122.442 150.078 123.521 148.226 124C146.447 124.46 144.658 124.901 142.855 125.256C140.98 125.624 139.978 125.12 139.089 123.413C138.696 122.658 138.402 121.839 138.158 121.021C136.396 115.117 135.345 109.097 135.161 102.925C135.025 98.3902 134.787 93.8575 134.587 89.3242C134.579 89.159 134.488 88.9973 134.447 88.8669C130.272 91.337 126.104 93.7386 122.006 96.2537C119.869 97.5653 117.882 99.1179 115.778 100.487C113.396 102.036 110.748 102.779 107.908 102.531C105.346 102.307 102.786 101.995 100.248 101.579C98.5215 101.295 98.0508 100.5 98.5427 98.8137C99.8763 94.2357 101.83 89.9802 105.176 86.466C106.722 84.8429 108.466 83.5426 110.521 82.6442C112.253 81.8867 113.968 81.0893 115.694 80.1496C113.812 79.8284 111.908 79.8802 110.013 79.8683C108.051 79.856 106.087 79.8547 104.127 79.9386C102.169 80.0225 100.207 80.1487 98.2615 80.3841C96.2545 80.6267 94.2593 80.9872 92.272 81.3635C90.3451 81.7285 88.4183 82.1178 86.5209 82.6089C84.6239 83.0995 82.75 83.6907 80.8898 84.3094C79.0305 84.928 77.1833 85.591 75.363 86.3175C73.5811 87.0286 71.8678 87.9166 69.8518 88.5798C69.9185 87.6223 70.4357 87.3953 70.8941 87.1485C72.7808 86.1321 74.6169 84.9939 76.5774 84.1458C86.3714 79.9089 96.5938 77.5746 107.293 77.5564C110.961 77.5501 114.63 77.7065 118.497 77.7925C118.111 77.4972 117.821 77.2643 117.521 77.0464C115.438 75.5352 113.389 73.9718 111.257 72.5333C109.177 71.1298 106.956 69.9334 104.894 68.5049C102.603 66.9164 100.803 64.8112 99.3002 62.471C98.0991 60.6007 98.3563 59.2544 100.274 58.1618C101.812 57.2863 103.462 56.6017 105.089 55.8929C106.83 55.1341 108.61 54.4648 110.359 53.7232C111.623 53.1875 112.912 53.0823 114.081 53.7928C118.946 56.7478 124.251 58.9609 128.773 62.4905C129.343 62.9349 129.883 63.417 130.657 63.7378C130.182 62.9116 129.714 62.0804 129.23 61.2601C128.141 59.4138 127.007 57.593 125.956 55.725C124.455 53.0555 123.711 50.1318 123.604 47.1061C123.552 45.6158 123.846 44.0508 124.304 42.6218C124.803 41.0596 125.643 39.6007 126.387 38.124C127.076 36.7571 128.181 35.9601 129.766 36.0046C131.604 36.0564 133.443 36.1179 135.279 36.2189C136.731 36.2992 137.848 36.9637 138.527 38.287C138.751 38.7228 139.036 39.135 139.202 39.5914C141.377 45.5819 143.772 51.5232 143.52 58.0825C143.516 58.1868 143.614 58.2957 143.773 58.6343C145.817 55.4376 147.833 52.3824 149.744 49.2619C151.091 47.0628 152.38 44.8547 154.329 43.0937C156.066 41.5228 158.023 40.4765 160.34 40.1471C162.282 39.8711 164.228 39.6169 166.179 39.4142C167.827 39.2428 168.695 39.8347 169.231 41.4166C169.407 41.9357 169.581 42.4852 169.596 43.0248C169.678 46.1443 169.912 49.2777 169.713 52.382C169.449 56.4866 167.304 59.5242 163.885 61.887C160.318 64.3516 156.993 67.1659 153.726 70.0847C155.133 69.8877 156.54 69.6931 157.946 69.4929C159.208 69.3131 160.227 68.7371 161.11 67.7912C162.11 66.7182 163.197 65.7163 164.314 64.7637C165.666 63.6097 167.256 63.0096 169.061 63.1188C171.815 63.2862 174.57 63.4329 177.319 63.6655C178.411 63.758 179.507 63.9802 180.563 64.2754C182.292 64.7584 183.581 65.7617 184.348 67.4834C184.812 68.526 185.581 69.4362 186.237 70.3898C186.514 70.7922 186.87 71.1398 187.158 71.5359C188.646 73.5825 188.648 75.0186 187.216 77.0792C185.314 79.8141 182.808 81.8905 179.841 83.29C177.699 84.3003 175.388 84.9862 173.102 85.644C171.52 86.0994 169.851 86.2525 168.223 86.5534C160.428 87.9943 152.968 87.0966 145.906 83.3806C145.692 83.2677 145.453 83.1994 145.221 83.1239C145.181 83.1104 145.118 83.1681 144.918 83.2633ZM136.929 60.5486C136.69 61.3958 136.979 62.1069 137.498 62.7596C137.928 64.3828 138.359 66.0055 138.79 67.6283C139.043 66.6553 139.081 65.6982 138.975 64.7578C138.613 61.532 138.218 58.3097 137.794 55.0911C137.667 54.1227 137.388 53.175 137.212 52.2117C136.906 50.5296 136.642 48.8396 136.332 47.1579C135.8 44.2707 135.254 41.3855 134.696 38.5033C134.577 37.8923 134.193 37.763 133.801 37.9362C134.368 41.8664 134.959 45.6652 135.449 49.4768C135.791 52.1431 135.994 54.8275 136.26 57.5034C136.062 56.8694 135.772 56.2489 135.682 55.5998C135.141 51.7234 134.694 47.8335 134.113 43.9636C133.86 42.2784 133.423 40.6123 132.956 38.9696C132.624 37.7989 132.495 37.8002 131.228 38.0236C131.573 39.8765 132.195 41.7266 132.209 43.5813C132.25 49.1744 134.369 54.1983 136.14 59.3304C136.408 59.7533 136.676 60.1752 136.943 60.598L136.929 60.5486ZM132.582 63.6156C132.45 63.0885 132.384 62.5328 132.173 62.0397C130.992 59.2882 129.879 56.5003 128.543 53.8252C127.06 50.8549 126.259 47.7806 126.359 44.4662C126.372 44.0076 126.334 43.548 126.32 43.0893C125.383 44.2903 125.187 45.6281 125.313 47.0346C125.565 49.8643 126.165 52.6098 127.583 55.0975C129.217 57.9634 130.937 60.7798 132.622 63.6177C133.534 66.5541 134.263 69.5714 136.296 72.0137C135.228 69.1379 134.588 66.073 132.582 63.6156ZM143.798 122.901C143.48 121.998 143.036 121.118 142.865 120.188C141.921 115.076 141.185 109.93 139.841 104.89C139.327 102.964 139.231 100.897 139.159 98.888C138.981 93.8778 138.928 88.8634 138.82 83.8508C138.816 83.6898 138.766 83.5298 138.71 83.2174C138.563 83.5026 138.444 83.6412 138.418 83.7952C137.697 88.1421 137.047 92.4737 137.414 96.9291C138.086 105.066 139.505 113.061 141.532 120.957C141.728 121.722 141.998 122.481 142.342 123.189C142.462 123.434 142.95 123.686 143.2 123.629C143.445 123.573 143.599 123.127 143.793 122.852C144.632 123.837 145.426 123.074 146.224 122.925C146.619 116.348 142.095 94.0489 139.523 89.8348C139.677 93.6187 139.786 97.3447 140.001 101.065C140.082 102.462 140.266 103.886 140.646 105.229C142.018 110.077 142.621 115.063 143.45 120.01C143.611 120.964 143.685 121.936 143.798 122.901ZM147.174 122.612C149.827 121.646 150.52 120.82 150.393 118.401C150.152 113.817 149.929 109.223 148.955 104.718C148.189 101.173 147.066 97.7297 145.256 94.5792C143.624 91.739 141.796 89.0121 140.054 86.2349C140.209 87.7831 140.55 89.3127 140.957 90.8242C141.274 92.0044 141.737 93.1467 142.027 94.3328C142.923 98.0194 143.854 101.701 144.608 105.418C145.36 109.133 145.958 112.883 146.54 116.629C146.84 118.557 146.958 120.514 147.174 122.612ZM146.269 78.5687C146.874 78.6289 147.454 78.6961 148.035 78.7443C153.181 79.17 158.165 78.1148 163.121 76.975C165.377 76.456 167.605 75.7346 169.764 74.8956C171.448 74.2411 173.091 73.7708 174.92 73.8395C178.147 73.9603 181.005 72.6323 183.85 71.3336C184.162 71.1912 184.398 70.8847 184.645 70.6749C183.794 68.4413 183.475 68.1986 181.451 68.5743C180.688 68.7158 179.975 69.119 179.233 69.3855C178.147 69.7745 177.068 70.1917 175.963 70.5174C174.208 71.0349 172.427 71.4642 170.67 71.9729C168.438 72.6193 166.26 73.6313 163.987 73.9164C157.925 74.6779 152.321 77.1739 146.362 78.2683C146.336 78.2725 146.328 78.3707 146.269 78.5687ZM182.879 67.6595C182.949 67.5063 183.019 67.353 183.088 67.2002C182.602 66.9357 182.144 66.5559 181.624 66.4269C179.46 65.8904 177.287 65.8053 175.068 66.2469C173.154 66.6282 171.204 66.863 169.259 67.0364C167.676 67.1773 166.265 67.6013 165.081 68.6944C163.28 70.3579 161.149 71.4755 158.768 71.9012C155.382 72.5068 152.332 73.6933 149.63 75.8761C148.769 76.5722 147.541 76.8142 146.481 77.2639C146.521 77.3852 146.562 77.5064 146.602 77.6271C148.715 77.0499 150.875 76.6036 152.928 75.863C155.886 74.7957 158.9 74.0386 162.001 73.5892C164.867 73.1737 167.598 72.3102 170.31 71.307C172.134 70.6321 174.067 70.2548 175.947 69.7294C176.709 69.5161 177.557 69.4111 178.198 68.997C179.637 68.0677 181.162 67.5905 182.879 67.6595ZM141.164 85.638C141.056 85.6861 140.947 85.7352 140.838 85.7838C141.622 87.149 142.281 88.6062 143.212 89.8619C145.916 93.5055 147.883 97.4843 148.964 101.882C149.462 103.902 149.917 105.947 150.174 108.007C150.663 111.921 150.996 115.855 151.4 119.831C152.539 118.38 153.209 116.748 153.385 114.96C153.662 112.152 153.878 109.317 153.197 106.543C152.408 103.333 151.572 100.129 150.583 96.977C149.557 93.7065 147.841 90.8387 145.021 88.732C143.702 87.7465 142.448 86.672 141.164 85.638ZM134.539 80.3334C134.113 80.545 133.674 80.7366 133.261 80.9709C129.803 82.9312 126.341 84.885 122.897 86.8699C120.408 88.3052 118.031 89.9688 115.449 91.2038C110.969 93.3459 106.567 95.6058 102.393 98.298C102.086 98.4961 101.804 98.7328 101.51 98.951C103.315 98.8597 104.986 98.4974 106.676 98.2711C109.891 97.8404 112.851 96.7599 115.551 94.9725C118.407 93.0808 121.155 91.0032 124.115 89.2946C128.152 86.9646 131.526 83.9139 134.539 80.3334ZM103.158 59.0227C103.16 59.156 103.163 59.2894 103.165 59.4228C103.759 59.5316 104.359 59.617 104.947 59.7528C109.87 60.8889 114.66 62.4001 118.603 65.7122C120.891 67.6345 123.446 68.9704 126.151 70.1595C128.325 71.115 130.385 72.3324 132.485 73.453C133.54 74.0157 134.573 74.6203 135.614 75.2062C134.266 73.1617 132.759 71.3424 131.166 69.6028C129.915 68.2374 128.385 67.2518 126.673 66.4964C124.663 65.6096 122.702 64.6046 120.752 63.5879C118.368 62.3444 116.045 60.9787 113.644 59.7689C110.253 58.0597 106.703 58.4338 103.158 59.0227ZM167.292 41.1661C166.286 42.1369 165.188 43.0218 164.301 44.083C161.617 47.2939 158.615 50.1701 155.362 52.7857C152.257 55.2821 149.835 58.2931 148.03 61.8505C146.787 64.3003 145.391 66.6742 144.007 69.0498C142.997 70.7833 142.221 73.6886 142.397 75.6474C142.626 75.3495 142.837 75.1294 142.985 74.8718C144.566 72.1182 146.141 69.3613 147.71 66.6006C149.192 63.9909 150.658 61.3815 152.868 59.272C154.061 58.1332 155.124 56.859 156.255 55.6533C158.345 53.4235 160.509 51.258 162.515 48.9545C164.239 46.9746 165.79 44.8449 167.403 42.7697C167.808 42.2469 167.995 41.6893 167.292 41.1661ZM146.645 80.7901C146.621 80.8756 146.599 80.9607 146.576 81.0463C146.773 81.1271 146.966 81.2171 147.167 81.2874C151.205 82.699 155.37 83.3753 159.629 83.0201C164.319 82.6291 169.001 82.0913 173.664 81.456C175.146 81.2545 176.568 80.5649 177.998 80.0456C179.312 79.5687 180.568 78.9152 181.904 78.5266C184.081 77.893 185.68 76.5808 186.915 74.7438C187.208 74.3072 187.356 73.8727 186.791 73.4205C186.501 73.6033 186.181 73.7763 185.893 73.9904C182.93 76.1827 179.608 77.4957 175.984 78.0937C175.2 78.2234 174.398 78.3412 173.657 78.611C170.623 79.7155 167.46 79.9706 164.28 80.2199C161.843 80.4109 159.408 80.6756 156.99 81.0349C154.18 81.4523 151.39 81.5689 148.585 81.0571C147.943 80.9397 147.292 80.8777 146.645 80.7901ZM145.88 79.4201C149.203 80.4609 152.54 80.8854 155.985 80.4317C159.259 80.0002 162.558 79.7623 165.839 79.3801C167.72 79.161 169.601 78.8931 171.456 78.5195C173.312 78.1458 175.129 77.5871 176.975 77.1572C180.297 76.3835 183.391 75.1427 186.008 72.8871C186.137 72.7763 186.201 72.5913 186.333 72.3821C186.012 72.0498 185.705 71.7311 185.425 71.4405C181.647 73.4547 177.858 74.8664 173.601 74.7337C172.609 74.7028 171.568 75.1147 170.606 75.4747C163.189 78.2541 155.58 79.8684 147.612 79.4287C147.037 79.3961 146.458 79.421 145.88 79.4201ZM147.65 82.5115C147.622 82.5556 147.594 82.5993 147.566 82.6434C148.038 82.8759 148.5 83.1326 148.983 83.3373C153.867 85.4052 158.981 86.2478 164.239 85.7751C167.522 85.4794 170.778 84.8283 174.03 84.2409C176.901 83.7225 179.492 82.4753 181.892 80.8365C182.852 80.1803 183.693 79.3808 184.408 78.4558C182.531 78.9835 180.674 79.4638 179.01 80.3201C176.556 81.5836 174.008 82.2155 171.28 82.3967C169.331 82.5258 167.394 82.8368 165.456 83.0977C161.751 83.5963 158.039 84.0649 154.299 83.583C152.073 83.296 149.865 82.8733 147.65 82.5115ZM168.313 48.562C165.932 50.4421 163.67 52.2053 161.439 54.0058C160.873 54.4632 160.384 55.0226 159.896 55.5687C157.574 58.169 155.469 61.0064 152.898 63.33C149.855 66.0805 148.811 69.8844 146.479 73.3743C149.329 71.9446 150.847 69.8663 151.775 67.3183C152.189 66.1823 152.863 65.2804 153.801 64.5452C156.207 62.6591 158.597 60.7507 161.017 58.8828C163.606 56.8847 165.834 54.5709 167.67 51.8496C168.383 50.793 168.583 49.7873 168.313 48.562ZM102.83 60.1879C102.814 60.3103 102.796 60.4328 102.78 60.5557C104.021 61.0616 105.284 61.5237 106.5 62.0847C108.385 62.9545 110.343 63.7272 112.081 64.8362C115.122 66.774 118.133 68.7932 120.945 71.0423C124.153 73.6072 127.655 75.2499 131.73 75.6993C132.844 75.8221 133.951 76.0027 135.265 76.1844C135.016 75.8133 134.972 75.6728 134.88 75.621C131.519 73.7444 128.269 71.68 124.635 70.2924C122.776 69.5821 120.863 68.6479 119.399 67.3393C114.93 63.3454 109.601 61.4436 103.885 60.3078C103.54 60.2389 103.183 60.2265 102.83 60.1879ZM128.064 81.5325C128.031 81.4298 127.998 81.3267 127.964 81.2235C125.139 81.7359 122.284 82.1207 119.495 82.7882C114.872 83.895 110.812 86.2453 107.502 89.5735C105.216 91.8714 103.483 94.7193 101.503 97.3208C102.003 97.3772 102.347 97.2653 102.621 97.0611C105.948 94.5706 109.334 92.1514 112.567 89.5447C116.321 86.5194 120.266 83.9168 124.973 82.624C126.025 82.336 127.036 81.9005 128.064 81.5325ZM138.604 72.9542C138.738 72.901 138.871 72.8469 139.005 72.7937C138.878 72.2064 138.79 71.6075 138.617 71.0342C136.878 65.2953 135.177 59.5451 133.358 53.8314C132.329 50.5999 131.614 47.359 131.569 43.9417C131.547 42.2565 131.127 40.5535 130.71 38.9039C130.38 37.6003 130.231 37.6197 128.5 38.179C128.637 39.9403 128.922 41.7609 128.889 43.5752C128.819 47.372 129.966 50.7827 131.681 54.1007C132.518 55.7202 133.276 57.4381 133.701 59.201C134.423 62.1924 135.43 65.0625 136.613 67.8894C137.313 69.562 137.942 71.2647 138.604 72.9542ZM100.692 97.112C100.806 97.1665 100.922 97.2205 101.037 97.2746C101.837 96.2031 102.64 95.1344 103.436 94.0595C105.144 91.7492 106.67 89.2875 109.029 87.5307C113.481 84.216 118.349 81.9604 123.925 81.2687C126.285 80.9755 128.605 80.3418 130.932 79.8116C131.614 79.6562 132.256 79.3244 132.916 79.0729C132.247 78.9178 131.664 79.0474 131.074 79.1364C129.138 79.4286 127.201 79.936 125.264 79.943C120.727 79.9598 116.639 81.3237 112.592 83.2447C109.163 84.8722 106.393 87.1158 104.193 90.1607C102.647 92.3001 101.463 94.603 100.692 97.112ZM142.9 68.2879C143.091 68.3903 143.284 68.4922 143.475 68.5945C144.608 66.5142 145.842 64.4818 146.851 62.3431C148.605 58.6312 150.875 55.3158 154.098 52.7687C157.954 49.7208 161.426 46.2834 164.801 42.7329C165.189 42.3243 165.531 41.8712 166.112 41.18C165.518 41.2893 165.329 41.2904 165.17 41.3583C161.685 42.8427 158.6 44.8691 156.235 47.8926C155.256 49.1452 154.253 50.3837 153.205 51.578C150.17 55.0349 147.272 58.5904 145.278 62.7738C144.417 64.58 143.688 66.4483 142.9 68.2879ZM154.443 108.874C154.658 107.615 154.829 106.346 155.096 105.098C155.461 103.399 155.177 101.847 154.375 100.314C153.526 98.6905 152.614 97.0613 152.069 95.328C150.964 91.8128 148.81 89.1025 146.233 86.5804C144.495 84.8787 142.999 82.9299 141.385 81.099C141.01 80.6737 140.6 80.2796 139.928 79.5822C139.697 81.5097 140.157 82.8401 141.07 83.8968C142.221 85.2291 143.489 86.4979 144.873 87.5825C147.229 89.4297 149.224 91.5071 150.345 94.3338C152.201 99.0127 153.579 103.82 154.443 108.874ZM134.532 76.9426C134.559 76.8635 134.586 76.7849 134.614 76.7059C132.99 76.4662 131.351 76.2966 129.745 75.9703C127.653 75.5455 125.496 75.2621 123.696 73.9474C122.361 72.9722 121.055 71.9534 119.685 71.0309C116.335 68.7743 112.994 66.4995 109.57 64.3597C107.875 63.3002 105.917 62.7592 104.006 62.1557C105.177 63.2989 106.354 64.3807 107.65 65.294C108.995 66.2418 110.397 67.1484 111.878 67.8549C114.332 69.0266 116.544 70.5125 118.648 72.2236C122.838 75.6308 127.564 77.5326 133.075 77.0255C133.558 76.9805 134.046 76.9691 134.532 76.9426ZM167.951 43.4864C165.734 46.954 163.044 49.6999 160.219 52.3301C159.459 53.0373 158.801 53.8544 158.11 54.6322C156.646 56.2775 155.177 57.9176 153.737 59.584C152.538 60.9711 151.242 62.2998 150.233 63.8177C148.541 66.3633 147.032 69.0308 145.473 71.6634C145.053 72.3745 144.734 73.1453 144.368 73.8886C144.874 73.7998 145.148 73.5768 145.411 73.3402C147.01 71.9029 147.835 69.9715 148.682 68.0745C149.493 66.2583 150.604 64.6985 151.979 63.2586C154.05 61.091 156.044 58.8429 157.97 56.5448C159.391 54.8491 160.849 53.2465 162.662 51.9332C164.239 50.7911 165.648 49.4097 167.083 48.0821C168.371 46.8903 168.722 45.4331 167.951 43.4864ZM104.373 99.3061C104.359 99.3794 104.346 99.4532 104.333 99.5265C104.573 99.5806 104.817 99.6926 105.052 99.6785C106.821 99.5704 108.595 99.4942 110.355 99.2958C112.093 99.0994 113.629 98.4004 114.952 97.2018C116.772 95.5529 118.779 94.1759 121.025 93.1353C122.797 92.3142 124.541 91.4152 126.23 90.4357C128.397 89.1803 130.787 88.1106 132.55 86.4096C134.644 84.3886 136.173 81.7817 137.946 79.4284C137.835 79.3243 137.724 79.2211 137.612 79.1175C136.393 80.2067 135.182 81.3038 133.954 82.3837C131.8 84.2794 129.751 86.321 127.448 88.0149C124.547 90.1481 121.387 91.9262 118.425 93.9805C114.592 96.6393 110.539 98.6513 105.805 99.0186C105.323 99.0562 104.85 99.2072 104.373 99.3061ZM177.543 65.266C177.534 65.0962 177.525 64.9264 177.517 64.7565C174.47 64.5719 171.425 64.2912 168.376 64.2573C167.417 64.2467 166.312 64.709 165.518 65.29C164.15 66.2914 163.022 67.6154 161.698 68.6861C160.864 69.3607 159.905 69.9424 158.911 70.339C158.139 70.6469 157.231 70.6395 156.378 70.7086C155.122 70.8108 153.991 71.1963 152.987 71.9689C151.273 73.29 149.549 74.5981 147.829 75.9122C148.663 75.6943 149.451 75.3541 150.099 74.8376C152.191 73.1669 154.439 71.993 157.153 71.5605C159.948 71.1148 162.573 70.1178 164.684 68.0319C165.799 66.9298 167.272 66.5032 168.857 66.343C171.76 66.0501 174.648 65.6318 177.543 65.266ZM108.759 93.3292C112.606 92.0841 129.198 83.0706 131.019 81.2713C128.998 81.9762 127.078 82.7919 125.081 83.3138C118.698 84.9827 113.93 89.2095 108.759 93.3292ZM167.975 53.1936C167.139 54.11 166.535 54.7754 165.927 55.4375C163.092 58.521 159.806 61.084 156.391 63.4649C154.116 65.0503 152.2 66.8046 151.6 69.8575C152.359 69.2588 153.041 68.7838 153.652 68.2302C156.78 65.3931 159.826 62.4712 163.493 60.2839C164.517 59.6726 165.384 58.7186 166.159 57.7854C167.164 56.5746 167.862 55.172 167.975 53.1936ZM103.274 100.47C103.266 100.581 103.259 100.691 103.251 100.802C104.431 100.915 105.612 101.018 106.791 101.144C110.51 101.544 113.795 100.478 116.773 98.2741C118.542 96.9655 120.297 95.618 122.178 94.4833C124.896 92.8421 127.726 91.3872 130.5 89.8361C133.011 88.4325 134.516 86.6505 134.976 84.7083C134.062 85.6504 133.206 86.9457 132.007 87.6886C128.479 89.8757 124.795 91.8084 121.214 93.9122C119.376 94.9915 117.487 96.0575 115.877 97.4302C114.118 98.9293 112.208 99.8542 109.966 100.105C108.328 100.288 106.672 100.324 105.024 100.416C104.441 100.447 103.857 100.452 103.274 100.47ZM160.184 42.9229C159.912 42.9741 159.658 42.9621 159.468 43.0662C157.518 44.127 155.701 45.3616 154.312 47.1343C153.443 48.2441 152.583 49.3605 151.719 50.4732C149.616 53.1809 147.362 55.7867 145.451 58.6235C143.316 61.7932 142.091 65.3741 141.84 69.2407C142.041 69.0227 142.117 68.7607 142.219 68.5082C143.179 66.1277 143.999 63.6776 145.138 61.3868C146.78 58.0844 148.995 55.1579 151.479 52.4069C154.301 49.2819 156.572 45.6479 160.108 43.1892C160.143 43.1655 160.14 43.0854 160.184 42.9229ZM141.528 123.98C141.583 123.915 141.639 123.851 141.695 123.786C140.615 119.336 139.344 114.922 138.508 110.426C137.668 105.906 137.263 101.305 136.667 96.7394C136.448 98.5296 136.519 100.296 136.52 102.063C136.525 108.563 137.818 114.846 139.673 121.036C139.848 121.62 140.04 122.223 140.359 122.734C140.656 123.207 141.131 123.569 141.528 123.98ZM134.255 64.8526C134.371 64.8009 134.488 64.7488 134.604 64.6971C134.313 63.7096 133.951 62.7369 133.745 61.7317C133.176 58.944 132.19 56.3189 130.81 53.8402C129.075 50.7246 128.137 47.4194 128.197 43.8247C128.216 42.67 127.966 41.5113 127.839 40.3539C126.324 44.7217 126.903 48.8472 128.791 52.8765C130.322 56.1461 131.746 59.4661 133.228 62.7596C133.546 63.4676 133.911 64.1552 134.255 64.8526ZM107.663 57.6029C110.532 57.5374 113.125 58.42 115.571 59.7594C121.029 62.7469 126.464 65.7757 131.677 68.6599C130.231 66.6039 128.991 65.6309 126.361 64.2629C123.053 62.5414 119.682 60.901 116.543 58.903C113.703 57.0952 110.88 56.384 107.663 57.6029ZM108.118 56.6133C111.141 55.8246 113.789 56.0981 116.083 57.7989C120.404 61.0015 125.53 62.6922 130.091 65.4403C128.267 63.5048 126.128 61.9968 123.818 60.7174C121.252 59.2963 118.659 57.9234 116.123 56.4514C112.282 54.2222 112.298 54.1935 108.399 56.1398C108.358 56.1606 108.342 56.2321 108.118 56.6133ZM137.175 44.5895C137.058 44.614 136.94 44.639 136.823 44.6636C137.083 46.6887 137.173 48.7545 137.635 50.7323C138.975 56.4709 139.504 62.2945 139.763 68.1582C139.783 68.6009 139.827 69.0427 139.859 69.4847C140.331 67.5924 140.608 65.7223 140.818 63.8445C141.064 61.641 140.931 59.4581 140.389 57.2949C139.468 53.6207 138.594 49.9345 137.689 46.2561C137.55 45.6921 137.348 45.1444 137.175 44.5895ZM141.653 58.8279C142.294 55.1132 141.416 51.6284 140.38 48.1586C138.082 40.4653 137.673 39.4803 136.252 38.481C138.056 45.2746 139.855 52.051 141.653 58.8279ZM122.507 77.7629C120.714 76.521 119.159 75.5593 117.735 74.4321C115.041 72.3001 112.232 70.3853 109.143 68.8494C107.055 67.8113 105.244 66.3386 103.757 64.4953C103.184 63.785 102.499 63.1596 101.83 62.5331C101.627 62.3432 101.307 62.2781 100.823 62.0554C102.995 65.4871 104.703 67.0057 108.041 69.0606C110.795 70.7555 113.446 72.6177 116.121 74.4381C118.032 75.7379 119.863 77.1769 122.507 77.7629ZM126.624 77.3017C126.357 77.2049 126.09 77.1108 125.824 77.0122C123.118 76.0097 120.478 74.9082 118.277 72.9415C116.212 71.0964 113.868 69.6775 111.374 68.4467C109.634 67.5879 108.023 66.437 106.444 65.2937C104.867 64.1532 103.402 62.8606 101.822 61.5811C104.504 65.0648 107.816 67.5801 111.712 69.4038C113.196 70.098 114.553 71.0823 115.909 72.0179C117.522 73.1297 119.024 74.404 120.661 75.4749C122.441 76.6403 124.387 77.45 126.624 77.3017ZM152.248 48.1377C154.312 45.5929 156.712 43.4511 159.614 41.9088C156.063 42.6755 153.917 45.1209 152.248 48.1377ZM137.212 85.8429C136.043 88.111 135.846 91.3451 136.454 93.8309C136.696 91.2819 136.954 88.5621 137.212 85.8429ZM151.553 71.7373C149.551 72.98 147.549 74.2233 145.548 75.4665C147.938 74.8521 149.776 73.3603 151.553 71.7373ZM136.541 69.3618C136.439 69.411 136.337 69.4602 136.236 69.5093C136.455 70.0247 136.675 70.5404 136.895 71.0562C136.972 71.0245 137.048 70.9928 137.125 70.9615C136.93 70.4278 136.735 69.895 136.541 69.3618ZM136.208 41.6286C136.291 41.608 136.373 41.5866 136.455 41.566C136.363 41.1914 136.271 40.8173 136.178 40.4431C136.098 40.4646 136.017 40.4866 135.936 40.5082C136.027 40.8813 136.117 41.255 136.208 41.6286Z" fill="#129512"/>
<path d="M136.141 59.3307C136.18 58.9994 136.219 58.6691 136.258 58.3378C136.486 59.0915 136.715 59.8447 136.943 60.5988C136.677 60.176 136.408 59.7536 136.141 59.3307Z" fill="#129512"/>
<path d="M136.929 60.5486C137.118 61.2855 137.308 62.0223 137.497 62.7592C136.979 62.107 136.689 61.3959 136.929 60.5486Z" fill="#129512"/>
<path d="M118.403 226.824C120.524 227.919 122.634 229.038 124.775 230.092C125.293 230.347 125.942 230.573 126.486 230.496C132.205 229.691 136.912 231.889 140.819 235.718C149.062 243.798 152.238 253.913 152.026 265.257C152.017 265.73 151.9 266.201 151.803 266.896C150.884 266.657 150.056 266.514 149.281 266.228C145.26 264.744 141.786 262.372 138.545 259.606C133.735 255.5 129.814 250.676 126.788 245.133C126.115 243.902 125.547 242.6 125.052 241.285C123.668 237.611 123.578 235.798 124.474 232.044C124.193 231.799 123.912 231.469 123.559 231.257C119.198 228.632 114.537 226.864 109.444 226.306C108.43 226.195 107.532 226.34 106.614 226.807C103.651 228.311 100.829 230.006 98.3815 232.285C95.8818 234.614 93.9948 237.391 92.3805 240.364C89.7367 245.234 87.7278 250.359 86.3522 255.73C86.2002 256.324 86.0565 256.921 85.8679 257.504C85.6828 258.076 85.5514 258.775 84.6996 258.637C83.9986 258.524 83.3432 257.595 83.432 256.863C83.4833 256.441 83.5949 256.018 83.7311 255.613C84.9022 252.129 86.0222 248.625 87.2951 245.178C87.7972 243.818 88.1331 242.539 87.8598 241.082C87.6465 239.942 87.6049 238.766 87.5645 237.603C87.5363 236.801 87.2737 236.272 86.5715 235.796C81.8675 232.614 79.7684 228.041 79.7898 222.469C79.811 216.986 81.8936 212.181 85.0814 207.843C89.2588 202.159 94.7238 198.136 101.351 195.72C102.477 195.31 103.625 194.839 104.969 194.969C104.894 195.296 104.879 195.543 104.783 195.753C102.998 199.628 102.031 203.734 101.274 207.909C100.379 212.848 99.4148 217.775 98.4712 222.759C98.6502 222.519 98.8527 222.283 99.0156 222.023C104.887 212.646 111.387 203.759 119.316 195.99C120.892 194.446 122.533 192.966 124.183 191.501C124.865 190.896 125.347 190.335 125.092 189.319C124.848 188.349 125.371 187.514 125.95 186.79C126.83 185.69 127.742 184.613 128.7 183.581C131.024 181.079 131.22 178.474 129.112 175.826C127.934 174.345 126.597 172.99 125.346 171.566C123.344 169.288 122.428 166.639 122.664 163.603C122.692 163.237 122.656 162.865 122.694 162.5C123.349 156.217 122.266 150.16 120.324 144.214C120.21 143.864 120.131 143.504 120.01 143.157C119.536 141.794 119.836 140.759 120.951 139.727C121.863 138.883 122.651 137.752 123.106 136.596C124.649 132.68 127.807 130.941 131.583 129.997C133.776 129.449 135.71 130.085 137.301 131.688C137.774 132.165 138.29 132.649 138.602 133.228C139.755 135.365 141.375 137.087 143.079 138.783C144.004 139.704 144.644 140.911 145.534 142.159C146.071 141.254 146.593 140.387 147.103 139.513C148.721 136.743 150.545 134.144 153.203 132.252C155.431 130.666 157.933 129.936 160.654 130.097C164.426 130.319 166.953 132.541 167.575 136.257C167.862 137.969 168.362 139.552 169.096 141.13C171.52 146.344 170.201 152.904 166.061 156.868C165.4 157.501 164.742 158.139 163.914 158.937C164.447 159.007 164.832 159.145 165.188 159.089C167.726 158.691 170.283 158.364 172.782 157.789C174.479 157.4 175.86 157.606 177.257 158.657C179.261 160.166 181.421 161.469 183.414 162.992C184.416 163.757 185.318 164.725 186.05 165.754C187.506 167.805 187.52 170.029 186.192 172.145C185.282 173.597 184.722 175.046 184.857 176.8C184.989 178.512 184.197 179.878 182.82 180.896C182.625 181.04 182.426 181.18 182.239 181.333C182.2 181.364 182.203 181.447 182.135 181.697C182.792 181.809 183.439 181.899 184.078 182.028C187.185 182.658 189.822 184.092 191.833 186.588C192.949 187.974 193.242 189.514 192.844 191.254C192.615 192.257 192.514 193.301 192.473 194.332C192.406 196.006 191.846 197.427 190.66 198.62C188.827 200.463 186.633 201.701 184.083 202.036C181.727 202.345 179.327 202.328 176.945 202.424C176.347 202.448 175.745 202.354 174.95 202.301C175.892 203.399 176.782 204.287 177.497 205.298C179.047 207.49 180.167 209.833 179.751 212.66C179.144 216.786 176.307 219.432 172.122 219.362C168.762 219.306 165.532 218.481 162.872 216.277C161.178 214.872 159.588 213.329 158.046 211.755C155.755 209.418 153.249 207.426 150.346 205.864C145.912 203.478 142.683 199.816 140.119 195.538C139.426 194.382 138.795 193.185 138.042 192.07C136.944 190.447 136.134 190.212 134.277 190.851C133.641 191.07 133.038 191.381 132.407 191.62C130.415 192.376 128.412 192.927 126.296 191.666C113.502 202.817 104.141 216.487 95.7718 231.436C96.3493 231.239 96.5804 231.222 96.7265 231.102C101.433 227.221 106.839 224.668 112.589 222.791C113.705 222.427 114.481 221.93 115.026 220.816C116.663 217.47 119.419 215.288 122.803 213.867C126.444 212.338 130.261 211.926 134.164 212.233C141.828 212.834 148.637 215.761 154.928 220.02C156.328 220.968 157.615 222.084 159.214 223.323C158.417 223.946 157.933 224.519 157.317 224.769C155.676 225.436 154.019 226.161 152.296 226.504C149.056 227.15 145.779 227.688 142.491 228.013C135.698 228.684 128.904 228.635 122.15 227.484C120.903 227.272 119.654 227.069 118.406 226.859C117.052 225.886 115.697 224.915 114.203 223.843C113.555 224.062 112.63 224.18 111.807 224.821C114.124 225.526 116.264 226.175 118.403 226.824ZM163.29 162.502C164.074 162.427 164.858 162.353 165.642 162.278C167.274 162.109 168.904 161.926 170.537 161.776C171.876 161.652 173.217 161.542 174.56 161.485C174.91 161.469 175.27 161.673 175.899 161.856C175.396 162.043 175.234 162.143 175.063 162.161C170.375 162.659 165.69 163.192 160.995 163.618C159.072 163.793 157.258 164.209 155.536 165.082C153.079 166.327 150.594 167.519 148.144 168.778C147.336 169.193 146.469 169.623 145.854 170.263C143.18 173.04 140.59 175.897 137.976 178.731C137.915 178.797 137.941 178.943 137.909 179.181C138.166 179.129 138.406 179.133 138.593 179.035C144.435 175.998 150.053 172.667 153.993 167.161C154.171 166.912 154.345 166.647 154.572 166.449C155.457 165.679 156.383 164.956 157.632 164.931C159.01 164.904 159.714 165.993 158.969 167.136C158.553 167.775 157.892 168.317 157.23 168.719C156.187 169.352 155.092 169.958 153.941 170.338C152.783 170.719 151.894 171.372 151.048 172.191C147.903 175.232 144.554 177.983 140.391 179.555C140.175 179.637 139.999 179.824 139.818 179.953C139.783 180.313 139.724 180.618 139.733 180.921C139.743 181.254 139.817 181.584 139.884 182.067C140.629 181.69 141.23 181.41 141.808 181.091C145.367 179.132 149.099 177.63 153.026 176.567C155.561 175.881 158.026 174.942 160.551 174.22C161.892 173.837 163.289 173.523 164.675 173.452C166.409 173.363 167.419 174.163 167.399 175.256C167.378 176.375 166.435 177.193 164.718 177.188C162.952 177.184 161.189 176.874 159.421 176.749C158.582 176.69 157.698 176.595 156.896 176.782C152.712 177.757 148.633 179.068 144.761 180.959C143.292 181.676 141.84 182.429 140.358 183.176C140.834 184.53 141.806 184.894 142.884 184.831C144.836 184.718 146.791 184.535 148.726 184.255C152.182 183.756 155.624 183.164 159.072 182.609C159.506 182.539 159.939 182.464 160.372 182.39C159.407 182.154 158.497 182.196 157.591 182.281C156.676 182.367 155.765 182.487 154.853 182.609C153.942 182.731 153.033 182.87 152.124 183.005C151.155 183.15 150.185 183.301 149.216 183.448C148.307 183.585 147.401 183.748 146.487 183.844C145.664 183.931 144.836 184.309 143.711 183.963C144.165 183.784 144.328 183.691 144.502 183.655C152.371 181.971 160.263 180.573 168.379 181.368C169.751 181.503 171.163 181.237 172.557 181.157C172.914 181.164 173.27 181.171 173.627 181.179C175.227 180.925 176.83 180.687 178.425 180.407C178.956 180.314 179.46 180.029 179.991 179.975C182.527 179.72 183.444 178.604 183.086 176.125L183.095 176.163C183.203 174.413 183.797 172.848 184.785 171.4C186.073 169.511 185.707 167.683 184.378 165.99C183.893 165.371 183.323 164.78 182.684 164.328C180.442 162.74 178.18 161.177 175.863 159.702C175.304 159.347 174.467 159.146 173.826 159.26C172.213 159.55 170.639 160.06 169.049 160.483C166.119 160.54 163.188 160.564 160.26 160.678C159.484 160.708 158.693 160.941 157.953 161.205C154.112 162.58 150.681 164.682 147.511 167.224C147.034 167.606 146.501 167.98 146.369 168.65C147.239 168.163 147.97 167.517 148.798 167.037C150.965 165.78 153.224 164.676 155.351 163.359C157.187 162.222 159.128 161.78 161.251 161.617C163.862 161.416 166.454 160.949 169.054 160.598C170.281 160.573 171.507 160.548 172.734 160.523C172.107 161.002 171.43 161.143 170.753 161.281C169.05 161.627 167.346 161.972 165.643 162.317C164.859 162.389 164.075 162.46 163.291 162.532C160.548 162.161 158.667 162.426 157.521 163.347C159.444 163.065 161.367 162.783 163.29 162.502ZM157.941 131.956L157.978 131.953C156.899 132.313 155.755 132.548 154.754 133.061C152.672 134.126 151.228 135.933 150.053 137.873C147.32 142.382 144.339 146.703 141.163 150.914C138.414 154.558 136.804 158.676 136.98 163.391C137.072 165.835 136.874 168.291 136.778 170.74C136.748 171.487 136.624 172.23 136.514 173.248C136.794 172.897 136.893 172.821 136.927 172.723C137.166 172.028 137.403 171.331 137.62 170.63C138.953 166.32 141.308 162.616 144.532 159.511C146.458 157.658 148.843 156.286 150.3 153.938C150.454 153.69 150.74 153.509 150.993 153.341C151.895 152.74 152.888 152.469 153.963 152.684C155.237 152.938 155.676 153.915 154.975 155.009C154.723 155.404 154.336 155.799 153.919 155.984C152.862 156.452 151.781 156.963 150.659 157.155C149.323 157.383 148.209 157.918 147.257 158.807C144.045 161.807 141.377 165.219 139.597 169.264C138.414 171.952 137.301 174.671 136.184 177.388C136.074 177.656 136.157 178.003 136.139 178.764C136.87 178.059 137.321 177.683 137.7 177.246C138.382 176.46 139.046 175.655 139.674 174.825C140.817 173.312 142.034 171.839 143.03 170.232C145.208 166.721 148.482 164.498 151.85 162.341C152.562 161.886 153.228 161.327 153.817 160.721C154.968 159.535 156.044 158.277 157.163 157.059C160.019 153.948 163.12 151.046 165.326 147.387C165.452 147.18 165.681 147.034 165.861 146.86C163.585 152.456 159.01 156.195 155.217 160.585C157.536 159.179 159.383 157.227 161.152 155.256C162.941 153.263 164.451 151.018 166.084 148.884C166.199 148.965 166.314 149.046 166.43 149.127C165.346 150.804 164.362 152.558 163.15 154.137C161.929 155.729 160.483 157.147 158.91 158.891C162.725 156.638 164.822 153.199 167.364 150.169C166.752 151.923 165.693 153.405 164.539 154.801C163.421 156.154 162.163 157.393 160.967 158.683C162.352 157.771 163.679 156.788 164.869 155.661C168.522 152.205 169.718 146.36 167.625 141.782C166.849 140.085 166.337 138.377 166.044 136.542C165.41 132.566 161.861 130.603 157.941 131.956ZM141.304 187.611C141.252 187.767 141.201 187.924 141.149 188.081C141.343 188.311 141.527 188.551 141.732 188.771C144.825 192.072 148.66 194.276 152.863 195.706C160.841 198.421 169.046 200.203 177.478 200.733C179.42 200.855 181.398 200.673 183.342 200.461C185.592 200.216 187.554 199.228 189.239 197.697C190.297 196.734 190.825 195.563 190.852 194.126C190.869 193.275 190.85 192.368 191.129 191.587C192.028 189.069 190.956 187.329 189.109 185.812C186.531 183.695 183.421 183.042 180.243 182.591C179.894 182.541 179.496 182.608 179.162 182.73C176.336 183.764 173.403 183.742 170.449 183.777C166.531 183.822 162.59 183.834 158.702 184.254C153.246 184.843 147.83 185.794 142.57 186.565C143.941 187.033 145.535 187.564 147.12 188.123C149.432 188.937 151.701 189.892 154.051 190.568C157.616 191.592 161.208 192.194 164.85 190.65C166.326 190.025 167.964 189.97 169.558 190.357C171.046 190.718 171.91 191.634 171.783 192.644C171.653 193.683 170.682 194.366 169.119 194.413C167.183 194.47 165.361 193.983 163.615 193.151C163.145 192.927 162.582 192.722 162.08 192.761C157.951 193.078 154.032 192.251 150.225 190.725C148.348 189.972 146.478 189.201 144.576 188.514C143.514 188.132 142.396 187.906 141.304 187.611ZM140.302 149.046C140.373 149.091 140.444 149.136 140.514 149.181C141.481 147.851 142.482 146.544 143.393 145.177C143.641 144.806 143.695 144.255 143.704 143.784C143.734 142.147 143.017 140.811 141.833 139.739C140.136 138.205 138.688 136.496 137.591 134.471C137.192 133.734 136.564 133.096 135.954 132.502C134.82 131.401 133.421 130.992 131.883 131.372C128.595 132.185 125.893 133.72 124.484 137.077C123.93 138.397 123.03 139.628 122.064 140.698C121.428 141.401 121.251 141.96 121.519 142.805C121.983 144.265 122.409 145.738 122.828 147.211C123.137 148.299 123.41 149.397 123.699 150.491C123.828 150.458 123.957 150.425 124.087 150.392C123.78 147.665 122.742 145.078 122.088 142.237C122.443 142.423 122.577 142.452 122.642 142.535C122.752 142.677 122.844 142.845 122.9 143.016C124.774 148.702 125.989 154.498 125.676 160.524C125.562 162.726 125.286 164.919 125.071 167.115C125.009 167.742 124.8 168.402 125.682 168.798C126.453 166.198 126.79 163.661 126.725 161.073C126.627 157.202 126.175 153.374 125.301 149.595C124.791 147.386 124.344 145.162 123.89 142.941C123.801 142.505 123.812 142.048 123.776 141.601C124.451 143.001 124.795 144.463 125.158 145.92C125.527 147.407 125.96 148.88 126.284 150.377C126.595 151.813 126.845 153.265 127.04 154.722C127.244 156.24 127.39 157.768 127.486 159.296C127.577 160.737 127.571 162.184 127.608 163.628C128.242 160.925 128.179 158.231 127.786 155.558C127.376 152.77 126.792 150.007 126.354 147.223C126.002 144.985 125.738 142.732 125.475 140.481C125.41 139.922 125.499 139.344 125.517 138.775C125.648 138.772 125.778 138.769 125.91 138.766C126.246 145.91 128.95 152.675 128.979 159.862C129.586 157.914 130.125 155.994 130.592 154.057C130.681 153.688 130.531 153.236 130.411 152.847C129.931 151.296 130.502 150.077 131.612 149.059C132.411 148.325 133.426 148.258 134.139 148.786C134.876 149.333 135.138 150.541 134.477 151.441C133.876 152.257 133.112 153.068 132.234 153.53C131.427 153.955 130.999 154.419 130.843 155.266C129.699 161.447 129.63 167.582 131.656 173.615C132.017 174.688 132.556 175.699 133.013 176.74C133.361 176.235 133.424 175.824 133.415 175.415C133.342 171.982 133.291 168.55 133.164 165.119C133.06 162.336 133.416 159.611 134.031 156.913C134.859 153.285 138.111 147.367 140.544 145.157C139.808 146.627 139.013 148.066 138.187 149.487C136.099 153.078 134.431 156.858 134.248 161.042C134.034 165.931 134.138 170.834 134.111 175.732C134.111 175.76 134.195 175.789 134.515 175.991C134.546 172.921 134.82 169.993 134.553 167.116C133.977 160.92 135.567 155.334 138.74 150.113C139.694 148.544 140.795 147.065 141.828 145.544C141.928 145.608 142.029 145.671 142.129 145.735C141.518 146.838 140.911 147.942 140.302 149.046ZM139.682 191.91C140.224 192.815 140.714 193.662 141.231 194.492C143.827 198.663 146.986 202.309 151.366 204.667C154.321 206.259 156.858 208.324 159.208 210.68C160.549 212.023 161.951 213.308 163.354 214.587C165.685 216.711 168.565 217.698 171.599 217.772C176.583 217.895 179.78 214.223 178.091 209.103C176.961 205.679 174.393 203.555 171.313 201.966C170.878 201.742 170.318 201.761 169.817 201.668C171.886 203.614 174.194 205.155 175.537 207.67C172.713 205.15 169.931 202.609 166.014 201.141C173.471 206.59 175.635 208.531 176.626 210.734C175.306 209.546 174.146 208.469 172.95 207.433C171.699 206.351 170.456 205.253 169.132 204.266C167.916 203.359 166.596 202.591 165.321 201.761C168.786 204.713 172.376 207.455 175.127 211.122C174.74 210.966 174.403 210.748 174.103 210.486C172.072 208.714 170.118 206.846 168.008 205.174C164.014 202.01 159.876 199.229 154.719 198.018C149.482 196.788 144.798 194.177 140.86 190.394C140.749 190.287 140.549 190.274 140.327 190.194C140.117 190.751 139.927 191.255 139.682 191.91ZM140.868 259.778C140.821 258.802 140.867 258.08 140.741 257.39C140.168 254.25 139.751 251.101 139.85 247.897C139.879 246.958 139.566 246.108 138.922 245.37C137.835 244.124 136.807 242.827 135.729 241.572C135.539 241.352 135.224 241.24 134.852 241.006C134.735 242.947 134.977 244.606 135.472 246.28C135.809 247.422 135.863 248.673 135.884 249.877C135.909 251.283 135.729 252.69 135.703 254.098C135.695 254.565 135.74 255.164 136.016 255.479C137.369 257.027 138.786 258.527 140.868 259.778ZM129.615 235.524C129.486 235.6 129.357 235.676 129.227 235.752C129.424 236.626 129.597 237.506 129.823 238.372C130.288 240.162 130.571 241.951 130.445 243.824C130.092 249.086 130.122 249.091 133.6 252.995C133.853 253.279 134.187 253.492 134.841 254.036C134.808 251.423 134.88 249.228 134.723 247.05C134.575 244.983 134.194 242.932 133.896 240.877C133.819 240.346 133.84 239.665 133.523 239.327C132.284 237.999 130.928 236.781 129.615 235.524ZM136.895 213.797C134.098 213.371 131.605 213.22 129.11 213.568C128.558 213.645 127.985 214.034 127.553 214.424C126.1 215.737 124.695 217.104 123.295 218.474C122.716 219.041 122.195 219.668 121.433 220.504C122.828 220.298 123.85 220.059 124.88 220.016C126.863 219.933 128.512 219.15 130.093 218.007C130.915 217.413 131.909 216.934 132.896 216.718C134.576 216.349 135.715 215.375 136.895 213.797ZM81.9041 216.86C81.6293 218.415 81.4152 219.594 81.2135 220.775C81.0184 221.916 81.305 222.894 81.9579 223.885C83.2998 225.921 84.5077 228.045 85.7612 230.14C86.1914 230.858 86.5909 231.595 87.0044 232.323C87.3731 230.106 87.5014 227.979 87.5406 225.85C87.5488 225.403 87.2924 224.911 87.0478 224.508C85.9705 222.731 84.8734 220.966 83.7394 219.225C83.2764 218.516 82.7021 217.88 81.9041 216.86ZM148.303 249.171C147.411 246.555 146.268 244.439 144.984 242.392C144.893 242.248 144.714 242.141 144.554 242.063C143.293 241.448 142.061 240.751 140.751 240.263C139.292 239.719 137.753 239.423 135.929 239.385C137.565 241.411 139.005 243.213 140.472 244.994C140.697 245.269 141.019 245.488 141.335 245.662C143.154 246.66 144.98 247.645 146.814 248.614C147.171 248.803 147.574 248.903 148.303 249.171ZM129.841 220.664C131.258 222.075 132.583 222.756 134.009 223.351C135.23 223.86 136.441 224.487 137.499 225.274C139.232 226.563 140.989 227.502 143.233 226.95C144.062 226.745 145.004 226.964 145.875 226.338C145.557 226.084 145.388 225.911 145.186 225.793C142.505 224.212 139.838 222.605 137.12 221.088C136.452 220.715 135.621 220.485 134.857 220.463C133.34 220.422 131.819 220.572 129.841 220.664ZM87.6631 223.491C88.6986 220.943 88.6538 218.751 87.5342 216.627C86.7653 215.167 86.4316 213.667 86.697 212.02C86.8567 211.027 86.6121 210.09 85.9726 209.125C85.6562 209.43 85.328 209.628 85.1714 209.918C84.3591 211.424 83.6119 212.966 82.7996 214.473C82.2847 215.428 82.5756 216.22 83.1232 217.029C84.1513 218.548 85.1356 220.096 86.1693 221.611C86.5769 222.208 87.0683 222.748 87.6631 223.491ZM97.7222 218.003C97.1572 218.429 96.5822 218.842 96.0279 219.283C94.4976 220.499 93.0072 221.767 91.4441 222.939C89.2032 224.62 88.4155 227.199 89.4046 230.028C89.6025 229.867 89.8108 229.739 89.9676 229.565C91.5634 227.778 93.3326 226.198 95.3578 224.905C95.7602 224.648 96.2368 224.333 96.4165 223.929C97.2302 222.097 97.6715 220.157 97.7222 218.003ZM121.591 221.84C123.22 222.946 124.792 223.887 126.69 223.857C127.795 223.839 128.7 224.228 129.516 224.951C130.061 225.434 130.661 225.862 131.26 226.281C132.964 227.472 136.254 227.776 138.443 226.878C137.131 226.039 135.941 225.196 134.675 224.488C132.87 223.478 131.017 222.553 129.169 221.624C128.634 221.355 128.024 220.977 127.484 221.028C125.511 221.211 123.554 221.556 121.591 221.84ZM145.469 263.199C145.615 263.004 145.686 262.952 145.681 262.909C145.284 259.825 144.883 256.741 144.476 253.657C144.46 253.54 144.401 253.421 144.337 253.319C143.295 251.673 142.25 250.03 140.992 248.052C140.722 250.393 140.654 252.298 141.115 254.222C141.4 255.407 141.787 256.661 141.658 257.832C141.385 260.321 142.602 261.722 144.594 262.755C144.864 262.896 145.136 263.031 145.469 263.199ZM88.973 217.205C90.7948 212.888 90.8283 212.635 90.8407 208.672C90.8433 207.822 91.0527 206.975 91.1427 206.124C91.2477 205.13 91.3266 204.132 91.4463 202.809C90.031 204.173 88.9284 205.227 87.8363 206.292C86.9146 207.191 86.7052 208.207 87.0868 209.475C87.399 210.512 87.5726 211.634 87.5567 212.714C87.5321 214.318 87.9962 215.7 88.973 217.205ZM125.879 232.908C124.296 236.217 126.035 243.069 129.218 246.579C129.284 246.482 129.394 246.392 129.411 246.287C129.998 242.441 129.315 238.743 128.099 235.109C127.747 234.056 126.979 233.422 125.879 232.908ZM138.97 220.599C138.923 220.724 138.876 220.849 138.829 220.975C140.123 221.769 141.418 222.561 142.71 223.36C144.057 224.192 145.393 225.044 146.751 225.858C147.098 226.066 147.535 226.338 147.889 226.288C149.26 226.093 150.614 225.78 152.064 225.494C148.463 221.341 144.02 220.121 138.97 220.599ZM89.5736 222.764C89.6924 222.851 89.8113 222.938 89.9302 223.024C92.1099 221.276 94.151 219.303 96.5098 217.842C98.7923 216.429 98.8063 214.424 99.0259 212.135C98.6742 212.285 98.4951 212.321 98.3687 212.422C95.8948 214.396 93.4078 216.355 90.9767 218.381C90.5471 218.739 90.2362 219.351 90.0822 219.906C89.8225 220.833 89.734 221.808 89.5736 222.764ZM145.23 216.447C145.222 216.246 145.214 216.045 145.206 215.845C143.446 215.358 141.691 214.856 139.926 214.393C138.628 214.052 137.522 214.375 136.627 215.419C135.599 216.619 134.266 217.312 132.752 217.742C131.79 218.016 130.871 218.442 129.954 219.421C131.399 219.38 132.552 219.276 133.698 219.33C135.287 219.406 136.752 219.032 138.083 218.232C139.386 217.448 140.77 217.136 142.261 217.017C143.26 216.939 144.241 216.645 145.23 216.447ZM90.783 216.741C90.9097 216.854 91.036 216.967 91.1627 217.08C92.337 216.145 93.5195 215.221 94.6822 214.272C95.6722 213.465 96.5373 212.44 97.6379 211.845C99.8354 210.656 99.9512 208.693 100.13 206.333C98.3557 207.55 96.8765 208.708 95.2654 209.638C92.4753 211.25 91.2442 213.737 90.783 216.741ZM130.038 233.576C130.015 233.657 129.992 233.738 129.969 233.819C130.835 234.583 131.809 235.256 132.544 236.131C133.931 237.783 135.614 238.56 137.766 238.692C139.591 238.804 141.389 239.249 142.888 240.454C143.056 240.59 143.35 240.571 143.584 240.623C143.655 240.512 143.727 240.401 143.798 240.29C142.532 238.977 141.253 237.675 140.003 236.346C139.118 235.405 138.065 234.989 136.768 234.888C135.504 234.79 134.261 234.431 133.01 234.182C132.018 233.985 131.028 233.779 130.038 233.576ZM115.755 223.471C117.501 225.681 126.088 227.702 130.292 226.987C129.387 226.059 128.473 225.137 127.26 224.977C124.98 224.676 122.911 223.796 120.806 222.999C119.084 222.347 117.489 222.627 115.755 223.471ZM142.314 247.337C144.151 251.461 147.054 254.434 150.341 257.163C150.066 255.187 149.66 253.288 149.075 251.446C148.894 250.875 148.309 250.325 147.769 249.995C146.365 249.139 144.89 248.4 143.428 247.641C143.14 247.491 142.789 247.462 142.314 247.337ZM151.433 219.141C150.012 217.942 148.735 217.387 147.419 216.936C147.047 216.809 146.572 216.902 146.161 216.983C144.367 217.337 142.58 217.721 140.791 218.102C140.008 218.268 139.249 218.486 138.475 219.282C141.201 219.563 143.568 219.978 145.937 219.993C147.651 220.004 149.369 219.483 151.433 219.141ZM116.146 221.789C116.981 221.48 117.833 221.21 118.646 220.855C121.452 219.629 123.075 216.946 125.496 215.24C125.806 215.021 126.011 214.653 126.264 214.355C121.645 215.137 118.102 217.316 116.146 221.789ZM91.7438 209.456C94.0613 206.267 95.8753 203.008 96.4955 199.199C95.3377 199.779 94.3716 200.513 93.3438 201.149C92.5784 201.621 92.2737 202.291 92.1796 203.118C92 204.699 91.8057 206.278 91.6643 207.861C91.6175 208.386 91.7134 208.924 91.7438 209.456ZM156.087 222.658C156.045 222.813 156.003 222.967 155.961 223.122C155.21 222.95 154.457 222.785 153.708 222.606C152.934 222.42 152.165 222.212 151.39 222.031C150.167 221.745 150.165 221.752 149.236 221.98C150.395 222.846 151.481 223.745 152.662 224.496C153.121 224.788 153.848 224.947 154.358 224.812C155.518 224.505 156.619 223.976 157.885 223.484C156.794 222.049 155.408 221.374 154.166 220.535C152.727 219.562 151.039 219.623 149.314 220.644C151.641 221.225 153.962 221.661 156.087 222.658ZM93.5213 209.764C95.5935 208.335 97.3158 206.959 99.2135 205.896C100.824 204.995 100.989 203.656 101.139 201.95C97.4165 203.345 94.7867 205.545 93.5213 209.764ZM96.9318 201.778C97.8968 201.488 98.2078 200.34 99.4156 200.425C98.6981 201.266 98.0949 201.972 97.4925 202.679C98.5038 202.395 99.3036 201.877 100.147 201.442C101.96 200.506 102.367 199.899 102.512 197.72C102.141 197.879 101.773 198.038 101.404 198.197C101.372 198.125 101.34 198.054 101.307 197.982C101.758 197.447 102.209 196.91 102.751 196.265C98.6055 197.083 97.555 198.082 96.9318 201.778ZM95.6296 225.963C93.7449 226.867 90.3673 229.961 89.4365 231.535C88.9715 232.323 88.889 233.094 89.2678 233.932C92.0548 232.946 94.235 230.229 95.6296 225.963ZM150.267 265.698C149.144 262.215 147.662 259.085 145.801 256.141C146.033 258.632 146.349 261.081 146.704 263.524C146.743 263.786 146.962 264.12 147.191 264.239C148.198 264.761 149.239 265.218 150.267 265.698ZM87.1512 234.441C85.1579 231.001 83.3786 227.932 81.5993 224.863C81.8499 228.806 83.6766 231.849 87.1512 234.441ZM126.879 231.298C128.47 232.891 130.258 232.503 131.78 232.871C133.379 233.257 134.857 234.301 136.918 233.952C133.779 232.019 130.716 230.991 126.879 231.298ZM147.081 255.581C148.351 258.423 149.504 261.002 150.741 263.767C151.601 260.039 150.191 257.579 147.081 255.581ZM170.627 192.587C169.241 191.1 166.969 190.994 164.863 192.21C167.775 193.418 169.088 193.521 170.627 192.587ZM89.128 235.651C89.2161 236.9 89.2997 238.092 89.3838 239.283C89.4969 239.306 89.6105 239.328 89.7237 239.351C90.5832 237.551 91.4432 235.75 92.428 233.688C91.1929 234.423 90.2576 234.979 89.128 235.651ZM127.546 165.281C127.499 165.269 127.452 165.258 127.404 165.246C127.173 166.529 126.945 167.812 126.71 169.094C126.414 170.718 126.578 171.045 128.243 172.088C128.01 169.806 127.778 167.544 127.546 165.281ZM124.983 155.982C124.87 157.88 124.672 161.23 124.473 164.579C124.85 161.222 125.39 157.872 124.983 155.982ZM166.263 175.132C164.437 174.277 162.936 174.741 161.304 175.317C163.175 176.32 164.797 176.292 166.263 175.132ZM135.319 167.488C135.402 165.572 135.512 163.047 135.622 160.523C134.941 163.058 135.104 165.608 135.319 167.488ZM150.34 155.91C151.969 155.675 153.216 155.53 153.925 154.095C152.112 154.007 151.847 154.135 150.34 155.91ZM133.375 150.026C131.775 150.406 131.524 150.764 131.744 152.149C132.996 151.357 132.996 151.357 133.375 150.026ZM154.798 168.146C156.088 167.784 156.969 167.477 157.721 166.314C156.407 166.526 155.576 166.919 154.798 168.146ZM153.104 165.671C153.091 165.557 153.076 165.444 153.063 165.331C152.615 165.573 152.167 165.814 151.719 166.056C151.759 166.131 151.799 166.206 151.838 166.282C152.26 166.078 152.682 165.875 153.104 165.671ZM128.627 168.165C128.703 168.159 128.779 168.153 128.854 168.146C128.833 167.888 128.812 167.629 128.792 167.371C128.716 167.378 128.639 167.386 128.563 167.393C128.584 167.65 128.606 167.908 128.627 168.165Z" fill="#129512"/>
<path d="M172.556 181.156C168.217 181 163.905 180.364 159.535 180.664C154.876 180.983 150.27 181.554 145.741 182.704C145.216 182.838 144.677 182.926 144.042 182.803C144.43 182.622 144.8 182.361 145.209 182.272C148.195 181.617 151.168 180.86 154.185 180.395C159.103 179.636 164.06 179.427 169.024 180.019C173.588 180.564 177.805 179.803 181.462 176.794C181.89 176.442 182.545 176.367 183.095 176.162L183.086 176.125C181.281 178.425 178.955 179.896 176.099 180.54C175.269 180.728 174.45 180.965 173.626 181.179C173.269 181.171 172.913 181.164 172.556 181.156Z" fill="#129512"/>
<path d="M159.21 132.909C155.032 135.497 152.349 139.312 149.87 143.393C147.521 147.261 144.884 150.956 142.32 154.691C141.332 156.13 140.605 157.637 140.286 159.361C139.863 161.65 139.054 163.808 137.734 165.813C137.816 165.453 137.881 165.089 137.981 164.735C138.599 162.557 139.178 160.368 139.867 158.212C140.216 157.119 140.633 156.002 141.251 155.046C144.738 149.647 148.323 144.312 151.816 138.917C153.642 136.099 156.229 134.268 159.21 132.909Z" fill="#129512"/>
<path d="M157.941 131.956C157.505 132.442 157.152 133.06 156.62 133.393C153.688 135.223 151.456 137.655 149.814 140.697C147.221 145.503 144.013 149.91 140.814 154.32C139.613 155.977 138.638 157.724 138.482 159.826C138.466 160.04 138.331 160.244 138.137 160.421C137.901 158.635 138.276 156.976 139.279 155.497C140.858 153.167 142.551 150.913 144.087 148.556C145.924 145.737 147.742 142.896 149.392 139.966C151.26 136.649 153.821 134.148 157.224 132.478C157.494 132.346 157.724 132.131 157.975 131.954C157.978 131.953 157.941 131.956 157.941 131.956Z" fill="#129512"/>
<path d="M141.741 157.561C141.941 155.649 143.106 154.27 144.197 152.906C147.229 149.118 149.878 145.079 152.372 140.931C154.329 137.677 157.132 135.374 160.46 133.654C160.713 133.523 161.013 133.483 161.417 133.634C161.052 133.907 160.705 134.21 160.317 134.447C156.97 136.502 154.205 139.103 152.238 142.559C149.93 146.614 147.086 150.304 144.189 153.954C143.289 155.089 142.552 156.355 141.741 157.561Z" fill="#129512"/>
<path d="M143.815 189.927C156.822 196.262 170.619 198.816 184.992 199.09C184.356 199.179 183.722 199.284 183.084 199.353C178.4 199.863 173.768 199.394 169.189 198.439C164.69 197.499 160.208 196.471 155.748 195.363C151.673 194.351 147.908 192.567 144.351 190.346C144.159 190.226 143.993 190.068 143.815 189.927Z" fill="#129512"/>
<path d="M149.313 186.596C152.695 186.037 156.06 185.294 159.464 184.972C162.563 184.679 165.706 184.815 168.829 184.814C171.845 184.813 174.829 184.578 177.767 183.866C179.352 183.483 180.932 183.53 182.496 183.966C184.849 184.621 187.102 185.506 189.061 187.103C188.567 186.959 188.065 186.841 187.582 186.666C186.488 186.271 185.406 185.841 184.314 185.438C181.844 184.524 179.377 184.309 176.744 184.903C172.285 185.91 167.715 185.661 163.185 185.572C160.59 185.522 158.059 185.743 155.512 186.19C153.472 186.549 151.388 186.662 149.323 186.885C149.32 186.789 149.317 186.693 149.313 186.596Z" fill="#129512"/>
<path d="M174.283 187.169C174.827 187.151 175.377 187.177 175.915 187.106C180.311 186.52 184.196 188.081 188.008 190.116C187.644 190.07 187.272 190.054 186.916 189.969C186.442 189.856 185.969 189.716 185.514 189.54C181.3 187.914 177.019 187.532 172.545 188.4C168.797 189.127 165.001 188.958 161.241 188.143C159.245 187.709 157.214 187.433 155.199 186.742C155.826 186.722 156.467 186.612 157.08 186.697C158.957 186.956 160.821 187.31 162.695 187.588C166.598 188.169 170.486 188.2 174.333 187.168L174.283 187.169Z" fill="#129512"/>
<path d="M174.333 187.168C170.792 187.065 167.251 186.983 163.711 186.845C162.514 186.798 161.323 186.61 160.125 186.137C160.564 186.1 161.003 186.023 161.44 186.031C163.948 186.082 166.457 186.165 168.965 186.213C171.724 186.267 174.463 186.186 177.152 185.407C177.949 185.177 178.866 185.176 179.697 185.291C182.497 185.681 185.08 186.775 187.652 188.085C187.288 188.053 186.912 188.074 186.566 187.981C185.029 187.568 183.488 187.166 181.975 186.679C179.336 185.831 176.792 186.137 174.283 187.17L174.333 187.168Z" fill="#129512"/>
<path d="M183.673 197.056C177.889 198.451 165.699 197.22 162.272 194.975C169.282 196.994 176.471 197.106 183.673 197.056Z" fill="#129512"/>
<path d="M149.323 186.886C148.372 186.942 147.42 186.998 146.469 187.053C146.458 186.907 146.448 186.761 146.438 186.615C147.394 186.584 148.348 186.529 149.313 186.597C149.316 186.693 149.32 186.789 149.323 186.886Z" fill="#129512"/>
<path d="M173.915 215.792C172.548 215.34 171.161 214.94 169.819 214.424C166.224 213.041 163.126 210.852 160.344 208.239C157.783 205.833 154.988 203.772 151.93 202.065C149.109 200.491 146.855 198.247 144.622 195.976C144.311 195.659 144.116 195.228 144.066 194.697C145.563 196.016 147.042 197.356 148.561 198.648C149.351 199.32 150.156 200.005 151.05 200.519C154.831 202.692 158.418 205.109 161.577 208.146C164.63 211.082 168.339 212.954 172.243 214.48C172.856 214.719 173.455 214.992 174.062 215.249C174.012 215.43 173.964 215.612 173.915 215.792Z" fill="#129512"/>
<path d="M170.887 216.484C169.002 216.566 167.761 215.947 166.541 215.272C164.381 214.077 162.498 212.524 160.756 210.788C159.456 209.492 158.238 208.081 156.797 206.963C155.019 205.584 153.137 204.275 151.137 203.26C148.204 201.772 145.968 199.574 143.991 197.054C142.904 195.669 141.939 194.188 141.155 192.567C142.166 193.846 143.209 195.102 144.182 196.41C145.887 198.701 147.87 200.664 150.471 201.919C154.263 203.749 157.619 206.162 160.441 209.295C163.025 212.164 166.083 214.346 169.687 215.755C169.995 215.876 170.262 216.1 170.887 216.484Z" fill="#129512"/>
</svg>
