<svg width="429" height="562" viewBox="0 0 429 562" fill="none" xmlns="http://www.w3.org/2000/svg">
<path d="M233.736 193.173C231.727 193.856 229.973 194.523 228.177 195.048C224.61 196.09 221.112 195.906 217.704 194.319C213.605 192.41 210.225 189.596 207.395 186.121C204.09 182.061 201.701 177.476 200.019 172.531C199.233 170.22 199.75 169.549 202.207 169.832C205.574 170.221 208.931 170.723 212.274 171.291C219.598 172.537 224.996 176.609 229.008 182.752C231.082 185.928 232.773 189.243 233.736 193.173ZM226.768 188.534C221.752 184.888 217.232 184.869 211.876 188.42C213.146 189.38 214.342 190.248 215.5 191.167C216.652 192.081 217.876 192.216 219.211 191.663C221.626 190.662 224.042 189.663 226.768 188.534ZM219.424 183.918C218.362 183.081 217.353 182.414 215.937 182.334C213.974 182.223 212.025 181.896 210.065 181.749C209.032 181.671 207.984 181.777 206.303 181.813C207.665 183.545 208.582 184.704 209.491 185.869C210.312 186.92 211.329 187.029 212.511 186.566C214.741 185.695 216.984 184.851 219.424 183.918ZM220.702 182.276C220.73 182.221 220.827 182.125 220.811 182.056C220.481 180.692 220.167 179.323 219.792 177.972C218.864 174.623 217.545 173.69 213.799 173.677C214.679 177.683 216.119 181.243 220.702 182.276ZM230.702 192.204C230.774 191.954 230.846 191.704 230.918 191.454C229.906 190.94 228.846 189.92 227.887 190.006C225.035 190.263 222.365 191.305 219.596 193.198C223.786 194.572 227.297 193.928 230.702 192.204ZM213.889 178.736C212.547 172.109 211.694 172.253 208.2 172.583C208.148 176.406 211.016 177.466 213.889 178.736ZM221.185 176.794C221.268 181.357 222.86 184.246 226.022 185.379C225.014 182.098 225.287 178.265 221.185 176.794ZM213.562 180.741C208.972 177.578 208.301 177.347 203.999 177.459C204.627 178.573 205.211 179.606 205.659 180.403C208.404 180.521 210.81 180.623 213.562 180.741ZM226.827 181.644C227.076 185.626 228.7 188.221 231.381 188.972C229.854 186.515 228.498 184.332 226.827 181.644ZM202.996 172.235C204.28 173.047 205.563 173.858 207.001 174.767C206.746 171.771 206.746 171.771 202.996 172.235ZM202.53 173.424C202.953 176.046 204.393 176.091 206 175.904C205.014 175.2 204.03 174.496 202.53 173.424Z" fill="#129512"/>
<path d="M153.112 367.785C148.08 379.49 137.187 385.803 125.541 383.699C123.068 383.253 120.682 382.187 118.342 381.202C116.386 380.378 114.502 379.541 112.315 380.006C101.17 382.38 92.0415 378.175 83.7773 371.22C79.6821 367.774 75.711 364.216 72.905 359.544C69.9053 354.549 68.1295 349.24 68.4852 343.144C67.3959 343.106 66.5007 343.033 65.609 343.051C60.0123 343.163 54.808 341.723 49.8841 339.141C45.4186 336.8 42.4608 333.189 41.2205 328.326C40.5065 325.523 40.038 322.636 39.721 319.758C39.2901 315.858 37.8066 312.629 34.6512 310.207C33.6407 309.431 32.7399 308.511 31.7972 307.649C26.319 302.635 25.0325 296.482 27.0254 289.53C28.3363 284.958 31.0229 281.152 34.2991 277.798C36.3225 275.727 38.4845 273.748 40.7981 272.014C44.6371 269.137 47.0092 265.573 47.4777 260.705C47.7098 258.292 48.2374 255.875 48.9142 253.542C50.5475 247.913 54.1559 244.356 60.1186 243.478C60.7913 243.378 61.4516 243.192 62.4157 242.981C62.3754 241.17 62.2094 239.427 62.3183 237.703C62.8381 229.486 66.6332 223.569 74.6651 220.926C77.8435 219.881 80.0314 218.059 81.5698 215.062C84.4271 209.494 88.3659 204.826 93.8937 201.652C100.048 198.12 106.423 197.527 112.339 201.603C117.085 204.873 121.441 204.989 126.252 202.326C127.257 201.769 128.42 201.502 129.497 201.067C139.649 196.97 147.769 201.776 153.187 207.91C154.882 209.827 155.6 212.116 155.27 214.905C156.426 214.843 157.436 214.757 158.447 214.741C168.16 214.588 176.863 217.257 183.66 224.462C185.598 226.517 186.955 229.209 188.219 231.786C189.231 233.848 189.791 236.155 190.383 238.398C191.048 240.914 192.38 242.748 194.764 243.904C201.726 247.277 204.921 253.498 206.955 260.486C208.142 264.568 207.325 268.363 204.417 271.518C202.866 273.2 202.023 275.111 201.335 277.259C200.603 279.547 199.366 281.672 198.232 284.121C199.002 284.691 199.899 285.366 200.804 286.028C206.543 290.218 210.449 295.675 212.301 302.57C213.402 306.666 213.112 310.622 211.214 314.44C210.904 315.064 210.641 315.716 210.282 316.31C207.176 321.456 205.963 326.921 206.612 332.981C207.328 339.671 205.528 345.801 201.548 351.368C196.957 357.789 190.855 360.931 183.054 360.363C179.933 360.135 177.927 360.86 176.081 363.538C173.17 367.764 168.542 369.256 163.617 369.411C161.102 369.49 158.56 368.875 156.04 368.505C155.037 368.358 154.064 368.025 153.112 367.785ZM142.458 299.403C140.909 300.577 139.358 301.752 137.257 303.345C137.769 301.632 138.081 300.589 138.432 299.414C137.313 298.669 136.288 297.986 135.188 297.253C134.682 300.829 136.029 303.867 138.766 305.309C139.297 305.588 140.302 305.743 140.663 305.444C142.648 303.791 145.253 302.571 145.444 299.469C146.71 296.347 146.475 295.36 143.901 293.384C143.188 294.809 142.383 296.176 141.843 297.639C141.677 298.09 142.233 298.807 142.458 299.403ZM63.0123 247.109C65.2729 249.432 66.3147 252.852 69.5342 254.57C70.7955 252.628 71.9538 250.842 73.2402 248.861C69.7557 247.333 66.5245 246.443 63.0075 247.184C60.8574 246.64 58.9821 247.228 57.0425 248.477C59.5961 253.468 63.3255 257.096 67.6247 260.584C68.7433 258.579 68.8154 257.252 67.2542 255.709C65.6322 254.107 64.3647 252.129 63.0574 250.235C62.4055 249.287 61.8892 248.164 63.0123 247.109ZM30.6627 290.698C36.3323 296.305 54.9671 300.898 64.2734 298.995C63.9783 296.971 63.6816 294.933 63.3866 292.905C60.5862 292.138 57.8728 291.525 55.2496 290.641C52.5053 289.716 49.7652 288.697 47.1782 287.407C44.9151 286.278 42.7939 284.816 40.7555 283.304C39.6336 282.473 38.5611 281.366 38.6498 279.269C41.3173 281.304 43.5288 283.356 46.0741 284.835C48.7632 286.397 51.7325 287.51 54.6491 288.641C57.3979 289.706 60.1945 290.725 63.3375 290.957C63.6041 287.944 63.8356 285.325 64.0702 282.677C57.5393 280.117 52.7039 275.69 48.3577 270.427C41.4137 276.633 33.4643 281.44 30.6627 290.698ZM180.212 356.518C185.189 357.423 189.721 356.889 192.952 354.988C195.579 353.44 195.906 352.838 195.136 349.919C194.696 348.247 194.084 346.6 193.371 345.021C190.328 338.271 185.797 332.554 180.77 327.199C180.406 326.811 179.841 326.611 179.355 326.315C178.273 327.358 177.314 328.282 176.326 329.235C180.237 334.595 183.493 340.084 185.641 346.136C186.526 348.629 186.991 351.28 187.512 353.885C187.631 354.479 187.195 355.185 187.014 355.839C186.752 355.859 186.492 355.879 186.23 355.899C184.939 346.089 180.899 337.529 175.12 329.508C173.497 330.28 172.208 330.894 170.973 331.482C172.942 335.716 175.006 339.5 176.478 343.501C177.992 347.612 178.925 351.934 180.212 356.518ZM83.459 310.283C83.1726 314.243 83.9033 317.473 84.4346 320.739C84.8029 323.005 85.9622 324.127 88.1405 324.7C97.8476 327.252 107.23 326.215 116.386 322.358C117.095 322.059 117.732 321.588 118.555 321.108C118.041 319.524 117.589 318.129 117.126 316.7C105.106 319.098 94.1242 316.828 83.459 310.283ZM133.153 279.397C130.227 271.42 117.083 258.515 109.516 256.043C105.307 259.524 104.094 264.195 104.135 269.697C109.213 269.559 113.515 271.288 117.835 272.96C122.31 274.691 126.275 277.222 129.748 280.72C130.892 280.274 131.937 279.869 133.153 279.397ZM71.5375 262.945C76.9021 263.567 81.8572 264.006 86.7666 264.747C91.7117 265.493 96.189 267.619 100.681 270.492C100.949 267.844 101.179 265.583 101.399 263.433C95.8196 257.897 89.0534 254.999 81.8197 253.039C80.1559 252.588 78.3952 252.382 76.6693 252.325C75.8682 252.298 74.6758 252.659 74.2956 253.251C72.4089 256.19 71.0471 259.346 71.5375 262.945ZM64.8996 300.782C52.2366 302.802 41.117 298.874 30.4053 293.163C28.6451 300.306 33.0884 304.446 39.7375 309.657C48.4578 304.858 57.9169 305.571 67.8302 306.746C66.7774 304.604 65.9255 302.87 64.8996 300.782ZM139.955 278.599C139.924 277.96 140.011 277.477 139.865 277.08C136.617 268.281 132.252 260.206 125.176 253.792C122.974 251.797 120.658 251.132 117.878 251.941C116.326 252.394 114.767 252.861 113.284 253.494C112.654 253.763 112.21 254.473 111.589 255.072C113.397 256.216 115.016 257.125 116.509 258.206C123.441 263.225 129.314 269.29 133.744 276.615C134.911 278.544 136.151 279.201 138.196 278.834C138.741 278.735 139.295 278.685 139.955 278.599ZM197.161 350.888C200.036 348.867 201.044 346.042 202.277 343.342C203.36 340.973 203.078 338.835 201.498 336.846C199.12 333.856 196.905 330.698 194.246 327.977C191.756 325.43 188.863 323.245 185.982 321.124C184.242 319.844 182.718 320.321 181.631 322.154C181.179 322.916 181.026 323.856 180.732 324.729C188.071 332.309 194.625 340.208 197.161 350.888ZM71.562 264.854C71.9819 268.258 72.3661 271.369 72.7738 274.678C83.3001 273.15 93.0199 275.431 102.312 280.414C101.543 272.912 101.234 272.493 95.5991 269.489C88.258 265.575 80.1702 264.828 71.562 264.854ZM116.853 315.226C116.895 314.93 116.937 314.635 116.979 314.339C114.938 313.15 112.926 311.908 110.846 310.79C109.758 310.205 108.592 309.637 107.394 309.41C103.143 308.604 99.1193 307.213 95.3681 305.069C92.7724 303.586 90.2226 302.023 87.5832 300.453C87.0307 300.842 86.5341 301.128 86.1186 301.503C85.6934 301.887 85.2882 302.322 84.9754 302.8C82.7366 306.222 83.274 308.336 86.7731 310.355C94.9861 315.092 103.869 316.59 113.21 315.859C114.435 315.766 115.639 315.443 116.853 315.226ZM170.551 219.248C170.76 226.88 169.001 233.119 167.086 239.322C165.185 245.482 161.946 251.037 158.541 256.778C161.656 256.79 162.062 256.404 164.61 253.407C170.929 245.973 175.19 237.389 178.837 228.447C179.304 227.302 179.594 226.086 180.08 224.544C176.971 222.817 174.089 221.214 170.551 219.248ZM133.334 340.423C138.168 340.75 141.524 340.066 144.177 338.205C139.54 329.222 135.327 320.077 137.298 309.228C136.3 309.443 135.344 309.683 135.03 310.269C129.771 320.078 129.872 330.177 133.334 340.423ZM67.8552 283.349C68.8077 283.291 69.379 283.307 69.9331 283.216C78.5098 281.807 86.7885 282.405 94.5479 286.744C95.0948 287.051 95.8987 287.258 96.4671 287.098C98.555 286.511 100.595 285.749 103.08 284.908C102.603 284.115 102.325 283.209 101.714 282.728C100.269 281.591 98.7772 280.378 97.1021 279.686C90.1801 276.83 83.034 275.274 75.43 275.711C71.7012 275.924 69.709 277.623 68.5645 280.857C68.3375 281.501 68.1877 282.17 67.8552 283.349ZM87.3191 326.604C89.1906 329.91 90.7717 332.704 92.6103 335.952C100.119 336.746 107.812 335.752 115.11 332.208C115.683 331.93 116.363 331.344 116.497 330.784C117.073 328.381 117.461 325.933 117.98 323.17C108.157 328.322 98.0026 328.596 87.3191 326.604ZM154.481 329.288C148.936 323.855 143.668 318.438 142.658 309.826C141.43 309.921 140.344 310.004 139.325 310.083C137.567 318.259 141.197 332.422 146.341 337.808C150.047 336.138 152.761 333.498 154.481 329.288ZM155.496 250.158C159.547 241.918 161.384 224.603 159.03 217.98C155.135 218.063 153.086 218.721 149.902 220.958C150.166 221.783 150.464 222.647 150.721 223.524C152.558 229.819 153.771 236.27 152.71 242.761C152.176 246.018 153.064 248.056 155.496 250.158ZM94.1854 288.326C85.3773 283.54 76.6053 283.469 67.5393 285.193C67.0126 288.52 66.5936 291.437 67.4365 294.531C75.1631 291.474 82.7485 291.872 90.2858 294.481C91.6179 292.38 92.7797 290.546 94.1854 288.326ZM187.802 311.11C189.304 307.527 189.249 304.621 188.222 301.682C187.494 299.599 186.297 298.072 183.984 297.56C179.247 296.512 174.57 295.128 169.791 294.351C165.85 293.711 161.797 293.745 157.606 293.468C157.477 295.058 157.389 296.166 157.335 296.828C162.962 298.343 168.393 299.494 173.599 301.295C178.972 303.154 183.731 306.243 187.802 311.11ZM186.96 313.069C186.689 312.525 186.587 312.18 186.377 311.924C185.862 311.298 185.338 310.67 184.747 310.117C177.213 303.053 167.985 300.047 157.951 299.037C157.462 298.988 156.913 299.544 155.993 300.028C166.063 304.157 173.625 310.559 179.216 319.349C182.343 317.784 185.02 316.059 186.96 313.069ZM120.49 338.164C119.205 336.213 118.155 334.622 116.919 332.746C109.293 337.633 100.873 337.841 91.6431 337.683C93.4273 340.42 94.6955 342.456 96.0573 344.426C96.902 345.648 98.112 346.046 99.6539 346.061C105.524 346.125 110.827 344.342 115.794 341.392C117.347 340.469 118.782 339.346 120.49 338.164ZM153.691 284.445C161.849 278.4 170.573 273.804 180.964 272.318C180.326 271.528 180.002 271.054 179.606 270.648C176.715 267.692 172.614 267.139 169.089 265.445C168.706 265.26 167.961 265.574 167.499 265.849C161.046 269.684 156.417 275.286 152.466 281.524C151.685 282.755 152.005 283.723 153.691 284.445ZM69.407 273.63C68.9441 270.767 68.4177 268.526 68.262 266.259C68.1138 264.109 67.2444 262.71 65.511 261.391C61.7063 258.498 58.4124 255.072 56.3672 250.629C56.2046 250.276 55.8127 250.029 55.504 249.709C51.4783 254.938 49.5374 260.804 55.4859 265.306C55.8529 265.584 56.1324 265.973 56.486 266.272C60.1157 269.344 63.8661 272.204 69.407 273.63ZM177.844 356.788C177.099 348.456 174.164 341.194 170.323 334.239C168.949 331.751 168.92 331.767 165.647 332.716C165.68 336.396 165.848 339.999 167.226 343.581C169.056 348.337 170.351 353.294 170.48 358.461C170.523 360.156 170.524 361.852 170.548 363.835C173.789 362.209 174.833 358.575 177.844 356.788ZM157.525 292.236C159.922 292.219 162.232 292.099 164.528 292.219C166.834 292.341 169.137 292.64 171.424 292.974C173.711 293.308 175.992 293.719 178.249 294.218C180.344 294.681 182.403 295.307 184.479 295.86C182.331 292.28 181.404 288.962 183.254 285.05C173.598 283.198 165.018 285.248 156.408 288.811C156.808 290.037 157.116 290.983 157.525 292.236ZM161.434 217.698C161.238 218.343 161.093 218.569 161.116 218.781C162.275 230.146 161.347 241.244 157.051 251.954C156.687 252.863 157.003 254.044 157.003 255.191C157.583 255.068 157.748 255.084 157.801 255.014C158.144 254.557 158.488 254.098 158.784 253.611C164.036 244.959 167.178 235.543 168.71 225.588C169.035 223.472 168.777 221.266 168.79 218.857C166.056 218.426 163.716 218.057 161.434 217.698ZM131.657 340.433C128.453 329.544 128.066 319.286 133.257 309.218C131.458 310.354 130.022 311.641 128.697 313.033C124.168 317.789 120.969 323.201 120.722 329.966C120.68 331.098 120.601 332.483 121.165 333.338C123.504 336.884 126.367 339.864 131.657 340.433ZM109.545 229.086C111.454 220.324 111.166 212.155 107.772 204.215C107.534 203.66 106.928 203.024 106.375 202.88C103.285 202.073 100.316 202.262 97.5019 204.285C103.341 211.511 104.654 220.133 106.198 228.979C107.398 229.017 108.411 229.048 109.545 229.086ZM106.191 282.806C113.023 281.215 119.101 282.778 124.869 285.709C126.041 284.213 127.017 282.967 128.191 281.467C121.199 275.536 113.354 272.47 104.118 271.281C104.852 275.359 105.484 278.871 106.191 282.806ZM90.1445 237.753C88.2443 239.087 87.6823 240.906 87.2419 242.652C86.6305 245.076 85.2431 246.385 82.8425 246.97C80.6282 247.508 78.5235 248.399 76.8081 250.731C86.4587 251.643 94.6697 255.3 102.079 260.997C102.527 260.316 102.844 259.963 103.008 259.55C103.212 259.042 103.287 258.483 103.438 257.865C97.2831 252.311 92.2572 246.094 90.1445 237.753ZM201.3 255.323C192.298 256.012 184.927 259.933 177.935 265.556C179.539 266.763 180.884 267.776 182.204 268.771C189.164 265.755 196.363 264.341 204.002 263.832C203.982 260.648 202.791 257.98 201.3 255.323ZM181.878 273.562C173.404 274.646 166.12 278.091 159.193 282.438C157.92 283.237 156.649 284.073 155.53 285.064C155.102 285.443 155.098 286.304 154.657 287.741C164.458 283.776 173.716 281.548 183.544 283.593C184.769 279.878 183.809 276.791 181.878 273.562ZM64.3108 307.809C56.2103 307.374 48.2855 307.001 40.7918 311.283C41.5358 312.965 41.4058 315.033 43.3093 315.72C48.2304 317.497 53.2619 318.569 57.4871 317.553C60.084 313.844 62.095 310.972 64.3108 307.809ZM181.562 226.608C177.35 238.291 171.591 248.403 163.373 256.913C164.965 258.928 166.026 258.151 167.167 256.82C173.05 249.954 178.834 242.972 187.171 238.622C186.103 234.306 184.927 230.292 181.562 226.608ZM112.992 250.168C110.561 241.096 110.561 241.096 111.583 231.288C108.473 231.321 105.413 231.353 102.172 231.388C100.555 239.872 104.43 246.337 107.759 253.343C109.736 252.143 111.287 251.202 112.992 250.168ZM187.008 240.505C178.753 245.17 172.915 252.225 166.97 259.301C167.634 260.093 167.957 260.571 168.373 260.947C168.778 261.311 169.278 261.569 169.818 261.929C176.714 255.857 183.991 250.631 192.264 246.976C190.566 244.885 188.93 242.871 187.008 240.505ZM140.704 274.313C142.287 271.873 142.639 269.755 142.13 267.353C140.74 260.787 137.948 254.882 133.996 249.506C133.273 248.522 132.305 247.719 131.393 246.773C128.944 248.359 126.775 249.764 124.149 251.465C132.295 257.235 136.495 265.476 140.704 274.313ZM110.487 354.151C108.858 353.957 107.274 353.674 105.682 353.632C105.095 353.616 104.265 354.008 103.935 354.484C100.863 358.906 98.0701 363.62 98.2425 369.134C98.4735 376.546 99.0862 376.876 106.448 376.797C106.65 376.795 106.851 376.627 107.452 376.359C104.959 368.468 105.29 360.765 110.487 354.151ZM103.867 295.183C104.119 295.313 104.371 295.442 104.622 295.571C110.779 291.724 117.374 292.055 124.179 293.704C124.145 291.887 123.988 290.401 124.128 288.944C124.265 287.532 123.698 286.784 122.489 286.272C117.236 284.053 111.802 283.529 106.092 284.313C105.334 288.025 104.601 291.604 103.867 295.183ZM65.4282 332.061C68.1254 330.357 70.4699 328.314 73.1961 327.313C76.004 326.281 79.1846 326.266 82.3222 325.787C81.7236 323.68 81.1332 321.6 80.5174 319.435C77.9962 319.22 75.7 318.903 73.397 318.858C69.6944 318.784 66.2918 319.892 63.3791 322.187C62.656 322.756 61.7659 323.934 61.909 324.638C62.4768 327.431 63.3054 330.209 65.4282 332.061ZM89.9606 341.941C83.8177 343.05 78.6025 345.035 74.5628 349.41C73.7913 350.246 72.7861 350.995 73.3141 352.384C74.5447 355.623 76.1208 358.644 78.9767 361.437C81.5008 354.402 85.2176 348.717 92.6439 346.031C91.6282 344.483 90.8322 343.269 89.9606 341.941ZM132.628 245.728C138.329 252.128 141.555 259.457 144.024 267.264C147.537 264.487 148.302 261.139 147.163 257.409C146.083 253.872 144.907 250.329 143.364 246.977C141.661 243.277 139.861 242.712 136.034 244.048C134.977 244.416 134.01 245.036 132.628 245.728ZM86.8469 368.926C88.2285 365.208 89.0615 361.663 90.8059 358.644C92.5251 355.669 95.1696 353.227 97.4177 350.537C94.1425 347.229 93.872 347.252 89.8396 349.454C85.1858 351.998 82.6397 356.123 80.7777 360.86C80.1181 362.539 80.5642 363.735 81.8979 364.802C83.5159 366.098 85.0858 367.453 86.8469 368.926ZM200.686 253.873C199.39 252.218 198.677 251.183 197.839 250.259C195.59 247.781 195.105 247.486 192.19 248.996C187.685 251.329 183.282 253.888 178.999 256.61C176.313 258.318 173.927 260.501 171.307 262.55C174.896 265.28 175.599 265.313 178.645 263.178C185.109 258.646 191.66 254.303 200.686 253.873ZM100.074 232.062C98.8863 232.396 97.8592 232.575 96.9215 232.968C90.787 235.532 90.4669 235.839 93.1699 242.192C95.284 247.16 98.7978 251.241 102.71 254.941C103.262 255.464 103.963 255.831 104.493 256.199C106.888 255.102 106.28 253.788 105.422 252.148C102.176 245.946 99.4388 239.573 100.074 232.062ZM110.099 204.385C110.773 208.63 111.768 212.583 111.931 216.571C112.1 220.672 111.458 224.806 111.16 229.091C112.771 229.4 114.218 229.677 115.7 229.959C118.933 222.746 119.982 215.587 117.911 208.21C115.211 206.889 112.658 205.639 110.099 204.385ZM124.989 360.024C123.043 359.164 121.311 358.399 119.619 357.651C116.374 362.677 115.151 367.732 116.345 373.224C116.603 374.415 117.065 375.965 117.955 376.537C120.334 378.062 122.877 379.49 126.269 379.639C122.937 373.154 121.439 366.807 124.989 360.024ZM113.917 353.327C107.584 360.433 106.122 367.91 109.477 376.515C111.273 376.299 113.074 376.085 115.267 375.821C113.015 368.885 114.051 362.464 118.084 356.432C116.478 355.237 115.226 354.303 113.917 353.327ZM127.212 360.642C123.295 364.794 124.143 374.14 127.994 379.151C128.367 379.637 129.109 380.085 129.702 380.115C132.101 380.235 134.484 380.065 137.032 378.768C132.368 373.76 130.147 368.152 131.022 361.384C129.655 361.118 128.442 360.882 127.212 360.642ZM90.0107 209.242C96.3923 216.517 96.3923 216.517 100.449 229.323C101.713 229.136 103.023 228.942 104.682 228.697C103.007 220.095 101.586 211.834 95.5987 204.681C93.6715 206.253 91.945 207.663 90.0107 209.242ZM69.9407 303.429C74.3435 302.761 78.076 302.195 81.6417 301.652C84.0225 299.908 86.383 298.179 89.1859 296.125C81.7119 293.532 74.7573 293.043 67.2957 296.426C68.2517 298.955 69.1253 301.267 69.9407 303.429ZM96.6103 375.081C96.8082 374.883 97.007 374.685 97.2049 374.487C96.3684 370.803 95.969 367.089 97.3377 363.505C98.6872 359.972 100.288 356.535 101.813 352.978C101.01 351.987 100.133 352.392 99.1245 352.889C93.6472 355.584 88.971 363.426 89.3915 369.479C89.4413 370.188 89.8572 371.134 90.4117 371.498C92.4068 372.802 94.5336 373.903 96.6103 375.081ZM72.6223 349.176C77.2303 343.976 82.5054 341.094 88.9375 340.083C88.6002 337.983 88.2949 336.086 88.0006 334.253C82.3644 333.711 76.24 335.672 72.7389 339.079C72.346 339.461 71.8322 340.02 71.8526 340.476C71.9743 343.176 71.3678 345.954 72.6223 349.176ZM149.689 306.237C152.523 311.175 155.038 315.73 160.719 317.412C161.947 316.067 163.813 315.37 164.101 313.248C160.225 310.95 155.943 309.284 154.53 304.504C157.716 307.024 160.312 310.389 164.668 311.257C164.788 310.698 164.956 310.352 164.914 310.035C164.408 306.246 159.776 302.035 156.006 301.948C155.579 301.937 155.062 302.054 154.73 302.303C153.082 303.533 151.483 304.827 149.689 306.237ZM167.075 264.084C166.593 263.502 166.139 262.845 165.58 262.297C162.388 259.172 160.728 259.172 157.88 262.512C154.164 266.869 151.427 271.826 149.316 277.136C148.822 278.38 148.372 279.643 147.957 280.749C149.821 282.475 150.592 281.57 151.439 280.165C155.252 273.844 159.748 268.168 166.534 264.743C166.718 264.649 166.824 264.398 167.075 264.084ZM88.9354 234.291C85.5256 231.199 82.4092 228.26 79.1468 225.492C78.354 224.819 76.9416 224.196 76.0563 224.438C73.1867 225.227 70.5566 226.594 68.9564 229.443C76.1289 231.89 76.3632 231.562 85.3464 239.51C86.458 237.893 87.5535 236.3 88.9354 234.291ZM80.0787 313.136C76.4701 311.534 73.5694 310.151 70.5846 308.983C69.7472 308.656 68.4377 308.601 67.7309 309.041C64.4922 311.055 61.8916 313.674 61.2776 317.679C61.1185 318.715 61.1818 319.786 61.1507 320.634C64.4967 319.28 67.3892 317.62 70.4903 316.992C73.5801 316.366 76.8784 316.776 80.2965 316.728C80.2127 315.351 80.1295 313.983 80.0787 313.136ZM133.184 361.511C132.083 367.243 133.458 372.643 136.848 376.418C137.729 377.399 138.692 378.382 140.118 377.548C141.871 376.522 143.825 375.69 145.011 373.696C141.673 370.014 139.268 366.004 138.793 361.006C136.806 361.185 135.089 361.339 133.184 361.511ZM125.489 295.728C118.701 293.748 112.396 293.747 106.186 296.407C103.934 297.373 103.481 298.199 104.53 300.397C105.287 301.982 106.547 303.33 107.838 305.142C112.996 300.714 118.582 298.544 124.973 298.727C125.161 297.635 125.292 296.871 125.489 295.728ZM158.726 318.208C153.511 315.949 150.887 312.049 148.79 307.532C147.182 308.517 145.836 309.343 144.565 310.123C145.367 316.932 150.968 325.577 155.398 326.928C156.446 324.168 155.597 320.792 158.726 318.208ZM121.982 339.524C118.22 341.543 114.993 343.668 111.475 345.05C108.043 346.398 104.311 346.986 100.598 347.937C103.532 349.948 106.624 350.463 109.985 350.199C112.02 350.039 114.089 350.343 116.143 350.363C116.787 350.369 117.521 350.285 118.068 349.979C121.285 348.185 123.619 345.578 125.222 342.002C124.051 341.106 122.968 340.278 121.982 339.524ZM51.2681 263.28C50.6557 264.952 50.3799 266.076 49.8522 267.065C48.9158 268.824 49.3713 270.124 50.8302 271.303C53.7145 273.634 56.4864 276.115 59.4654 278.317C60.982 279.438 62.6082 280.662 64.6976 280.709C65.7223 278.748 66.6783 276.919 67.7273 274.913C60.9107 273.206 56.031 268.819 51.2681 263.28ZM125.504 226.328C131.105 224.455 132.845 220.415 132.998 215.338C133.032 214.186 133.231 213.039 133.289 211.887C133.432 209.066 132.866 206.424 131.13 203.789C129.333 204.523 127.573 205.243 125.533 206.076C127.749 212.906 127.492 219.516 125.504 226.328ZM134.758 343.992C131.8 343.612 129.207 343.278 127.197 343.019C124.196 346.267 121.558 349.124 118.717 352.198C120.007 353.078 121.172 354.018 122.464 354.724C126.146 356.738 127.974 356.358 130.482 353.021C132.444 350.407 133.919 347.528 134.758 343.992ZM65.8786 237.455C68.4927 238.311 70.8785 238.827 73.0136 239.863C75.2738 240.959 77.279 242.574 79.425 243.913C80.6225 244.662 83.4021 244.128 84.1395 243.015C85.1367 241.507 83.933 240.575 83.0126 239.824C79.9905 237.356 76.9626 234.869 73.7411 232.678C71.9656 231.47 69.7941 230.86 67.2795 231.483C66.8053 233.503 66.3416 235.476 65.8786 237.455ZM119.357 208.264C122.006 215.97 120.119 223.218 117.309 230.281C118.242 230.913 118.791 231.333 119.384 231.673C119.966 232.007 120.594 232.26 121.579 232.73C125.426 224.288 126.639 215.899 123.841 206.837C122.32 207.322 121.036 207.73 119.357 208.264ZM98.9366 229.633C97.1995 222.383 95.1274 215.64 88.7024 210.654C87.1539 213.062 85.7031 215.316 84.0541 217.878C89.7886 220.636 93.04 225.154 95.3474 230.698C96.5958 230.328 97.6523 230.014 98.9366 229.633ZM192.006 305.033C198.688 306.996 207.052 306.789 210.106 304.679C209.768 301.038 209.226 299.574 207.2 297.017C202.26 299.457 196.957 300.79 191.247 300.682C191.545 302.393 191.762 303.637 192.006 305.033ZM186.526 292.351C187.549 294.102 188.417 295.336 189.019 296.688C189.725 298.274 190.786 298.845 192.511 298.895C196.752 299.017 200.792 298.271 204.663 296.587C205.34 296.291 205.913 295.758 206.771 295.172C205.432 293.521 204.289 292.09 203.121 290.68C202.112 289.461 201.052 289.163 199.508 290.012C195.683 292.114 191.574 293.125 186.526 292.351ZM166.287 314.874C168.339 319.349 170.184 323.371 172.226 327.822C174.052 326.364 175.862 325.134 177.365 323.603C177.923 323.035 178.215 321.522 177.858 320.847C175.204 315.833 171.662 311.543 166.981 308.088C166.705 310.791 166.462 313.167 166.287 314.874ZM143.696 224.275C144.66 230.46 145.58 236.352 146.545 242.539C147.604 243.126 148.976 243.885 150.389 244.669C152.366 238.407 150.844 225.526 147.752 222.036C146.289 222.845 144.796 223.668 143.696 224.275ZM144.457 241.413C144.102 237.884 143.863 234.777 143.448 231.693C143.217 229.981 142.722 228.3 142.29 226.619C141.895 225.079 140.932 224.195 139.263 224.401C137.123 224.665 134.992 224.993 132.3 225.371C135.62 230.356 138.327 234.925 138.944 240.367C140.738 240.708 142.316 241.007 144.457 241.413ZM43.3482 325.121C48.7333 326.395 53.6767 327.9 58.9085 326.109C58.6213 323.696 58.3635 321.534 58.071 319.08C52.9555 320.182 48.0318 319.073 42.6838 317.536C42.9247 320.291 43.121 322.528 43.3482 325.121ZM133.481 221.98C135.455 221.607 137.577 222.335 138.406 220.433C140.836 214.861 142.371 209.112 140.252 202.879C137.818 202.344 135.498 202.402 132.925 203.358C136.4 209.473 134.449 215.614 133.481 221.98ZM165.117 341.815C163.635 343.852 161.464 344.638 162.061 347.31C163.422 353.415 164.373 359.558 161.984 365.678C167.454 366.423 168.556 365.602 168.732 360.61C168.954 354.261 167.119 348.317 165.117 341.815ZM129.022 356.476C129.055 356.767 129.087 357.06 129.12 357.351C131.492 357.429 133.867 357.597 136.235 357.531C136.92 357.512 137.818 356.984 138.224 356.411C141.075 352.392 142.614 347.918 142.847 342.677C141.734 342.801 140.969 342.948 140.202 342.959C137.576 342.997 136.174 344.152 135.368 346.814C134.234 350.564 132.32 354.018 129.022 356.476ZM160.023 365.993C162.555 359.387 161.695 353.326 160.25 346.863C158.492 347.612 157.057 348.225 155.519 348.881C155.864 354.109 156.177 359.185 153.276 364.082C155.731 364.777 157.692 365.332 160.023 365.993ZM128.077 286.854C129.22 287.391 130.358 287.915 131.486 288.46C132.712 289.052 133.93 289.664 135.06 290.223C136.5 289.272 137.737 288.456 139.108 287.552C138.46 286.008 137.832 284.514 137.205 283.019C137.488 282.867 137.773 282.715 138.056 282.564C138.992 283.827 140.087 285.005 140.826 286.375C141.834 288.245 143.131 289.477 145.646 289.641C146.48 288 147.337 286.314 148.187 284.642C139.57 279.886 131.378 280.814 128.077 286.854ZM210.419 306.861C204.089 308.313 198.118 308.38 191.922 307.024C191.703 308.384 191.507 309.599 191.258 311.149C195.116 312.212 198.756 313.348 202.461 314.207C208.249 315.551 209.554 314.561 210.428 308.568C210.494 308.124 210.428 307.658 210.419 306.861ZM59.7048 328.169C56.8419 328.299 54.3034 328.659 51.8089 328.461C49.2736 328.258 46.7822 327.506 44.0269 326.943C44.7951 330.551 46.5155 333.065 49.0255 335.043C49.7204 335.592 50.6449 336.212 51.4503 336.195C55.1802 336.112 58.5757 334.964 61.6738 332.632C60.9056 330.891 60.2689 329.446 59.7048 328.169ZM188.777 316.333C188.111 316.863 187.543 317.249 187.063 317.722C186.672 318.107 186.387 318.602 185.853 319.318C193.15 323.307 198.393 329.244 203.333 335.746C203.619 333.867 203.502 332.059 203.594 330.264C203.698 328.244 202.845 326.841 201.455 325.431C197.828 321.754 193.475 319.162 188.777 316.333ZM86.3857 332.36C85.1743 329.167 83.3501 327.52 80.0753 327.926C79.1627 328.039 78.223 327.918 77.2988 327.954C72.7945 328.125 69.4916 330.313 66.9181 334.027C68.2736 335.433 69.5213 336.727 70.8878 338.144C75.5438 334.76 80.2699 331.885 86.3857 332.36ZM117.228 311.68C119 308.423 121.755 306.124 125.175 304.714C124.759 303.142 124.41 301.823 123.985 300.212C118.509 300.591 113.741 302.341 109.764 306.146C112.1 309.461 113.934 310.82 117.228 311.68ZM113.958 231.706C111.603 238.099 112.594 243.749 114.812 249.521C116.54 249.178 117.862 248.916 119.398 248.61C117.909 243.688 118.824 239.081 120.501 234.164C118.221 233.308 116.252 232.567 113.958 231.706ZM146.845 280.203C149.041 273.072 152.377 266.381 157.721 260.217C151.127 261.511 143.982 269.57 143.053 276.065C142.603 279.201 142.895 279.558 146.845 280.203ZM190.53 312.849C190.244 313.507 189.908 314.284 189.622 314.946C194.384 318.304 198.906 321.495 203.569 324.784C204.6 322.219 205.698 319.486 206.738 316.896C201.368 315.555 196.215 314.268 190.53 312.849ZM83.3554 219.647C82.0845 220.873 80.8109 222.101 79.6633 223.208C83.2511 226.668 86.7071 230 90.2299 233.396C90.5871 233.253 91.0406 233.134 91.4273 232.903C92.3012 232.381 93.1412 231.804 93.9735 231.263C91.1302 224.764 87.7246 221.055 83.3554 219.647ZM150.149 339.061C148.505 339.88 147.012 340.503 145.662 341.351C145.067 341.724 144.435 342.529 144.378 343.187C143.96 347.887 142.35 352.187 140.011 356.441C147.896 353.43 152.841 348.097 150.149 339.061ZM142.734 203.628C142.61 206.902 142.765 209.807 142.319 212.616C141.861 215.497 140.817 218.283 139.954 221.382C143.27 221.268 145.423 220.171 146.636 217.365C147.859 214.536 148.371 211.617 148.286 208.55C148.251 207.269 147.859 206.271 146.734 205.66C145.464 204.968 144.155 204.345 142.734 203.628ZM203.789 265.483C196.517 265.611 189.941 267.219 183.291 269.915C184.015 271.142 184.527 272.013 185.036 272.872C187.336 272.378 189.46 271.733 191.627 271.509C193.913 271.273 196.242 271.451 198.551 271.417C198.995 271.412 199.595 271.423 199.853 271.161C201.351 269.638 203.213 268.342 203.789 265.483ZM131.092 226.519C128.799 227.794 126.927 228.829 126.351 230.86C128.927 234.631 131.303 238.113 133.741 241.682C134.969 241.299 136.161 240.927 137.579 240.485C136.503 235.327 134.439 230.826 131.092 226.519ZM144.201 244.657C146.083 250.308 147.872 255.676 149.663 261.055C151.276 259.914 152.938 258.737 154.558 257.593C153.782 250.88 149.896 247.102 144.201 244.657ZM124.751 232.2C123.676 234.428 122.711 236.122 122.059 237.93C121.808 238.627 121.993 239.815 122.461 240.378C123.981 242.211 125.724 243.859 127.455 245.654C128.952 244.597 130.32 243.632 131.74 242.631C130.039 238.786 128.262 235.356 124.751 232.2ZM106.064 307.085C104.465 304.966 103.268 302.588 101.379 301.069C98.7236 298.933 95.5558 297.433 92.5521 295.63C91.6505 296.961 90.7739 298.253 89.9117 299.526C95.2256 303.706 101.432 306.621 106.064 307.085ZM186.734 277.718C190.27 278.548 193.167 279.229 196.559 280.026C197.313 278.013 198.129 275.835 198.964 273.608C194.775 272.503 190.601 272.933 186.101 274.829C186.329 275.867 186.568 276.956 186.734 277.718ZM146.742 372.708C148.028 370.368 149.033 368.535 149.954 366.863C147.702 364.782 145.762 363.016 143.859 361.213C143.212 360.599 142.65 359.425 141.676 360.201C141.134 360.633 140.897 361.832 141.001 362.623C141.494 366.407 143.319 369.505 146.742 372.708ZM130.153 308.4C129.044 307.708 128.108 306.742 126.484 307.168C120.994 308.609 118.697 313.894 121.344 318.861C124.166 315.508 127.024 312.116 130.153 308.4ZM153.903 350.075C150.974 352.899 148.436 355.346 145.98 357.714C147.511 361 147.866 361.326 151.423 362.739C154.131 358.971 154.107 354.743 153.903 350.075ZM170.531 328.503C169.065 324.051 167.793 320.197 164.884 316.85C163.94 317.76 163.229 318.446 162.728 318.929C163.778 322.43 164.762 325.708 165.845 329.318C167.132 329.093 168.55 328.847 170.531 328.503ZM154.556 334C153.515 335.872 152.239 337.193 152.106 338.621C151.877 341.071 152.362 343.59 152.557 346.219C153.706 345.787 154.662 345.39 155.643 345.066C157.461 344.467 158.208 343.301 157.91 341.367C157.519 338.833 156.849 336.458 154.556 334ZM62.4267 334.209C60.9594 334.924 59.7327 335.544 58.4867 336.121C57.3057 336.667 56.1029 337.168 54.7134 337.776C58.9889 340.412 65.0486 341.428 68.0725 340.065C66.2176 338.141 64.4064 336.262 62.4267 334.209ZM65.7017 242.725C69.2795 244.388 72.1809 245.733 75.4918 247.271C76.0465 246.812 76.9762 246.042 78.0944 245.118C74.4483 241.938 70.7692 239.805 65.8619 239.427C65.7948 240.816 65.7405 241.933 65.7017 242.725ZM157.462 330.281C156.47 331.426 155.452 332.384 156.42 333.747C158.226 336.291 159.179 339.144 159.538 342.543C163.19 339.493 162.205 335.621 162.697 332.002C160.944 331.425 159.328 330.895 157.462 330.281ZM154.272 292.759C152.592 293.999 151.328 294.799 150.24 295.79C149.635 296.341 149.015 297.181 148.934 297.948C148.63 300.765 147.288 302.934 145.265 304.798C144.566 305.443 143.953 306.182 143.301 306.877C144.095 307.032 144.636 306.882 145.032 306.557C147.428 304.587 149.857 302.647 152.147 300.558C154.265 298.626 154.83 296.123 154.272 292.759ZM185.25 290.398C190.628 291.294 195.393 291.072 199.835 288.017C197.159 285.493 196.886 285.275 195.271 286.19C192.23 287.913 189.003 288.461 185.407 288.042C185.353 288.855 185.309 289.501 185.25 290.398ZM100.747 299.181C102.695 294.111 99.6884 291.976 96.644 289.683C96.0922 290.125 95.598 290.421 95.2299 290.829C93.3082 292.96 93.3166 293.741 95.6041 295.596C97.1813 296.877 98.9387 297.935 100.747 299.181ZM148.905 294.398C150.685 293.085 152.816 292.597 153.756 290.537C152.688 288.65 151.93 286.686 149.84 285.833C146.565 290.348 146.482 290.963 148.905 294.398ZM81.2522 303.667C77.8755 303.636 74.8604 303.466 71.7418 305.152C74.1927 307.647 76.812 308.69 80.1285 308.819C80.4984 307.121 80.8501 305.508 81.2522 303.667ZM160.424 320.066C157.843 322.356 158.569 324.981 158.281 327.453C160.122 328.342 161.819 329.143 164.039 328.861C163.278 325.657 162.515 322.826 160.424 320.066ZM142.716 291.879C138.703 290.003 136.904 290.974 135.724 295.41C136.828 296.08 137.982 296.782 139.521 297.718C140.644 295.667 141.621 293.882 142.716 291.879ZM127.774 303.42C129.362 302.624 130.675 301.966 132.084 301.261C131.977 299.6 131.876 298.018 131.757 296.175C130.617 295.933 129.585 295.714 128.186 295.417C128.621 298.3 125.942 300.406 127.774 303.42ZM150.485 208.781C150.216 210.569 150.072 211.923 149.796 213.248C149.518 214.582 149.109 215.89 148.698 217.424C154.491 215.204 154.945 213.065 150.485 208.781ZM194.191 282.012C192.01 280.378 189.753 280.148 187.132 280.492C186.954 281.93 186.793 283.22 186.61 284.701C189.59 284.535 192.216 284.516 194.191 282.012ZM127.376 293.499C129.528 293.77 130.987 293.955 132.389 294.132C133.481 293.022 133.552 291.982 132.312 291.193C130.809 290.236 129.2 289.445 126.898 288.177C127.102 290.448 127.234 291.921 127.376 293.499ZM121.923 241.905C121.641 242.018 121.359 242.132 121.076 242.246C120.672 244.234 120.617 246.209 121.64 248.543C123.028 247.973 124.301 247.45 126.097 246.715C124.432 244.794 123.178 243.35 121.923 241.905ZM136.053 307.289C134.716 305.75 133.778 304.669 132.772 303.512C131.476 303.859 130.31 304.172 128.586 304.632C130.951 306.432 132.95 307.41 136.053 307.289ZM98.3265 288.2C99.5947 289.515 100.395 290.345 101.616 291.611C101.975 289.816 102.219 288.588 102.568 286.836C100.958 287.353 99.9321 287.683 98.3265 288.2Z" fill="#129512"/>
<path d="M403.902 65.0973C403.858 65.3892 403.868 65.7528 403.749 66.0677C399.27 77.8404 392.083 86.9473 379.262 90.147C376.154 90.9225 372.83 91.1051 369.608 91.0901C364.811 91.0673 359.476 89.3826 355.13 84.0861C359.187 73.9856 365.603 66.19 376.752 63.4252C385.536 61.2473 394.288 62.0923 402.939 64.4271C403.243 64.5102 403.491 64.8049 403.902 65.0973ZM372.052 77.5743C378.031 76.7892 384.287 70.8003 385.69 64.8277C380.987 64.4215 379.442 64.8046 377.516 67.7895C375.535 70.8615 373.928 74.1755 372.052 77.5743ZM365.394 82.9982C366.861 83.4492 367.605 83.7808 368.38 83.8977C371.701 84.399 374.968 84.9943 377.89 86.8389C378.502 87.2256 379.49 87.3647 380.197 87.1876C382.744 86.55 385.241 85.7232 387.6 83.7038C386.465 83.4496 385.713 83.2381 384.947 83.1161C381.305 82.5393 377.63 82.1274 374.023 81.383C371.147 80.7904 368.599 81.3182 365.394 82.9982ZM364.548 80.0743C364.691 80.2564 364.834 80.4368 364.977 80.6189C366.516 79.9002 368.656 79.5941 369.48 78.3875C372.02 74.6714 374.057 70.6115 376.29 66.6851C373.437 67.189 370.852 67.6073 369.55 70.2028C367.897 73.5011 366.217 76.785 364.548 80.0743ZM375.71 78.9714C375.703 79.2997 375.696 79.6281 375.689 79.9564C376.999 80.3192 378.288 80.8254 379.621 81.0152C382.26 81.3891 384.966 81.3756 387.564 81.9178C390.197 82.4676 391.583 81.313 392.978 79.1924C389.215 78.6996 385.801 78.2471 382.385 77.8094C381.811 77.7353 381.199 77.5961 380.654 77.7143C378.993 78.0735 377.357 78.5439 375.71 78.9714ZM359.337 84.709C363.191 88.4996 369.835 89.8134 375.379 87.7978C373.726 87.2545 372.456 86.8123 371.17 86.4213C368.951 85.7466 366.618 85.3355 364.533 84.3766C362.708 83.5365 361.224 83.7553 359.337 84.709ZM382.61 73.8002C388.03 73.207 390.284 68.9472 393.28 65.3388C389.415 63.9022 388.485 64.1868 386.773 67.0318C385.43 69.2649 384.044 71.472 382.61 73.8002ZM384.216 75.9877C386.776 77.5321 389.389 76.8547 391.823 77.271C394.57 77.741 396.209 76.8978 397.064 74.099C392.744 73.9838 388.372 72.7706 384.216 75.9877ZM359.08 82.3884C360.232 81.8125 361.228 81.6276 361.689 81.0313C363.905 78.158 365.988 75.1794 367.213 71.2546C364.231 73.6357 360.867 78.2325 359.08 82.3884ZM391.786 72.3831C399.025 73.2363 399.608 72.5116 400.854 67.3377C397.95 68.9534 395.172 70.4991 391.786 72.3831ZM399.814 65.9343C394.634 63.294 393.86 67.6034 392.047 70.1295C394.518 68.7943 396.989 67.4599 399.814 65.9343Z" fill="#129512"/>
<path d="M331.828 0.361937C333.484 2.38303 335.012 4.11861 336.394 5.96394C339.139 9.62897 340.438 13.7443 340.081 18.3618C339.652 23.9165 337.867 29.0318 335.081 33.7994C331.826 39.368 327.568 44.1071 322.591 48.1858C320.265 50.0917 319.268 49.7851 318.532 46.8285C317.524 42.7759 316.653 38.685 315.863 34.5841C314.132 25.5955 316.497 17.6077 321.85 10.3233C324.619 6.55476 327.712 3.17195 331.828 0.361937ZM329.49 10.4049C327.452 17.7687 329.384 22.9908 335.797 27.6357C336.354 25.7551 336.84 23.9995 337.399 22.2671C337.956 20.5424 337.584 19.0718 336.368 17.7715C334.167 15.4181 331.97 13.0622 329.49 10.4049ZM327.34 20.8729C326.833 22.4608 326.501 23.9124 327.02 25.5817C327.741 27.8934 328.206 30.2831 328.884 32.6106C329.241 33.836 329.816 34.9984 330.585 36.9231C331.993 34.6032 332.934 33.0441 333.885 31.4904C334.742 30.0893 334.427 28.8689 333.383 27.7042C331.413 25.5083 329.471 23.2851 327.34 20.8729ZM324.892 20.1086C324.815 20.0985 324.663 20.0295 324.591 20.0788C323.159 21.0486 321.717 22.0026 320.318 23.0192C316.856 25.5379 316.351 27.4631 317.954 31.7904C322.197 29.0428 325.682 25.8432 324.892 20.1086ZM332.024 4.28033C331.704 4.305 331.384 4.33055 331.064 4.35522C330.91 5.74651 330.191 7.40809 330.705 8.47695C332.235 11.6572 334.592 14.2861 337.972 16.6627C337.745 11.2356 335.483 7.46346 332.024 4.28033ZM323.755 29.499C316.689 33.9126 317.224 34.8346 319.115 38.7237C323.549 37.1306 323.53 33.3626 323.755 29.499ZM318.359 21.9223C323.587 19.854 326.232 16.7689 326.171 12.6299C322.822 15.2108 318.282 16.5536 318.359 21.9223ZM326.207 29.0095C324.541 35.6718 324.566 36.5461 326.556 41.4617C327.569 40.2559 328.509 39.1351 329.234 38.2718C328.183 35.0558 327.262 32.2351 326.207 29.0095ZM321.515 13.3163C326.002 11.3077 328.292 8.31194 328 4.89457C325.826 7.71726 323.894 10.2272 321.515 13.3163ZM320.964 44.8765C321.345 43.045 321.726 41.2135 322.152 39.1614C318.806 40.7517 318.806 40.7517 320.964 44.8765ZM322.538 44.9017C325.379 43.2796 324.809 41.5989 323.898 39.8267C323.512 41.2669 323.126 42.7071 322.538 44.9017Z" fill="#129512"/>
<path d="M274.512 157.693C275.409 158.624 276.235 159.506 277.089 160.36C279.305 162.577 281.619 164.705 283.728 167.018C285.127 168.553 286.551 170.2 287.429 172.05C290.561 178.648 293.602 185.299 296.362 192.059C297.104 193.876 297.015 196.181 296.806 198.21C296.273 203.406 295.425 208.57 294.767 213.756C294.068 219.272 292.271 224.334 289.075 228.928C286.985 231.933 284.29 233.977 280.781 234.885C277.409 235.757 274.02 236.593 270.602 237.264C267.05 237.962 265.152 237.008 263.466 233.772C262.722 232.342 262.165 230.789 261.702 229.24C258.363 218.052 256.373 206.646 256.022 194.95C255.765 186.357 255.315 177.768 254.935 169.178C254.921 168.865 254.749 168.559 254.67 168.312C246.759 172.992 238.861 177.543 231.096 182.309C227.047 184.794 223.281 187.736 219.294 190.33C214.78 193.265 209.763 194.673 204.382 194.203C199.527 193.779 194.675 193.188 189.867 192.399C186.595 191.862 185.703 190.355 186.635 187.16C189.162 178.485 192.864 170.421 199.205 163.762C202.134 160.686 205.439 158.222 209.332 156.52C212.615 155.085 215.865 153.574 219.135 151.793C215.568 151.184 211.961 151.283 208.371 151.26C204.653 151.237 200.93 151.234 197.217 151.393C193.506 151.552 189.788 151.791 186.102 152.237C182.299 152.697 178.519 153.38 174.753 154.093C171.102 154.785 167.45 155.523 163.855 156.453C160.261 157.383 156.71 158.503 153.185 159.675C149.662 160.848 146.161 162.104 142.712 163.481C139.336 164.828 136.089 166.511 132.269 167.767C132.395 165.953 133.375 165.523 134.244 165.055C137.819 163.129 141.298 160.973 145.013 159.366C163.572 151.337 182.942 146.914 203.216 146.879C210.166 146.867 217.118 147.164 224.447 147.327C223.715 146.767 223.167 146.326 222.597 145.913C218.65 143.049 214.768 140.087 210.728 137.361C206.786 134.701 202.577 132.434 198.671 129.728C194.329 126.717 190.919 122.728 188.071 118.294C185.795 114.75 186.282 112.199 189.916 110.128C192.83 108.469 195.957 107.172 199.04 105.829C202.34 104.391 205.712 103.123 209.026 101.718C211.42 100.703 213.864 100.503 216.079 101.85C225.297 107.449 235.35 111.643 243.919 118.331C244.998 119.173 246.021 120.086 247.489 120.694C246.588 119.129 245.701 117.554 244.784 115.999C242.72 112.501 240.572 109.051 238.581 105.511C235.737 100.452 234.326 94.9122 234.124 89.1788C234.025 86.3548 234.583 83.3894 235.45 80.6815C236.397 77.7214 237.987 74.9569 239.398 72.1587C240.704 69.5685 242.797 68.0583 245.8 68.1425C249.283 68.2408 252.767 68.3573 256.246 68.5487C258.998 68.7008 261.114 69.96 262.402 72.4675C262.826 73.2934 263.366 74.0744 263.68 74.9392C267.802 86.2907 272.341 97.5488 271.863 109.978C271.855 110.176 272.04 110.382 272.342 111.024C276.216 104.966 280.036 99.177 283.657 93.264C286.209 89.0967 288.652 84.9127 292.344 81.5757C295.637 78.5991 299.345 76.6164 303.734 75.9922C307.415 75.4693 311.102 74.9875 314.8 74.6034C317.922 74.2786 319.566 75.4003 320.583 78.3978C320.917 79.3815 321.246 80.4226 321.274 81.4452C321.43 87.3564 321.874 93.2938 321.496 99.1761C320.996 106.954 316.931 112.71 310.453 117.187C303.694 121.857 297.393 127.19 291.201 132.721C293.868 132.348 296.534 131.979 299.2 131.6C301.591 131.259 303.521 130.167 305.194 128.375C307.089 126.342 309.149 124.443 311.266 122.638C313.828 120.452 316.841 119.315 320.261 119.521C325.479 119.839 330.7 120.117 335.909 120.557C337.977 120.733 340.054 121.154 342.056 121.713C345.332 122.628 347.774 124.529 349.227 127.792C350.107 129.768 351.565 131.492 352.808 133.299C353.332 134.062 354.007 134.72 354.553 135.471C357.373 139.349 357.377 142.07 354.662 145.975C351.059 151.157 346.309 155.092 340.687 157.744C336.629 159.658 332.249 160.958 327.918 162.204C324.92 163.067 321.758 163.357 318.672 163.928C303.901 166.658 289.765 164.957 276.385 157.915C275.978 157.702 275.525 157.572 275.086 157.429C275.011 157.403 274.891 157.513 274.512 157.693ZM259.374 114.651C258.921 116.256 259.469 117.604 260.451 118.841C261.267 121.917 262.083 124.991 262.9 128.066C263.379 126.223 263.452 124.409 263.251 122.627C262.564 116.514 261.816 110.409 261.013 104.31C260.772 102.475 260.243 100.679 259.91 98.8535C259.331 95.6661 258.83 92.4636 258.243 89.277C257.234 83.806 256.2 78.3388 255.142 72.8774C254.917 71.7197 254.19 71.4747 253.447 71.8027C254.52 79.2502 255.64 86.4484 256.568 93.6711C257.218 98.7234 257.603 103.81 258.105 108.881C257.731 107.679 257.181 106.504 257.01 105.274C255.985 97.9282 255.138 90.5571 254.037 83.2241C253.558 80.0308 252.73 76.8738 251.846 73.761C251.216 71.5425 250.972 71.5451 248.572 71.9684C249.224 75.4795 250.403 78.9853 250.429 82.4998C250.506 93.0981 254.522 102.618 257.879 112.343C258.386 113.144 258.893 113.944 259.401 114.745L259.374 114.651ZM251.137 120.463C250.886 119.464 250.762 118.411 250.361 117.477C248.123 112.263 246.014 106.98 243.483 101.911C240.672 96.2824 239.154 90.4571 239.343 84.1766C239.37 83.3075 239.297 82.4366 239.27 81.5674C237.495 83.8432 237.124 86.3781 237.362 89.0434C237.841 94.4055 238.977 99.6078 241.664 104.322C244.759 109.752 248.019 115.089 251.213 120.467C252.941 126.031 254.321 131.748 258.174 136.376C256.151 130.927 254.937 125.119 251.137 120.463ZM272.39 232.803C271.787 231.092 270.946 229.425 270.621 227.662C268.834 217.975 267.439 208.224 264.892 198.673C263.918 195.024 263.735 191.108 263.599 187.3C263.262 177.807 263.161 168.305 262.956 158.806C262.95 158.501 262.854 158.198 262.749 157.606C262.469 158.147 262.245 158.409 262.196 158.701C260.83 166.938 259.596 175.146 260.292 183.589C261.565 199.007 264.255 214.157 268.095 229.119C268.468 230.569 268.979 232.006 269.632 233.348C269.857 233.814 270.783 234.29 271.257 234.182C271.72 234.077 272.013 233.231 272.381 232.71C273.97 234.577 275.475 233.131 276.986 232.848C277.735 220.385 269.163 178.131 264.289 170.146C264.581 177.316 264.788 184.376 265.195 191.426C265.348 194.074 265.698 196.772 266.417 199.316C269.016 208.502 270.16 217.951 271.73 227.324C272.035 229.133 272.175 230.973 272.39 232.803ZM278.787 232.254C283.814 230.425 285.127 228.859 284.886 224.275C284.431 215.59 284.007 206.883 282.162 198.348C280.711 191.631 278.582 185.106 275.153 179.136C272.06 173.754 268.596 168.587 265.295 163.324C265.589 166.258 266.234 169.156 267.005 172.02C267.608 174.257 268.485 176.421 269.033 178.669C270.732 185.655 272.496 192.631 273.924 199.675C275.35 206.715 276.483 213.819 277.586 220.918C278.153 224.572 278.377 228.279 278.787 232.254ZM277.072 148.798C278.218 148.912 279.318 149.039 280.419 149.13C290.17 149.937 299.613 147.937 309.004 145.777C313.28 144.794 317.502 143.427 321.593 141.837C324.783 140.597 327.898 139.706 331.362 139.836C337.477 140.065 342.893 137.549 348.285 135.088C348.876 134.818 349.324 134.237 349.791 133.84C348.178 129.607 347.573 129.147 343.738 129.859C342.292 130.127 340.941 130.891 339.535 131.396C337.478 132.133 335.434 132.924 333.34 133.541C330.014 134.522 326.639 135.335 323.309 136.299C319.08 137.524 314.952 139.441 310.645 139.982C299.159 141.425 288.539 146.154 277.248 148.228C277.199 148.236 277.183 148.422 277.072 148.798ZM346.444 128.126C346.577 127.835 346.709 127.545 346.841 127.255C345.92 126.754 345.051 126.034 344.066 125.79C339.965 124.773 335.848 124.612 331.643 125.449C328.017 126.171 324.321 126.616 320.635 126.945C317.635 127.212 314.962 128.015 312.719 130.087C309.307 133.239 305.268 135.357 300.756 136.163C294.34 137.311 288.562 139.559 283.441 143.695C281.809 145.014 279.482 145.473 277.473 146.325C277.549 146.555 277.627 146.784 277.704 147.013C281.706 145.919 285.799 145.074 289.69 143.67C295.295 141.648 301.007 140.213 306.883 139.362C312.314 138.574 317.488 136.938 322.628 135.037C326.084 133.758 329.747 133.043 333.309 132.048C334.754 131.644 336.359 131.445 337.574 130.66C340.302 128.899 343.192 127.995 346.444 128.126ZM267.399 162.193C267.193 162.284 266.986 162.377 266.781 162.469C268.266 165.056 269.515 167.818 271.28 170.197C276.402 177.101 280.129 184.641 282.18 192.974C283.122 196.801 283.984 200.676 284.472 204.58C285.399 211.997 286.03 219.451 286.794 226.985C288.953 224.237 290.222 221.144 290.556 217.756C291.08 212.435 291.491 207.062 290.2 201.806C288.704 195.724 287.12 189.652 285.246 183.679C283.302 177.482 280.051 172.048 274.708 168.056C272.207 166.188 269.831 164.152 267.399 162.193ZM254.845 152.141C254.037 152.542 253.207 152.905 252.423 153.349C245.871 157.064 239.311 160.766 232.785 164.527C228.067 167.247 223.564 170.399 218.67 172.74C210.181 176.799 201.84 181.081 193.93 186.183C193.349 186.558 192.815 187.007 192.258 187.42C195.679 187.247 198.845 186.56 202.047 186.132C208.14 185.315 213.749 183.268 218.864 179.881C224.277 176.296 229.483 172.36 235.093 169.122C242.743 164.707 249.135 158.926 254.845 152.141ZM195.381 111.76C195.385 112.012 195.39 112.265 195.394 112.518C196.52 112.724 197.657 112.886 198.771 113.143C208.1 115.296 217.177 118.16 224.647 124.436C228.983 128.078 233.825 130.609 238.95 132.863C243.069 134.673 246.973 136.98 250.953 139.104C252.951 140.17 254.908 141.316 256.882 142.426C254.328 138.552 251.472 135.104 248.453 131.808C246.083 129.221 243.184 127.353 239.94 125.922C236.13 124.241 232.415 122.337 228.721 120.41C224.201 118.054 219.801 115.466 215.251 113.174C208.825 109.935 202.098 110.644 195.381 111.76ZM316.909 77.9232C315.001 79.7627 312.922 81.4396 311.241 83.4505C306.154 89.5346 300.466 94.9849 294.302 99.9411C288.418 104.672 283.829 110.377 280.409 117.118C278.053 121.76 275.408 126.259 272.786 130.76C270.872 134.045 269.402 139.55 269.736 143.262C270.169 142.697 270.569 142.28 270.85 141.792C273.845 136.574 276.83 131.35 279.802 126.119C282.61 121.174 285.388 116.229 289.576 112.232C291.838 110.074 293.852 107.66 295.994 105.375C299.955 101.15 304.056 97.0464 307.857 92.6814C311.123 88.9298 314.062 84.8942 317.118 80.9618C317.886 79.9711 318.24 78.9146 316.909 77.9232ZM277.784 153.007C277.74 153.169 277.697 153.33 277.653 153.492C278.026 153.645 278.393 153.816 278.773 153.949C286.425 156.624 294.318 157.906 302.387 157.232C311.274 156.491 320.146 155.472 328.982 154.269C331.791 153.887 334.486 152.58 337.196 151.596C339.685 150.692 342.066 149.454 344.597 148.718C348.721 147.517 351.752 145.031 354.092 141.55C354.648 140.722 354.929 139.899 353.858 139.042C353.307 139.388 352.702 139.716 352.155 140.122C346.541 144.276 340.246 146.764 333.378 147.897C331.893 148.143 330.373 148.366 328.97 148.878C323.221 150.97 317.227 151.454 311.201 151.926C306.583 152.288 301.968 152.79 297.387 153.471C292.062 154.262 286.775 154.483 281.46 153.513C280.244 153.29 279.01 153.173 277.784 153.007ZM276.335 150.411C282.632 152.383 288.956 153.187 295.483 152.328C301.687 151.51 307.938 151.059 314.155 150.335C317.719 149.92 321.284 149.412 324.799 148.704C328.315 147.996 331.759 146.937 335.256 146.123C341.551 144.657 347.415 142.306 352.373 138.031C352.617 137.821 352.74 137.471 352.989 137.074C352.382 136.445 351.799 135.841 351.268 135.29C344.11 139.107 336.93 141.782 328.863 141.53C326.984 141.472 325.01 142.252 323.188 142.935C309.134 148.201 294.715 151.26 279.618 150.427C278.528 150.365 277.43 150.412 276.335 150.411ZM279.688 156.269C279.635 156.352 279.583 156.435 279.53 156.519C280.424 156.959 281.299 157.446 282.215 157.833C291.469 161.752 301.16 163.349 311.123 162.453C317.345 161.893 323.515 160.659 329.676 159.546C335.116 158.563 340.027 156.2 344.573 153.095C346.393 151.851 347.986 150.336 349.342 148.584C345.785 149.584 342.266 150.494 339.113 152.116C334.463 154.51 329.634 155.708 324.465 156.051C320.773 156.296 317.102 156.885 313.43 157.379C306.408 158.324 299.374 159.212 292.288 158.299C288.07 157.755 283.887 156.954 279.688 156.269ZM318.843 91.9377C314.332 95.5003 310.045 98.8413 305.818 102.253C304.745 103.12 303.818 104.18 302.894 105.215C298.494 110.142 294.505 115.519 289.633 119.922C283.866 125.133 281.888 132.342 277.47 138.955C282.869 136.245 285.747 132.307 287.506 127.479C288.29 125.326 289.567 123.617 291.344 122.224C295.904 118.65 300.432 115.034 305.018 111.495C309.925 107.708 314.145 103.324 317.626 98.1672C318.976 96.1651 319.355 94.2595 318.843 91.9377ZM194.76 113.968C194.729 114.2 194.696 114.432 194.664 114.665C197.017 115.623 199.409 116.499 201.714 117.562C205.285 119.21 208.995 120.674 212.29 122.776C218.05 126.448 223.758 130.274 229.086 134.536C235.164 139.396 241.8 142.509 249.522 143.36C251.633 143.593 253.73 143.935 256.221 144.279C255.748 143.576 255.666 143.31 255.491 143.212C249.122 139.656 242.964 135.744 236.078 133.115C232.555 131.769 228.93 129.998 226.155 127.519C217.687 119.951 207.59 116.347 196.759 114.195C196.104 114.064 195.428 114.041 194.76 113.968ZM242.576 154.414C242.513 154.219 242.45 154.024 242.386 153.828C237.033 154.799 231.623 155.528 226.339 156.793C217.577 158.89 209.884 163.344 203.612 169.65C199.28 174.005 195.997 179.401 192.244 184.331C193.193 184.438 193.844 184.226 194.362 183.839C200.668 179.119 207.083 174.535 213.21 169.596C220.323 163.863 227.798 158.932 236.718 156.482C238.711 155.936 240.626 155.111 242.576 154.414ZM262.547 138.158C262.801 138.058 263.054 137.955 263.308 137.854C263.067 136.742 262.9 135.607 262.571 134.52C259.277 123.646 256.053 112.75 252.606 101.923C250.657 95.7993 249.303 89.658 249.217 83.1826C249.176 79.9894 248.38 76.7623 247.589 73.6365C246.963 71.1663 246.682 71.203 243.401 72.2629C243.66 75.6004 244.202 79.0502 244.139 82.4881C244.006 89.6827 246.18 96.1456 249.429 102.433C251.015 105.502 252.451 108.757 253.257 112.097C254.626 117.766 256.533 123.204 258.775 128.561C260.101 131.731 261.293 134.957 262.547 138.158ZM190.707 183.935C190.925 184.038 191.143 184.141 191.362 184.243C192.877 182.213 194.4 180.188 195.907 178.151C199.144 173.773 202.035 169.108 206.506 165.78C214.942 159.498 224.167 155.224 234.733 153.914C239.205 153.358 243.601 152.157 248.01 151.153C249.302 150.858 250.518 150.229 251.769 149.753C250.501 149.459 249.396 149.705 248.279 149.873C244.611 150.427 240.941 151.388 237.269 151.402C228.672 151.433 220.926 154.018 213.257 157.658C206.761 160.742 201.51 164.993 197.342 170.763C194.412 174.817 192.17 179.181 190.707 183.935ZM270.687 129.316C271.051 129.51 271.415 129.703 271.778 129.897C273.924 125.955 276.263 122.104 278.176 118.052C281.498 111.018 285.8 104.735 291.908 99.9089C299.214 94.1335 305.793 87.6199 312.188 80.8921C312.924 80.1178 313.571 79.2592 314.672 77.9496C313.547 78.1565 313.19 78.1587 312.888 78.2874C306.284 81.1001 300.438 84.9399 295.957 90.6691C294.101 93.0428 292.201 95.3895 290.215 97.6527C284.463 104.203 278.973 110.94 275.194 118.868C273.562 122.29 272.182 125.83 270.687 129.316ZM292.561 206.224C292.967 203.837 293.292 201.432 293.799 199.067C294.489 195.848 293.951 192.908 292.432 190.002C290.824 186.926 289.095 183.839 288.062 180.555C285.968 173.894 281.887 168.758 277.004 163.979C273.71 160.754 270.875 157.062 267.817 153.592C267.107 152.786 266.33 152.039 265.056 150.718C264.619 154.37 265.491 156.891 267.22 158.894C269.401 161.418 271.805 163.822 274.427 165.878C278.89 169.378 282.671 173.314 284.796 178.671C288.313 187.537 290.923 196.646 292.561 206.224ZM254.832 145.716C254.882 145.566 254.934 145.417 254.986 145.268C251.909 144.813 248.804 144.492 245.761 143.874C241.796 143.069 237.71 142.532 234.298 140.04C231.768 138.193 229.294 136.262 226.698 134.514C220.35 130.238 214.02 125.927 207.531 121.873C204.32 119.865 200.608 118.84 196.988 117.696C199.207 119.863 201.437 121.913 203.893 123.643C206.441 125.439 209.099 127.157 211.904 128.496C216.554 130.716 220.746 133.532 224.734 136.774C232.672 143.23 241.627 146.834 252.07 145.873C252.986 145.788 253.91 145.766 254.832 145.716ZM318.157 82.3199C313.955 88.8907 308.859 94.0938 303.506 99.0779C302.066 100.418 300.819 101.966 299.509 103.44C296.736 106.558 293.951 109.666 291.223 112.823C288.951 115.452 286.495 117.969 284.584 120.846C281.378 125.669 278.518 130.724 275.564 135.713C274.767 137.06 274.163 138.521 273.469 139.929C274.428 139.761 274.948 139.338 275.447 138.89C278.477 136.166 280.04 132.507 281.645 128.912C283.181 125.47 285.286 122.515 287.892 119.786C291.817 115.679 295.594 111.419 299.244 107.064C301.937 103.851 304.699 100.814 308.136 98.3256C311.124 96.1617 313.794 93.544 316.513 91.0284C318.953 88.7699 319.619 86.0086 318.157 82.3199ZM197.682 188.093C197.657 188.232 197.633 188.372 197.608 188.51C198.062 188.613 198.524 188.825 198.97 188.798C202.322 188.594 205.683 188.449 209.017 188.073C212.313 187.701 215.222 186.377 217.73 184.105C221.178 180.981 224.98 178.372 229.237 176.4C232.595 174.844 235.899 173.14 239.1 171.284C243.205 168.905 247.736 166.878 251.075 163.655C255.043 159.826 257.94 154.886 261.301 150.427C261.09 150.229 260.879 150.034 260.668 149.837C258.359 151.901 256.062 153.98 253.736 156.026C249.654 159.619 245.772 163.487 241.408 166.697C235.911 170.739 229.923 174.109 224.31 178.001C217.048 183.04 209.366 186.852 200.397 187.548C199.483 187.619 198.587 187.905 197.682 188.093ZM336.333 123.59C336.317 123.268 336.299 122.947 336.283 122.625C330.51 122.275 324.739 121.743 318.963 121.679C317.145 121.659 315.051 122.535 313.547 123.636C310.954 125.533 308.817 128.042 306.309 130.071C304.727 131.349 302.91 132.451 301.026 133.203C299.564 133.786 297.844 133.772 296.228 133.903C293.848 134.097 291.704 134.827 289.803 136.291C286.553 138.795 283.287 141.274 280.028 143.764C281.608 143.351 283.102 142.706 284.328 141.727C288.293 138.562 292.554 136.337 297.696 135.518C302.991 134.673 307.966 132.784 311.966 128.831C314.079 126.743 316.871 125.934 319.875 125.631C325.374 125.076 330.848 124.283 336.333 123.59ZM205.995 176.767C213.284 174.408 244.724 157.328 248.175 153.919C244.345 155.254 240.706 156.8 236.923 157.789C224.827 160.951 215.793 168.961 205.995 176.767ZM318.202 100.714C316.618 102.451 315.474 103.711 314.322 104.966C308.951 110.809 302.723 115.666 296.252 120.177C291.941 123.181 288.311 126.506 287.173 132.29C288.613 131.156 289.905 130.256 291.062 129.207C296.988 123.831 302.761 118.294 309.709 114.149C311.65 112.991 313.293 111.183 314.761 109.415C316.666 107.121 317.988 104.463 318.202 100.714ZM195.6 190.298C195.585 190.508 195.572 190.718 195.557 190.928C197.793 191.142 200.031 191.336 202.265 191.576C209.312 192.333 215.536 190.313 221.18 186.137C224.532 183.658 227.858 181.104 231.421 178.954C236.572 175.844 241.936 173.087 247.192 170.148C251.949 167.488 254.801 164.112 255.673 160.431C253.941 162.216 252.318 164.671 250.047 166.079C243.362 170.223 236.381 173.885 229.595 177.872C226.113 179.917 222.533 181.937 219.482 184.538C216.149 187.379 212.53 189.131 208.282 189.606C205.176 189.953 202.04 190.021 198.917 190.195C197.811 190.255 196.705 190.264 195.6 190.298ZM303.439 81.2522C302.923 81.3491 302.443 81.3264 302.082 81.5237C298.388 83.5337 294.944 85.8733 292.313 89.2322C290.666 91.3352 289.036 93.4507 287.398 95.5591C283.414 100.69 279.143 105.628 275.523 111.003C271.477 117.01 269.154 123.795 268.68 131.122C269.061 130.709 269.205 130.212 269.397 129.734C271.216 125.223 272.77 120.58 274.929 116.239C278.041 109.982 282.237 104.436 286.944 99.2234C292.292 93.3017 296.595 86.4156 303.296 81.7567C303.362 81.7117 303.356 81.56 303.439 81.2522ZM268.087 234.848C268.193 234.725 268.299 234.602 268.405 234.48C266.358 226.047 263.949 217.683 262.366 209.165C260.775 200.599 260.006 191.881 258.878 183.229C258.462 186.621 258.597 189.969 258.599 193.317C258.608 205.634 261.059 217.539 264.573 229.268C264.905 230.376 265.269 231.519 265.873 232.485C266.435 233.383 267.336 234.068 268.087 234.848ZM254.306 122.807C254.526 122.709 254.748 122.61 254.968 122.512C254.417 120.641 253.73 118.798 253.341 116.893C252.262 111.611 250.394 106.636 247.779 101.939C244.491 96.0356 242.713 89.7725 242.826 82.9609C242.863 80.7728 242.39 78.5772 242.15 76.3841C239.278 84.6607 240.376 92.4781 243.952 100.113C246.854 106.309 249.552 112.6 252.361 118.841C252.963 120.182 253.655 121.485 254.306 122.807ZM203.917 109.069C209.354 108.945 214.267 110.618 218.903 113.156C229.245 118.817 239.544 124.556 249.421 130.021C246.681 126.125 244.331 124.282 239.348 121.689C233.079 118.427 226.692 115.319 220.744 111.533C215.362 108.107 210.013 106.76 203.917 109.069ZM204.779 107.194C210.507 105.7 215.525 106.218 219.872 109.441C228.06 115.509 237.774 118.713 246.417 123.92C242.959 120.253 238.906 117.395 234.53 114.971C229.668 112.278 224.753 109.677 219.948 106.887C212.669 102.663 212.7 102.609 205.312 106.297C205.233 106.336 205.203 106.472 204.779 107.194ZM259.839 84.4102C259.617 84.4567 259.394 84.504 259.172 84.5505C259.665 88.388 259.835 92.3024 260.711 96.0502C263.251 106.924 264.253 117.959 264.744 129.071C264.781 129.909 264.865 130.747 264.926 131.584C265.821 127.998 266.345 124.455 266.743 120.897C267.209 116.721 266.957 112.585 265.929 108.486C264.184 101.523 262.529 94.5385 260.814 87.5681C260.55 86.4994 260.167 85.4617 259.839 84.4102ZM268.325 111.391C269.54 104.352 267.876 97.7481 265.912 91.1731C261.558 76.5953 260.783 74.7288 258.091 72.8352C261.509 85.7083 264.917 98.549 268.325 111.391ZM232.045 147.271C228.648 144.917 225.701 143.095 223.003 140.959C217.897 136.919 212.574 133.291 206.722 130.38C202.766 128.413 199.334 125.623 196.515 122.13C195.43 120.784 194.133 119.599 192.865 118.412C192.48 118.052 191.874 117.928 190.957 117.506C195.072 124.009 198.309 126.887 204.634 130.781C209.852 133.992 214.875 137.521 219.944 140.97C223.566 143.433 227.036 146.16 232.045 147.271ZM239.847 146.397C239.341 146.213 238.834 146.035 238.33 145.848C233.202 143.948 228.2 141.861 224.029 138.135C220.117 134.638 215.674 131.95 210.949 129.617C207.653 127.99 204.6 125.809 201.608 123.643C198.62 121.481 195.842 119.032 192.849 116.608C197.931 123.209 204.207 127.975 211.59 131.431C214.401 132.746 216.973 134.611 219.543 136.384C222.598 138.491 225.445 140.906 228.547 142.935C231.92 145.143 235.608 146.678 239.847 146.397ZM288.402 91.1337C292.312 86.3116 296.86 82.253 302.36 79.3305C295.631 80.7834 291.564 85.417 288.402 91.1337ZM259.909 162.581C257.694 166.879 257.322 173.007 258.473 177.718C258.932 172.888 259.42 167.734 259.909 162.581ZM287.084 135.852C283.291 138.207 279.497 140.563 275.705 142.919C280.235 141.755 283.717 138.928 287.084 135.852ZM258.638 131.351C258.445 131.444 258.253 131.538 258.06 131.631C258.476 132.607 258.891 133.585 259.308 134.562C259.454 134.502 259.6 134.442 259.745 134.383C259.375 133.371 259.006 132.362 258.638 131.351ZM258.008 78.7996C258.164 78.7606 258.32 78.7198 258.476 78.6809C258.301 77.9711 258.126 77.2621 257.951 76.5531C257.798 76.5939 257.645 76.6356 257.493 76.6764C257.664 77.3835 257.835 78.0915 258.008 78.7996Z" fill="#129512"/>
<path d="M257.88 112.344C257.954 111.716 258.028 111.09 258.102 110.462C258.534 111.89 258.968 113.317 259.401 114.746C258.895 113.945 258.387 113.145 257.88 112.344Z" fill="#129512"/>
<path d="M259.374 114.651C259.733 116.047 260.091 117.444 260.45 118.84C259.469 117.604 258.919 116.256 259.374 114.651Z" fill="#129512"/>
<path d="M224.269 429.727C228.289 431.801 232.287 433.922 236.344 435.92C237.324 436.402 238.554 436.832 239.586 436.686C250.422 435.159 259.342 439.324 266.745 446.58C282.364 461.89 288.383 481.058 287.981 502.554C287.964 503.45 287.743 504.343 287.558 505.659C285.816 505.206 284.248 504.935 282.78 504.394C275.161 501.582 268.577 497.086 262.436 491.845C253.322 484.065 245.891 474.925 240.157 464.421C238.882 462.087 237.806 459.621 236.868 457.129C234.246 450.168 234.074 446.731 235.772 439.619C235.24 439.154 234.707 438.529 234.039 438.127C225.775 433.152 216.942 429.803 207.292 428.746C205.371 428.536 203.67 428.81 201.93 429.694C196.315 432.544 190.968 435.756 186.33 440.076C181.593 444.487 178.018 449.751 174.959 455.384C169.949 464.612 166.142 474.324 163.536 484.501C163.248 485.626 162.975 486.758 162.618 487.863C162.267 488.947 162.018 490.27 160.404 490.009C159.076 489.794 157.834 488.034 158.002 486.648C158.099 485.848 158.311 485.047 158.569 484.279C160.788 477.678 162.91 471.038 165.322 464.507C166.274 461.929 166.91 459.505 166.392 456.743C165.988 454.585 165.909 452.355 165.833 450.151C165.779 448.632 165.282 447.629 163.951 446.729C155.038 440.697 151.06 432.034 151.101 421.474C151.141 411.084 155.087 401.979 161.127 393.76C169.043 382.99 179.399 375.366 191.956 370.788C194.09 370.011 196.265 369.118 198.813 369.364C198.67 369.984 198.643 370.453 198.46 370.849C195.077 378.193 193.245 385.973 191.811 393.884C190.114 403.244 188.288 412.58 186.5 422.023C186.839 421.569 187.223 421.123 187.532 420.63C198.657 402.861 210.974 386.021 225.999 371.3C228.985 368.374 232.094 365.569 235.222 362.794C236.514 361.647 237.427 360.584 236.943 358.658C236.482 356.821 237.472 355.239 238.57 353.866C240.236 351.782 241.965 349.74 243.78 347.786C248.184 343.045 248.555 338.107 244.562 333.091C242.328 330.285 239.796 327.717 237.425 325.018C233.632 320.701 231.895 315.682 232.342 309.928C232.396 309.235 232.327 308.53 232.4 307.838C233.641 295.933 231.589 284.456 227.909 273.189C227.693 272.526 227.543 271.843 227.313 271.186C226.415 268.602 226.984 266.642 229.098 264.686C230.825 263.087 232.319 260.945 233.181 258.754C236.104 251.332 242.089 248.038 249.243 246.249C253.398 245.211 257.065 246.416 260.079 249.454C260.976 250.357 261.952 251.274 262.544 252.372C264.728 256.421 267.799 259.684 271.028 262.898C272.781 264.642 273.993 266.931 275.679 269.295C276.697 267.58 277.685 265.938 278.652 264.281C281.718 259.032 285.175 254.106 290.212 250.521C294.433 247.517 299.174 246.134 304.329 246.438C311.477 246.859 316.267 251.07 317.445 258.111C317.989 261.354 318.936 264.355 320.326 267.344C324.919 277.225 322.421 289.655 314.576 297.167C313.323 298.366 312.076 299.575 310.508 301.088C311.518 301.219 312.247 301.481 312.921 301.376C317.731 300.621 322.577 300.001 327.312 298.913C330.528 298.174 333.145 298.565 335.791 300.556C339.589 303.416 343.682 305.886 347.459 308.772C349.356 310.221 351.066 312.055 352.453 314.006C355.213 317.891 355.238 322.106 352.723 326.116C350.998 328.866 349.937 331.613 350.192 334.936C350.443 338.18 348.942 340.768 346.332 342.697C345.962 342.97 345.586 343.235 345.231 343.525C345.158 343.585 345.164 343.742 345.034 344.216C346.28 344.427 347.505 344.599 348.717 344.843C354.604 346.036 359.6 348.754 363.411 353.483C365.526 356.11 366.081 359.028 365.328 362.324C364.893 364.226 364.701 366.204 364.624 368.158C364.498 371.33 363.437 374.021 361.188 376.282C357.716 379.774 353.558 382.122 348.726 382.755C344.262 383.341 339.714 383.309 335.201 383.49C334.067 383.536 332.925 383.358 331.419 383.258C333.205 385.338 334.891 387.02 336.246 388.938C339.183 393.09 341.305 397.531 340.518 402.887C339.368 410.707 333.992 415.719 326.06 415.587C319.695 415.481 313.573 413.918 308.533 409.74C305.323 407.078 302.311 404.155 299.388 401.173C295.047 396.743 290.299 392.969 284.797 390.009C276.396 385.489 270.277 378.55 265.418 370.442C264.105 368.252 262.909 365.984 261.482 363.872C259.402 360.795 257.867 360.351 254.349 361.561C253.143 361.976 252 362.565 250.806 363.018C247.031 364.452 243.234 365.496 239.224 363.105C214.982 384.235 197.244 410.138 181.385 438.465C182.479 438.093 182.917 438.061 183.194 437.833C192.112 430.48 202.356 425.64 213.252 422.085C215.367 421.395 216.837 420.454 217.87 418.342C220.971 412.002 226.193 407.867 232.606 405.175C239.505 402.278 246.739 401.496 254.135 402.078C268.657 403.218 281.559 408.763 293.479 416.833C296.133 418.63 298.572 420.745 301.602 423.093C300.092 424.274 299.174 425.359 298.006 425.833C294.898 427.096 291.757 428.47 288.493 429.12C282.352 430.345 276.143 431.364 269.913 431.98C257.042 433.251 244.167 433.158 231.368 430.978C229.005 430.576 226.64 430.19 224.275 429.794C221.708 427.949 219.141 426.109 216.31 424.078C215.083 424.494 213.33 424.717 211.77 425.932C216.161 427.267 220.215 428.497 224.269 429.727ZM309.326 307.842C310.812 307.7 312.297 307.56 313.783 307.418C316.875 307.098 319.964 306.752 323.059 306.466C325.596 306.233 328.137 306.023 330.68 305.915C331.344 305.886 332.026 306.272 333.218 306.619C332.265 306.973 331.958 307.162 331.634 307.197C322.75 308.14 313.873 309.15 304.977 309.958C301.332 310.289 297.895 311.078 294.632 312.731C289.976 315.091 285.268 317.349 280.625 319.735C279.094 320.522 277.451 321.337 276.285 322.548C271.219 327.811 266.31 333.224 261.357 338.596C261.242 338.721 261.291 338.997 261.231 339.448C261.718 339.35 262.173 339.356 262.527 339.172C273.598 333.416 284.243 327.105 291.709 316.671C292.046 316.2 292.375 315.697 292.806 315.323C294.483 313.862 296.238 312.492 298.604 312.446C301.215 312.395 302.549 314.458 301.137 316.624C300.348 317.834 299.097 318.861 297.842 319.623C295.865 320.822 293.791 321.971 291.609 322.69C289.416 323.414 287.73 324.651 286.127 326.202C280.169 331.965 273.822 337.177 265.934 340.157C265.525 340.312 265.191 340.667 264.848 340.911C264.782 341.593 264.669 342.171 264.687 342.744C264.707 343.376 264.847 344.002 264.973 344.916C266.386 344.202 267.523 343.671 268.619 343.067C275.362 339.355 282.435 336.509 289.877 334.495C294.679 333.195 299.35 331.415 304.136 330.047C306.677 329.321 309.323 328.727 311.949 328.593C315.235 328.424 317.15 329.939 317.111 332.01C317.072 334.131 315.285 335.68 312.03 335.672C308.685 335.663 305.343 335.077 301.993 334.84C300.403 334.728 298.728 334.548 297.209 334.902C289.281 336.75 281.552 339.234 274.214 342.817C271.431 344.176 268.68 345.602 265.872 347.019C266.774 349.584 268.615 350.273 270.658 350.155C274.357 349.941 278.061 349.592 281.727 349.062C288.276 348.117 294.8 346.995 301.333 345.944C302.155 345.812 302.975 345.668 303.796 345.529C301.968 345.082 300.243 345.16 298.526 345.321C296.793 345.485 295.065 345.713 293.338 345.944C291.613 346.174 289.89 346.437 288.168 346.694C286.33 346.969 284.493 347.256 282.657 347.532C280.934 347.792 279.217 348.102 277.486 348.284C275.926 348.449 274.357 349.164 272.224 348.509C273.086 348.169 273.393 347.995 273.723 347.925C288.635 344.734 303.589 342.086 318.968 343.593C321.569 343.847 324.244 343.344 326.885 343.191C327.561 343.205 328.237 343.219 328.912 343.234C331.944 342.753 334.982 342.302 338.005 341.771C339.012 341.594 339.966 341.054 340.972 340.952C345.777 340.469 347.515 338.354 346.837 333.657L346.854 333.728C347.059 330.414 348.184 327.448 350.055 324.704C352.497 321.124 351.804 317.661 349.285 314.452C348.366 313.28 347.285 312.16 346.074 311.303C341.826 308.294 337.54 305.332 333.15 302.538C332.092 301.864 330.504 301.483 329.291 301.7C326.233 302.249 323.251 303.216 320.238 304.017C314.686 304.125 309.131 304.171 303.583 304.386C302.113 304.443 300.614 304.884 299.213 305.386C291.935 307.99 285.433 311.973 279.425 316.79C278.522 317.514 277.512 318.223 277.262 319.492C278.909 318.57 280.296 317.346 281.864 316.436C285.971 314.054 290.25 311.963 294.282 309.466C297.761 307.311 301.439 306.474 305.462 306.165C310.41 305.786 315.32 304.9 320.247 304.234C322.572 304.187 324.896 304.14 327.22 304.093C326.032 305.001 324.751 305.268 323.468 305.529C320.241 306.185 317.012 306.839 313.784 307.492C312.298 307.628 310.813 307.764 309.327 307.9C304.13 307.196 300.565 307.699 298.393 309.444C302.037 308.91 305.681 308.376 309.326 307.842ZM299.19 249.961L299.26 249.956C297.215 250.638 295.047 251.082 293.15 252.054C289.206 254.073 286.469 257.497 284.242 261.172C279.064 269.717 273.415 277.906 267.396 285.885C262.188 292.789 259.136 300.593 259.47 309.526C259.644 314.158 259.269 318.812 259.087 323.453C259.032 324.868 258.796 326.276 258.587 328.205C259.118 327.541 259.306 327.397 259.371 327.21C259.823 325.894 260.272 324.574 260.683 323.245C263.21 315.077 267.672 308.059 273.781 302.176C277.43 298.663 281.95 296.063 284.711 291.614C285.003 291.145 285.543 290.802 286.023 290.483C287.733 289.344 289.615 288.832 291.652 289.238C294.066 289.72 294.897 291.572 293.569 293.645C293.091 294.392 292.359 295.142 291.568 295.493C289.566 296.379 287.517 297.346 285.39 297.71C282.86 298.142 280.748 299.156 278.943 300.842C272.858 306.525 267.802 312.992 264.43 320.655C262.188 325.749 260.079 330.901 257.963 336.05C257.753 336.558 257.91 337.216 257.877 338.657C259.261 337.322 260.116 336.609 260.835 335.78C262.127 334.291 263.386 332.767 264.575 331.194C266.742 328.326 269.046 325.535 270.935 322.49C275.062 315.838 281.266 311.625 287.648 307.539C288.996 306.675 290.259 305.617 291.375 304.467C293.556 302.221 295.595 299.836 297.715 297.528C303.126 291.635 309.003 286.136 313.183 279.202C313.422 278.808 313.855 278.532 314.198 278.202C309.885 288.806 301.215 295.891 294.028 304.21C298.423 301.546 301.922 297.848 305.274 294.113C308.664 290.335 311.526 286.082 314.619 282.038C314.838 282.192 315.055 282.345 315.275 282.498C313.221 285.677 311.356 289 309.06 291.992C306.747 295.008 304.006 297.696 301.025 301C308.255 296.73 312.229 290.214 317.046 284.473C315.886 287.796 313.878 290.605 311.692 293.25C309.573 295.814 307.191 298.162 304.923 300.605C307.547 298.878 310.062 297.015 312.318 294.88C319.24 288.33 321.505 277.255 317.539 268.581C316.068 265.364 315.098 262.129 314.544 258.652C313.343 251.117 306.617 247.397 299.19 249.961ZM267.664 355.421C267.566 355.717 267.468 356.015 267.37 356.312C267.738 356.748 268.086 357.203 268.476 357.62C274.336 363.876 281.602 368.052 289.566 370.761C304.684 375.905 320.233 379.283 336.209 380.287C339.891 380.518 343.639 380.173 347.321 379.772C351.585 379.307 355.304 377.434 358.495 374.534C360.5 372.71 361.501 370.49 361.553 367.767C361.584 366.154 361.549 364.437 362.078 362.956C363.782 358.185 361.75 354.888 358.25 352.013C353.365 348.001 347.472 346.764 341.449 345.909C340.788 345.815 340.035 345.941 339.401 346.172C334.046 348.131 328.488 348.091 322.891 348.157C315.466 348.243 308 348.265 300.631 349.061C290.294 350.177 280.029 351.98 270.063 353.44C272.66 354.327 275.681 355.334 278.685 356.392C283.065 357.935 287.365 359.744 291.819 361.024C298.574 362.966 305.381 364.105 312.281 361.181C315.077 359.996 318.182 359.893 321.203 360.626C324.022 361.31 325.66 363.045 325.419 364.958C325.172 366.927 323.333 368.222 320.37 368.31C316.701 368.42 313.25 367.496 309.942 365.92C309.05 365.495 307.983 365.106 307.033 365.18C299.208 365.782 291.782 364.214 284.569 361.322C281.012 359.896 277.468 358.434 273.864 357.134C271.852 356.409 269.734 355.982 267.664 355.421ZM265.766 282.345C265.9 282.43 266.034 282.516 266.167 282.601C267.999 280.081 269.897 277.605 271.623 275.014C272.092 274.31 272.195 273.267 272.211 272.375C272.269 269.271 270.91 266.741 268.666 264.71C265.452 261.802 262.707 258.565 260.629 254.727C259.872 253.33 258.682 252.121 257.526 250.996C255.378 248.909 252.727 248.134 249.813 248.855C243.581 250.395 238.462 253.304 235.792 259.665C234.742 262.166 233.036 264.5 231.206 266.526C230.002 267.858 229.665 268.918 230.174 270.52C231.053 273.286 231.859 276.076 232.653 278.868C233.24 280.93 233.757 283.011 234.304 285.083C234.549 285.021 234.793 284.959 235.039 284.896C234.457 279.727 232.491 274.826 231.251 269.443C231.923 269.794 232.178 269.85 232.3 270.008C232.51 270.276 232.684 270.595 232.791 270.919C236.341 281.692 238.644 292.676 238.05 304.094C237.834 308.267 237.311 312.423 236.904 316.585C236.787 317.772 236.39 319.023 238.062 319.774C239.522 314.847 240.162 310.039 240.038 305.135C239.852 297.8 238.996 290.546 237.341 283.385C236.373 279.199 235.526 274.986 234.667 270.777C234.498 269.951 234.518 269.084 234.451 268.237C235.729 270.89 236.38 273.66 237.068 276.422C237.769 279.239 238.588 282.03 239.202 284.866C239.791 287.588 240.266 290.34 240.636 293.1C241.022 295.976 241.299 298.872 241.481 301.769C241.653 304.499 241.642 307.241 241.712 309.977C242.913 304.855 242.793 299.75 242.049 294.685C241.272 289.401 240.164 284.166 239.335 278.89C238.669 274.649 238.168 270.381 237.67 266.116C237.546 265.056 237.714 263.961 237.749 262.882C237.997 262.877 238.244 262.871 238.494 262.865C239.131 276.403 244.255 289.221 244.31 302.84C245.459 299.149 246.481 295.511 247.365 291.84C247.534 291.141 247.25 290.284 247.022 289.547C246.113 286.609 247.196 284.298 249.298 282.369C250.812 280.979 252.736 280.851 254.087 281.853C255.484 282.888 255.979 285.179 254.727 286.883C253.589 288.429 252.14 289.967 250.477 290.842C248.949 291.646 248.137 292.527 247.84 294.13C245.674 305.843 245.542 317.469 249.382 328.901C250.065 330.933 251.087 332.851 251.954 334.822C252.613 333.865 252.731 333.086 252.715 332.311C252.577 325.807 252.48 319.303 252.239 312.803C252.043 307.528 252.716 302.364 253.882 297.253C255.452 290.377 261.614 279.164 266.223 274.975C264.828 277.762 263.322 280.488 261.757 283.181C257.802 289.985 254.641 297.149 254.294 305.076C253.887 314.34 254.086 323.632 254.034 332.912C254.034 332.965 254.194 333.019 254.799 333.403C254.857 327.586 255.376 322.038 254.871 316.587C253.78 304.845 256.793 294.259 262.806 284.367C264.613 281.394 266.699 278.59 268.657 275.71C268.847 275.831 269.037 275.95 269.228 276.071C268.07 278.161 266.919 280.253 265.766 282.345ZM264.59 363.569C265.617 365.283 266.545 366.888 267.525 368.461C272.444 376.364 278.431 383.273 286.73 387.741C292.33 390.757 297.138 394.671 301.591 399.135C304.131 401.681 306.787 404.116 309.447 406.538C313.863 410.563 319.32 412.433 325.069 412.575C334.515 412.807 340.572 405.848 337.372 396.148C335.231 389.66 330.364 385.634 324.528 382.622C323.704 382.198 322.643 382.235 321.692 382.059C325.613 385.747 329.987 388.666 332.533 393.432C327.181 388.658 321.908 383.841 314.487 381.06C328.618 391.385 332.718 395.064 334.595 399.238C332.094 396.987 329.897 394.946 327.629 392.983C325.26 390.932 322.905 388.852 320.396 386.981C318.091 385.263 315.589 383.807 313.174 382.235C319.739 387.829 326.542 393.025 331.754 399.973C331.022 399.678 330.383 399.264 329.814 398.768C325.966 395.411 322.263 391.869 318.266 388.702C310.698 382.706 302.857 377.438 293.084 375.142C283.16 372.812 274.286 367.864 266.823 360.695C266.613 360.492 266.233 360.467 265.812 360.317C265.415 361.371 265.055 362.328 264.59 363.569ZM266.837 492.171C266.749 490.322 266.835 488.954 266.597 487.647C265.512 481.696 264.72 475.73 264.909 469.658C264.964 467.878 264.37 466.268 263.15 464.87C261.091 462.509 259.143 460.05 257.099 457.674C256.74 457.257 256.143 457.044 255.438 456.6C255.216 460.279 255.675 463.423 256.613 466.594C257.252 468.759 257.355 471.128 257.394 473.411C257.441 476.073 257.1 478.741 257.051 481.409C257.035 482.292 257.12 483.428 257.643 484.026C260.208 486.958 262.892 489.801 266.837 492.171ZM245.515 446.212C245.271 446.356 245.026 446.5 244.78 446.644C245.153 448.3 245.481 449.968 245.909 451.609C246.791 455 247.327 458.391 247.088 461.939C246.417 471.912 246.475 471.921 253.066 479.318C253.546 479.856 254.177 480.261 255.416 481.29C255.354 476.339 255.491 472.18 255.194 468.053C254.912 464.136 254.191 460.25 253.627 456.357C253.48 455.349 253.52 454.06 252.92 453.418C250.573 450.901 248.002 448.595 245.515 446.212ZM259.31 405.041C254.01 404.236 249.285 403.949 244.557 404.608C243.511 404.754 242.426 405.49 241.608 406.23C238.853 408.718 236.191 411.309 233.538 413.905C232.441 414.978 231.455 416.167 230.01 417.75C232.654 417.361 234.59 416.907 236.542 416.826C240.3 416.67 243.423 415.184 246.419 413.02C247.978 411.893 249.862 410.987 251.731 410.576C254.916 409.877 257.074 408.033 259.31 405.041ZM155.107 410.846C154.586 413.793 154.18 416.026 153.798 418.264C153.429 420.426 153.972 422.279 155.209 424.157C157.752 428.015 160.04 432.041 162.416 436.01C163.231 437.372 163.988 438.767 164.771 440.148C165.47 435.945 165.713 431.914 165.788 427.881C165.803 427.034 165.317 426.102 164.854 425.338C162.812 421.971 160.733 418.626 158.585 415.327C157.707 413.984 156.619 412.78 155.107 410.846ZM280.925 472.073C279.236 467.115 277.07 463.106 274.637 459.227C274.466 458.953 274.126 458.75 273.822 458.604C271.432 457.439 269.098 456.116 266.616 455.192C263.851 454.161 260.935 453.6 257.48 453.528C260.579 457.368 263.308 460.783 266.086 464.158C266.514 464.678 267.124 465.093 267.723 465.422C271.17 467.314 274.63 469.18 278.105 471.017C278.781 471.375 279.545 471.564 280.925 472.073ZM245.942 418.054C248.627 420.728 251.139 422.018 253.84 423.145C256.154 424.111 258.448 425.299 260.453 426.789C263.738 429.232 267.067 431.011 271.32 429.965C272.891 429.578 274.675 429.992 276.325 428.807C275.723 428.324 275.403 427.996 275.021 427.772C269.94 424.776 264.886 421.732 259.736 418.858C258.469 418.151 256.895 417.714 255.448 417.674C252.574 417.595 249.691 417.879 245.942 418.054ZM166.02 423.411C167.982 418.582 167.897 414.429 165.775 410.405C164.318 407.639 163.686 404.796 164.189 401.674C164.492 399.794 164.028 398.018 162.816 396.189C162.217 396.767 161.595 397.141 161.298 397.691C159.759 400.546 158.343 403.467 156.804 406.322C155.828 408.132 156.379 409.632 157.417 411.166C159.365 414.044 161.23 416.978 163.189 419.849C163.961 420.98 164.892 422.004 166.02 423.411ZM185.081 413.012C184.01 413.818 182.92 414.602 181.87 415.437C178.97 417.742 176.146 420.145 173.184 422.366C168.938 425.55 167.445 430.438 169.32 435.798C169.695 435.493 170.089 435.251 170.386 434.92C173.41 431.535 176.763 428.54 180.6 426.09C181.363 425.602 182.266 425.007 182.607 424.241C184.148 420.77 184.985 417.094 185.081 413.012ZM230.309 420.282C233.396 422.378 236.376 424.162 239.972 424.104C242.066 424.07 243.78 424.808 245.326 426.177C246.36 427.094 247.497 427.904 248.632 428.697C251.861 430.954 258.095 431.531 262.242 429.829C259.756 428.238 257.501 426.642 255.103 425.3C251.682 423.387 248.172 421.633 244.669 419.873C243.656 419.364 242.5 418.648 241.477 418.744C237.738 419.092 234.03 419.745 230.309 420.282ZM275.556 498.654C275.832 498.285 275.968 498.186 275.958 498.105C275.207 492.26 274.446 486.416 273.674 480.573C273.645 480.351 273.533 480.125 273.41 479.932C271.437 476.813 269.456 473.701 267.072 469.952C266.562 474.388 266.431 477.998 267.306 481.644C267.846 483.889 268.579 486.265 268.335 488.485C267.817 493.2 270.124 495.855 273.899 497.813C274.41 498.08 274.925 498.335 275.556 498.654ZM168.502 411.5C171.954 403.319 172.017 402.84 172.041 395.33C172.046 393.72 172.443 392.115 172.613 390.503C172.812 388.618 172.962 386.728 173.188 384.22C170.506 386.806 168.417 388.803 166.348 390.821C164.601 392.524 164.205 394.45 164.928 396.852C165.519 398.817 165.848 400.943 165.818 402.99C165.771 406.029 166.651 408.648 168.502 411.5ZM238.435 441.255C235.436 447.525 238.731 460.509 244.761 467.161C244.887 466.977 245.096 466.805 245.127 466.606C246.241 459.32 244.946 452.312 242.641 445.426C241.974 443.431 240.519 442.23 238.435 441.255ZM263.242 417.932C263.152 418.169 263.063 418.405 262.975 418.643C265.426 420.149 267.879 421.649 270.327 423.162C272.88 424.739 275.412 426.353 277.985 427.896C278.643 428.291 279.471 428.805 280.143 428.711C282.74 428.342 285.306 427.748 288.054 427.206C281.229 419.337 272.81 417.025 263.242 417.932ZM169.64 422.034C169.865 422.198 170.09 422.363 170.316 422.527C174.446 419.214 178.314 415.475 182.783 412.708C187.108 410.029 187.135 406.23 187.551 401.893C186.885 402.178 186.545 402.245 186.306 402.436C181.618 406.178 176.905 409.888 172.299 413.728C171.485 414.407 170.895 415.567 170.604 416.617C170.111 418.375 169.944 420.223 169.64 422.034ZM275.103 410.062C275.088 409.682 275.074 409.302 275.058 408.922C271.724 408 268.398 407.049 265.052 406.17C262.593 405.524 260.497 406.137 258.802 408.116C256.853 410.39 254.328 411.702 251.459 412.517C249.637 413.035 247.894 413.843 246.157 415.699C248.894 415.62 251.081 415.424 253.252 415.526C256.262 415.67 259.039 414.962 261.56 413.445C264.029 411.961 266.652 411.369 269.477 411.144C271.369 410.995 273.229 410.438 275.103 410.062ZM171.932 410.621C172.172 410.835 172.411 411.049 172.651 411.262C174.876 409.491 177.117 407.74 179.32 405.942C181.196 404.413 182.835 402.471 184.921 401.343C189.085 399.09 189.304 395.37 189.644 390.898C186.281 393.204 183.478 395.399 180.425 397.161C175.138 400.216 172.805 404.928 171.932 410.621ZM246.315 442.521C246.272 442.675 246.229 442.827 246.185 442.981C247.826 444.429 249.671 445.705 251.064 447.362C253.693 450.494 256.882 451.966 260.96 452.215C264.418 452.427 267.825 453.272 270.665 455.555C270.984 455.812 271.54 455.776 271.985 455.875C272.12 455.665 272.255 455.454 272.39 455.244C269.99 452.755 267.567 450.288 265.199 447.77C263.522 445.987 261.526 445.199 259.069 445.007C256.674 444.821 254.319 444.142 251.947 443.668C250.067 443.295 248.192 442.906 246.315 442.521ZM219.251 423.374C222.559 427.562 238.831 431.391 246.798 430.036C245.083 428.277 243.35 426.53 241.052 426.227C236.732 425.657 232.812 423.989 228.823 422.479C225.558 421.243 222.537 421.775 219.251 423.374ZM269.578 468.597C273.058 476.411 278.561 482.044 284.788 487.216C284.267 483.472 283.497 479.874 282.389 476.383C282.046 475.3 280.938 474.258 279.914 473.633C277.255 472.011 274.458 470.61 271.689 469.173C271.144 468.889 270.478 468.835 269.578 468.597ZM286.858 415.169C284.165 412.896 281.745 411.844 279.251 410.99C278.547 410.749 277.646 410.926 276.868 411.079C273.469 411.75 270.081 412.477 266.691 413.199C265.209 413.514 263.771 413.927 262.304 415.436C267.469 415.968 271.953 416.754 276.442 416.783C279.69 416.804 282.946 415.816 286.858 415.169ZM219.993 420.185C221.574 419.6 223.188 419.089 224.73 418.416C230.047 416.094 233.122 411.01 237.71 407.775C238.297 407.362 238.684 406.665 239.164 406.099C230.413 407.581 223.698 411.71 219.993 420.185ZM173.752 396.815C178.144 390.773 181.581 384.597 182.756 377.38C180.562 378.479 178.732 379.871 176.784 381.074C175.334 381.97 174.756 383.238 174.578 384.807C174.238 387.802 173.869 390.794 173.601 393.794C173.513 394.789 173.695 395.808 173.752 396.815ZM295.676 421.833C295.596 422.126 295.517 422.419 295.437 422.712C294.014 422.386 292.588 422.074 291.169 421.734C289.702 421.382 288.245 420.987 286.776 420.644C284.458 420.103 284.454 420.115 282.694 420.547C284.89 422.189 286.949 423.893 289.187 425.316C290.057 425.868 291.433 426.17 292.401 425.914C294.598 425.332 296.685 424.331 299.082 423.397C297.016 420.678 294.389 419.399 292.036 417.809C289.309 415.966 286.11 416.081 282.842 418.016C287.251 419.118 291.65 419.944 295.676 421.833ZM177.12 397.399C181.047 394.691 184.31 392.084 187.906 390.071C190.958 388.362 191.27 385.826 191.556 382.593C184.501 385.237 179.518 389.405 177.12 397.399ZM183.583 382.266C185.411 381.717 186.001 379.541 188.289 379.703C186.93 381.296 185.787 382.635 184.645 383.973C186.562 383.437 188.077 382.454 189.675 381.63C193.11 379.857 193.882 378.707 194.156 374.577C193.453 374.879 192.756 375.18 192.057 375.481C191.996 375.345 191.936 375.21 191.874 375.075C192.728 374.059 193.583 373.043 194.61 371.821C186.754 373.37 184.764 375.264 183.583 382.266ZM181.115 428.095C177.544 429.809 171.144 435.672 169.38 438.655C168.499 440.146 168.343 441.608 169.06 443.195C174.341 441.327 178.473 436.178 181.115 428.095ZM284.649 503.388C282.52 496.789 279.712 490.859 276.186 485.279C276.624 489.999 277.223 494.64 277.897 499.27C277.97 499.767 278.385 500.398 278.82 500.624C280.727 501.614 282.7 502.479 284.649 503.388ZM165.05 444.16C161.273 437.643 157.901 431.826 154.529 426.01C155.004 433.483 158.466 439.249 165.05 444.16ZM240.33 438.205C243.344 441.224 246.732 440.488 249.617 441.185C252.646 441.916 255.448 443.895 259.352 443.233C253.404 439.571 247.6 437.623 240.33 438.205ZM278.61 484.218C281.018 489.603 283.202 494.49 285.546 499.73C287.175 492.667 284.503 488.005 278.61 484.218ZM323.227 364.85C320.602 362.033 316.296 361.833 312.306 364.136C317.824 366.426 320.312 366.621 323.227 364.85ZM168.795 446.453C168.962 448.819 169.121 451.078 169.28 453.336C169.495 453.379 169.71 453.421 169.924 453.465C171.553 450.052 173.183 446.641 175.049 442.733C172.708 444.126 170.936 445.179 168.795 446.453ZM241.594 313.108C241.504 313.086 241.415 313.065 241.326 313.043C240.888 315.473 240.455 317.905 240.011 320.334C239.448 323.411 239.759 324.031 242.915 326.007C242.473 321.684 242.033 317.396 241.594 313.108ZM236.737 295.487C236.523 299.085 236.148 305.432 235.771 311.779C236.486 305.418 237.508 299.07 236.737 295.487ZM314.958 331.775C311.499 330.154 308.654 331.034 305.563 332.125C309.107 334.027 312.181 333.974 314.958 331.775ZM256.322 317.291C256.48 313.66 256.689 308.876 256.898 304.093C255.606 308.897 255.915 313.729 256.322 317.291ZM284.787 295.351C287.873 294.907 290.236 294.632 291.579 291.912C288.144 291.746 287.642 291.987 284.787 295.351ZM252.64 284.202C249.608 284.921 249.131 285.6 249.548 288.225C251.92 286.724 251.92 286.724 252.64 284.202ZM293.233 318.537C295.678 317.852 297.347 317.269 298.772 315.067C296.282 315.469 294.707 316.212 293.233 318.537ZM290.024 313.847C289.999 313.633 289.971 313.418 289.945 313.203C289.097 313.662 288.248 314.119 287.4 314.578C287.476 314.72 287.55 314.862 287.625 315.005C288.425 314.619 289.224 314.234 290.024 313.847ZM243.643 318.574C243.786 318.562 243.93 318.55 244.072 318.538C244.033 318.048 243.993 317.558 243.954 317.068C243.81 317.082 243.665 317.097 243.52 317.11C243.561 317.598 243.602 318.086 243.643 318.574Z" fill="#129512"/>
<path d="M326.884 343.19C318.661 342.894 310.491 341.69 302.211 342.258C293.381 342.863 284.655 343.944 276.073 346.125C275.076 346.379 274.057 346.544 272.851 346.311C273.587 345.968 274.29 345.474 275.063 345.305C280.722 344.063 286.356 342.631 292.072 341.748C301.392 340.31 310.784 339.915 320.192 341.037C328.84 342.068 336.831 340.627 343.761 334.926C344.571 334.259 345.812 334.115 346.854 333.728L346.837 333.657C343.416 338.015 339.009 340.803 333.598 342.024C332.025 342.379 330.473 342.828 328.912 343.234C328.235 343.219 327.559 343.205 326.884 343.19Z" fill="#129512"/>
<path d="M301.594 251.768C293.676 256.671 288.592 263.899 283.895 271.634C279.444 278.964 274.448 285.965 269.589 293.041C267.717 295.769 266.339 298.624 265.735 301.892C264.933 306.229 263.4 310.318 260.899 314.116C261.054 313.435 261.177 312.745 261.368 312.075C262.538 307.948 263.636 303.798 264.941 299.714C265.603 297.642 266.392 295.527 267.563 293.715C274.17 283.485 280.964 273.374 287.584 263.152C291.042 257.813 295.945 254.342 301.594 251.768Z" fill="#129512"/>
<path d="M299.19 249.961C298.364 250.883 297.694 252.054 296.686 252.684C291.13 256.152 286.901 260.76 283.79 266.525C278.877 275.631 272.797 283.983 266.736 292.339C264.459 295.479 262.611 298.789 262.317 302.772C262.287 303.177 262.03 303.565 261.663 303.9C261.216 300.516 261.927 297.373 263.827 294.569C266.818 290.154 270.028 285.884 272.938 281.417C276.419 276.074 279.863 270.692 282.99 265.139C286.53 258.854 291.383 254.116 297.83 250.951C298.343 250.7 298.779 250.293 299.254 249.957C299.26 249.956 299.19 249.961 299.19 249.961Z" fill="#129512"/>
<path d="M268.492 298.479C268.871 294.856 271.078 292.244 273.145 289.66C278.891 282.482 283.91 274.829 288.637 266.967C292.345 260.801 297.657 256.439 303.963 253.179C304.442 252.931 305.011 252.855 305.777 253.141C305.084 253.658 304.427 254.232 303.692 254.682C297.35 258.575 292.11 263.504 288.382 270.052C284.009 277.737 278.62 284.729 273.131 291.646C271.425 293.796 270.029 296.194 268.492 298.479Z" fill="#129512"/>
<path d="M272.422 359.811C297.07 371.814 323.213 376.654 350.449 377.174C349.244 377.343 348.042 377.541 346.834 377.672C337.957 378.638 329.18 377.75 320.504 375.939C311.979 374.159 303.485 372.211 295.034 370.111C287.313 368.193 280.179 364.813 273.437 360.605C273.075 360.378 272.76 360.078 272.422 359.811Z" fill="#129512"/>
<path d="M282.84 353.498C289.248 352.439 295.624 351.032 302.075 350.421C307.948 349.867 313.902 350.124 319.821 350.121C325.536 350.12 331.19 349.674 336.758 348.325C339.76 347.599 342.755 347.689 345.719 348.515C350.177 349.757 354.447 351.434 358.158 354.459C357.223 354.187 356.27 353.962 355.356 353.632C353.282 352.883 351.232 352.069 349.163 351.304C344.482 349.573 339.808 349.165 334.818 350.291C326.369 352.198 317.709 351.726 309.126 351.559C304.209 351.463 299.413 351.882 294.586 352.73C290.72 353.41 286.772 353.625 282.859 354.047C282.853 353.864 282.846 353.682 282.84 353.498Z" fill="#129512"/>
<path d="M330.156 354.585C331.187 354.55 332.23 354.6 333.248 354.465C341.579 353.355 348.941 356.313 356.163 360.168C355.473 360.081 354.768 360.051 354.095 359.89C353.196 359.675 352.3 359.41 351.438 359.077C343.452 355.997 335.34 355.272 326.863 356.917C319.76 358.294 312.567 357.975 305.443 356.429C301.66 355.609 297.812 355.085 293.993 353.776C295.182 353.737 296.396 353.53 297.557 353.69C301.114 354.18 304.646 354.851 308.199 355.379C315.594 356.48 322.96 356.538 330.25 354.583L330.156 354.585Z" fill="#129512"/>
<path d="M330.25 354.583C323.54 354.387 316.831 354.232 310.123 353.97C307.854 353.882 305.597 353.525 303.327 352.629C304.159 352.558 304.99 352.412 305.82 352.429C310.573 352.525 315.325 352.681 320.078 352.774C325.306 352.876 330.496 352.722 335.592 351.247C337.101 350.81 338.84 350.807 340.415 351.027C345.72 351.765 350.615 353.838 355.488 356.321C354.8 356.26 354.086 356.299 353.43 356.123C350.519 355.341 347.598 354.578 344.731 353.656C339.73 352.048 334.909 352.629 330.156 354.587L330.25 354.583Z" fill="#129512"/>
<path d="M347.949 373.32C336.989 375.963 313.89 373.63 307.396 369.376C320.68 373.202 334.303 373.415 347.949 373.32Z" fill="#129512"/>
<path d="M282.859 354.048C281.056 354.154 279.253 354.26 277.45 354.366C277.431 354.088 277.411 353.811 277.391 353.534C279.203 353.476 281.011 353.371 282.84 353.5C282.846 353.682 282.853 353.864 282.859 354.048Z" fill="#129512"/>
<path d="M329.458 408.823C326.868 407.965 324.24 407.208 321.697 406.231C314.885 403.609 309.014 399.461 303.743 394.51C298.889 389.952 293.594 386.046 287.799 382.811C282.453 379.828 278.182 375.575 273.951 371.272C273.361 370.673 272.992 369.856 272.898 368.849C275.733 371.349 278.536 373.887 281.416 376.336C282.912 377.609 284.438 378.907 286.131 379.88C293.295 384 300.092 388.578 306.079 394.334C311.864 399.897 318.892 403.444 326.289 406.336C327.451 406.789 328.587 407.306 329.736 407.793C329.643 408.136 329.55 408.48 329.458 408.823Z" fill="#129512"/>
<path d="M323.721 410.133C320.149 410.289 317.797 409.117 315.485 407.837C311.392 405.573 307.825 402.631 304.524 399.34C302.059 396.884 299.753 394.211 297.022 392.092C293.653 389.479 290.087 386.999 286.296 385.075C280.738 382.255 276.503 378.092 272.756 373.317C270.696 370.692 268.867 367.885 267.381 364.814C269.298 367.237 271.275 369.617 273.118 372.095C276.349 376.436 280.106 380.157 285.035 382.535C292.219 386.002 298.579 390.575 303.927 396.512C308.824 401.948 314.618 406.083 321.447 408.753C322.03 408.981 322.537 409.405 323.721 410.133Z" fill="#129512"/>
</svg>
