<svg width="1574" height="106" viewBox="0 0 1574 106" fill="none" xmlns="http://www.w3.org/2000/svg">
<path d="M36.4882 100.483L20.4213 102.102C10.8317 102.211 3 94.4669 3 84.8767V66.3641C3 46.7404 18.9081 30.8323 38.5317 30.8323H1545.39C1559.7 30.8323 1571.29 42.4273 1571.29 56.7306C1571.29 71.4725 1559 83.3996 1544.26 83.7527L1543.47 83.7721C1525.9 84.215 1532.25 85.1008 1520.65 86.3055C1494.93 87.7955 1493.45 92.359 1471.48 96.9512C1414.49 109.905 1366.27 99.4277 1355.14 96.9512C1322.6 88.5694 1315.67 86.8549 1277.05 83.9974C1267.61 83.2997 1258.39 83.4585 1249.59 84.1764C1206.4 87.7002 1164.53 103.113 1121.2 102.569C1075.99 102.001 1051.1 92.2749 1026.34 85.9245C974.805 77.046 924.344 91.0388 897.503 98.1019C870.663 105.165 832.245 102.688 824.224 101.96C803.236 100.626 790.001 97.1078 782.649 94.803C758.586 88.7377 743.512 86.196 733.386 84.8061C720.741 84.0843 696.225 83.8567 685.065 84.8061C662.047 85.1226 636.413 93.1925 627.694 95.4078C618.975 97.6231 604.12 100.129 594.909 101.256C581.869 103.979 545.334 102.289 539.021 101.819C529.809 102.195 504.626 96.4519 500.1 95.4793C437.1 79.4856 427.81 83.8991 420.925 83.8991C396.894 83.8991 386.363 85.9816 378.938 86.8392C371.513 87.6967 339.247 96.517 332.704 97.568C327.094 98.9969 304.154 102.299 299.078 102.299C294.001 102.299 267.882 102.783 261.202 102.299C253.551 102.299 244.093 100.658 234.077 99.1436C224.062 97.629 201.25 91.4442 197.494 90.3082C193.739 89.1722 177.331 86.4083 174.434 85.7737C171.537 85.1392 143.253 82.9859 127.899 83.9579C115.615 84.7355 95.8813 87.306 87.5497 88.494L36.4882 100.483Z" fill="#3FBE3F" stroke="url(#paint0_linear_243_244)" stroke-width="5"/>
<path d="M36.4882 72.6503L20.4213 74.2702C10.8317 74.3784 3 66.6346 3 57.0445V38.5318C3 18.9081 18.9081 3.00001 38.5317 3.00001H1545.39C1559.7 3.00001 1571.29 14.5951 1571.29 28.8983C1571.29 43.6403 1559 55.5673 1544.26 55.9205L1543.47 55.9398C1525.9 56.3827 1532.25 57.2685 1520.65 58.4733C1494.93 59.9632 1493.45 64.5267 1471.48 69.1189C1414.49 82.0727 1366.27 71.5954 1355.14 69.1189C1322.6 60.7371 1315.67 59.0226 1277.05 56.1652C1267.61 55.4675 1258.39 55.6262 1249.59 56.3442C1206.4 59.8679 1164.53 75.2806 1121.2 74.7363C1075.99 74.1686 1051.1 64.4426 1026.34 58.0922C974.805 49.2137 924.344 63.2065 897.503 70.2696C870.663 77.3328 832.245 74.8556 824.224 74.1277C803.236 72.7934 790.001 69.2755 782.649 66.9707C758.586 60.9054 743.512 58.3637 733.386 56.9739C720.741 56.252 696.225 56.0245 685.065 56.9739C662.047 57.2903 636.413 65.3603 627.694 67.5755C618.975 69.7908 604.12 72.2963 594.909 73.4232C581.869 76.1468 545.334 74.4563 539.021 73.9867C529.809 74.3624 504.626 68.6196 500.1 67.647C437.1 51.6534 427.81 56.0668 420.925 56.0668C396.894 56.0668 386.363 58.1494 378.938 59.0069C371.513 59.8644 339.247 68.6847 332.704 69.7357C327.094 71.1646 304.154 74.4668 299.078 74.4668C294.001 74.4668 267.882 74.9508 261.202 74.4668C253.551 74.4668 244.093 72.826 234.077 71.3113C224.062 69.7967 201.25 63.6119 197.494 62.4759C193.739 61.3399 177.331 58.576 174.434 57.9415C171.537 57.3069 143.253 55.1536 127.899 56.1256C115.615 56.9033 95.8813 59.4737 87.5497 60.6618L36.4882 72.6503Z" fill="#008000" stroke="url(#paint1_linear_243_244)" stroke-width="5"/>
<defs>
<linearGradient id="paint0_linear_243_244" x1="787.146" y1="96.3526" x2="787.146" y2="30.8323" gradientUnits="userSpaceOnUse">
<stop/>
<stop offset="1" stop-color="#666666" stop-opacity="0"/>
</linearGradient>
<linearGradient id="paint1_linear_243_244" x1="787.146" y1="68.5203" x2="787.146" y2="3.00001" gradientUnits="userSpaceOnUse">
<stop/>
<stop offset="1" stop-color="#FFCA0D" stop-opacity="0"/>
</linearGradient>
</defs>
</svg>
