<svg width="1440" height="1351" viewBox="0 0 1440 1351" fill="none" xmlns="http://www.w3.org/2000/svg">
<mask id="mask0_234_7" style="mask-type:alpha" maskUnits="userSpaceOnUse" x="0" y="0" width="1440" height="1351">
<rect width="1440" height="1351" fill="#EE007C"/>
</mask>
<g mask="url(#mask0_234_7)">
<path d="M1283.51 1383.93H189.754C166.614 1383.93 147.744 1365.06 147.744 1341.92V183.428C147.744 160.289 166.614 141.557 189.754 141.557H1283.51C1306.65 141.557 1325.39 160.289 1325.39 183.428V1341.92C1325.39 1365.06 1306.65 1383.93 1283.51 1383.93Z" fill="white" stroke="#FF6699" stroke-width="4.13208" stroke-linecap="round" stroke-linejoin="round"/>
<path d="M1266.99 1364.65H173.226C150.087 1364.65 131.217 1345.78 131.217 1322.64V164.145C131.217 141.006 150.087 122.273 173.226 122.273H1266.99C1290.13 122.273 1308.86 141.006 1308.86 164.145V1322.64C1308.86 1345.78 1290.13 1364.65 1266.99 1364.65Z" fill="white" stroke="#FF6699" stroke-width="4.13208" stroke-linecap="round" stroke-linejoin="round"/>
<path d="M1249.77 1347.43H156.009C132.87 1347.43 114 1328.56 114 1305.42V146.928C114 123.789 132.87 105.057 156.009 105.057H1249.77C1272.91 105.057 1291.64 123.789 1291.64 146.928V1305.42C1291.64 1328.56 1272.91 1347.43 1249.77 1347.43Z" fill="white" stroke="#FF6699" stroke-width="4.13208" stroke-linecap="round" stroke-linejoin="round"/>
<path d="M230.662 141.281C230.662 151.335 222.536 159.462 212.481 159.462C202.564 159.462 194.438 151.335 194.438 141.281C194.438 131.364 202.564 123.237 212.481 123.237C222.536 123.237 230.662 131.364 230.662 141.281Z" fill="#FF6699"/>
<path d="M212.48 142.383C207.384 142.383 203.252 138.113 203.252 133.017V81.2283C203.252 76.1321 207.384 72 212.48 72C217.714 72 221.846 76.1321 221.846 81.2283V133.017C221.846 138.113 217.714 142.383 212.48 142.383Z" fill="#DCE5EA" stroke="#FF6699" stroke-width="3.30566" stroke-linecap="round" stroke-linejoin="round"/>
<path d="M300.906 141.281C300.906 151.335 292.78 159.462 282.725 159.462C272.808 159.462 264.682 151.335 264.682 141.281C264.682 131.364 272.808 123.237 282.725 123.237C292.78 123.237 300.906 131.364 300.906 141.281Z" fill="#FF6699"/>
<path d="M282.726 142.383C277.63 142.383 273.498 138.113 273.498 133.017V81.2283C273.498 76.1321 277.63 72 282.726 72C287.96 72 292.092 76.1321 292.092 81.2283V133.017C292.092 138.113 287.96 142.383 282.726 142.383Z" fill="#DCE5EA" stroke="#FF6699" stroke-width="3.30566" stroke-linecap="round" stroke-linejoin="round"/>
<path d="M371.152 141.281C371.152 151.335 363.026 159.462 352.971 159.462C343.054 159.462 334.927 151.335 334.927 141.281C334.927 131.364 343.054 123.237 352.971 123.237C363.026 123.237 371.152 131.364 371.152 141.281Z" fill="#FF6699"/>
<path d="M352.971 142.383C347.874 142.383 343.742 138.113 343.742 133.017V81.2283C343.742 76.1321 347.874 72 352.971 72C358.204 72 362.337 76.1321 362.337 81.2283V133.017C362.337 138.113 358.204 142.383 352.971 142.383Z" fill="#DCE5EA" stroke="#FF6699" stroke-width="3.30566" stroke-linecap="round" stroke-linejoin="round"/>
<path d="M441.398 141.281C441.398 151.335 433.272 159.462 423.217 159.462C413.3 159.462 405.174 151.335 405.174 141.281C405.174 131.364 413.3 123.237 423.217 123.237C433.272 123.237 441.398 131.364 441.398 141.281Z" fill="#FF6699"/>
<path d="M423.217 142.383C418.12 142.383 413.988 138.113 413.988 133.017V81.2283C413.988 76.1321 418.12 72 423.217 72C428.451 72 432.583 76.1321 432.583 81.2283V133.017C432.583 138.113 428.451 142.383 423.217 142.383Z" fill="#DCE5EA" stroke="#FF6699" stroke-width="3.30566" stroke-linecap="round" stroke-linejoin="round"/>
<path d="M511.643 141.281C511.643 151.335 503.516 159.462 493.461 159.462C483.545 159.462 475.418 151.335 475.418 141.281C475.418 131.364 483.545 123.237 493.461 123.237C503.516 123.237 511.643 131.364 511.643 141.281Z" fill="#FF6699"/>
<path d="M493.461 142.383C488.365 142.383 484.232 138.113 484.232 133.017V81.2283C484.232 76.1321 488.365 72 493.461 72C498.695 72 502.827 76.1321 502.827 81.2283V133.017C502.827 138.113 498.695 142.383 493.461 142.383Z" fill="#DCE5EA" stroke="#FF6699" stroke-width="3.30566" stroke-linecap="round" stroke-linejoin="round"/>
<path d="M581.889 141.281C581.889 151.335 573.762 159.462 563.707 159.462C553.79 159.462 545.664 151.335 545.664 141.281C545.664 131.364 553.79 123.237 563.707 123.237C573.762 123.237 581.889 131.364 581.889 141.281Z" fill="#FF6699"/>
<path d="M563.707 142.383C558.611 142.383 554.479 138.113 554.479 133.017V81.2283C554.479 76.1321 558.611 72 563.707 72C568.941 72 573.073 76.1321 573.073 81.2283V133.017C573.073 138.113 568.941 142.383 563.707 142.383Z" fill="#DCE5EA" stroke="#FF6699" stroke-width="3.30566" stroke-linecap="round" stroke-linejoin="round"/>
<path d="M652.133 141.281C652.133 151.335 644.006 159.462 633.952 159.462C624.035 159.462 615.908 151.335 615.908 141.281C615.908 131.364 624.035 123.237 633.952 123.237C644.006 123.237 652.133 131.364 652.133 141.281Z" fill="#FF6699"/>
<path d="M633.953 142.383C628.857 142.383 624.725 138.113 624.725 133.017V81.2283C624.725 76.1321 628.857 72 633.953 72C639.187 72 643.319 76.1321 643.319 81.2283V133.017C643.319 138.113 639.187 142.383 633.953 142.383Z" fill="#DCE5EA" stroke="#FF6699" stroke-width="3.30566" stroke-linecap="round" stroke-linejoin="round"/>
<path d="M722.379 141.281C722.379 151.335 714.252 159.462 704.198 159.462C694.281 159.462 686.154 151.335 686.154 141.281C686.154 131.364 694.281 123.237 704.198 123.237C714.252 123.237 722.379 131.364 722.379 141.281Z" fill="#FF6699"/>
<path d="M704.197 142.383C699.101 142.383 694.969 138.113 694.969 133.017V81.2283C694.969 76.1321 699.101 72 704.197 72C709.431 72 713.563 76.1321 713.563 81.2283V133.017C713.563 138.113 709.431 142.383 704.197 142.383Z" fill="#DCE5EA" stroke="#FF6699" stroke-width="3.30566" stroke-linecap="round" stroke-linejoin="round"/>
<path d="M792.623 141.281C792.623 151.335 784.497 159.462 774.442 159.462C764.525 159.462 756.398 151.335 756.398 141.281C756.398 131.364 764.525 123.237 774.442 123.237C784.497 123.237 792.623 131.364 792.623 141.281Z" fill="#FF6699"/>
<path d="M774.443 142.383C769.347 142.383 765.215 138.113 765.215 133.017V81.2283C765.215 76.1321 769.347 72 774.443 72C779.677 72 783.809 76.1321 783.809 81.2283V133.017C783.809 138.113 779.677 142.383 774.443 142.383Z" fill="#DCE5EA" stroke="#FF6699" stroke-width="3.30566" stroke-linecap="round" stroke-linejoin="round"/>
<path d="M862.869 141.281C862.869 151.335 854.743 159.462 844.688 159.462C834.771 159.462 826.645 151.335 826.645 141.281C826.645 131.364 834.771 123.237 844.688 123.237C854.743 123.237 862.869 131.364 862.869 141.281Z" fill="#FF6699"/>
<path d="M844.687 142.383C839.591 142.383 835.459 138.113 835.459 133.017V81.2283C835.459 76.1321 839.591 72 844.687 72C849.921 72 854.053 76.1321 854.053 81.2283V133.017C854.053 138.113 849.921 142.383 844.687 142.383Z" fill="#DCE5EA" stroke="#FF6699" stroke-width="3.30566" stroke-linecap="round" stroke-linejoin="round"/>
<path d="M933.115 141.281C933.115 151.335 924.989 159.462 914.934 159.462C905.017 159.462 896.891 151.335 896.891 141.281C896.891 131.364 905.017 123.237 914.934 123.237C924.989 123.237 933.115 131.364 933.115 141.281Z" fill="#FF6699"/>
<path d="M914.933 142.383C909.837 142.383 905.705 138.113 905.705 133.017V81.2283C905.705 76.1321 909.837 72 914.933 72C920.167 72 924.299 76.1321 924.299 81.2283V133.017C924.299 138.113 920.167 142.383 914.933 142.383Z" fill="#DCE5EA" stroke="#FF6699" stroke-width="3.30566" stroke-linecap="round" stroke-linejoin="round"/>
<path d="M1003.36 141.281C1003.36 151.335 995.233 159.462 985.178 159.462C975.261 159.462 967.135 151.335 967.135 141.281C967.135 131.364 975.261 123.237 985.178 123.237C995.233 123.237 1003.36 131.364 1003.36 141.281Z" fill="#FF6699"/>
<path d="M985.179 142.383C980.083 142.383 975.951 138.113 975.951 133.017V81.2283C975.951 76.1321 980.083 72 985.179 72C990.413 72 994.546 76.1321 994.546 81.2283V133.017C994.546 138.113 990.413 142.383 985.179 142.383Z" fill="#DCE5EA" stroke="#FF6699" stroke-width="3.30566" stroke-linecap="round" stroke-linejoin="round"/>
<path d="M1073.61 141.281C1073.61 151.335 1065.48 159.462 1055.42 159.462C1045.51 159.462 1037.38 151.335 1037.38 141.281C1037.38 131.364 1045.51 123.237 1055.42 123.237C1065.48 123.237 1073.61 131.364 1073.61 141.281Z" fill="#FF6699"/>
<path d="M1055.42 142.383C1050.33 142.383 1046.2 138.113 1046.2 133.017V81.2283C1046.2 76.1321 1050.33 72 1055.42 72C1060.66 72 1064.79 76.1321 1064.79 81.2283V133.017C1064.79 138.113 1060.66 142.383 1055.42 142.383Z" fill="#DCE5EA" stroke="#FF6699" stroke-width="3.30566" stroke-linecap="round" stroke-linejoin="round"/>
<path d="M1143.85 141.281C1143.85 151.335 1135.73 159.462 1125.67 159.462C1115.75 159.462 1107.63 151.335 1107.63 141.281C1107.63 131.364 1115.75 123.237 1125.67 123.237C1135.73 123.237 1143.85 131.364 1143.85 141.281Z" fill="#FF6699"/>
<path d="M1125.67 142.383C1120.57 142.383 1116.44 138.113 1116.44 133.017V81.2283C1116.44 76.1321 1120.57 72 1125.67 72C1130.9 72 1135.04 76.1321 1135.04 81.2283V133.017C1135.04 138.113 1130.9 142.383 1125.67 142.383Z" fill="#DCE5EA" stroke="#FF6699" stroke-width="3.30566" stroke-linecap="round" stroke-linejoin="round"/>
<path d="M1214.1 141.281C1214.1 151.335 1205.97 159.462 1195.91 159.462C1186 159.462 1177.87 151.335 1177.87 141.281C1177.87 131.364 1186 123.237 1195.91 123.237C1205.97 123.237 1214.1 131.364 1214.1 141.281Z" fill="#FF6699"/>
<path d="M1195.91 142.383C1190.82 142.383 1186.69 138.113 1186.69 133.017V81.2283C1186.69 76.1321 1190.82 72 1195.91 72C1201.15 72 1205.28 76.1321 1205.28 81.2283V133.017C1205.28 138.113 1201.15 142.383 1195.91 142.383Z" fill="#DCE5EA" stroke="#FF6699" stroke-width="3.30566" stroke-linecap="round" stroke-linejoin="round"/>
</g>
</svg>
