<svg width="1460" height="1460" viewBox="0 0 1460 1460" fill="none" xmlns="http://www.w3.org/2000/svg">
<mask id="mask0_236_94" style="mask-type:luminance" maskUnits="userSpaceOnUse" x="0" y="0" width="1460" height="1460">
<path d="M1460 1460H0V0H1460V1460Z" fill="white"/>
</mask>
<g mask="url(#mask0_236_94)">
<path d="M632.041 1323.52C632.041 1223.8 551.19 1142.95 451.47 1142.95C427.366 1142.95 404.364 1147.77 383.29 1156.31C400.507 1131.24 410.562 1100.8 410.562 1068.02C410.562 981.519 340.455 911.274 253.819 911.274C245.279 911.274 236.877 911.963 228.751 913.34C233.985 897.638 236.739 880.972 236.739 863.617C236.739 776.982 166.632 706.874 80.1338 706.874C-4.43606 706.874 -82.9455 782.491 -79.5021 868.851C-77.0229 930.282 -64.7644 992.125 -60.4946 1053.56C-56.2248 1115.26 -54.021 1177.24 -53.8832 1239.09C-53.7455 1323.24 -57.4644 1407.4 -65.0398 1491.28C-65.4531 1497.06 -66.004 1503.26 -63.2493 1508.36C-58.9795 1516.21 -49.0625 1518.55 -40.3851 1519.93C157.541 1551.75 360.151 1513.46 560.005 1527.78C568.683 1528.47 579.426 1528.19 583.558 1520.48C588.792 1510.7 578.462 1500.37 573.09 1490.59C557.251 1461.53 591.134 1440.73 604.632 1419.24C622.538 1390.59 632.041 1357.26 632.041 1323.52Z" fill="#F5188C" fill-opacity="0.4" stroke="#FE4E89" stroke-opacity="0.7" stroke-width="3.4434" stroke-linecap="round" stroke-linejoin="round"/>
<path d="M591.135 1364.42C591.135 1264.7 510.284 1183.85 410.563 1183.85C386.459 1183.85 363.457 1188.67 342.384 1197.21C359.601 1172.01 369.655 1141.71 369.655 1108.92C369.655 1022.29 299.548 952.181 212.912 952.181C204.372 952.181 195.97 952.87 187.844 954.247C193.078 938.545 195.97 921.879 195.97 904.525C195.97 817.889 125.725 747.781 39.2271 747.781C-45.3428 747.781 -123.714 823.398 -120.409 909.759C-117.93 971.051 -105.671 1033.03 -101.401 1094.46C-97.1314 1156.17 -94.9277 1218.01 -94.7899 1279.99C-94.6522 1364.15 -98.3711 1448.31 -105.947 1532.19C-106.36 1537.97 -106.911 1544.17 -104.156 1549.27C-99.8861 1556.98 -89.9692 1559.32 -81.2918 1560.84C116.635 1592.65 319.244 1554.36 519.236 1568.69C527.914 1569.38 538.519 1569.1 542.652 1561.39C548.023 1551.61 537.555 1541.28 532.184 1531.5C516.344 1502.44 550.227 1481.64 563.725 1460.15C581.631 1431.5 591.135 1398.17 591.135 1364.42Z" fill="#FF309C"/>
<path d="M833.551 1323.52C833.551 1223.8 914.402 1142.95 1014.12 1142.95C1038.23 1142.95 1061.23 1147.77 1082.3 1156.31C1065.08 1131.24 1055.03 1100.8 1055.03 1068.02C1055.03 981.519 1125.14 911.274 1211.77 911.274C1220.31 911.274 1228.71 911.963 1236.84 913.34C1231.61 897.638 1228.71 880.972 1228.71 863.617C1228.71 776.982 1298.96 706.874 1385.46 706.874C1470.03 706.874 1548.54 782.491 1545.09 868.851C1542.62 930.282 1530.36 992.125 1526.09 1053.56C1521.82 1115.26 1519.61 1177.24 1519.48 1239.09C1519.34 1323.24 1523.06 1407.4 1530.63 1491.28C1531.05 1497.06 1531.6 1503.26 1528.84 1508.36C1524.57 1516.21 1514.65 1518.55 1505.98 1519.93C1308.05 1551.75 1105.44 1513.46 905.449 1527.78C896.772 1528.47 886.166 1528.19 882.034 1520.48C876.662 1510.7 887.13 1500.37 892.502 1490.59C908.341 1461.53 874.458 1440.73 860.96 1419.24C843.055 1390.59 833.551 1357.26 833.551 1323.52Z" fill="#F5188C" fill-opacity="0.4" stroke="#FE4E89" stroke-opacity="0.7" stroke-width="3.4434" stroke-linecap="round" stroke-linejoin="round"/>
<path d="M874.459 1364.42C874.459 1264.7 955.31 1183.85 1055.03 1183.85C1079.13 1183.85 1102.14 1188.67 1123.07 1197.21C1105.99 1172.01 1095.94 1141.71 1095.94 1108.92C1095.94 1022.29 1166.05 952.181 1252.68 952.181C1261.22 952.181 1269.62 952.87 1277.75 954.247C1272.52 938.545 1269.62 921.879 1269.62 904.525C1269.62 817.889 1339.87 747.781 1426.37 747.781C1510.8 747.781 1589.31 823.398 1586 909.759C1583.52 971.051 1571.26 1033.03 1566.99 1094.46C1562.72 1156.17 1560.52 1218.01 1560.38 1279.99C1560.25 1364.15 1563.96 1448.31 1571.4 1532.19C1571.95 1537.97 1572.5 1544.17 1569.75 1549.27C1565.48 1556.98 1555.56 1559.32 1546.89 1560.84C1348.96 1592.65 1146.35 1554.36 946.357 1568.69C937.68 1569.38 927.074 1569.1 922.942 1561.39C917.57 1551.61 928.038 1541.28 933.41 1531.5C949.25 1502.44 915.366 1481.64 901.868 1460.15C883.963 1431.5 874.459 1398.17 874.459 1364.42Z" fill="#FF309C"/>
<path d="M1257.09 1018.98C1257.09 1018.98 1284.36 1018.98 1284.36 978.075C1284.36 978.075 1287.8 1015.68 1311.63 1015.68C1311.63 1015.68 1274.17 1032.62 1274.17 1073.53C1274.17 1073.53 1277.47 1025.87 1257.09 1018.98Z" stroke="#FF6699" stroke-width="5.09623" stroke-linecap="round" stroke-linejoin="round"/>
<path d="M1298 1070.08C1298 1070.08 1311.63 1070.08 1311.63 1049.7C1311.63 1049.7 1313.28 1068.43 1325.27 1068.43C1325.27 1068.43 1306.54 1076.97 1306.54 1097.35C1306.54 1097.35 1308.19 1073.53 1298 1070.08Z" stroke="#FF6699" stroke-width="5.09623" stroke-linecap="round" stroke-linejoin="round"/>
<path d="M51.0723 983.309C51.0723 983.309 78.2063 983.309 78.2063 942.402C78.2063 942.402 81.6497 980.004 105.478 980.004C105.478 980.004 68.0138 996.945 68.0138 1037.85C68.0138 1037.85 71.4572 990.196 51.0723 983.309Z" stroke="#FF6699" stroke-width="5.09623" stroke-linecap="round" stroke-linejoin="round"/>
<path d="M91.8419 1034.41C91.8419 1034.41 105.478 1034.41 105.478 1014.02C105.478 1014.02 107.268 1032.76 119.114 1032.76C119.114 1032.76 100.381 1041.3 100.381 1061.68C100.381 1061.68 102.172 1037.85 91.8419 1034.41Z" stroke="#FF6699" stroke-width="5.09623" stroke-linecap="round" stroke-linejoin="round"/>
</g>
<mask id="mask1_236_94" style="mask-type:alpha" maskUnits="userSpaceOnUse" x="10" y="230" width="1440" height="1230">
<rect x="10" y="230" width="1440" height="1230" fill="#EE007C"/>
</mask>
<g mask="url(#mask1_236_94)">
<path d="M1307.22 1762.98H213.463C190.323 1762.98 171.453 1744.11 171.453 1720.97V562.476C171.453 539.337 190.323 520.604 213.463 520.604H1307.22C1330.36 520.604 1349.09 539.337 1349.09 562.476V1720.97C1349.09 1744.11 1330.36 1762.98 1307.22 1762.98Z" fill="white" stroke="#FF6699" stroke-width="4.13208" stroke-linecap="round" stroke-linejoin="round"/>
<path d="M1290.7 1743.7H196.935C173.796 1743.7 154.926 1724.83 154.926 1701.69V543.193C154.926 520.053 173.796 501.321 196.935 501.321H1290.7C1313.84 501.321 1332.57 520.053 1332.57 543.193V1701.69C1332.57 1724.83 1313.84 1743.7 1290.7 1743.7Z" fill="white" stroke="#FF6699" stroke-width="4.13208" stroke-linecap="round" stroke-linejoin="round"/>
<path d="M1273.48 1726.48H179.718C156.579 1726.48 137.709 1707.61 137.709 1684.47V525.976C137.709 502.837 156.579 484.104 179.718 484.104H1273.48C1296.62 484.104 1315.35 502.837 1315.35 525.976V1684.47C1315.35 1707.61 1296.62 1726.48 1273.48 1726.48Z" fill="white" stroke="#FF6699" stroke-width="4.13208" stroke-linecap="round" stroke-linejoin="round"/>
<path d="M254.371 520.329C254.371 530.383 246.245 538.51 236.19 538.51C226.273 538.51 218.146 530.383 218.146 520.329C218.146 510.412 226.273 502.285 236.19 502.285C246.245 502.285 254.371 510.412 254.371 520.329Z" fill="#FF6699"/>
<path d="M236.189 521.431C231.093 521.431 226.961 517.161 226.961 512.065V460.276C226.961 455.18 231.093 451.048 236.189 451.048C241.423 451.048 245.555 455.18 245.555 460.276V512.065C245.555 517.161 241.423 521.431 236.189 521.431Z" fill="#DCE5EA" stroke="#FF6699" stroke-width="3.30566" stroke-linecap="round" stroke-linejoin="round"/>
<path d="M324.615 520.329C324.615 530.383 316.489 538.51 306.434 538.51C296.517 538.51 288.391 530.383 288.391 520.329C288.391 510.412 296.517 502.285 306.434 502.285C316.489 502.285 324.615 510.412 324.615 520.329Z" fill="#FF6699"/>
<path d="M306.435 521.431C301.339 521.431 297.207 517.161 297.207 512.065V460.276C297.207 455.18 301.339 451.048 306.435 451.048C311.669 451.048 315.801 455.18 315.801 460.276V512.065C315.801 517.161 311.669 521.431 306.435 521.431Z" fill="#DCE5EA" stroke="#FF6699" stroke-width="3.30566" stroke-linecap="round" stroke-linejoin="round"/>
<path d="M394.861 520.329C394.861 530.383 386.735 538.51 376.68 538.51C366.763 538.51 358.636 530.383 358.636 520.329C358.636 510.412 366.763 502.285 376.68 502.285C386.735 502.285 394.861 510.412 394.861 520.329Z" fill="#FF6699"/>
<path d="M376.679 521.431C371.583 521.431 367.451 517.161 367.451 512.065V460.276C367.451 455.18 371.583 451.048 376.679 451.048C381.913 451.048 386.046 455.18 386.046 460.276V512.065C386.046 517.161 381.913 521.431 376.679 521.431Z" fill="#DCE5EA" stroke="#FF6699" stroke-width="3.30566" stroke-linecap="round" stroke-linejoin="round"/>
<path d="M465.107 520.329C465.107 530.383 456.981 538.51 446.926 538.51C437.009 538.51 428.883 530.383 428.883 520.329C428.883 510.412 437.009 502.285 446.926 502.285C456.981 502.285 465.107 510.412 465.107 520.329Z" fill="#FF6699"/>
<path d="M446.926 521.431C441.829 521.431 437.697 517.161 437.697 512.065V460.276C437.697 455.18 441.829 451.048 446.926 451.048C452.16 451.048 456.292 455.18 456.292 460.276V512.065C456.292 517.161 452.16 521.431 446.926 521.431Z" fill="#DCE5EA" stroke="#FF6699" stroke-width="3.30566" stroke-linecap="round" stroke-linejoin="round"/>
<path d="M535.352 520.329C535.352 530.383 527.225 538.51 517.17 538.51C507.253 538.51 499.127 530.383 499.127 520.329C499.127 510.412 507.253 502.285 517.17 502.285C527.225 502.285 535.352 510.412 535.352 520.329Z" fill="#FF6699"/>
<path d="M517.17 521.431C512.073 521.431 507.941 517.161 507.941 512.065V460.276C507.941 455.18 512.073 451.048 517.17 451.048C522.404 451.048 526.536 455.18 526.536 460.276V512.065C526.536 517.161 522.404 521.431 517.17 521.431Z" fill="#DCE5EA" stroke="#FF6699" stroke-width="3.30566" stroke-linecap="round" stroke-linejoin="round"/>
<path d="M605.598 520.329C605.598 530.383 597.471 538.51 587.416 538.51C577.499 538.51 569.373 530.383 569.373 520.329C569.373 510.412 577.499 502.285 587.416 502.285C597.471 502.285 605.598 510.412 605.598 520.329Z" fill="#FF6699"/>
<path d="M587.416 521.431C582.32 521.431 578.188 517.161 578.188 512.065V460.276C578.188 455.18 582.32 451.048 587.416 451.048C592.65 451.048 596.782 455.18 596.782 460.276V512.065C596.782 517.161 592.65 521.431 587.416 521.431Z" fill="#DCE5EA" stroke="#FF6699" stroke-width="3.30566" stroke-linecap="round" stroke-linejoin="round"/>
<path d="M675.842 520.329C675.842 530.383 667.715 538.51 657.661 538.51C647.744 538.51 639.617 530.383 639.617 520.329C639.617 510.412 647.744 502.285 657.661 502.285C667.715 502.285 675.842 510.412 675.842 520.329Z" fill="#FF6699"/>
<path d="M657.662 521.431C652.566 521.431 648.434 517.161 648.434 512.065V460.276C648.434 455.18 652.566 451.048 657.662 451.048C662.896 451.048 667.028 455.18 667.028 460.276V512.065C667.028 517.161 662.896 521.431 657.662 521.431Z" fill="#DCE5EA" stroke="#FF6699" stroke-width="3.30566" stroke-linecap="round" stroke-linejoin="round"/>
<path d="M746.088 520.329C746.088 530.383 737.961 538.51 727.907 538.51C717.99 538.51 709.863 530.383 709.863 520.329C709.863 510.412 717.99 502.285 727.907 502.285C737.961 502.285 746.088 510.412 746.088 520.329Z" fill="#FF6699"/>
<path d="M727.906 521.431C722.81 521.431 718.678 517.161 718.678 512.065V460.276C718.678 455.18 722.81 451.048 727.906 451.048C733.14 451.048 737.272 455.18 737.272 460.276V512.065C737.272 517.161 733.14 521.431 727.906 521.431Z" fill="#DCE5EA" stroke="#FF6699" stroke-width="3.30566" stroke-linecap="round" stroke-linejoin="round"/>
<path d="M816.332 520.329C816.332 530.383 808.206 538.51 798.151 538.51C788.234 538.51 780.107 530.383 780.107 520.329C780.107 510.412 788.234 502.285 798.151 502.285C808.206 502.285 816.332 510.412 816.332 520.329Z" fill="#FF6699"/>
<path d="M798.152 521.431C793.056 521.431 788.924 517.161 788.924 512.065V460.276C788.924 455.18 793.056 451.048 798.152 451.048C803.386 451.048 807.518 455.18 807.518 460.276V512.065C807.518 517.161 803.386 521.431 798.152 521.431Z" fill="#DCE5EA" stroke="#FF6699" stroke-width="3.30566" stroke-linecap="round" stroke-linejoin="round"/>
<path d="M886.578 520.329C886.578 530.383 878.452 538.51 868.397 538.51C858.48 538.51 850.354 530.383 850.354 520.329C850.354 510.412 858.48 502.285 868.397 502.285C878.452 502.285 886.578 510.412 886.578 520.329Z" fill="#FF6699"/>
<path d="M868.396 521.431C863.3 521.431 859.168 517.161 859.168 512.065V460.276C859.168 455.18 863.3 451.048 868.396 451.048C873.63 451.048 877.762 455.18 877.762 460.276V512.065C877.762 517.161 873.63 521.431 868.396 521.431Z" fill="#DCE5EA" stroke="#FF6699" stroke-width="3.30566" stroke-linecap="round" stroke-linejoin="round"/>
<path d="M956.824 520.329C956.824 530.383 948.698 538.51 938.643 538.51C928.726 538.51 920.6 530.383 920.6 520.329C920.6 510.412 928.726 502.285 938.643 502.285C948.698 502.285 956.824 510.412 956.824 520.329Z" fill="#FF6699"/>
<path d="M938.642 521.431C933.546 521.431 929.414 517.161 929.414 512.065V460.276C929.414 455.18 933.546 451.048 938.642 451.048C943.876 451.048 948.008 455.18 948.008 460.276V512.065C948.008 517.161 943.876 521.431 938.642 521.431Z" fill="#DCE5EA" stroke="#FF6699" stroke-width="3.30566" stroke-linecap="round" stroke-linejoin="round"/>
<path d="M1027.07 520.329C1027.07 530.383 1018.94 538.51 1008.89 538.51C998.97 538.51 990.844 530.383 990.844 520.329C990.844 510.412 998.97 502.285 1008.89 502.285C1018.94 502.285 1027.07 510.412 1027.07 520.329Z" fill="#FF6699"/>
<path d="M1008.89 521.431C1003.79 521.431 999.66 517.161 999.66 512.065V460.276C999.66 455.18 1003.79 451.048 1008.89 451.048C1014.12 451.048 1018.25 455.18 1018.25 460.276V512.065C1018.25 517.161 1014.12 521.431 1008.89 521.431Z" fill="#DCE5EA" stroke="#FF6699" stroke-width="3.30566" stroke-linecap="round" stroke-linejoin="round"/>
<path d="M1097.31 520.329C1097.31 530.383 1089.19 538.51 1079.13 538.51C1069.22 538.51 1061.09 530.383 1061.09 520.329C1061.09 510.412 1069.22 502.285 1079.13 502.285C1089.19 502.285 1097.31 510.412 1097.31 520.329Z" fill="#FF6699"/>
<path d="M1079.13 521.431C1074.04 521.431 1069.9 517.161 1069.9 512.065V460.276C1069.9 455.18 1074.04 451.048 1079.13 451.048C1084.37 451.048 1088.5 455.18 1088.5 460.276V512.065C1088.5 517.161 1084.37 521.431 1079.13 521.431Z" fill="#DCE5EA" stroke="#FF6699" stroke-width="3.30566" stroke-linecap="round" stroke-linejoin="round"/>
<path d="M1167.56 520.329C1167.56 530.383 1159.43 538.51 1149.38 538.51C1139.46 538.51 1131.34 530.383 1131.34 520.329C1131.34 510.412 1139.46 502.285 1149.38 502.285C1159.43 502.285 1167.56 510.412 1167.56 520.329Z" fill="#FF6699"/>
<path d="M1149.38 521.431C1144.28 521.431 1140.15 517.161 1140.15 512.065V460.276C1140.15 455.18 1144.28 451.048 1149.38 451.048C1154.61 451.048 1158.74 455.18 1158.74 460.276V512.065C1158.74 517.161 1154.61 521.431 1149.38 521.431Z" fill="#DCE5EA" stroke="#FF6699" stroke-width="3.30566" stroke-linecap="round" stroke-linejoin="round"/>
<path d="M1237.8 520.329C1237.8 530.383 1229.68 538.51 1219.62 538.51C1209.71 538.51 1201.58 530.383 1201.58 520.329C1201.58 510.412 1209.71 502.285 1219.62 502.285C1229.68 502.285 1237.8 510.412 1237.8 520.329Z" fill="#FF6699"/>
<path d="M1219.62 521.431C1214.53 521.431 1210.39 517.161 1210.39 512.065V460.276C1210.39 455.18 1214.53 451.048 1219.62 451.048C1224.86 451.048 1228.99 455.18 1228.99 460.276V512.065C1228.99 517.161 1224.86 521.431 1219.62 521.431Z" fill="#DCE5EA" stroke="#FF6699" stroke-width="3.30566" stroke-linecap="round" stroke-linejoin="round"/>
</g>
</svg>
