<svg width="20" height="21" viewBox="0 0 20 21" fill="none" xmlns="http://www.w3.org/2000/svg">
<path d="M8.00088 7.29968H16.0014C16.8839 7.29968 17.6016 8.01733 17.6016 8.8998V16.9004C17.6016 17.7828 16.8839 18.5005 16.0014 18.5005H8.00088C7.11842 18.5005 6.40077 17.7828 6.40077 16.9004V8.8998C6.40077 8.01733 7.11842 7.29968 8.00088 7.29968Z" fill="white"/>
<path d="M3.2001 2.49988H11.2007C11.625 2.49988 12.032 2.66846 12.3321 2.96854C12.6322 3.26862 12.8008 3.67562 12.8008 4.09999V5.70011H6.40033C5.97595 5.70011 5.56895 5.86869 5.26888 6.16877C4.9688 6.46885 4.80021 6.87584 4.80021 7.30022V13.7007H3.2001C2.77572 13.7007 2.36873 13.5321 2.06865 13.232C1.76857 12.9319 1.59999 12.5249 1.59999 12.1006V4.09999C1.59999 3.67562 1.76857 3.26862 2.06865 2.96854C2.36873 2.66846 2.77572 2.49988 3.2001 2.49988Z" fill="white"/>
</svg>
