<svg width="226" height="201" viewBox="0 0 226 201" fill="none" xmlns="http://www.w3.org/2000/svg">
<mask id="mask0_243_224" style="mask-type:luminance" maskUnits="userSpaceOnUse" x="0" y="0" width="226" height="201">
<path d="M225.844 200.635H0L0 0.000198364H225.844V200.635Z" fill="white"/>
</mask>
<g mask="url(#mask0_243_224)">
<mask id="mask1_243_224" style="mask-type:luminance" maskUnits="userSpaceOnUse" x="-1" y="0" width="227" height="201">
<path d="M225.837 200.635H-0.00732422L-0.00732422 0.000198364H225.837V200.635Z" fill="white"/>
</mask>
<g mask="url(#mask1_243_224)">
<path d="M10.9884 90.8845C-0.104006 105.505 -6.03391 129.375 9.07552 143.745C23.6982 156.974 45.7448 154.16 63.3325 149.365C65.511 148.765 67.6491 148.109 69.766 147.414C69.6852 146.738 69.6258 146.062 69.5641 145.367C69.5468 144.812 69.7109 144.267 70.0314 143.814C70.3519 143.361 70.8113 143.025 71.3401 142.857C71.8689 142.688 72.4383 142.697 72.9616 142.882C73.485 143.066 73.9338 143.416 74.2402 143.879C74.5632 144.419 74.8777 144.961 75.2284 145.501C79.5245 143.898 83.7265 142.127 87.8342 140.187C88.3855 139.921 88.8146 139.455 89.0341 138.884C89.2536 138.313 89.2469 137.679 89.0154 137.113C88.7839 136.546 88.345 136.089 87.7883 135.835C87.2315 135.581 86.5988 135.549 86.0191 135.745C66.678 141.018 33.3348 150.578 17.32 135.958C2.75678 119.116 21.3751 91.8855 37.4303 81.5136C50.8908 72.5568 67.2281 68.9909 83.1966 71.5242C83.7907 71.6364 84.4052 71.5198 84.917 71.1976C85.4287 70.8755 85.7998 70.3718 85.9555 69.7875C86.1113 69.2032 86.0403 68.5817 85.7568 68.0476C85.4733 67.5135 84.9983 67.1063 84.4271 66.9079C83.035 66.3871 81.6024 65.943 80.1911 65.5561C80.0296 66.2511 79.8893 66.9461 79.7469 67.6411C79.6118 68.2253 79.2728 68.7421 78.7906 69.0985C78.3085 69.455 77.7148 69.6278 77.1167 69.5858C76.5185 69.5438 75.9551 69.2897 75.5275 68.8694C75.1 68.449 74.8364 67.8899 74.7842 67.2926C74.763 66.3085 74.7438 65.3223 74.7438 64.317C50.6205 60.011 24.8629 71.2501 10.9819 90.8717" fill="#10500C"/>
<path d="M37.4187 81.5145C21.3634 91.8864 2.74703 119.117 17.3081 135.959C33.3229 150.579 66.664 141.019 86.0072 135.746C86.5869 135.55 87.2196 135.582 87.7764 135.836C88.3332 136.09 88.7721 136.547 89.0036 137.114C89.2351 137.68 89.2417 138.314 89.0222 138.885C88.8027 139.456 88.3736 139.922 87.8223 140.188C83.7132 142.119 79.5115 143.891 75.2168 145.502C76.9724 148.418 78.7873 151.489 80.7236 154.25C95.2868 176.518 118.664 186.966 144.742 176.035C160.456 169.334 173.667 155.988 170.641 139.997C168.402 129.298 160.133 120.656 151.963 113.113C151.548 112.721 151.282 112.198 151.211 111.632C151.14 111.066 151.269 110.493 151.574 110.011C151.879 109.529 152.343 109.169 152.885 108.991C153.427 108.814 154.014 108.83 154.545 109.038C159.702 110.776 164.616 113.164 169.168 116.146C187.926 108.632 209.992 98.3583 211.323 77.2871C210.838 52.3732 183.055 31.5146 160.917 22.1289C135.967 11.2894 105.489 11.2554 90.8065 36.4796C85.6485 45.5059 82.0554 55.3401 80.1795 65.5656C81.5908 65.9524 83.0234 66.3966 84.4155 66.9173C84.9867 67.1158 85.4614 67.5229 85.7449 68.057C86.0284 68.5911 86.0994 69.2127 85.9436 69.7969C85.7879 70.3812 85.417 70.8849 84.9053 71.2071C84.3936 71.5292 83.7788 71.6459 83.1847 71.5337C67.2162 69.0004 50.8792 72.5663 37.4187 81.523" fill="#008000"/>
<g filter="url(#filter0_d_243_224)">
<mask id="path-5-outside-1_243_224" maskUnits="userSpaceOnUse" x="71.5278" y="52.697" width="116.264" height="78.1251" fill="black">
<rect fill="white" x="71.5278" y="52.697" width="116.264" height="78.1251"/>
<path d="M98.302 91.008C98.4782 91.3807 98.5031 91.7435 98.3767 92.0964C98.1913 92.7378 98.0916 93.0781 98.0775 93.1173C98.0436 93.4591 98.2111 94.2268 98.5799 95.4205C100.482 101.167 102.685 106.689 105.189 111.987C106.599 114.969 107.924 116.395 109.165 116.264L109.675 117.342C109.67 118.159 109.335 118.724 108.669 119.039C107.311 119.681 105.726 118.981 103.914 116.938C102.615 115.5 101.532 113.862 100.663 112.025C98.7629 108.005 97.2837 104.6 96.2256 101.81C96.8993 105.303 97.566 108.815 98.2257 112.347C99.0252 117.897 98.7327 121 97.3482 121.654C95.7774 122.397 93.7196 121.627 91.1749 119.344C88.8359 117.29 85.4134 113.598 80.9074 108.269C81.6034 110.155 82.3982 112.043 83.2917 113.934C85.1417 117.847 86.5885 120.633 87.6321 122.289C87.8098 122.596 88.2016 123.046 88.8076 123.639C89.4277 124.193 89.8321 124.669 90.0209 125.069C90.4362 125.947 89.9117 126.733 88.4473 127.425C86.7168 128.243 84.7503 126.322 82.5479 121.663C81.6544 119.773 80.4269 116.9 78.8654 113.045C77.3039 109.191 76.0827 106.331 75.2017 104.468C75.1011 104.255 74.8876 104.079 74.5613 103.94C74.2351 103.801 74.0216 103.625 73.9209 103.412C73.2162 101.921 74.195 100.546 76.8574 99.2878C77.4698 98.9983 78.3845 99.0383 79.6014 99.4077C80.0714 100.195 80.796 101.384 81.7753 102.973C83.149 105.19 85.2408 107.996 88.0507 111.391C91.7087 115.753 94.017 117.708 94.9754 117.255C95.1884 117.154 95.2729 116.609 95.2289 115.62C95.1394 113.708 94.7283 111.15 93.9955 107.946C93.3799 105.403 92.7642 102.86 92.1486 100.317C91.8456 99.1249 91.4891 97.3716 91.0792 95.0572C90.921 93.2753 91.7338 91.9628 93.5176 91.1196C94.1566 90.8176 94.9979 90.599 96.0416 90.464C97.3094 90.3208 98.0629 90.5021 98.302 91.008ZM130.934 98.5473C131.538 99.8253 131.274 100.748 130.142 101.316C130.565 101.865 131.248 102.552 132.191 103.377C132.441 103.975 132.428 104.568 132.152 105.154C131.875 105.741 131.431 106.179 130.819 106.468C130.339 106.695 129.711 106.813 128.934 106.822C128.26 106.293 127.697 105.55 127.244 104.591C127.131 104.352 126.98 103.999 126.793 103.534C126.606 103.069 126.462 102.73 126.361 102.517C126.449 102.703 126.054 103.004 125.175 103.419C123.684 104.124 121.945 105.028 119.958 106.13C117.105 107.674 115.614 108.655 115.487 109.074C115.385 109.48 115.899 110.98 117.027 113.574C116.92 114.243 116.6 114.704 116.068 114.955C115.509 115.22 114.829 115.264 114.03 115.088C113.218 114.886 112.686 114.518 112.434 113.986C112.346 113.8 112.233 112.941 112.096 111.41C111.735 109.268 111.26 106.023 110.671 101.676C109.62 90.2186 110.279 83.9297 112.648 82.8097C114.965 81.7148 117.969 83.4542 121.662 88.0278C123.316 90.0799 125.515 93.3888 128.26 97.9547C129.028 97.7873 129.53 97.7127 129.767 97.7311C130.306 97.7694 130.695 98.0415 130.934 98.5473ZM124.626 99.6726C119.062 90.9344 115.814 86.7855 114.883 87.226C114.137 87.5783 113.864 90.3782 114.065 95.6256C114.218 99.3965 114.457 102.623 114.779 105.304C115.543 104.715 116.701 103.891 118.253 102.832C119.682 101.928 121.806 100.875 124.626 99.6726ZM149.814 66.659C149.99 67.0317 150.015 67.3946 149.889 67.7474C149.703 68.3888 149.604 68.7291 149.59 68.7683C149.556 69.1101 149.723 69.8778 150.092 71.0716C151.994 76.8176 154.197 82.3398 156.701 87.638C158.111 90.62 159.436 92.0456 160.677 91.915L161.187 92.9933C161.182 93.8099 160.847 94.3755 160.181 94.6901C158.823 95.332 157.238 94.6317 155.426 92.5893C154.127 91.1511 153.044 89.5134 152.175 87.6764C150.275 83.6561 148.796 80.251 147.738 77.4613C148.412 80.9539 149.078 84.4661 149.738 87.9979C150.537 93.5483 150.245 96.6508 148.86 97.3052C147.29 98.0477 145.232 97.2777 142.687 94.9952C140.348 92.9412 136.926 89.2495 132.42 83.9202C133.116 85.8062 133.91 87.6943 134.804 89.5847C136.654 93.4985 138.101 96.2836 139.144 97.9402C139.322 98.2471 139.714 98.6971 140.32 99.2901C140.94 99.8439 141.344 100.32 141.533 100.72C141.948 101.598 141.424 102.384 139.96 103.076C138.229 103.894 136.262 101.973 134.06 97.3141C133.167 95.4238 131.939 92.5512 130.378 88.6965C128.816 84.8417 127.595 81.9825 126.714 80.1188C126.613 79.9058 126.4 79.7298 126.073 79.5909C125.747 79.452 125.534 79.276 125.433 79.063C124.728 77.572 125.707 76.1973 128.37 74.9388C128.982 74.6493 129.897 74.6893 131.114 75.0587C131.584 75.8463 132.308 77.0347 133.287 78.624C134.661 80.8411 136.753 83.6471 139.563 87.042C143.221 91.4041 145.529 93.3587 146.488 92.9056C146.701 92.8049 146.785 92.2601 146.741 91.2711C146.652 89.359 146.24 86.8009 145.508 83.5968C144.892 81.054 144.276 78.5111 143.661 75.9682C143.358 74.776 143.001 73.0226 142.591 70.7083C142.433 68.9264 143.246 67.6138 145.03 66.7706C145.669 66.4686 146.51 66.2501 147.554 66.1151C148.822 65.9718 149.575 66.1531 149.814 66.659ZM182.446 74.1984C183.05 75.4763 182.786 76.3992 181.654 76.967C182.077 77.5164 182.76 78.2034 183.703 79.0278C183.953 79.6261 183.94 80.2186 183.664 80.8053C183.387 81.392 182.943 81.8301 182.331 82.1195C181.851 82.346 181.223 82.4639 180.446 82.4731C179.772 81.9444 179.209 81.2009 178.756 80.2424C178.643 80.0028 178.493 79.6504 178.305 79.1852C178.118 78.72 177.974 78.3809 177.873 78.1679C177.961 78.3542 177.566 78.6551 176.687 79.0704C175.196 79.7751 173.457 80.6786 171.47 81.7808C168.617 83.3248 167.127 84.3063 166.999 84.725C166.898 85.1311 167.411 86.631 168.539 89.2247C168.432 89.8942 168.113 90.3548 167.58 90.6065C167.021 90.8708 166.342 90.915 165.542 90.7393C164.73 90.5369 164.198 90.1695 163.946 89.637C163.858 89.4506 163.745 88.5919 163.608 87.0607C163.247 84.9187 162.772 81.6742 162.183 77.3272C161.132 65.8696 161.791 59.5808 164.161 58.4607C166.477 57.3658 169.482 59.1052 173.174 63.6789C174.828 65.7309 177.028 69.0399 179.772 73.6058C180.54 73.4383 181.042 73.3638 181.279 73.3822C181.818 73.4204 182.207 73.6925 182.446 74.1984ZM176.138 75.3236C170.574 66.5854 167.327 62.4365 166.395 62.877C165.649 63.2294 165.377 66.0293 165.577 71.2766C165.731 75.0476 165.969 78.2737 166.292 80.955C167.056 80.3659 168.213 79.5418 169.765 78.4827C171.194 77.579 173.319 76.526 176.138 75.3236Z"/>
</mask>
<path d="M98.302 91.008C98.4782 91.3807 98.5031 91.7435 98.3767 92.0964C98.1913 92.7378 98.0916 93.0781 98.0775 93.1173C98.0436 93.4591 98.2111 94.2268 98.5799 95.4205C100.482 101.167 102.685 106.689 105.189 111.987C106.599 114.969 107.924 116.395 109.165 116.264L109.675 117.342C109.67 118.159 109.335 118.724 108.669 119.039C107.311 119.681 105.726 118.981 103.914 116.938C102.615 115.5 101.532 113.862 100.663 112.025C98.7629 108.005 97.2837 104.6 96.2256 101.81C96.8993 105.303 97.566 108.815 98.2257 112.347C99.0252 117.897 98.7327 121 97.3482 121.654C95.7774 122.397 93.7196 121.627 91.1749 119.344C88.8359 117.29 85.4134 113.598 80.9074 108.269C81.6034 110.155 82.3982 112.043 83.2917 113.934C85.1417 117.847 86.5885 120.633 87.6321 122.289C87.8098 122.596 88.2016 123.046 88.8076 123.639C89.4277 124.193 89.8321 124.669 90.0209 125.069C90.4362 125.947 89.9117 126.733 88.4473 127.425C86.7168 128.243 84.7503 126.322 82.5479 121.663C81.6544 119.773 80.4269 116.9 78.8654 113.045C77.3039 109.191 76.0827 106.331 75.2017 104.468C75.1011 104.255 74.8876 104.079 74.5613 103.94C74.2351 103.801 74.0216 103.625 73.9209 103.412C73.2162 101.921 74.195 100.546 76.8574 99.2878C77.4698 98.9983 78.3845 99.0383 79.6014 99.4077C80.0714 100.195 80.796 101.384 81.7753 102.973C83.149 105.19 85.2408 107.996 88.0507 111.391C91.7087 115.753 94.017 117.708 94.9754 117.255C95.1884 117.154 95.2729 116.609 95.2289 115.62C95.1394 113.708 94.7283 111.15 93.9955 107.946C93.3799 105.403 92.7642 102.86 92.1486 100.317C91.8456 99.1249 91.4891 97.3716 91.0792 95.0572C90.921 93.2753 91.7338 91.9628 93.5176 91.1196C94.1566 90.8176 94.9979 90.599 96.0416 90.464C97.3094 90.3208 98.0629 90.5021 98.302 91.008ZM130.934 98.5473C131.538 99.8253 131.274 100.748 130.142 101.316C130.565 101.865 131.248 102.552 132.191 103.377C132.441 103.975 132.428 104.568 132.152 105.154C131.875 105.741 131.431 106.179 130.819 106.468C130.339 106.695 129.711 106.813 128.934 106.822C128.26 106.293 127.697 105.55 127.244 104.591C127.131 104.352 126.98 103.999 126.793 103.534C126.606 103.069 126.462 102.73 126.361 102.517C126.449 102.703 126.054 103.004 125.175 103.419C123.684 104.124 121.945 105.028 119.958 106.13C117.105 107.674 115.614 108.655 115.487 109.074C115.385 109.48 115.899 110.98 117.027 113.574C116.92 114.243 116.6 114.704 116.068 114.955C115.509 115.22 114.829 115.264 114.03 115.088C113.218 114.886 112.686 114.518 112.434 113.986C112.346 113.8 112.233 112.941 112.096 111.41C111.735 109.268 111.26 106.023 110.671 101.676C109.62 90.2186 110.279 83.9297 112.648 82.8097C114.965 81.7148 117.969 83.4542 121.662 88.0278C123.316 90.0799 125.515 93.3888 128.26 97.9547C129.028 97.7873 129.53 97.7127 129.767 97.7311C130.306 97.7694 130.695 98.0415 130.934 98.5473ZM124.626 99.6726C119.062 90.9344 115.814 86.7855 114.883 87.226C114.137 87.5783 113.864 90.3782 114.065 95.6256C114.218 99.3965 114.457 102.623 114.779 105.304C115.543 104.715 116.701 103.891 118.253 102.832C119.682 101.928 121.806 100.875 124.626 99.6726ZM149.814 66.659C149.99 67.0317 150.015 67.3946 149.889 67.7474C149.703 68.3888 149.604 68.7291 149.59 68.7683C149.556 69.1101 149.723 69.8778 150.092 71.0716C151.994 76.8176 154.197 82.3398 156.701 87.638C158.111 90.62 159.436 92.0456 160.677 91.915L161.187 92.9933C161.182 93.8099 160.847 94.3755 160.181 94.6901C158.823 95.332 157.238 94.6317 155.426 92.5893C154.127 91.1511 153.044 89.5134 152.175 87.6764C150.275 83.6561 148.796 80.251 147.738 77.4613C148.412 80.9539 149.078 84.4661 149.738 87.9979C150.537 93.5483 150.245 96.6508 148.86 97.3052C147.29 98.0477 145.232 97.2777 142.687 94.9952C140.348 92.9412 136.926 89.2495 132.42 83.9202C133.116 85.8062 133.91 87.6943 134.804 89.5847C136.654 93.4985 138.101 96.2836 139.144 97.9402C139.322 98.2471 139.714 98.6971 140.32 99.2901C140.94 99.8439 141.344 100.32 141.533 100.72C141.948 101.598 141.424 102.384 139.96 103.076C138.229 103.894 136.262 101.973 134.06 97.3141C133.167 95.4238 131.939 92.5512 130.378 88.6965C128.816 84.8417 127.595 81.9825 126.714 80.1188C126.613 79.9058 126.4 79.7298 126.073 79.5909C125.747 79.452 125.534 79.276 125.433 79.063C124.728 77.572 125.707 76.1973 128.37 74.9388C128.982 74.6493 129.897 74.6893 131.114 75.0587C131.584 75.8463 132.308 77.0347 133.287 78.624C134.661 80.8411 136.753 83.6471 139.563 87.042C143.221 91.4041 145.529 93.3587 146.488 92.9056C146.701 92.8049 146.785 92.2601 146.741 91.2711C146.652 89.359 146.24 86.8009 145.508 83.5968C144.892 81.054 144.276 78.5111 143.661 75.9682C143.358 74.776 143.001 73.0226 142.591 70.7083C142.433 68.9264 143.246 67.6138 145.03 66.7706C145.669 66.4686 146.51 66.2501 147.554 66.1151C148.822 65.9718 149.575 66.1531 149.814 66.659ZM182.446 74.1984C183.05 75.4763 182.786 76.3992 181.654 76.967C182.077 77.5164 182.76 78.2034 183.703 79.0278C183.953 79.6261 183.94 80.2186 183.664 80.8053C183.387 81.392 182.943 81.8301 182.331 82.1195C181.851 82.346 181.223 82.4639 180.446 82.4731C179.772 81.9444 179.209 81.2009 178.756 80.2424C178.643 80.0028 178.493 79.6504 178.305 79.1852C178.118 78.72 177.974 78.3809 177.873 78.1679C177.961 78.3542 177.566 78.6551 176.687 79.0704C175.196 79.7751 173.457 80.6786 171.47 81.7808C168.617 83.3248 167.127 84.3063 166.999 84.725C166.898 85.1311 167.411 86.631 168.539 89.2247C168.432 89.8942 168.113 90.3548 167.58 90.6065C167.021 90.8708 166.342 90.915 165.542 90.7393C164.73 90.5369 164.198 90.1695 163.946 89.637C163.858 89.4506 163.745 88.5919 163.608 87.0607C163.247 84.9187 162.772 81.6742 162.183 77.3272C161.132 65.8696 161.791 59.5808 164.161 58.4607C166.477 57.3658 169.482 59.1052 173.174 63.6789C174.828 65.7309 177.028 69.0399 179.772 73.6058C180.54 73.4383 181.042 73.3638 181.279 73.3822C181.818 73.4204 182.207 73.6925 182.446 74.1984ZM176.138 75.3236C170.574 66.5854 167.327 62.4365 166.395 62.877C165.649 63.2294 165.377 66.0293 165.577 71.2766C165.731 75.0476 165.969 78.2737 166.292 80.955C167.056 80.3659 168.213 79.5418 169.765 78.4827C171.194 77.579 173.319 76.526 176.138 75.3236Z" fill="white"/>
<path d="M98.3767 92.0964L98.0995 91.9971L98.0964 92.0058L98.0938 92.0146L98.3767 92.0964ZM98.0775 93.1173L97.8003 93.018L97.7881 93.0522L97.7845 93.0882L98.0775 93.1173ZM98.5799 95.4205L98.2985 95.5075L98.3003 95.5131L98.5799 95.4205ZM109.165 116.264L109.431 116.138L109.342 115.949L109.134 115.971L109.165 116.264ZM109.675 117.342L109.969 117.344L109.97 117.277L109.941 117.216L109.675 117.342ZM103.914 116.938L104.134 116.743L104.132 116.741L103.914 116.938ZM96.2256 101.81L96.501 101.706L95.9365 101.866L96.2256 101.81ZM98.2257 112.347L98.5174 112.305L98.5152 112.293L98.2257 112.347ZM91.1749 119.344L91.3716 119.125L91.3692 119.123L91.1749 119.344ZM80.9074 108.269L81.1323 108.079L80.6311 108.371L80.9074 108.269ZM87.6321 122.289L87.8872 122.142L87.8813 122.132L87.6321 122.289ZM88.8076 123.639L88.6015 123.85L88.6115 123.859L88.8076 123.639ZM78.8654 113.045L78.5924 113.156L78.8654 113.045ZM74.5613 103.94L74.4459 104.211L74.4459 104.211L74.5613 103.94ZM79.6014 99.4077L79.8543 99.2567L79.7959 99.1589L79.687 99.1259L79.6014 99.4077ZM81.7753 102.973L81.5245 103.127L81.5249 103.128L81.7753 102.973ZM88.0507 111.391L87.8239 111.579L87.8251 111.58L88.0507 111.391ZM95.2289 115.62L95.5231 115.607L95.5231 115.606L95.2289 115.62ZM93.9955 107.946L94.2826 107.88L94.2817 107.876L93.9955 107.946ZM92.1486 100.317L92.4348 100.248L92.434 100.245L92.1486 100.317ZM91.0792 95.0572L90.7859 95.0833L90.787 95.096L90.7892 95.1086L91.0792 95.0572ZM96.0416 90.464L96.0085 90.1713L96.0038 90.172L96.0416 90.464ZM98.0357 91.1338C98.1822 91.4437 98.1967 91.7255 98.0995 91.9971L98.654 92.1957C98.8094 91.7616 98.7741 91.3177 98.5682 90.8821L98.0357 91.1338ZM98.0938 92.0146C98.0011 92.3352 97.93 92.5802 97.8802 92.7498C97.8554 92.8347 97.836 92.9003 97.822 92.9469C97.815 92.9702 97.8096 92.9883 97.8055 93.0013C97.8008 93.0165 97.7995 93.0201 97.8003 93.018L98.3548 93.2166C98.3729 93.1659 98.4768 92.8105 98.6596 92.1782L98.0938 92.0146ZM97.7845 93.0882C97.7625 93.3095 97.8059 93.6269 97.89 94.0122C97.9762 94.4075 98.1129 94.9067 98.2985 95.5075L98.8613 95.3336C98.6781 94.7407 98.5467 94.2591 98.4654 93.8867C98.382 93.5042 98.3586 93.2669 98.3706 93.1464L97.7845 93.0882ZM98.3003 95.5131C100.206 101.27 102.413 106.803 104.923 112.113L105.455 111.861C102.956 106.574 100.758 101.063 98.8595 95.328L98.3003 95.5131ZM104.923 112.113C105.633 113.615 106.332 114.748 107.025 115.493C107.714 116.235 108.441 116.636 109.196 116.557L109.134 115.971C108.648 116.022 108.092 115.776 107.456 115.092C106.823 114.412 106.155 113.341 105.455 111.861L104.923 112.113ZM108.899 116.39L109.409 117.468L109.941 117.216L109.431 116.138L108.899 116.39ZM109.38 117.34C109.378 117.709 109.302 118.001 109.166 118.229C109.032 118.455 108.83 118.638 108.543 118.773L108.795 119.305C109.174 119.126 109.472 118.868 109.673 118.529C109.873 118.192 109.967 117.792 109.969 117.344L109.38 117.34ZM108.543 118.773C107.954 119.051 107.309 119.047 106.581 118.726C105.843 118.4 105.027 117.749 104.134 116.743L103.694 117.134C104.613 118.17 105.496 118.89 106.343 119.265C107.2 119.643 108.026 119.669 108.795 119.305L108.543 118.773ZM104.132 116.741C102.854 115.325 101.786 113.712 100.929 111.899L100.397 112.151C101.277 114.013 102.376 115.675 103.695 117.136L104.132 116.741ZM100.929 111.899C99.031 107.883 97.5553 104.486 96.501 101.706L95.9503 101.915C97.0121 104.714 98.4948 108.127 100.397 112.151L100.929 111.899ZM95.9365 101.866C96.6101 105.358 97.2766 108.87 97.9362 112.401L98.5152 112.293C97.8554 108.76 97.1886 105.248 96.5148 101.754L95.9365 101.866ZM97.9342 112.389C98.3328 115.156 98.4557 117.292 98.3127 118.809C98.2413 119.567 98.1046 120.155 97.9129 120.584C97.722 121.012 97.4858 121.263 97.2224 121.388L97.4741 121.92C97.9028 121.718 98.2224 121.336 98.4507 120.824C98.6783 120.315 98.8244 119.657 98.8991 118.864C99.0486 117.278 98.918 115.088 98.5172 112.305L97.9342 112.389ZM97.2224 121.388C96.5268 121.717 95.7052 121.723 94.73 121.358C93.7492 120.991 92.6301 120.254 91.3715 119.125L90.9783 119.563C92.2644 120.717 93.4466 121.506 94.5235 121.909C95.6061 122.314 96.5988 122.334 97.4741 121.92L97.2224 121.388ZM91.3692 119.123C89.048 117.084 85.6375 113.407 81.1323 108.079L80.6825 108.459C85.1893 113.79 88.6239 117.496 90.9806 119.565L91.3692 119.123ZM80.6311 108.371C81.3302 110.266 82.1284 112.162 83.0255 114.059L83.558 113.808C82.668 111.925 81.8766 110.045 81.1836 108.167L80.6311 108.371ZM83.0255 114.059C84.876 117.974 86.3291 120.773 87.3829 122.446L87.8813 122.132C86.8479 120.492 85.4074 117.72 83.558 113.808L83.0255 114.059ZM87.3772 122.437C87.5771 122.782 87.9956 123.257 88.6017 123.85L89.0136 123.429C88.4075 122.836 88.0424 122.41 87.887 122.142L87.3772 122.437ZM88.6115 123.859C89.2235 124.405 89.5917 124.85 89.7547 125.195L90.2872 124.943C90.0725 124.489 89.6319 123.98 89.0038 123.419L88.6115 123.859ZM89.7547 125.195C89.9197 125.544 89.8969 125.85 89.6941 126.153C89.4758 126.48 89.0357 126.821 88.3215 127.159L88.5732 127.691C89.3233 127.337 89.8777 126.939 90.1839 126.48C90.5056 125.999 90.5374 125.472 90.2872 124.943L89.7547 125.195ZM88.3215 127.159C87.9551 127.332 87.5825 127.36 87.1893 127.243C86.7882 127.123 86.3514 126.847 85.8803 126.387C84.9353 125.464 83.9111 123.858 82.8141 121.537L82.2817 121.789C83.3871 124.128 84.4473 125.811 85.4688 126.809C85.9809 127.309 86.4979 127.651 87.021 127.807C87.5521 127.966 88.0743 127.927 88.5732 127.691L88.3215 127.159ZM82.8141 121.537C81.9243 119.655 80.6993 116.788 79.1383 112.935L78.5924 113.156C80.1544 117.012 81.3844 119.891 82.2817 121.789L82.8141 121.537ZM79.1383 112.935C77.5764 109.079 76.3526 106.213 75.468 104.342L74.9355 104.594C75.8127 106.449 77.0314 109.302 78.5924 113.156L79.1383 112.935ZM75.468 104.342C75.3241 104.038 75.0368 103.822 74.6767 103.669L74.4459 104.211C74.7384 104.335 74.878 104.472 74.9355 104.594L75.468 104.342ZM74.6767 103.669C74.3843 103.544 74.2447 103.408 74.1872 103.286L73.6547 103.538C73.7985 103.842 74.0858 104.057 74.4459 104.211L74.6767 103.669ZM74.1872 103.286C74.0303 102.954 73.9727 102.642 74.0012 102.344C74.0297 102.045 74.1464 101.742 74.3664 101.433C74.8122 100.807 75.6682 100.176 76.9833 99.554L76.7316 99.0215C75.3843 99.6584 74.4196 100.343 73.8866 101.092C73.6171 101.47 73.4548 101.87 73.4149 102.287C73.3749 102.706 73.4592 103.124 73.6547 103.538L74.1872 103.286ZM76.9833 99.554C77.4919 99.3136 78.3147 99.3248 79.5159 99.6895L79.687 99.1259C78.4543 98.7517 77.4477 98.683 76.7316 99.0215L76.9833 99.554ZM79.3485 99.5586C79.8197 100.348 80.5452 101.538 81.5245 103.127L82.026 102.818C81.0469 101.229 80.3232 100.042 79.8543 99.2567L79.3485 99.5586ZM81.5249 103.128C82.9089 105.362 85.0104 108.179 87.8239 111.579L88.2776 111.203C85.4713 107.813 83.3891 105.018 82.0256 102.818L81.5249 103.128ZM87.8251 111.58C89.6572 113.765 91.1616 115.359 92.3351 116.353C92.9207 116.849 93.437 117.207 93.8805 117.411C94.3149 117.61 94.7422 117.691 95.1013 117.521L94.8496 116.988C94.7294 117.045 94.5088 117.051 94.1265 116.875C93.7534 116.704 93.2842 116.385 92.7157 115.904C91.581 114.943 90.1023 113.379 88.2764 111.202L87.8251 111.58ZM95.1013 117.521C95.242 117.454 95.3266 117.332 95.3785 117.219C95.4316 117.104 95.4663 116.966 95.4896 116.816C95.5363 116.514 95.5454 116.108 95.5231 115.607L94.9347 115.633C94.9564 116.121 94.9453 116.482 94.9075 116.725C94.8886 116.848 94.8649 116.926 94.8436 116.973C94.8213 117.021 94.8154 117.004 94.8496 116.988L95.1013 117.521ZM95.5231 115.606C95.4324 113.669 95.0169 111.091 94.2826 107.88L93.7084 108.011C94.4397 111.209 94.8465 113.747 94.9347 115.634L95.5231 115.606ZM94.2817 107.876C93.6661 105.334 93.0504 102.791 92.4348 100.248L91.8624 100.386C92.478 102.929 93.0937 105.472 93.7093 108.015L94.2817 107.876ZM92.434 100.245C92.1337 99.0631 91.7788 97.3183 91.3692 95.0059L90.7892 95.1086C91.1995 97.4249 91.5575 99.1867 91.8632 100.39L92.434 100.245ZM91.3725 95.0312C91.2981 94.1932 91.4528 93.4853 91.8205 92.8914C92.1897 92.2953 92.7888 91.7899 93.6435 91.3858L93.3918 90.8534C92.4626 91.2925 91.7634 91.865 91.3198 92.5814C90.8747 93.3001 90.702 94.1394 90.7859 95.0833L91.3725 95.0312ZM93.6435 91.3858C94.2446 91.1017 95.0528 90.8889 96.0794 90.7561L96.0038 90.172C94.943 90.3092 94.0686 90.5334 93.3918 90.8534L93.6435 91.3858ZM96.0747 90.7566C96.6936 90.6867 97.1599 90.6998 97.4886 90.7789C97.8139 90.8572 97.9674 90.9894 98.0357 91.1338L98.5682 90.8821C98.3974 90.5207 98.0546 90.3093 97.6264 90.2063C97.2017 90.104 96.6574 90.0981 96.0085 90.1714L96.0747 90.7566ZM130.142 101.316L130.01 101.053L129.691 101.213L129.909 101.495L130.142 101.316ZM132.191 103.377L132.463 103.263L132.436 103.2L132.385 103.155L132.191 103.377ZM132.152 105.154L132.418 105.28L132.418 105.28L132.152 105.154ZM128.934 106.822L128.752 107.054L128.833 107.118L128.937 107.116L128.934 106.822ZM126.793 103.534L126.52 103.644L126.52 103.644L126.793 103.534ZM119.958 106.13L120.098 106.389L120.101 106.387L119.958 106.13ZM115.487 109.074L115.205 108.988L115.203 108.995L115.201 109.003L115.487 109.074ZM117.027 113.574L117.318 113.62L117.332 113.535L117.297 113.456L117.027 113.574ZM114.03 115.088L113.959 115.374L113.967 115.376L114.03 115.088ZM112.096 111.41L112.389 111.383L112.388 111.372L112.386 111.361L112.096 111.41ZM110.671 101.676L110.377 101.703L110.379 101.716L110.671 101.676ZM121.662 88.0278L121.891 87.843L121.891 87.8428L121.662 88.0278ZM128.26 97.9547L128.008 98.1064L128.116 98.2875L128.323 98.2425L128.26 97.9547ZM129.767 97.7311L129.744 98.0247L129.746 98.0249L129.767 97.7311ZM124.626 99.6726L124.741 99.9435L125.061 99.8073L124.874 99.5144L124.626 99.6726ZM114.065 95.6256L113.77 95.6368L113.77 95.6376L114.065 95.6256ZM114.779 105.304L114.487 105.339L114.549 105.854L114.959 105.537L114.779 105.304ZM118.253 102.832L118.095 102.583L118.087 102.588L118.253 102.832ZM130.668 98.6732C130.954 99.2774 131.011 99.7504 130.906 100.117C130.803 100.476 130.527 100.793 130.01 101.053L130.274 101.579C130.889 101.271 131.311 100.843 131.472 100.279C131.632 99.7226 131.519 99.0953 131.2 98.4215L130.668 98.6732ZM129.909 101.495C130.349 102.068 131.049 102.77 131.997 103.598L132.385 103.155C131.446 102.335 130.78 101.663 130.375 101.136L129.909 101.495ZM131.919 103.49C132.137 104.012 132.126 104.517 131.885 105.029L132.418 105.28C132.73 104.618 132.745 103.938 132.463 103.263L131.919 103.49ZM131.885 105.029C131.639 105.551 131.246 105.941 130.693 106.202L130.944 106.735C131.616 106.417 132.111 105.931 132.418 105.28L131.885 105.029ZM130.693 106.202C130.265 106.404 129.683 106.519 128.93 106.528L128.937 107.116C129.739 107.107 130.413 106.986 130.944 106.735L130.693 106.202ZM129.115 106.59C128.486 106.096 127.948 105.392 127.51 104.465L126.978 104.717C127.446 105.707 128.035 106.491 128.752 107.054L129.115 106.59ZM127.51 104.465C127.401 104.234 127.253 103.888 127.066 103.424L126.52 103.644C126.708 104.111 126.861 104.47 126.978 104.717L127.51 104.465ZM127.066 103.424C126.879 102.958 126.732 102.612 126.627 102.391L126.095 102.643C126.192 102.847 126.333 103.18 126.52 103.644L127.066 103.424ZM126.095 102.643C126.058 102.565 126.095 102.508 126.087 102.521C126.077 102.538 126.04 102.581 125.952 102.648C125.78 102.779 125.484 102.948 125.049 103.153L125.301 103.686C125.745 103.476 126.086 103.286 126.309 103.117C126.419 103.033 126.52 102.94 126.586 102.835C126.654 102.726 126.708 102.562 126.627 102.391L126.095 102.643ZM125.049 103.153C123.551 103.861 121.806 104.768 119.815 105.872L120.101 106.387C122.084 105.287 123.818 104.387 125.301 103.686L125.049 103.153ZM119.818 105.871C118.389 106.644 117.294 107.28 116.538 107.778C116.161 108.026 115.862 108.245 115.645 108.432C115.537 108.525 115.445 108.615 115.373 108.701C115.303 108.784 115.238 108.881 115.205 108.988L115.768 109.16C115.768 109.162 115.776 109.137 115.824 109.08C115.869 109.026 115.936 108.959 116.031 108.877C116.219 108.714 116.494 108.512 116.862 108.27C117.597 107.786 118.674 107.159 120.098 106.389L119.818 105.871ZM115.201 109.003C115.157 109.177 115.187 109.407 115.238 109.646C115.293 109.9 115.387 110.219 115.517 110.599C115.778 111.36 116.192 112.392 116.757 113.691L117.297 113.456C116.734 112.162 116.327 111.147 116.074 110.408C115.948 110.038 115.862 109.744 115.814 109.521C115.762 109.283 115.765 109.174 115.772 109.145L115.201 109.003ZM116.736 113.527C116.642 114.117 116.372 114.486 115.942 114.689L116.194 115.222C116.829 114.922 117.198 114.369 117.318 113.62L116.736 113.527ZM115.942 114.689C115.459 114.918 114.85 114.967 114.093 114.801L113.967 115.376C114.809 115.561 115.559 115.522 116.194 115.222L115.942 114.689ZM114.101 114.802C113.337 114.612 112.9 114.283 112.7 113.86L112.168 114.112C112.471 114.754 113.098 115.16 113.959 115.374L114.101 114.802ZM112.7 113.86C112.7 113.861 112.694 113.847 112.684 113.809C112.675 113.773 112.664 113.726 112.652 113.665C112.629 113.542 112.603 113.376 112.575 113.164C112.52 112.74 112.457 112.147 112.389 111.383L111.802 111.436C111.871 112.203 111.934 112.805 111.991 113.24C112.02 113.458 112.047 113.637 112.074 113.776C112.099 113.904 112.128 114.027 112.168 114.112L112.7 113.86ZM112.386 111.361C112.026 109.224 111.551 105.983 110.962 101.637L110.379 101.716C110.968 106.063 111.443 109.312 111.805 111.459L112.386 111.361ZM110.964 101.649C110.439 95.9268 110.343 91.5127 110.67 88.397C110.833 86.8385 111.101 85.6201 111.465 84.7303C111.829 83.8376 112.276 83.3115 112.774 83.0759L112.523 82.5434C111.836 82.8679 111.312 83.548 110.919 84.5074C110.526 85.4698 110.25 86.7498 110.084 88.3356C109.751 91.5088 109.851 95.9679 110.377 101.703L110.964 101.649ZM112.774 83.0759C113.816 82.5836 115.04 82.7079 116.492 83.5479C117.948 84.3912 119.596 85.9374 121.433 88.2128L121.891 87.8428C120.036 85.5446 118.335 83.9343 116.787 83.0382C115.233 82.1389 113.797 81.9408 112.523 82.5434L112.774 83.0759ZM121.433 88.2126C123.074 90.2483 125.264 93.543 128.008 98.1064L128.512 97.803C125.766 93.2347 123.559 89.9115 121.891 87.843L121.433 88.2126ZM128.323 98.2425C128.703 98.1595 129.014 98.1005 129.256 98.0645C129.504 98.0277 129.661 98.0183 129.744 98.0247L129.79 97.4375C129.636 97.4256 129.423 97.4442 129.169 97.4819C128.909 97.5205 128.584 97.5825 128.197 97.667L128.323 98.2425ZM129.746 98.0249C130.174 98.0553 130.472 98.2593 130.668 98.6732L131.2 98.4215C130.918 97.8236 130.437 97.4835 129.788 97.4374L129.746 98.0249ZM124.874 99.5144C122.091 95.1434 119.882 91.9118 118.249 89.8257C117.434 88.7845 116.754 88.0173 116.211 87.5358C115.941 87.2961 115.691 87.1149 115.465 87.0092C115.246 86.9063 114.991 86.8491 114.757 86.9597L115.008 87.4922C115.009 87.492 115.02 87.4863 115.052 87.4899C115.087 87.4937 115.141 87.5076 115.216 87.5427C115.367 87.6136 115.568 87.7526 115.82 87.9764C116.322 88.422 116.977 89.1556 117.785 90.1888C119.4 92.2516 121.597 95.4636 124.377 99.8307L124.874 99.5144ZM114.757 86.9597C114.451 87.1044 114.262 87.4554 114.132 87.8586C113.995 88.282 113.895 88.853 113.826 89.5616C113.688 90.9816 113.67 93.0091 113.77 95.6368L114.359 95.6144C114.259 92.9947 114.278 90.9986 114.412 89.6187C114.479 88.9274 114.574 88.4044 114.692 88.0397C114.817 87.6548 114.942 87.5237 115.008 87.4922L114.757 86.9597ZM113.77 95.6376C113.924 99.4135 114.163 102.648 114.487 105.339L115.072 105.269C114.75 102.597 114.512 99.3796 114.359 95.6136L113.77 95.6376ZM114.959 105.537C115.716 104.953 116.868 104.133 118.419 103.075L118.087 102.588C116.534 103.648 115.37 104.476 114.6 105.071L114.959 105.537ZM118.41 103.081C119.819 102.189 121.927 101.144 124.741 99.9435L124.51 99.4017C121.686 100.606 119.545 101.666 118.095 102.583L118.41 103.081ZM149.889 67.7474L149.612 67.6482L149.609 67.6568L149.606 67.6657L149.889 67.7474ZM149.59 68.7683L149.312 68.6691L149.3 68.7032L149.297 68.7393L149.59 68.7683ZM150.092 71.0716L149.811 71.1585L149.813 71.1641L150.092 71.0716ZM160.677 91.915L160.944 91.7891L160.854 91.6002L160.646 91.6221L160.677 91.915ZM161.187 92.9933L161.481 92.995L161.482 92.928L161.453 92.8674L161.187 92.9933ZM155.426 92.5893L155.646 92.3939L155.645 92.392L155.426 92.5893ZM147.738 77.4613L148.013 77.3568L147.449 77.517L147.738 77.4613ZM149.738 87.9979L150.03 87.9559L150.027 87.9439L149.738 87.9979ZM142.687 94.9952L142.884 94.776L142.881 94.7739L142.687 94.9952ZM132.42 83.9202L132.644 83.7301L132.143 84.0222L132.42 83.9202ZM139.144 97.9402L139.399 97.7926L139.393 97.7832L139.144 97.9402ZM140.32 99.2901L140.114 99.5008L140.124 99.5097L140.32 99.2901ZM130.378 88.6965L130.105 88.807L130.378 88.6965ZM126.073 79.5909L125.958 79.8618L125.958 79.8618L126.073 79.5909ZM131.114 75.0587L131.366 74.9078L131.308 74.81L131.199 74.7769L131.114 75.0587ZM133.287 78.624L133.037 78.7785L133.037 78.7791L133.287 78.624ZM139.563 87.042L139.336 87.2298L139.337 87.2312L139.563 87.042ZM146.741 91.2711L147.035 91.258L147.035 91.2574L146.741 91.2711ZM145.508 83.5968L145.795 83.5312L145.794 83.5275L145.508 83.5968ZM143.661 75.9682L143.947 75.8989L143.946 75.8957L143.661 75.9682ZM142.591 70.7083L142.298 70.7343L142.299 70.747L142.301 70.7596L142.591 70.7083ZM147.554 66.1151L147.521 65.8224L147.516 65.823L147.554 66.1151ZM149.548 66.7848C149.694 67.0947 149.709 67.3765 149.612 67.6482L150.166 67.8467C150.322 67.4126 150.286 66.9687 150.08 66.5331L149.548 66.7848ZM149.606 67.6657C149.513 67.9862 149.442 68.2313 149.392 68.4009C149.368 68.4858 149.348 68.5513 149.334 68.5979C149.327 68.6212 149.322 68.6393 149.318 68.6524C149.313 68.6675 149.312 68.6711 149.312 68.6691L149.867 68.8676C149.885 68.8169 149.989 68.4615 150.172 67.8292L149.606 67.6657ZM149.297 68.7393C149.275 68.9605 149.318 69.2779 149.402 69.6632C149.488 70.0585 149.625 70.5577 149.811 71.1585L150.373 70.9846C150.19 70.3917 150.059 69.9101 149.978 69.5377C149.894 69.1553 149.871 68.9179 149.883 68.7974L149.297 68.7393ZM149.813 71.1641C151.718 76.9211 153.925 82.4544 156.435 87.7639L156.968 87.5122C154.468 82.2251 152.27 76.7141 150.372 70.9791L149.813 71.1641ZM156.435 87.7639C157.145 89.266 157.844 90.3992 158.537 91.1442C159.226 91.8862 159.953 92.2873 160.708 92.2078L160.646 91.6221C160.16 91.6733 159.604 91.4269 158.968 90.7432C158.335 90.0626 157.667 88.992 156.968 87.5122L156.435 87.7639ZM160.411 92.0408L160.921 93.1191L161.453 92.8674L160.944 91.7891L160.411 92.0408ZM160.893 92.9915C160.89 93.3601 160.814 93.6516 160.679 93.8798C160.544 94.1061 160.342 94.2886 160.055 94.4239L160.307 94.9564C160.686 94.7771 160.984 94.5194 161.185 94.1801C161.385 93.8427 161.479 93.443 161.481 92.995L160.893 92.9915ZM160.055 94.4239C159.466 94.7025 158.821 94.6984 158.093 94.3769C157.355 94.0509 156.539 93.3997 155.646 92.3939L155.206 92.7848C156.126 93.8213 157.008 94.5415 157.855 94.9157C158.712 95.2945 159.539 95.3196 160.307 94.9564L160.055 94.4239ZM155.645 92.392C154.366 90.9761 153.298 89.3628 152.442 87.5505L151.909 87.8022C152.789 89.6641 153.889 91.3261 155.207 92.7867L155.645 92.392ZM152.442 87.5505C150.543 83.5342 149.068 80.1368 148.013 77.3568L147.462 77.5657C148.524 80.3653 150.007 83.7779 151.909 87.8022L152.442 87.5505ZM147.449 77.517C148.122 81.0091 148.789 84.5207 149.448 88.052L150.027 87.9439C149.368 84.4115 148.701 80.8987 148.027 77.4055L147.449 77.517ZM149.446 88.0399C149.845 90.8073 149.968 92.9434 149.825 94.4599C149.753 95.2183 149.617 95.806 149.425 96.2353C149.234 96.6629 148.998 96.9144 148.735 97.0389L148.986 97.5714C149.415 97.3688 149.735 96.987 149.963 96.4754C150.19 95.9656 150.337 95.308 150.411 94.5152C150.561 92.9293 150.43 90.739 150.029 87.9559L149.446 88.0399ZM148.735 97.0389C148.039 97.3677 147.217 97.3737 146.242 97.0088C145.261 96.6418 144.142 95.9048 142.884 94.776L142.49 95.2144C143.777 96.3681 144.959 97.1574 146.036 97.5604C147.118 97.9655 148.111 97.9851 148.986 97.5714L148.735 97.0389ZM142.881 94.7739C140.56 92.7355 137.15 89.0585 132.644 83.7301L132.195 84.1103C136.702 89.4406 140.136 93.1469 142.493 95.2165L142.881 94.7739ZM132.143 84.0222C132.842 85.9166 133.641 87.8127 134.538 89.7105L135.07 89.4588C134.18 87.576 133.389 85.6958 132.696 83.8182L132.143 84.0222ZM134.538 89.7105C136.388 93.6254 137.841 96.4244 138.895 98.0972L139.393 97.7832C138.36 96.1428 136.92 93.3715 135.07 89.4588L134.538 89.7105ZM138.889 98.0877C139.089 98.433 139.508 98.9076 140.114 99.5006L140.526 99.0796C139.92 98.4866 139.555 98.0612 139.399 97.7927L138.889 98.0877ZM140.124 99.5097C140.736 100.056 141.104 100.501 141.267 100.846L141.799 100.594C141.585 100.14 141.144 99.6314 140.516 99.0704L140.124 99.5097ZM141.267 100.846C141.432 101.195 141.409 101.501 141.206 101.804C140.988 102.131 140.548 102.472 139.834 102.81L140.085 103.342C140.835 102.988 141.39 102.59 141.696 102.131C142.018 101.65 142.05 101.123 141.799 100.594L141.267 100.846ZM139.834 102.81C139.467 102.983 139.095 103.011 138.702 102.894C138.3 102.774 137.864 102.498 137.392 102.038C136.447 101.115 135.423 99.5089 134.326 97.1882L133.794 97.4399C134.899 99.7785 135.959 101.462 136.981 102.46C137.493 102.96 138.01 103.302 138.533 103.458C139.064 103.617 139.587 103.578 140.085 103.342L139.834 102.81ZM134.326 97.1882C133.436 95.3057 132.212 92.4395 130.651 88.5859L130.105 88.807C131.667 92.663 132.897 95.5418 133.794 97.4399L134.326 97.1882ZM130.651 88.5859C129.089 84.7301 127.865 81.8645 126.98 79.993L126.448 80.2447C127.325 82.1005 128.544 84.9534 130.105 88.807L130.651 88.5859ZM126.98 79.993C126.836 79.6886 126.549 79.4733 126.189 79.32L125.958 79.8618C126.251 79.9864 126.39 80.123 126.448 80.2447L126.98 79.993ZM126.189 79.32C125.896 79.1954 125.757 79.0588 125.699 78.9371L125.167 79.1888C125.311 79.4932 125.598 79.7085 125.958 79.8618L126.189 79.32ZM125.699 78.9371C125.542 78.6052 125.485 78.2927 125.513 77.9946C125.542 77.6961 125.659 77.3934 125.879 77.0845C126.324 76.4584 127.18 75.8267 128.495 75.205L128.244 74.6725C126.896 75.3094 125.932 75.9943 125.399 76.7429C125.129 77.1214 124.967 77.5206 124.927 77.9385C124.887 78.3568 124.971 78.7753 125.167 79.1888L125.699 78.9371ZM128.495 75.205C129.004 74.9646 129.827 74.9759 131.028 75.3405L131.199 74.7769C129.966 74.4027 128.96 74.334 128.244 74.6725L128.495 75.205ZM130.861 75.2096C131.332 75.9991 132.057 77.189 133.037 78.7785L133.538 78.4695C132.559 76.8805 131.835 75.6935 131.366 74.9078L130.861 75.2096ZM133.037 78.7791C134.421 81.0127 136.523 83.8305 139.336 87.2298L139.79 86.8542C136.983 83.4637 134.901 80.6695 133.538 78.4689L133.037 78.7791ZM139.337 87.2312C141.169 89.416 142.674 91.0105 143.847 92.0042C144.433 92.5001 144.949 92.8577 145.393 93.0615C145.827 93.2612 146.254 93.3416 146.613 93.1718L146.362 92.6394C146.242 92.6962 146.021 92.7021 145.639 92.5264C145.266 92.3549 144.796 92.0362 144.228 91.5548C143.093 90.5939 141.614 89.0301 139.789 86.8528L139.337 87.2312ZM146.613 93.1718C146.754 93.1053 146.839 92.9829 146.891 92.8701C146.944 92.7549 146.978 92.6167 147.002 92.4666C147.048 92.1655 147.058 91.7592 147.035 91.258L146.447 91.2842C146.469 91.772 146.458 92.1326 146.42 92.3763C146.401 92.4987 146.377 92.5774 146.356 92.6236C146.333 92.6721 146.328 92.6555 146.362 92.6394L146.613 93.1718ZM147.035 91.2574C146.945 89.3197 146.529 86.7421 145.795 83.5312L145.221 83.6625C145.952 86.8598 146.359 89.3983 146.447 91.2849L147.035 91.2574ZM145.794 83.5275C145.178 80.9847 144.563 78.4418 143.947 75.8989L143.375 76.0375C143.99 78.5804 144.606 81.1233 145.221 83.6661L145.794 83.5275ZM143.946 75.8957C143.646 74.7141 143.291 72.9693 142.881 70.6569L142.301 70.7596C142.712 73.076 143.07 74.8378 143.375 76.0408L143.946 75.8957ZM142.885 70.6822C142.81 69.8442 142.965 69.1363 143.333 68.5425C143.702 67.9463 144.301 67.4409 145.156 67.0369L144.904 66.5044C143.975 66.9436 143.276 67.516 142.832 68.2324C142.387 68.9511 142.214 69.7904 142.298 70.7343L142.885 70.6822ZM145.156 67.0369C145.757 66.7528 146.565 66.5399 147.592 66.4071L147.516 65.823C146.455 65.9602 145.581 66.1845 144.904 66.5044L145.156 67.0369ZM147.587 66.4077C148.206 66.3378 148.672 66.3508 149.001 66.4299C149.326 66.5082 149.48 66.6404 149.548 66.7848L150.08 66.5331C149.91 66.1717 149.567 65.9603 149.139 65.8573C148.714 65.7551 148.17 65.7491 147.521 65.8224L147.587 66.4077ZM181.654 76.967L181.522 76.7038L181.203 76.8637L181.421 77.1465L181.654 76.967ZM183.703 79.0278L183.975 78.9141L183.948 78.851L183.897 78.806L183.703 79.0278ZM183.664 80.8053L183.93 80.9308L183.93 80.9308L183.664 80.8053ZM180.446 82.4731L180.264 82.7047L180.345 82.7688L180.449 82.7675L180.446 82.4731ZM178.305 79.1852L178.032 79.2951L178.032 79.2952L178.305 79.1852ZM171.47 81.7808L171.61 82.0398L171.613 82.0383L171.47 81.7808ZM166.999 84.725L166.717 84.639L166.715 84.6463L166.713 84.6538L166.999 84.725ZM168.539 89.2247L168.83 89.2712L168.844 89.1862L168.809 89.1073L168.539 89.2247ZM165.542 90.7393L165.471 91.0252L165.479 91.0269L165.542 90.7393ZM163.608 87.0607L163.901 87.0344L163.9 87.0231L163.898 87.0118L163.608 87.0607ZM162.183 77.3272L161.889 77.3541L161.891 77.3667L162.183 77.3272ZM173.174 63.6789L173.404 63.4941L173.403 63.4939L173.174 63.6789ZM179.772 73.6058L179.52 73.7575L179.629 73.9385L179.835 73.8935L179.772 73.6058ZM181.279 73.3822L181.256 73.6758L181.258 73.6759L181.279 73.3822ZM176.138 75.3236L176.253 75.5945L176.573 75.4583L176.386 75.1655L176.138 75.3236ZM165.577 71.2766L165.283 71.2879L165.283 71.2886L165.577 71.2766ZM166.292 80.955L165.999 80.9902L166.061 81.5046L166.472 81.1882L166.292 80.955ZM169.765 78.4827L169.607 78.2336L169.599 78.2395L169.765 78.4827ZM182.18 74.3242C182.466 74.9284 182.523 75.4015 182.418 75.768C182.316 76.1271 182.039 76.4444 181.522 76.7038L181.786 77.2303C182.401 76.9218 182.823 76.4939 182.985 75.93C183.144 75.3737 183.031 74.7463 182.713 74.0725L182.18 74.3242ZM181.421 77.1465C181.861 77.7189 182.561 78.4208 183.509 79.2495L183.897 78.806C182.958 77.9859 182.292 77.314 181.888 76.7875L181.421 77.1465ZM183.431 79.1414C183.65 79.6629 183.638 80.1685 183.397 80.6798L183.93 80.9308C184.242 80.2687 184.257 79.5893 183.975 78.9141L183.431 79.1414ZM183.397 80.6798C183.152 81.2018 182.758 81.5916 182.205 81.8533L182.457 82.3858C183.128 82.0685 183.623 81.5822 183.93 80.9308L183.397 80.6798ZM182.205 81.8533C181.777 82.0553 181.195 82.1697 180.442 82.1786L180.449 82.7675C181.251 82.7581 181.925 82.6368 182.457 82.3858L182.205 81.8533ZM180.628 82.2414C179.998 81.747 179.46 81.0433 179.022 80.1165L178.49 80.3682C178.958 81.3584 179.547 82.1419 180.264 82.7047L180.628 82.2414ZM179.022 80.1165C178.913 79.8849 178.765 79.5388 178.578 79.0752L178.032 79.2952C178.22 79.7619 178.373 80.1207 178.49 80.3682L179.022 80.1165ZM178.578 79.0752C178.391 78.6092 178.244 78.2633 178.139 78.042L177.607 78.2937C177.704 78.4984 177.845 78.8307 178.032 79.2951L178.578 79.0752ZM177.607 78.2937C177.57 78.2156 177.608 78.1592 177.6 78.172C177.589 78.1891 177.553 78.2319 177.465 78.2989C177.292 78.4301 176.996 78.5986 176.562 78.8041L176.813 79.3366C177.257 79.1268 177.598 78.9373 177.821 78.7676C177.931 78.6842 178.032 78.5909 178.098 78.4862C178.166 78.3772 178.22 78.2133 178.139 78.042L177.607 78.2937ZM176.562 78.8041C175.063 79.5124 173.318 80.419 171.327 81.5232L171.613 82.0383C173.597 80.9381 175.33 80.0379 176.813 79.3366L176.562 78.8041ZM171.33 81.5218C169.901 82.2952 168.806 82.9312 168.051 83.4289C167.673 83.6773 167.374 83.8956 167.157 84.0827C167.049 84.1762 166.957 84.2663 166.885 84.3525C166.816 84.4352 166.75 84.5319 166.717 84.639L167.28 84.8109C167.28 84.8134 167.288 84.7878 167.336 84.7307C167.381 84.677 167.449 84.6096 167.543 84.5281C167.731 84.3652 168.006 84.1631 168.374 83.9208C169.109 83.4371 170.186 82.8104 171.61 82.0397L171.33 81.5218ZM166.713 84.6538C166.67 84.828 166.699 85.0583 166.75 85.2969C166.805 85.5511 166.899 85.8699 167.029 86.2499C167.29 87.011 167.704 88.0428 168.269 89.3422L168.809 89.1073C168.246 87.813 167.84 86.798 167.587 86.0591C167.46 85.6892 167.374 85.3947 167.326 85.1724C167.274 84.9345 167.277 84.825 167.285 84.7962L166.713 84.6538ZM168.249 89.1783C168.154 89.7685 167.885 90.1369 167.454 90.3402L167.706 90.8727C168.341 90.5727 168.711 90.0199 168.83 89.2712L168.249 89.1783ZM167.454 90.3402C166.971 90.5688 166.362 90.618 165.605 90.4517L165.479 91.0269C166.321 91.2121 167.071 91.1727 167.706 90.8727L167.454 90.3402ZM165.613 90.4535C164.849 90.2631 164.412 89.9343 164.212 89.5111L163.68 89.7628C163.983 90.4047 164.61 90.8107 165.471 91.025L165.613 90.4535ZM164.212 89.5111C164.213 89.5118 164.207 89.4981 164.196 89.4599C164.187 89.4245 164.176 89.3769 164.165 89.3156C164.141 89.1931 164.115 89.0268 164.087 88.8148C164.032 88.3914 163.97 87.7985 163.901 87.0344L163.314 87.0871C163.383 87.8541 163.446 88.4562 163.503 88.8915C163.532 89.1089 163.559 89.288 163.586 89.4267C163.611 89.5552 163.64 89.6783 163.68 89.7628L164.212 89.5111ZM163.898 87.0118C163.538 84.8746 163.063 81.634 162.475 77.2876L161.891 77.3667C162.48 81.7144 162.955 84.9628 163.317 87.1097L163.898 87.0118ZM162.476 77.3003C161.951 71.5778 161.855 67.1638 162.182 64.0481C162.345 62.4895 162.613 61.2712 162.977 60.3814C163.342 59.4886 163.788 58.9625 164.286 58.727L164.035 58.1945C163.348 58.519 162.824 59.199 162.432 60.1585C162.038 61.1209 161.762 62.4008 161.596 63.9867C161.263 67.1598 161.363 71.619 161.889 77.3541L162.476 77.3003ZM164.286 58.727C165.328 58.2347 166.553 58.3589 168.004 59.199C169.46 60.0422 171.108 61.5884 172.945 63.8639L173.403 63.4939C171.548 61.1957 169.847 59.5853 168.299 58.6892C166.745 57.7899 165.31 57.5919 164.035 58.1945L164.286 58.727ZM172.945 63.8637C174.586 65.8993 176.777 69.194 179.52 73.7575L180.025 73.4541C177.279 68.8858 175.071 65.5625 173.404 63.4941L172.945 63.8637ZM179.835 73.8935C180.215 73.8105 180.526 73.7515 180.768 73.7156C181.016 73.6788 181.173 73.6693 181.256 73.6758L181.302 73.0886C181.148 73.0766 180.936 73.0953 180.681 73.133C180.421 73.1716 180.097 73.2336 179.709 73.318L179.835 73.8935ZM181.258 73.6759C181.687 73.7063 181.985 73.9104 182.18 74.3242L182.713 74.0725C182.43 73.4746 181.95 73.1345 181.3 73.0884L181.258 73.6759ZM176.386 75.1655C173.603 70.7944 171.394 67.5628 169.761 65.4768C168.946 64.4355 168.266 63.6684 167.723 63.1869C167.453 62.9471 167.204 62.766 166.977 62.6602C166.758 62.5574 166.503 62.5002 166.269 62.6108L166.521 63.1433C166.521 63.1431 166.532 63.1374 166.565 63.141C166.6 63.1448 166.653 63.1587 166.728 63.1937C166.88 63.2647 167.08 63.4036 167.332 63.6274C167.835 64.073 168.489 64.8066 169.298 65.8398C170.912 67.9026 173.109 71.1146 175.89 75.4818L176.386 75.1655ZM166.269 62.6108C165.963 62.7555 165.774 63.1065 165.644 63.5097C165.507 63.933 165.407 64.504 165.338 65.2127C165.2 66.6326 165.182 68.6602 165.283 71.2879L165.871 71.2654C165.771 68.6457 165.79 66.6497 165.924 65.2697C165.992 64.5784 166.087 64.0555 166.204 63.6907C166.329 63.3059 166.454 63.1747 166.521 63.1433L166.269 62.6108ZM165.283 71.2886C165.437 75.0645 165.675 78.2988 165.999 80.9902L166.584 80.9198C166.262 78.2485 166.025 75.0306 165.871 71.2646L165.283 71.2886ZM166.472 81.1882C167.228 80.6044 168.38 79.7842 169.931 78.7259L169.599 78.2395C168.046 79.2994 166.883 80.1273 166.112 80.7218L166.472 81.1882ZM169.922 78.7316C171.332 77.8405 173.439 76.7948 176.253 75.5945L176.022 75.0527C173.198 76.2571 171.057 77.3174 169.607 78.2338L169.922 78.7316Z" fill="#A9226A" mask="url(#path-5-outside-1_243_224)"/>
</g>
<path d="M74.2366 143.887C73.9303 143.425 73.4814 143.074 72.958 142.89C72.4347 142.705 71.8653 142.697 71.3365 142.865C70.8077 143.033 70.3483 143.369 70.0278 143.822C69.7073 144.275 69.5432 144.82 69.5606 145.375C69.6222 146.07 69.6819 146.746 69.7627 147.422C71.599 146.803 73.4333 146.166 75.2292 145.509C74.8871 144.969 74.5638 144.427 74.2407 143.887" fill="#10500C"/>
<path d="M75.2236 145.506C73.4277 146.162 71.5934 146.8 69.7571 147.418C73.4276 181.293 102.554 206.343 139.243 199.505C175.408 193.537 206.369 153.695 177.665 123.142C176.779 122.235 175.869 121.385 174.943 120.553C172.482 121.093 170.021 121.538 167.54 121.924C166.947 122.047 166.329 121.94 165.811 121.625C165.294 121.31 164.915 120.811 164.751 120.227C164.587 119.644 164.651 119.02 164.929 118.482C165.207 117.944 165.679 117.531 166.25 117.327C167.219 116.94 168.186 116.556 169.175 116.15C164.623 113.168 159.709 110.78 154.552 109.042C154.021 108.834 153.434 108.818 152.892 108.995C152.35 109.173 151.886 109.533 151.581 110.015C151.276 110.497 151.148 111.07 151.218 111.636C151.289 112.202 151.555 112.725 151.97 113.117C160.14 120.649 168.407 129.302 170.647 140.001C173.672 155.992 160.463 169.331 144.75 176.039C118.669 186.97 95.2917 176.521 80.7307 154.254C78.7944 151.491 76.9792 148.422 75.2236 145.506Z" fill="#10500C"/>
<path d="M81.0135 31.7938C76.7018 42.0927 74.5663 53.172 74.7414 64.3357C76.5796 64.6423 78.3984 65.0553 80.1888 65.5727C82.0646 55.3472 85.6577 45.513 90.8157 36.4867C105.5 11.2646 135.976 11.3029 160.928 22.136C183.075 31.5218 210.849 52.3804 211.332 77.2943C210.001 98.3654 187.934 108.64 169.177 116.153C171.202 117.482 173.129 118.954 174.945 120.557C184.772 118.594 194.231 115.108 202.981 110.225C230.977 94.1763 231.785 64.7417 213.349 41.1498C197.205 20.7704 174.356 6.77584 148.867 1.65362C121.213 -4.19759 92.1889 5.51546 81.0135 31.8023" fill="#10500C"/>
<path d="M74.7466 64.3349C74.7466 65.3402 74.7658 66.3243 74.7871 67.3105C74.8392 67.9078 75.1028 68.4669 75.5304 68.8873C75.958 69.3076 76.5214 69.5617 77.1195 69.6037C77.7176 69.6457 78.311 69.4729 78.7932 69.1165C79.2753 68.76 79.6146 68.2432 79.7498 67.659C79.89 66.964 80.0324 66.269 80.1939 65.574C78.4043 65.0567 76.5861 64.6437 74.7487 64.337" fill="#10500C"/>
<path d="M166.248 117.324C165.678 117.528 165.206 117.941 164.927 118.479C164.649 119.017 164.586 119.641 164.749 120.225C164.913 120.808 165.292 121.308 165.81 121.623C166.327 121.937 166.945 122.044 167.539 121.922C170.019 121.535 172.48 121.09 174.941 120.551C173.125 118.948 171.198 117.476 169.173 116.147C168.185 116.553 167.215 116.94 166.248 117.324Z" fill="#10500C"/>
</g>
</g>
<defs>
<filter id="filter0_d_243_224" x="72.7505" y="53.6709" width="114.592" height="76.985" filterUnits="userSpaceOnUse" color-interpolation-filters="sRGB">
<feFlood flood-opacity="0" result="BackgroundImageFix"/>
<feColorMatrix in="SourceAlpha" type="matrix" values="0 0 0 0 0 0 0 0 0 0 0 0 0 0 0 0 0 0 127 0" result="hardAlpha"/>
<feOffset dx="1.04558" dy="1.04558"/>
<feComposite in2="hardAlpha" operator="out"/>
<feColorMatrix type="matrix" values="0 0 0 0 0.662745 0 0 0 0 0.133333 0 0 0 0 0.415686 0 0 0 1 0"/>
<feBlend mode="normal" in2="BackgroundImageFix" result="effect1_dropShadow_243_224"/>
<feBlend mode="normal" in="SourceGraphic" in2="effect1_dropShadow_243_224" result="shape"/>
</filter>
</defs>
</svg>
