<svg width="226" height="202" viewBox="0 0 226 202" fill="none" xmlns="http://www.w3.org/2000/svg">
<mask id="mask0_242_206" style="mask-type:luminance" maskUnits="userSpaceOnUse" x="0" y="0" width="226" height="202">
<path d="M225.994 201.44H0.14917L0.14917 0.80513H225.994V201.44Z" fill="white"/>
</mask>
<g mask="url(#mask0_242_206)">
<path d="M11.1457 91.6889C0.0532208 106.309 -5.87668 130.18 9.23274 144.55C23.8555 157.778 45.9021 154.964 63.4897 150.169C65.6682 149.57 67.8063 148.913 69.9232 148.218C69.8425 147.542 69.783 146.866 69.7214 146.171C69.704 145.617 69.8681 145.071 70.1886 144.618C70.5091 144.165 70.9685 143.829 71.4973 143.661C72.0261 143.493 72.5955 143.502 73.1188 143.686C73.6422 143.871 74.0911 144.221 74.3974 144.683C74.7205 145.223 75.0349 145.765 75.3856 146.305C79.6818 144.703 83.8837 142.931 87.9914 140.992C88.5427 140.726 88.9718 140.26 89.1913 139.688C89.4108 139.117 89.4042 138.484 89.1727 137.917C88.9412 137.351 88.5023 136.894 87.9455 136.64C87.3887 136.385 86.756 136.353 86.1763 136.55C66.8352 141.823 33.4921 151.383 17.4772 136.762C2.91401 119.921 21.5323 92.69 37.5875 82.318C51.048 73.3613 67.3853 69.7954 83.3538 72.3287C83.9479 72.4409 84.5625 72.3242 85.0742 72.0021C85.5859 71.6799 85.957 71.1762 86.1127 70.5919C86.2685 70.0077 86.1975 69.3861 85.914 68.852C85.6305 68.3179 85.1555 67.9108 84.5843 67.7123C83.1922 67.1916 81.7596 66.7474 80.3483 66.3606C80.1868 67.0556 80.0466 67.7506 79.9042 68.4456C79.769 69.0297 79.43 69.5465 78.9478 69.903C78.4657 70.2595 77.872 70.4322 77.2739 70.3902C76.6758 70.3482 76.1123 70.0942 75.6848 69.6738C75.2572 69.2535 74.9936 68.6943 74.9415 68.097C74.9202 67.113 74.901 66.1268 74.901 65.1215C50.7778 60.8154 25.0201 72.0545 11.1392 91.6761" fill="#161616"/>
<path d="M37.5754 82.3195C21.5202 92.6914 2.90377 119.922 17.4648 136.764C33.4797 151.384 66.8207 141.824 86.1639 136.551C86.7436 136.355 87.3763 136.387 87.9331 136.641C88.4899 136.895 88.9288 137.352 89.1603 137.919C89.3918 138.485 89.3985 139.119 89.179 139.69C88.9595 140.261 88.5303 140.727 87.979 140.993C83.8699 142.924 79.6682 144.696 75.3735 146.307C77.1291 149.223 78.9441 152.294 80.8803 155.055C95.4435 177.322 118.821 187.771 144.899 176.84C160.612 170.139 173.824 156.793 170.797 140.802C168.559 130.103 160.289 121.461 152.119 113.918C151.705 113.526 151.439 113.002 151.368 112.437C151.297 111.871 151.425 111.298 151.731 110.816C152.036 110.334 152.499 109.974 153.041 109.796C153.584 109.619 154.171 109.635 154.702 109.843C159.858 111.581 164.772 113.969 169.324 116.951C188.083 109.437 210.149 99.1632 211.479 78.092C210.995 53.1782 183.212 32.3196 161.073 22.9338C136.123 12.0943 105.645 12.0603 90.9632 37.2845C85.8052 46.3108 82.2122 56.145 80.3362 66.3705C81.7475 66.7573 83.1801 67.2015 84.5722 67.7223C85.1434 67.9207 85.6182 68.3278 85.9016 68.8619C86.1851 69.396 86.2561 70.0176 86.1004 70.6019C85.9446 71.1861 85.5738 71.6899 85.0621 72.012C84.5504 72.3341 83.9356 72.4508 83.3414 72.3386C67.373 69.8053 51.0359 73.3712 37.5754 82.328" fill="#F5208F"/>
<g filter="url(#filter0_d_242_206)">
<mask id="path-4-outside-1_242_206" maskUnits="userSpaceOnUse" x="71.6838" y="53.5022" width="116.264" height="78.1251" fill="black">
<rect fill="white" x="71.6838" y="53.5022" width="116.264" height="78.1251"/>
<path d="M98.458 91.8131C98.6342 92.1859 98.6591 92.5487 98.5327 92.9016C98.3473 93.543 98.2476 93.8833 98.2335 93.9225C98.1996 94.2642 98.3671 95.032 98.7359 96.2257C100.638 101.972 102.841 107.494 105.345 112.792C106.755 115.774 108.08 117.2 109.321 117.069L109.831 118.147C109.826 118.964 109.491 119.53 108.825 119.844C107.467 120.486 105.882 119.786 104.07 117.743C102.771 116.305 101.688 114.668 100.819 112.83C98.9189 108.81 97.4397 105.405 96.3816 102.615C97.0553 106.108 97.722 109.62 98.3817 113.152C99.1812 118.702 98.8887 121.805 97.5042 122.459C95.9334 123.202 93.8756 122.432 91.3309 120.149C88.9919 118.095 85.5694 114.404 81.0634 109.074C81.7594 110.96 82.5542 112.848 83.4477 114.739C85.2977 118.653 86.7445 121.438 87.7881 123.094C87.9658 123.401 88.3576 123.851 88.9636 124.444C89.5837 124.998 89.9881 125.475 90.1769 125.874C90.5922 126.753 90.0677 127.538 88.6034 128.23C86.8728 129.048 84.9063 127.128 82.7039 122.468C81.8104 120.578 80.5829 117.705 79.0214 113.851C77.4599 109.996 76.2387 107.137 75.3577 105.273C75.2571 105.06 75.0436 104.884 74.7173 104.745C74.3911 104.606 74.1776 104.43 74.0769 104.217C73.3722 102.726 74.351 101.351 77.0135 100.093C77.6258 99.8035 78.5405 99.8434 79.7574 100.213C80.2274 101 80.952 102.189 81.9313 103.778C83.305 105.995 85.3968 108.801 88.2067 112.196C91.8647 116.558 94.173 118.513 95.1314 118.06C95.3444 117.959 95.4289 117.414 95.3849 116.425C95.2954 114.513 94.8843 111.955 94.1515 108.751C93.5359 106.208 92.9202 103.665 92.3046 101.122C92.0016 99.9301 91.6451 98.1768 91.2352 95.8624C91.077 94.0805 91.8898 92.768 93.6736 91.9248C94.3126 91.6227 95.1539 91.4042 96.1976 91.2692C97.4654 91.126 98.2189 91.3073 98.458 91.8131ZM131.09 99.3525C131.694 100.63 131.43 101.553 130.298 102.121C130.721 102.671 131.404 103.357 132.347 104.182C132.597 104.78 132.584 105.373 132.308 105.959C132.031 106.546 131.587 106.984 130.975 107.274C130.495 107.5 129.867 107.618 129.09 107.627C128.416 107.099 127.853 106.355 127.4 105.397C127.287 105.157 127.136 104.804 126.949 104.339C126.762 103.874 126.618 103.535 126.517 103.322C126.605 103.508 126.21 103.809 125.331 104.224C123.84 104.929 122.101 105.833 120.114 106.935C117.261 108.479 115.77 109.46 115.643 109.879C115.541 110.285 116.055 111.785 117.183 114.379C117.076 115.048 116.756 115.509 116.224 115.761C115.665 116.025 114.985 116.069 114.186 115.893C113.374 115.691 112.842 115.324 112.59 114.791C112.502 114.605 112.389 113.746 112.252 112.215C111.891 110.073 111.416 106.828 110.827 102.481C109.776 91.0237 110.435 84.7349 112.804 83.6149C115.121 82.52 118.125 84.2593 121.818 88.833C123.472 90.8851 125.671 94.194 128.416 98.7599C129.184 98.5924 129.686 98.5179 129.923 98.5363C130.462 98.5746 130.851 98.8466 131.09 99.3525ZM124.782 100.478C119.218 91.7395 115.97 87.5907 115.039 88.0311C114.293 88.3835 114.02 91.1834 114.221 96.4308C114.374 100.202 114.613 103.428 114.935 106.109C115.699 105.52 116.857 104.696 118.409 103.637C119.838 102.733 121.962 101.68 124.782 100.478ZM149.97 67.4642C150.146 67.8369 150.171 68.1997 150.045 68.5526C149.859 69.194 149.76 69.5343 149.746 69.5735C149.712 69.9153 149.879 70.683 150.248 71.8768C152.15 77.6228 154.353 83.1449 156.857 88.4432C158.267 91.4252 159.592 92.8508 160.833 92.7201L161.343 93.7984C161.338 94.6151 161.003 95.1807 160.337 95.4953C158.979 96.1371 157.394 95.4369 155.582 93.3945C154.283 91.9563 153.2 90.3186 152.331 88.4815C150.431 84.4612 148.952 81.0562 147.894 78.2664C148.568 81.7591 149.234 85.2713 149.894 88.8031C150.693 94.3535 150.401 97.4559 149.016 98.1104C147.446 98.8529 145.388 98.0829 142.843 95.8004C140.504 93.7464 137.082 90.0547 132.576 84.7254C133.272 86.6114 134.066 88.4995 134.96 90.3899C136.81 94.3037 138.257 97.0888 139.3 98.7454C139.478 99.0523 139.87 99.5022 140.476 100.095C141.096 100.649 141.5 101.126 141.689 101.525C142.104 102.404 141.58 103.189 140.116 103.881C138.385 104.699 136.418 102.779 134.216 98.1193C133.323 96.2289 132.095 93.3564 130.534 89.5017C128.972 85.6469 127.751 82.7877 126.87 80.924C126.769 80.711 126.556 80.535 126.23 80.3961C125.903 80.2571 125.69 80.0812 125.589 79.8682C124.884 78.3772 125.863 77.0025 128.526 75.744C129.138 75.4545 130.053 75.4945 131.27 75.8639C131.74 76.6515 132.464 77.8399 133.443 79.4292C134.817 81.6463 136.909 84.4523 139.719 87.8472C143.377 92.2093 145.685 94.1638 146.644 93.7108C146.857 93.6101 146.941 93.0653 146.897 92.0763C146.808 90.1642 146.396 87.6061 145.664 84.402C145.048 81.8591 144.432 79.3163 143.817 76.7734C143.514 75.5811 143.157 73.8278 142.747 71.5134C142.589 69.7316 143.402 68.419 145.186 67.5758C145.825 67.2738 146.666 67.0553 147.71 66.9202C148.978 66.777 149.731 66.9583 149.97 67.4642ZM182.602 75.0035C183.207 76.2815 182.942 77.2044 181.81 77.7722C182.233 78.3216 182.916 79.0085 183.859 79.833C184.109 80.4313 184.096 81.0238 183.82 81.6105C183.543 82.1972 183.099 82.6352 182.487 82.9247C182.007 83.1512 181.379 83.2691 180.602 83.2782C179.928 82.7496 179.365 82.006 178.912 81.0476C178.799 80.8079 178.649 80.4555 178.461 79.9903C178.274 79.5251 178.13 79.186 178.029 78.973C178.117 79.1594 177.722 79.4602 176.843 79.8755C175.352 80.5803 173.613 81.4838 171.626 82.5859C168.773 84.13 167.283 85.1114 167.155 85.5301C167.054 85.9363 167.567 87.4362 168.695 90.0299C168.588 90.6994 168.269 91.16 167.736 91.4117C167.177 91.6759 166.498 91.7202 165.698 91.5445C164.886 91.3421 164.354 90.9747 164.102 90.4422C164.014 90.2558 163.901 89.3971 163.764 87.8659C163.403 85.7239 162.928 82.4794 162.339 78.1324C161.288 66.6748 161.947 60.386 164.317 59.2659C166.633 58.171 169.638 59.9104 173.33 64.4841C174.984 66.5361 177.184 69.8451 179.928 74.4109C180.696 74.2435 181.198 74.169 181.435 74.1874C181.974 74.2256 182.363 74.4977 182.602 75.0035ZM176.294 76.1288C170.73 67.3906 167.483 63.2417 166.551 63.6822C165.805 64.0346 165.533 66.8344 165.733 72.0818C165.887 75.8527 166.125 79.0789 166.448 81.7602C167.212 81.1711 168.369 80.347 169.921 79.2879C171.35 78.3842 173.475 77.3311 176.294 76.1288Z"/>
</mask>
<path d="M98.458 91.8131C98.6342 92.1859 98.6591 92.5487 98.5327 92.9016C98.3473 93.543 98.2476 93.8833 98.2335 93.9225C98.1996 94.2642 98.3671 95.032 98.7359 96.2257C100.638 101.972 102.841 107.494 105.345 112.792C106.755 115.774 108.08 117.2 109.321 117.069L109.831 118.147C109.826 118.964 109.491 119.53 108.825 119.844C107.467 120.486 105.882 119.786 104.07 117.743C102.771 116.305 101.688 114.668 100.819 112.83C98.9189 108.81 97.4397 105.405 96.3816 102.615C97.0553 106.108 97.722 109.62 98.3817 113.152C99.1812 118.702 98.8887 121.805 97.5042 122.459C95.9334 123.202 93.8756 122.432 91.3309 120.149C88.9919 118.095 85.5694 114.404 81.0634 109.074C81.7594 110.96 82.5542 112.848 83.4477 114.739C85.2977 118.653 86.7445 121.438 87.7881 123.094C87.9658 123.401 88.3576 123.851 88.9636 124.444C89.5837 124.998 89.9881 125.475 90.1769 125.874C90.5922 126.753 90.0677 127.538 88.6034 128.23C86.8728 129.048 84.9063 127.128 82.7039 122.468C81.8104 120.578 80.5829 117.705 79.0214 113.851C77.4599 109.996 76.2387 107.137 75.3577 105.273C75.2571 105.06 75.0436 104.884 74.7173 104.745C74.3911 104.606 74.1776 104.43 74.0769 104.217C73.3722 102.726 74.351 101.351 77.0135 100.093C77.6258 99.8035 78.5405 99.8434 79.7574 100.213C80.2274 101 80.952 102.189 81.9313 103.778C83.305 105.995 85.3968 108.801 88.2067 112.196C91.8647 116.558 94.173 118.513 95.1314 118.06C95.3444 117.959 95.4289 117.414 95.3849 116.425C95.2954 114.513 94.8843 111.955 94.1515 108.751C93.5359 106.208 92.9202 103.665 92.3046 101.122C92.0016 99.9301 91.6451 98.1768 91.2352 95.8624C91.077 94.0805 91.8898 92.768 93.6736 91.9248C94.3126 91.6227 95.1539 91.4042 96.1976 91.2692C97.4654 91.126 98.2189 91.3073 98.458 91.8131ZM131.09 99.3525C131.694 100.63 131.43 101.553 130.298 102.121C130.721 102.671 131.404 103.357 132.347 104.182C132.597 104.78 132.584 105.373 132.308 105.959C132.031 106.546 131.587 106.984 130.975 107.274C130.495 107.5 129.867 107.618 129.09 107.627C128.416 107.099 127.853 106.355 127.4 105.397C127.287 105.157 127.136 104.804 126.949 104.339C126.762 103.874 126.618 103.535 126.517 103.322C126.605 103.508 126.21 103.809 125.331 104.224C123.84 104.929 122.101 105.833 120.114 106.935C117.261 108.479 115.77 109.46 115.643 109.879C115.541 110.285 116.055 111.785 117.183 114.379C117.076 115.048 116.756 115.509 116.224 115.761C115.665 116.025 114.985 116.069 114.186 115.893C113.374 115.691 112.842 115.324 112.59 114.791C112.502 114.605 112.389 113.746 112.252 112.215C111.891 110.073 111.416 106.828 110.827 102.481C109.776 91.0237 110.435 84.7349 112.804 83.6149C115.121 82.52 118.125 84.2593 121.818 88.833C123.472 90.8851 125.671 94.194 128.416 98.7599C129.184 98.5924 129.686 98.5179 129.923 98.5363C130.462 98.5746 130.851 98.8466 131.09 99.3525ZM124.782 100.478C119.218 91.7395 115.97 87.5907 115.039 88.0311C114.293 88.3835 114.02 91.1834 114.221 96.4308C114.374 100.202 114.613 103.428 114.935 106.109C115.699 105.52 116.857 104.696 118.409 103.637C119.838 102.733 121.962 101.68 124.782 100.478ZM149.97 67.4642C150.146 67.8369 150.171 68.1997 150.045 68.5526C149.859 69.194 149.76 69.5343 149.746 69.5735C149.712 69.9153 149.879 70.683 150.248 71.8768C152.15 77.6228 154.353 83.1449 156.857 88.4432C158.267 91.4252 159.592 92.8508 160.833 92.7201L161.343 93.7984C161.338 94.6151 161.003 95.1807 160.337 95.4953C158.979 96.1371 157.394 95.4369 155.582 93.3945C154.283 91.9563 153.2 90.3186 152.331 88.4815C150.431 84.4612 148.952 81.0562 147.894 78.2664C148.568 81.7591 149.234 85.2713 149.894 88.8031C150.693 94.3535 150.401 97.4559 149.016 98.1104C147.446 98.8529 145.388 98.0829 142.843 95.8004C140.504 93.7464 137.082 90.0547 132.576 84.7254C133.272 86.6114 134.066 88.4995 134.96 90.3899C136.81 94.3037 138.257 97.0888 139.3 98.7454C139.478 99.0523 139.87 99.5022 140.476 100.095C141.096 100.649 141.5 101.126 141.689 101.525C142.104 102.404 141.58 103.189 140.116 103.881C138.385 104.699 136.418 102.779 134.216 98.1193C133.323 96.2289 132.095 93.3564 130.534 89.5017C128.972 85.6469 127.751 82.7877 126.87 80.924C126.769 80.711 126.556 80.535 126.23 80.3961C125.903 80.2571 125.69 80.0812 125.589 79.8682C124.884 78.3772 125.863 77.0025 128.526 75.744C129.138 75.4545 130.053 75.4945 131.27 75.8639C131.74 76.6515 132.464 77.8399 133.443 79.4292C134.817 81.6463 136.909 84.4523 139.719 87.8472C143.377 92.2093 145.685 94.1638 146.644 93.7108C146.857 93.6101 146.941 93.0653 146.897 92.0763C146.808 90.1642 146.396 87.6061 145.664 84.402C145.048 81.8591 144.432 79.3163 143.817 76.7734C143.514 75.5811 143.157 73.8278 142.747 71.5134C142.589 69.7316 143.402 68.419 145.186 67.5758C145.825 67.2738 146.666 67.0553 147.71 66.9202C148.978 66.777 149.731 66.9583 149.97 67.4642ZM182.602 75.0035C183.207 76.2815 182.942 77.2044 181.81 77.7722C182.233 78.3216 182.916 79.0085 183.859 79.833C184.109 80.4313 184.096 81.0238 183.82 81.6105C183.543 82.1972 183.099 82.6352 182.487 82.9247C182.007 83.1512 181.379 83.2691 180.602 83.2782C179.928 82.7496 179.365 82.006 178.912 81.0476C178.799 80.8079 178.649 80.4555 178.461 79.9903C178.274 79.5251 178.13 79.186 178.029 78.973C178.117 79.1594 177.722 79.4602 176.843 79.8755C175.352 80.5803 173.613 81.4838 171.626 82.5859C168.773 84.13 167.283 85.1114 167.155 85.5301C167.054 85.9363 167.567 87.4362 168.695 90.0299C168.588 90.6994 168.269 91.16 167.736 91.4117C167.177 91.6759 166.498 91.7202 165.698 91.5445C164.886 91.3421 164.354 90.9747 164.102 90.4422C164.014 90.2558 163.901 89.3971 163.764 87.8659C163.403 85.7239 162.928 82.4794 162.339 78.1324C161.288 66.6748 161.947 60.386 164.317 59.2659C166.633 58.171 169.638 59.9104 173.33 64.4841C174.984 66.5361 177.184 69.8451 179.928 74.4109C180.696 74.2435 181.198 74.169 181.435 74.1874C181.974 74.2256 182.363 74.4977 182.602 75.0035ZM176.294 76.1288C170.73 67.3906 167.483 63.2417 166.551 63.6822C165.805 64.0346 165.533 66.8344 165.733 72.0818C165.887 75.8527 166.125 79.0789 166.448 81.7602C167.212 81.1711 168.369 80.347 169.921 79.2879C171.35 78.3842 173.475 77.3311 176.294 76.1288Z" fill="white"/>
<path d="M98.5327 92.9016L98.2555 92.8023L98.2524 92.811L98.2498 92.8198L98.5327 92.9016ZM98.2335 93.9225L97.9563 93.8232L97.9441 93.8573L97.9405 93.8934L98.2335 93.9225ZM98.7359 96.2257L98.4545 96.3127L98.4563 96.3182L98.7359 96.2257ZM109.321 117.069L109.587 116.943L109.498 116.754L109.29 116.776L109.321 117.069ZM109.831 118.147L110.125 118.149L110.126 118.082L110.097 118.022L109.831 118.147ZM104.07 117.743L104.29 117.548L104.288 117.546L104.07 117.743ZM96.3816 102.615L96.657 102.511L96.0925 102.671L96.3816 102.615ZM98.3817 113.152L98.6734 113.11L98.6712 113.098L98.3817 113.152ZM91.3309 120.149L91.5276 119.93L91.5252 119.928L91.3309 120.149ZM81.0634 109.074L81.2883 108.884L80.7871 109.176L81.0634 109.074ZM87.7881 123.094L88.0432 122.947L88.0373 122.937L87.7881 123.094ZM88.9636 124.444L88.7575 124.655L88.7675 124.664L88.9636 124.444ZM79.0214 113.851L78.7484 113.961L79.0214 113.851ZM74.7173 104.745L74.6019 105.016L74.6019 105.016L74.7173 104.745ZM79.7574 100.213L80.0103 100.062L79.9519 99.9641L79.843 99.931L79.7574 100.213ZM81.9313 103.778L81.6805 103.933L81.6809 103.933L81.9313 103.778ZM88.2067 112.196L87.9799 112.384L87.9811 112.385L88.2067 112.196ZM95.3849 116.425L95.6791 116.412L95.6791 116.411L95.3849 116.425ZM94.1515 108.751L94.4386 108.685L94.4378 108.682L94.1515 108.751ZM92.3046 101.122L92.5908 101.053L92.59 101.05L92.3046 101.122ZM91.2352 95.8624L90.9419 95.8884L90.943 95.9012L90.9452 95.9138L91.2352 95.8624ZM96.1976 91.2692L96.1645 90.9765L96.1598 90.9771L96.1976 91.2692ZM98.1917 91.939C98.3382 92.2489 98.3527 92.5306 98.2555 92.8023L98.81 93.0008C98.9654 92.5667 98.9301 92.1229 98.7242 91.6873L98.1917 91.939ZM98.2498 92.8198C98.1571 93.1404 98.086 93.3854 98.0363 93.555C98.0114 93.6399 97.992 93.7055 97.978 93.752C97.971 93.7754 97.9656 93.7934 97.9615 93.8065C97.9568 93.8217 97.9555 93.8253 97.9563 93.8232L98.5108 94.0217C98.5289 93.9711 98.6328 93.6157 98.8156 92.9834L98.2498 92.8198ZM97.9405 93.8934C97.9185 94.1147 97.9619 94.4321 98.046 94.8174C98.1322 95.2127 98.2689 95.7119 98.4545 96.3126L99.0173 96.1388C98.8341 95.5458 98.7027 95.0643 98.6214 94.6918C98.538 94.3094 98.5146 94.072 98.5266 93.9515L97.9405 93.8934ZM98.4563 96.3182C100.362 102.075 102.569 107.609 105.079 112.918L105.611 112.666C103.112 107.379 100.914 101.868 99.0155 96.1332L98.4563 96.3182ZM105.079 112.918C105.789 114.42 106.488 115.553 107.181 116.298C107.87 117.04 108.597 117.441 109.352 117.362L109.29 116.776C108.804 116.827 108.248 116.581 107.612 115.897C106.979 115.217 106.311 114.146 105.611 112.666L105.079 112.918ZM109.055 117.195L109.565 118.273L110.097 118.022L109.587 116.943L109.055 117.195ZM109.536 118.146C109.534 118.514 109.458 118.806 109.322 119.034C109.188 119.26 108.986 119.443 108.699 119.578L108.951 120.111C109.33 119.931 109.628 119.674 109.829 119.334C110.029 118.997 110.123 118.597 110.125 118.149L109.536 118.146ZM108.699 119.578C108.11 119.857 107.465 119.853 106.737 119.531C105.999 119.205 105.183 118.554 104.29 117.548L103.85 117.939C104.769 118.975 105.652 119.696 106.499 120.07C107.356 120.449 108.182 120.474 108.951 120.111L108.699 119.578ZM104.288 117.546C103.01 116.13 101.942 114.517 101.086 112.705L100.553 112.956C101.433 114.818 102.532 116.48 103.851 117.941L104.288 117.546ZM101.086 112.705C99.1871 108.688 97.7113 105.291 96.657 102.511L96.1063 102.72C97.1681 105.519 98.6508 108.932 100.553 112.956L101.086 112.705ZM96.0925 102.671C96.7661 106.163 97.4327 109.675 98.0922 113.206L98.6712 113.098C98.0114 109.566 97.3446 106.053 96.6708 102.56L96.0925 102.671ZM98.0902 113.194C98.4888 115.961 98.6117 118.098 98.4688 119.614C98.3973 120.372 98.2606 120.96 98.0689 121.389C97.8781 121.817 97.6419 122.069 97.3784 122.193L97.6301 122.726C98.0588 122.523 98.3784 122.141 98.6067 121.63C98.8343 121.12 98.9804 120.462 99.0551 119.669C99.2046 118.083 99.0741 115.893 98.6732 113.11L98.0902 113.194ZM97.3784 122.193C96.6828 122.522 95.8612 122.528 94.886 122.163C93.9052 121.796 92.7861 121.059 91.5275 119.93L91.1343 120.369C92.4204 121.522 93.6026 122.312 94.6796 122.715C95.7621 123.12 96.7548 123.139 97.6301 122.726L97.3784 122.193ZM91.5252 119.928C89.204 117.89 85.7935 114.213 81.2883 108.884L80.8385 109.264C85.3453 114.595 88.7799 118.301 91.1366 120.371L91.5252 119.928ZM80.7871 109.176C81.4862 111.071 82.2844 112.967 83.1815 114.865L83.714 114.613C82.824 112.73 82.0326 110.85 81.3397 108.972L80.7871 109.176ZM83.1815 114.865C85.032 118.78 86.4852 121.579 87.5389 123.251L88.0373 122.937C87.0039 121.297 85.5634 118.526 83.714 114.613L83.1815 114.865ZM87.5332 123.242C87.7331 123.587 88.1517 124.062 88.7577 124.655L89.1696 124.234C88.5635 123.641 88.1984 123.215 88.043 122.947L87.5332 123.242ZM88.7675 124.664C89.3795 125.21 89.7477 125.655 89.9107 126L90.4432 125.748C90.2286 125.294 89.7879 124.786 89.1598 124.225L88.7675 124.664ZM89.9107 126C90.0757 126.349 90.0529 126.655 89.8501 126.958C89.6318 127.285 89.1917 127.626 88.4775 127.964L88.7292 128.496C89.4793 128.142 90.0337 127.744 90.3399 127.286C90.6616 126.804 90.6934 126.278 90.4432 125.748L89.9107 126ZM88.4775 127.964C88.1111 128.137 87.7385 128.165 87.3453 128.048C86.9442 127.928 86.5074 127.653 86.0363 127.192C85.0913 126.27 84.0671 124.663 82.9702 122.342L82.4377 122.594C83.5431 124.933 84.6033 126.616 85.6248 127.614C86.1369 128.114 86.6539 128.456 87.177 128.612C87.7081 128.771 88.2303 128.732 88.7292 128.496L88.4775 127.964ZM82.9702 122.342C82.0803 120.46 80.8553 117.594 79.2943 113.74L78.7484 113.961C80.3104 117.817 81.5404 120.696 82.4377 122.594L82.9702 122.342ZM79.2943 113.74C77.7324 109.884 76.5086 107.019 75.624 105.147L75.0915 105.399C75.9687 107.255 77.1874 110.108 78.7484 113.961L79.2943 113.74ZM75.624 105.147C75.4801 104.843 75.1928 104.627 74.8327 104.474L74.6019 105.016C74.8944 105.141 75.034 105.277 75.0915 105.399L75.624 105.147ZM74.8327 104.474C74.5403 104.35 74.4007 104.213 74.3432 104.091L73.8107 104.343C73.9545 104.647 74.2418 104.863 74.6019 105.016L74.8327 104.474ZM74.3432 104.091C74.1863 103.759 74.1287 103.447 74.1572 103.149C74.1857 102.85 74.3024 102.548 74.5224 102.239C74.9682 101.613 75.8242 100.981 77.1393 100.359L76.8876 99.8267C75.5403 100.464 74.5756 101.148 74.0426 101.897C73.7731 102.275 73.6108 102.675 73.5709 103.093C73.5309 103.511 73.6152 103.929 73.8107 104.343L74.3432 104.091ZM77.1393 100.359C77.6479 100.119 78.4707 100.13 79.6719 100.495L79.843 99.931C78.6103 99.5569 77.6038 99.4882 76.8876 99.8267L77.1393 100.359ZM79.5045 100.364C79.9757 101.153 80.7012 102.343 81.6806 103.933L82.182 103.624C81.2029 102.035 80.4792 100.848 80.0103 100.062L79.5045 100.364ZM81.6809 103.933C83.0649 106.167 85.1664 108.985 87.9799 112.384L88.4336 112.008C85.6273 108.618 83.5451 105.824 82.1816 103.623L81.6809 103.933ZM87.9811 112.385C89.8132 114.57 91.3176 116.165 92.4911 117.158C93.0767 117.654 93.593 118.012 94.0365 118.216C94.4709 118.415 94.8982 118.496 95.2573 118.326L95.0056 117.793C94.8854 117.85 94.6648 117.856 94.2825 117.681C93.9094 117.509 93.4402 117.19 92.8717 116.709C91.737 115.748 90.2583 114.184 88.4324 112.007L87.9811 112.385ZM95.2573 118.326C95.398 118.259 95.4826 118.137 95.5346 118.024C95.5877 117.909 95.6223 117.771 95.6456 117.621C95.6923 117.32 95.7014 116.913 95.6791 116.412L95.0907 116.438C95.1124 116.926 95.1013 117.287 95.0636 117.53C95.0446 117.653 95.0209 117.732 94.9996 117.778C94.9773 117.826 94.9714 117.81 95.0056 117.793L95.2573 118.326ZM95.6791 116.411C95.5884 114.474 95.1729 111.896 94.4386 108.685L93.8645 108.817C94.5957 112.014 95.0025 114.552 95.0908 116.439L95.6791 116.411ZM94.4378 108.682C93.8221 106.139 93.2065 103.596 92.5908 101.053L92.0184 101.192C92.634 103.735 93.2497 106.277 93.8653 108.82L94.4378 108.682ZM92.59 101.05C92.2897 99.8683 91.9348 98.1234 91.5252 95.811L90.9452 95.9138C91.3555 98.2301 91.7135 99.9919 92.0192 101.195L92.59 101.05ZM91.5285 95.8363C91.4541 94.9984 91.6088 94.2905 91.9765 93.6966C92.3457 93.1004 92.9448 92.595 93.7995 92.191L93.5478 91.6585C92.6187 92.0977 91.9194 92.6702 91.4758 93.3865C91.0307 94.1052 90.8581 94.9445 90.9419 95.8884L91.5285 95.8363ZM93.7995 92.191C94.4006 91.9069 95.2088 91.6941 96.2354 91.5612L96.1598 90.9771C95.099 91.1144 94.2246 91.3386 93.5478 91.6585L93.7995 92.191ZM96.2307 91.5618C96.8496 91.4919 97.3159 91.505 97.6446 91.5841C97.9699 91.6623 98.1235 91.7945 98.1917 91.939L98.7242 91.6873C98.5534 91.3259 98.2106 91.1145 97.7824 91.0114C97.3577 90.9092 96.8134 90.9032 96.1645 90.9766L96.2307 91.5618ZM130.298 102.121L130.166 101.858L129.847 102.018L130.065 102.301L130.298 102.121ZM132.347 104.182L132.619 104.068L132.592 104.005L132.541 103.96L132.347 104.182ZM132.308 105.959L132.574 106.085L132.574 106.085L132.308 105.959ZM129.09 107.627L128.908 107.859L128.989 107.923L129.093 107.922L129.09 107.627ZM126.949 104.339L126.676 104.449L126.676 104.449L126.949 104.339ZM120.114 106.935L120.254 107.194L120.257 107.192L120.114 106.935ZM115.643 109.879L115.361 109.793L115.359 109.8L115.357 109.808L115.643 109.879ZM117.183 114.379L117.474 114.425L117.488 114.34L117.453 114.261L117.183 114.379ZM114.186 115.893L114.115 116.179L114.123 116.181L114.186 115.893ZM112.252 112.215L112.545 112.189L112.544 112.177L112.542 112.166L112.252 112.215ZM110.827 102.481L110.533 102.508L110.535 102.521L110.827 102.481ZM121.818 88.833L122.047 88.6482L122.047 88.648L121.818 88.833ZM128.416 98.7599L128.164 98.9116L128.272 99.0926L128.479 99.0476L128.416 98.7599ZM129.923 98.5363L129.9 98.8299L129.902 98.8301L129.923 98.5363ZM124.782 100.478L124.897 100.749L125.217 100.612L125.03 100.32L124.782 100.478ZM114.221 96.4308L113.926 96.442L113.926 96.4428L114.221 96.4308ZM114.935 106.109L114.643 106.144L114.705 106.659L115.115 106.342L114.935 106.109ZM118.409 103.637L118.251 103.388L118.243 103.394L118.409 103.637ZM130.824 99.4784C131.11 100.083 131.167 100.556 131.062 100.922C130.959 101.281 130.683 101.599 130.166 101.858L130.43 102.384C131.045 102.076 131.467 101.648 131.628 101.084C131.788 100.528 131.675 99.9004 131.356 99.2267L130.824 99.4784ZM130.065 102.301C130.505 102.873 131.205 103.575 132.153 104.404L132.541 103.96C131.602 103.14 130.936 102.468 130.531 101.942L130.065 102.301ZM132.075 104.296C132.293 104.817 132.282 105.323 132.041 105.834L132.574 106.085C132.886 105.423 132.901 104.743 132.619 104.068L132.075 104.296ZM132.041 105.834C131.795 106.356 131.402 106.746 130.849 107.007L131.1 107.54C131.772 107.223 132.267 106.736 132.574 106.085L132.041 105.834ZM130.849 107.007C130.421 107.209 129.839 107.324 129.086 107.333L129.093 107.922C129.895 107.912 130.569 107.791 131.1 107.54L130.849 107.007ZM129.271 107.396C128.642 106.901 128.104 106.197 127.666 105.271L127.134 105.522C127.602 106.513 128.191 107.296 128.908 107.859L129.271 107.396ZM127.666 105.271C127.557 105.039 127.409 104.693 127.222 104.229L126.676 104.449C126.864 104.916 127.017 105.275 127.134 105.522L127.666 105.271ZM127.222 104.229C127.035 103.763 126.888 103.417 126.783 103.196L126.251 103.448C126.348 103.653 126.489 103.985 126.676 104.449L127.222 104.229ZM126.251 103.448C126.214 103.37 126.252 103.313 126.243 103.326C126.233 103.343 126.196 103.386 126.108 103.453C125.936 103.584 125.64 103.753 125.205 103.958L125.457 104.491C125.901 104.281 126.242 104.091 126.465 103.922C126.575 103.838 126.676 103.745 126.742 103.64C126.81 103.531 126.864 103.367 126.783 103.196L126.251 103.448ZM125.205 103.958C123.707 104.667 121.962 105.573 119.971 106.677L120.257 107.192C122.24 106.092 123.974 105.192 125.457 104.491L125.205 103.958ZM119.974 106.676C118.545 107.449 117.45 108.085 116.694 108.583C116.317 108.831 116.018 109.05 115.801 109.237C115.693 109.33 115.601 109.42 115.529 109.507C115.459 109.589 115.394 109.686 115.361 109.793L115.924 109.965C115.924 109.968 115.932 109.942 115.98 109.885C116.025 109.831 116.092 109.764 116.187 109.682C116.375 109.519 116.65 109.317 117.018 109.075C117.753 108.591 118.83 107.965 120.254 107.194L119.974 106.676ZM115.357 109.808C115.313 109.982 115.343 110.212 115.394 110.451C115.449 110.705 115.543 111.024 115.673 111.404C115.934 112.165 116.348 113.197 116.913 114.496L117.453 114.261C116.89 112.967 116.483 111.952 116.23 111.213C116.104 110.843 116.018 110.549 115.97 110.327C115.918 110.089 115.921 109.979 115.928 109.95L115.357 109.808ZM116.892 114.332C116.798 114.923 116.528 115.291 116.098 115.494L116.35 116.027C116.985 115.727 117.354 115.174 117.474 114.425L116.892 114.332ZM116.098 115.494C115.615 115.723 115.006 115.772 114.249 115.606L114.123 116.181C114.965 116.366 115.715 116.327 116.35 116.027L116.098 115.494ZM114.257 115.608C113.493 115.417 113.056 115.088 112.856 114.665L112.324 114.917C112.627 115.559 113.254 115.965 114.115 116.179L114.257 115.608ZM112.856 114.665C112.856 114.666 112.85 114.652 112.84 114.614C112.831 114.579 112.82 114.531 112.808 114.47C112.785 114.347 112.759 114.181 112.731 113.969C112.676 113.545 112.613 112.953 112.545 112.189L111.958 112.241C112.027 113.008 112.09 113.61 112.147 114.046C112.176 114.263 112.203 114.442 112.23 114.581C112.255 114.709 112.284 114.832 112.324 114.917L112.856 114.665ZM112.542 112.166C112.182 110.029 111.707 106.788 111.118 102.442L110.535 102.521C111.124 106.869 111.599 110.117 111.961 112.264L112.542 112.166ZM111.12 102.454C110.595 96.7319 110.499 92.3179 110.826 89.2022C110.989 87.6437 111.257 86.4253 111.621 85.5355C111.985 84.6427 112.432 84.1166 112.93 83.8811L112.679 83.3486C111.992 83.6731 111.468 84.3531 111.075 85.3126C110.682 86.275 110.406 87.5549 110.24 89.1408C109.907 92.3139 110.007 96.7731 110.533 102.508L111.12 102.454ZM112.93 83.8811C113.972 83.3888 115.196 83.513 116.648 84.3531C118.104 85.1964 119.752 86.7425 121.589 89.018L122.047 88.648C120.192 86.3498 118.491 84.7395 116.943 83.8434C115.389 82.944 113.953 82.746 112.679 83.3486L112.93 83.8811ZM121.589 89.0178C123.23 91.0535 125.421 94.3481 128.164 98.9116L128.668 98.6082C125.922 94.0399 123.715 90.7166 122.047 88.6482L121.589 89.0178ZM128.479 99.0476C128.859 98.9646 129.17 98.9056 129.412 98.8697C129.66 98.8329 129.817 98.8235 129.9 98.8299L129.946 98.2427C129.792 98.2308 129.579 98.2494 129.325 98.2871C129.065 98.3257 128.741 98.3877 128.353 98.4722L128.479 99.0476ZM129.902 98.8301C130.33 98.8605 130.628 99.0645 130.824 99.4784L131.356 99.2267C131.074 98.6288 130.593 98.2887 129.944 98.2426L129.902 98.8301ZM125.03 100.32C122.247 95.9485 120.038 92.717 118.405 90.6309C117.59 89.5897 116.91 88.8225 116.367 88.341C116.097 88.1013 115.847 87.9201 115.621 87.8143C115.402 87.7115 115.147 87.6543 114.913 87.7649L115.164 88.2974C115.165 88.2972 115.176 88.2915 115.208 88.2951C115.243 88.2989 115.297 88.3128 115.372 88.3478C115.523 88.4188 115.724 88.5578 115.976 88.7816C116.478 89.2272 117.133 89.9608 117.941 90.994C119.556 93.0568 121.753 96.2687 124.533 100.636L125.03 100.32ZM114.913 87.7649C114.607 87.9096 114.418 88.2606 114.288 88.6638C114.151 89.0871 114.051 89.6582 113.982 90.3668C113.844 91.7867 113.826 93.8143 113.926 96.442L114.515 96.4195C114.415 93.7998 114.434 91.8038 114.568 90.4239C114.635 89.7325 114.731 89.2096 114.848 88.8448C114.973 88.46 115.098 88.3289 115.164 88.2974L114.913 87.7649ZM113.926 96.4428C114.08 100.219 114.319 103.453 114.643 106.144L115.228 106.074C114.906 103.403 114.668 100.185 114.515 96.4188L113.926 96.4428ZM115.115 106.342C115.872 105.759 117.024 104.938 118.575 103.88L118.243 103.394C116.69 104.454 115.526 105.281 114.756 105.876L115.115 106.342ZM118.566 103.886C119.975 102.995 122.083 101.949 124.897 100.749L124.666 100.207C121.842 101.411 119.701 102.472 118.251 103.388L118.566 103.886ZM150.045 68.5526L149.768 68.4533L149.765 68.462L149.762 68.4708L150.045 68.5526ZM149.746 69.5735L149.468 69.4742L149.456 69.5084L149.453 69.5444L149.746 69.5735ZM150.248 71.8768L149.967 71.9637L149.969 71.9693L150.248 71.8768ZM160.833 92.7201L161.1 92.5943L161.01 92.4054L160.802 92.4273L160.833 92.7201ZM161.343 93.7984L161.637 93.8002L161.638 93.7332L161.609 93.6726L161.343 93.7984ZM155.582 93.3945L155.802 93.199L155.801 93.1971L155.582 93.3945ZM147.894 78.2664L148.169 78.162L147.605 78.3222L147.894 78.2664ZM149.894 88.8031L150.186 88.7611L150.183 88.749L149.894 88.8031ZM142.843 95.8004L143.04 95.5811L143.037 95.5791L142.843 95.8004ZM132.576 84.7254L132.8 84.5352L132.299 84.8273L132.576 84.7254ZM139.3 98.7454L139.555 98.5977L139.549 98.5884L139.3 98.7454ZM140.476 100.095L140.27 100.306L140.28 100.315L140.476 100.095ZM130.534 89.5017L130.261 89.6122L130.534 89.5017ZM126.23 80.3961L126.114 80.667L126.114 80.667L126.23 80.3961ZM131.27 75.8639L131.522 75.713L131.464 75.6152L131.355 75.5821L131.27 75.8639ZM133.443 79.4292L133.193 79.5836L133.193 79.5843L133.443 79.4292ZM139.719 87.8472L139.492 88.035L139.493 88.0364L139.719 87.8472ZM146.897 92.0763L147.191 92.0632L147.191 92.0625L146.897 92.0763ZM145.664 84.402L145.951 84.3363L145.95 84.3327L145.664 84.402ZM143.817 76.7734L144.103 76.7041L144.102 76.7009L143.817 76.7734ZM142.747 71.5134L142.454 71.5395L142.455 71.5522L142.457 71.5648L142.747 71.5134ZM147.71 66.9202L147.677 66.6276L147.672 66.6282L147.71 66.9202ZM149.704 67.59C149.85 67.8999 149.865 68.1817 149.768 68.4533L150.322 68.6519C150.478 68.2178 150.442 67.7739 150.236 67.3383L149.704 67.59ZM149.762 68.4708C149.669 68.7914 149.598 69.0364 149.548 69.2061C149.524 69.2909 149.504 69.3565 149.49 69.4031C149.483 69.4264 149.478 69.4445 149.474 69.4576C149.469 69.4727 149.468 69.4763 149.468 69.4742L150.023 69.6728C150.041 69.6221 150.145 69.2667 150.328 68.6344L149.762 68.4708ZM149.453 69.5444C149.431 69.7657 149.474 70.0831 149.558 70.4684C149.644 70.8637 149.781 71.3629 149.967 71.9637L150.529 71.7898C150.346 71.1969 150.215 70.7153 150.134 70.3429C150.05 69.9604 150.027 69.7231 150.039 69.6026L149.453 69.5444ZM149.969 71.9693C151.874 77.7263 154.081 83.2596 156.591 88.5691L157.124 88.3174C154.624 83.0303 152.426 77.5193 150.528 71.7842L149.969 71.9693ZM156.591 88.5691C157.301 90.0712 158 91.2043 158.693 91.9494C159.382 92.6914 160.109 93.0925 160.864 93.013L160.802 92.4273C160.316 92.4785 159.76 92.2321 159.124 91.5484C158.491 90.8678 157.823 89.7972 157.124 88.3174L156.591 88.5691ZM160.567 92.846L161.077 93.9243L161.609 93.6726L161.1 92.5943L160.567 92.846ZM161.049 93.7967C161.046 94.1653 160.97 94.4568 160.835 94.685C160.7 94.9113 160.498 95.0938 160.211 95.2291L160.463 95.7616C160.842 95.5823 161.14 95.3246 161.341 94.9853C161.541 94.6478 161.635 94.2482 161.637 93.8002L161.049 93.7967ZM160.211 95.2291C159.622 95.5076 158.977 95.5036 158.249 95.1821C157.511 94.8561 156.695 94.2049 155.802 93.199L155.362 93.59C156.282 94.6265 157.164 95.3466 158.011 95.7209C158.868 96.0997 159.695 96.1248 160.463 95.7616L160.211 95.2291ZM155.801 93.1971C154.522 91.7813 153.454 90.168 152.598 88.3557L152.065 88.6074C152.945 90.4692 154.045 92.1312 155.363 93.5919L155.801 93.1971ZM152.598 88.3557C150.699 84.3394 149.224 80.9419 148.169 78.162L147.618 78.3709C148.68 81.1705 150.163 84.5831 152.065 88.6074L152.598 88.3557ZM147.605 78.3222C148.278 81.8143 148.945 85.3259 149.604 88.8572L150.183 88.749C149.524 85.2166 148.857 81.7039 148.183 78.2107L147.605 78.3222ZM149.602 88.8451C150.001 91.6124 150.124 93.7485 149.981 95.2651C149.909 96.0235 149.773 96.6111 149.581 97.0405C149.39 97.4681 149.154 97.7196 148.891 97.8441L149.142 98.3766C149.571 98.1739 149.891 97.7922 150.119 97.2806C150.347 96.7707 150.493 96.1132 150.567 95.3204C150.717 93.7345 150.586 91.5442 150.185 88.7611L149.602 88.8451ZM148.891 97.8441C148.195 98.1729 147.373 98.1788 146.398 97.8139C145.417 97.4469 144.298 96.71 143.04 95.5812L142.646 96.0196C143.933 97.1732 145.115 97.9626 146.192 98.3656C147.274 98.7706 148.267 98.7903 149.142 98.3766L148.891 97.8441ZM143.037 95.5791C140.716 93.5407 137.306 89.8636 132.8 84.5352L132.351 84.9155C136.858 90.2458 140.292 93.9521 142.649 96.0217L143.037 95.5791ZM132.299 84.8273C132.998 86.7217 133.797 88.6179 134.694 90.5157L135.226 90.264C134.336 88.3812 133.545 86.501 132.852 84.6234L132.299 84.8273ZM134.694 90.5157C136.544 94.4306 137.997 97.2296 139.051 98.9023L139.549 98.5884C138.516 96.948 137.076 94.1767 135.226 90.264L134.694 90.5157ZM139.045 98.8929C139.245 99.2382 139.664 99.7127 140.27 100.306L140.682 99.8848C140.076 99.2917 139.711 98.8664 139.555 98.5978L139.045 98.8929ZM140.28 100.315C140.892 100.861 141.26 101.306 141.423 101.651L141.955 101.399C141.741 100.945 141.3 100.437 140.672 99.8756L140.28 100.315ZM141.423 101.651C141.588 102 141.565 102.306 141.362 102.609C141.144 102.936 140.704 103.277 139.99 103.615L140.241 104.147C140.991 103.793 141.546 103.395 141.852 102.937C142.174 102.455 142.206 101.929 141.955 101.399L141.423 101.651ZM139.99 103.615C139.623 103.788 139.251 103.816 138.858 103.699C138.456 103.579 138.02 103.304 137.548 102.844C136.604 101.921 135.579 100.314 134.482 97.9934L133.95 98.2451C135.055 100.584 136.115 102.267 137.137 103.265C137.649 103.765 138.166 104.107 138.689 104.263C139.22 104.422 139.743 104.383 140.241 104.147L139.99 103.615ZM134.482 97.9934C133.592 96.1109 132.368 93.2447 130.807 89.3911L130.261 89.6122C131.823 93.4681 133.053 96.347 133.95 98.2451L134.482 97.9934ZM130.807 89.3911C129.245 85.5353 128.021 82.6697 127.136 80.7981L126.604 81.0498C127.481 82.9057 128.7 85.7586 130.261 89.6122L130.807 89.3911ZM127.136 80.7981C126.992 80.4938 126.705 80.2785 126.345 80.1251L126.114 80.667C126.407 80.7916 126.546 80.9282 126.604 81.0498L127.136 80.7981ZM126.345 80.1251C126.052 80.0006 125.913 79.864 125.855 79.7423L125.323 79.994C125.467 80.2983 125.754 80.5137 126.114 80.667L126.345 80.1251ZM125.855 79.7423C125.698 79.4104 125.641 79.0979 125.669 78.7998C125.698 78.5013 125.815 78.1986 126.035 77.8897C126.48 77.2636 127.336 76.6318 128.651 76.0102L128.4 75.4777C127.052 76.1146 126.088 76.7995 125.555 77.5481C125.285 77.9265 125.123 78.3258 125.083 78.7437C125.043 79.162 125.127 79.5805 125.323 79.994L125.855 79.7423ZM128.651 76.0102C129.16 75.7698 129.983 75.7811 131.184 76.1457L131.355 75.5821C130.122 75.2079 129.116 75.1392 128.4 75.4777L128.651 76.0102ZM131.017 76.0148C131.488 76.8043 132.213 77.9942 133.193 79.5836L133.694 79.2747C132.715 77.6857 131.991 76.4987 131.522 75.713L131.017 76.0148ZM133.193 79.5843C134.577 81.8179 136.679 84.6357 139.492 88.035L139.946 87.6594C137.139 84.2688 135.057 81.4746 133.694 79.2741L133.193 79.5843ZM139.493 88.0364C141.325 90.2212 142.83 91.8157 144.003 92.8094C144.589 93.3053 145.105 93.6629 145.549 93.8667C145.983 94.0664 146.41 94.1467 146.769 93.977L146.518 93.4445C146.398 93.5013 146.177 93.5073 145.795 93.3316C145.422 93.1601 144.952 92.8413 144.384 92.3599C143.249 91.3991 141.77 89.8353 139.945 87.658L139.493 88.0364ZM146.769 93.977C146.91 93.9105 146.995 93.788 147.047 93.6752C147.1 93.56 147.134 93.4219 147.158 93.2718C147.204 92.9706 147.214 92.5644 147.191 92.0632L146.603 92.0894C146.625 92.5772 146.614 92.9378 146.576 93.1815C146.557 93.3038 146.533 93.3826 146.512 93.4287C146.489 93.4773 146.484 93.4607 146.518 93.4445L146.769 93.977ZM147.191 92.0625C147.101 90.1249 146.685 87.5473 145.951 84.3363L145.377 84.4677C146.108 87.665 146.515 90.2035 146.603 92.0901L147.191 92.0625ZM145.95 84.3327C145.334 81.7898 144.719 79.247 144.103 76.7041L143.531 76.8427C144.146 79.3856 144.762 81.9284 145.377 84.4713L145.95 84.3327ZM144.102 76.7009C143.802 75.5193 143.447 73.7745 143.037 71.4621L142.457 71.5648C142.868 73.8811 143.226 75.643 143.531 76.8459L144.102 76.7009ZM143.041 71.4874C142.966 70.6494 143.121 69.9415 143.489 69.3477C143.858 68.7515 144.457 68.2461 145.312 67.8421L145.06 67.3096C144.131 67.7488 143.432 68.3212 142.988 69.0376C142.543 69.7563 142.37 70.5956 142.454 71.5395L143.041 71.4874ZM145.312 67.8421C145.913 67.5579 146.721 67.3451 147.748 67.2123L147.672 66.6282C146.611 66.7654 145.737 66.9896 145.06 67.3096L145.312 67.8421ZM147.743 67.2129C148.362 67.1429 148.828 67.156 149.157 67.2351C149.482 67.3134 149.636 67.4456 149.704 67.59L150.236 67.3383C150.066 66.9769 149.723 66.7655 149.295 66.6625C148.87 66.5603 148.326 66.5543 147.677 66.6276L147.743 67.2129ZM181.81 77.7722L181.678 77.5089L181.359 77.6689L181.577 77.9517L181.81 77.7722ZM183.859 79.833L184.131 79.7193L184.104 79.6562L184.053 79.6112L183.859 79.833ZM183.82 81.6105L184.086 81.736L184.086 81.736L183.82 81.6105ZM180.602 83.2782L180.42 83.5099L180.501 83.5739L180.605 83.5727L180.602 83.2782ZM178.461 79.9903L178.188 80.1003L178.188 80.1003L178.461 79.9903ZM171.626 82.5859L171.766 82.8449L171.769 82.8435L171.626 82.5859ZM167.155 85.5301L166.873 85.4442L166.871 85.4515L166.869 85.459L167.155 85.5301ZM168.695 90.0299L168.986 90.0764L169 89.9914L168.965 89.9124L168.695 90.0299ZM165.698 91.5445L165.627 91.8303L165.635 91.8321L165.698 91.5445ZM163.764 87.8659L164.057 87.8396L164.056 87.8282L164.054 87.817L163.764 87.8659ZM162.339 78.1324L162.045 78.1593L162.047 78.1719L162.339 78.1324ZM173.33 64.4841L173.56 64.2992L173.559 64.2991L173.33 64.4841ZM179.928 74.4109L179.676 74.5627L179.785 74.7437L179.991 74.6987L179.928 74.4109ZM181.435 74.1874L181.412 74.481L181.414 74.4811L181.435 74.1874ZM176.294 76.1288L176.409 76.3997L176.729 76.2635L176.542 75.9706L176.294 76.1288ZM165.733 72.0818L165.439 72.093L165.439 72.0938L165.733 72.0818ZM166.448 81.7602L166.155 81.7954L166.217 82.3098L166.628 81.9934L166.448 81.7602ZM169.921 79.2879L169.763 79.0388L169.755 79.0446L169.921 79.2879ZM182.336 75.1294C182.622 75.7336 182.679 76.2066 182.574 76.5732C182.472 76.9322 182.195 77.2496 181.678 77.5089L181.942 78.0354C182.557 77.727 182.979 77.299 183.141 76.7352C183.3 76.1789 183.187 75.5515 182.869 74.8777L182.336 75.1294ZM181.577 77.9517C182.017 78.5241 182.717 79.226 183.665 80.0547L184.053 79.6112C183.114 78.7911 182.448 78.1191 182.044 77.5926L181.577 77.9517ZM183.587 79.9466C183.806 80.468 183.794 80.9736 183.553 81.485L184.086 81.736C184.398 81.0739 184.413 80.3945 184.131 79.7193L183.587 79.9466ZM183.553 81.485C183.308 82.0069 182.914 82.3968 182.361 82.6584L182.613 83.1909C183.284 82.8737 183.779 82.3874 184.086 81.736L183.553 81.485ZM182.361 82.6584C181.933 82.8605 181.351 82.9749 180.598 82.9838L180.605 83.5727C181.407 83.5632 182.081 83.442 182.613 83.1909L182.361 82.6584ZM180.784 83.0466C180.154 82.5521 179.616 81.8485 179.178 80.9217L178.646 81.1734C179.114 82.1636 179.703 82.9471 180.42 83.5099L180.784 83.0466ZM179.178 80.9217C179.069 80.69 178.921 80.344 178.734 79.8803L178.188 80.1003C178.376 80.5671 178.529 80.9259 178.646 81.1734L179.178 80.9217ZM178.734 79.8803C178.547 79.4143 178.4 79.0685 178.295 78.8472L177.763 79.0989C177.86 79.3036 178.001 79.6359 178.188 80.1003L178.734 79.8803ZM177.763 79.0989C177.726 79.0208 177.764 78.9643 177.756 78.9772C177.745 78.9943 177.709 79.0371 177.621 79.1041C177.448 79.2353 177.152 79.4038 176.718 79.6093L176.969 80.1418C177.413 79.932 177.754 79.7424 177.977 79.5728C178.087 79.4894 178.188 79.3961 178.254 79.2913C178.322 79.1824 178.376 79.0184 178.295 78.8472L177.763 79.0989ZM176.718 79.6093C175.219 80.3176 173.474 81.2242 171.483 82.3284L171.769 82.8435C173.753 81.7433 175.486 80.843 176.969 80.1418L176.718 79.6093ZM171.486 82.3269C170.057 83.1003 168.962 83.7364 168.207 84.2341C167.829 84.4825 167.53 84.7008 167.313 84.8879C167.205 84.9814 167.113 85.0715 167.041 85.1577C166.972 85.2403 166.906 85.3371 166.873 85.4442L167.436 85.6161C167.436 85.6186 167.444 85.593 167.492 85.5358C167.537 85.4821 167.605 85.4148 167.699 85.3333C167.887 85.1704 168.162 84.9683 168.53 84.726C169.265 84.2423 170.342 83.6156 171.766 82.8449L171.486 82.3269ZM166.869 85.459C166.826 85.6332 166.855 85.8635 166.906 86.1021C166.961 86.3563 167.055 86.6751 167.185 87.0551C167.446 87.8161 167.86 88.8479 168.425 90.1474L168.965 89.9124C168.402 88.6182 167.996 87.6032 167.743 86.8643C167.616 86.4944 167.53 86.1999 167.482 85.9776C167.431 85.7396 167.433 85.6301 167.441 85.6013L166.869 85.459ZM168.405 89.9834C168.31 90.5737 168.041 90.942 167.61 91.1454L167.862 91.6779C168.497 91.3779 168.867 90.825 168.986 90.0764L168.405 89.9834ZM167.61 91.1454C167.127 91.374 166.518 91.4231 165.761 91.2568L165.635 91.8321C166.477 92.0173 167.227 91.9779 167.862 91.6779L167.61 91.1454ZM165.769 91.2587C165.005 91.0683 164.568 90.7395 164.368 90.3163L163.836 90.568C164.139 91.2098 164.766 91.6159 165.627 91.8302L165.769 91.2587ZM164.368 90.3163C164.369 90.317 164.363 90.3032 164.352 90.2651C164.343 90.2296 164.332 90.182 164.321 90.1207C164.297 89.9982 164.271 89.832 164.243 89.62C164.188 89.1965 164.126 88.6037 164.057 87.8396L163.47 87.8922C163.539 88.6593 163.602 89.2614 163.659 89.6967C163.688 89.914 163.715 90.0931 163.742 90.2319C163.767 90.3604 163.796 90.4835 163.836 90.568L164.368 90.3163ZM164.054 87.817C163.694 85.6798 163.219 82.4392 162.631 78.0928L162.047 78.1719C162.636 82.5196 163.111 85.7679 163.473 87.9149L164.054 87.817ZM162.632 78.1055C162.107 72.383 162.011 67.969 162.338 64.8533C162.501 63.2947 162.769 62.0764 163.133 61.1865C163.498 60.2938 163.944 59.7677 164.442 59.5321L164.191 58.9997C163.504 59.3241 162.98 60.0042 162.588 60.9636C162.194 61.926 161.918 63.206 161.752 64.7919C161.419 67.965 161.519 72.4242 162.045 78.1593L162.632 78.1055ZM164.442 59.5321C165.484 59.0399 166.709 59.1641 168.16 60.0041C169.616 60.8474 171.264 62.3936 173.101 64.6691L173.559 64.2991C171.704 62.0009 170.003 60.3905 168.455 59.4944C166.901 58.5951 165.466 58.397 164.191 58.9997L164.442 59.5321ZM173.101 64.6689C174.742 66.7045 176.933 69.9992 179.676 74.5627L180.181 74.2592C177.435 69.691 175.227 66.3677 173.56 64.2992L173.101 64.6689ZM179.991 74.6987C180.371 74.6157 180.682 74.5567 180.924 74.5208C181.172 74.4839 181.329 74.4745 181.412 74.481L181.458 73.8938C181.304 73.8818 181.092 73.9004 180.837 73.9382C180.577 73.9768 180.253 74.0388 179.865 74.1232L179.991 74.6987ZM181.414 74.4811C181.843 74.5115 182.141 74.7155 182.336 75.1294L182.869 74.8777C182.586 74.2798 182.106 73.9397 181.456 73.8936L181.414 74.4811ZM176.542 75.9706C173.759 71.5996 171.55 68.368 169.917 66.282C169.102 65.2407 168.422 64.4736 167.879 63.992C167.609 63.7523 167.36 63.5711 167.134 63.4654C166.914 63.3625 166.659 63.3053 166.425 63.4159L166.677 63.9484C166.677 63.9482 166.688 63.9426 166.721 63.9461C166.756 63.9499 166.809 63.9638 166.884 63.9989C167.036 64.0698 167.236 64.2088 167.488 64.4326C167.991 64.8782 168.645 65.6118 169.454 66.645C171.068 68.7078 173.265 71.9198 176.046 76.287L176.542 75.9706ZM166.425 63.4159C166.119 63.5607 165.93 63.9117 165.8 64.3149C165.663 64.7382 165.563 65.3092 165.494 66.0178C165.356 67.4378 165.338 69.4653 165.439 72.093L166.027 72.0706C165.927 69.4509 165.946 67.4548 166.08 66.0749C166.148 65.3836 166.243 64.8606 166.36 64.4959C166.485 64.111 166.61 63.9799 166.677 63.9484L166.425 63.4159ZM165.439 72.0938C165.593 75.8697 165.831 79.104 166.155 81.7954L166.74 81.725C166.418 79.0537 166.181 75.8358 166.027 72.0698L165.439 72.0938ZM166.628 81.9934C167.384 81.4096 168.536 80.5894 170.087 79.5311L169.755 79.0446C168.202 80.1046 167.039 80.9325 166.268 81.527L166.628 81.9934ZM170.078 79.5368C171.488 78.6457 173.595 77.5999 176.409 76.3997L176.178 75.8579C173.354 77.0623 171.213 78.1226 169.763 79.039L170.078 79.5368Z" fill="#A9226A" mask="url(#path-4-outside-1_242_206)"/>
</g>
<path d="M74.3941 144.692C74.0877 144.23 73.6389 143.879 73.1155 143.695C72.5922 143.51 72.0228 143.502 71.494 143.67C70.9652 143.838 70.5058 144.174 70.1853 144.627C69.8648 145.08 69.7007 145.625 69.718 146.18C69.7797 146.875 69.8394 147.551 69.9202 148.227C71.7565 147.608 73.5908 146.971 75.3867 146.314C75.0445 145.774 74.7213 145.232 74.3982 144.692" fill="#161616"/>
<path d="M75.3804 146.311C73.5844 146.968 71.7502 147.605 69.9138 148.224C73.5844 182.098 102.711 207.148 139.399 200.311C175.565 194.343 206.526 154.5 177.822 123.947C176.936 123.04 176.026 122.19 175.1 121.359C172.638 121.899 170.177 122.343 167.697 122.73C167.104 122.852 166.486 122.745 165.968 122.431C165.45 122.116 165.071 121.616 164.908 121.033C164.744 120.449 164.808 119.825 165.086 119.287C165.364 118.749 165.836 118.336 166.407 118.132C167.376 117.745 168.343 117.361 169.331 116.955C164.779 113.973 159.865 111.585 154.709 109.848C154.177 109.64 153.591 109.623 153.049 109.8C152.507 109.978 152.043 110.338 151.738 110.82C151.433 111.302 151.304 111.875 151.375 112.441C151.446 113.007 151.712 113.53 152.126 113.922C160.296 121.454 168.564 130.107 170.804 140.806C173.829 156.797 160.619 170.136 144.906 176.844C118.826 187.775 95.4485 177.327 80.8874 155.059C78.9512 152.296 77.136 149.227 75.3804 146.311Z" fill="#161616"/>
<path d="M81.1705 32.599C76.8588 42.8979 74.7233 53.9772 74.8984 65.1409C76.7366 65.4475 78.5554 65.8605 80.3457 66.3779C82.2216 56.1524 85.8147 46.3182 90.9727 37.2919C105.657 12.0698 136.133 12.1081 161.085 22.9412C183.232 32.327 211.006 53.1856 211.489 78.0994C210.158 99.1706 188.09 109.445 169.334 116.958C171.359 118.287 173.286 119.759 175.102 121.362C184.929 119.399 194.388 115.913 203.138 111.03C231.134 94.9814 231.942 65.5469 213.506 41.955C197.361 21.5756 174.513 7.58101 149.024 2.45879C121.37 -3.39241 92.3459 6.32064 81.1705 32.6075" fill="#161616"/>
<path d="M74.9031 65.1401C74.9031 66.1454 74.9223 67.1295 74.9435 68.1156C74.9957 68.713 75.2593 69.2721 75.6869 69.6924C76.1144 70.1128 76.6779 70.3668 77.276 70.4088C77.8741 70.4509 78.4675 70.2781 78.9497 69.9216C79.4318 69.5652 79.7711 69.0484 79.9063 68.4642C80.0465 67.7692 80.1889 67.0742 80.3504 66.3792C78.5608 65.8619 76.7426 65.4489 74.9052 65.1422" fill="#161616"/>
<path d="M166.406 118.129C165.835 118.333 165.363 118.746 165.085 119.284C164.806 119.822 164.743 120.446 164.907 121.029C165.07 121.613 165.449 122.112 165.967 122.427C166.484 122.742 167.102 122.849 167.696 122.726C170.176 122.339 172.637 121.895 175.099 121.355C173.282 119.753 171.355 118.281 169.33 116.952C168.342 117.357 167.373 117.744 166.406 118.129Z" fill="#161616"/>
</g>
<defs>
<filter id="filter0_d_242_206" x="72.9065" y="54.4761" width="114.592" height="76.985" filterUnits="userSpaceOnUse" color-interpolation-filters="sRGB">
<feFlood flood-opacity="0" result="BackgroundImageFix"/>
<feColorMatrix in="SourceAlpha" type="matrix" values="0 0 0 0 0 0 0 0 0 0 0 0 0 0 0 0 0 0 127 0" result="hardAlpha"/>
<feOffset dx="1.04558" dy="1.04558"/>
<feComposite in2="hardAlpha" operator="out"/>
<feColorMatrix type="matrix" values="0 0 0 0 0.662745 0 0 0 0 0.133333 0 0 0 0 0.415686 0 0 0 1 0"/>
<feBlend mode="normal" in2="BackgroundImageFix" result="effect1_dropShadow_242_206"/>
<feBlend mode="normal" in="SourceGraphic" in2="effect1_dropShadow_242_206" result="shape"/>
</filter>
</defs>
</svg>
