<svg width="752" height="404" viewBox="0 0 752 404" fill="none" xmlns="http://www.w3.org/2000/svg">
<path d="M64.9651 131.605C55.4301 135.609 45.5091 133.161 39.8891 125.37C38.6961 123.716 37.9021 121.749 37.0901 119.855C36.4111 118.272 35.7821 116.721 34.2421 115.761C26.3931 110.869 23.4281 103.269 22.5181 94.5486C22.0671 90.2276 21.7511 85.9116 22.7441 81.6006C23.8051 76.9926 25.7591 72.8896 29.4011 69.5286C28.7861 68.8926 28.3041 68.3456 27.7731 67.8536C24.4401 64.7656 22.2101 60.9926 20.7881 56.7096C19.4981 52.8256 19.8041 49.0496 21.8191 45.5096C22.9811 43.4696 24.3341 41.5186 25.7701 39.6586C27.7161 37.1366 28.6681 34.4146 28.1891 31.2216C28.0361 30.1986 28.0281 29.1536 27.9631 28.1186C27.5871 22.1026 30.3021 17.7826 35.3831 14.8436C38.7251 12.9106 42.4391 12.2006 46.2431 12.0866C48.5921 12.0166 50.9701 12.0786 53.2991 12.3686C57.1631 12.8506 60.5571 12.1046 63.5731 9.52464C65.0681 8.24564 66.7381 7.13064 68.4481 6.14864C72.5741 3.77964 76.6861 3.73464 80.6651 6.58064C81.1141 6.90164 81.6051 7.16464 82.2871 7.58464C83.2841 6.50364 84.1691 5.39164 85.2041 4.44564C90.1371 -0.0623646 95.6881 -1.38136 101.87 1.59964C104.316 2.77964 106.621 2.94764 109.208 2.06364C114.015 0.419636 118.946 -0.0883627 123.964 1.17164C129.55 2.57464 133.609 5.82064 134.769 11.5346C135.7 16.1196 138.18 18.6416 142.491 19.7956C143.392 20.0366 144.222 20.5356 145.096 20.8886C153.336 24.2146 155.373 31.5976 155.083 38.2336C154.993 40.3086 154.123 42.0506 152.359 43.4946C153.069 44.1096 153.708 44.6286 154.308 45.1886C160.069 50.5716 163.65 57.0346 163.562 65.0736C163.537 67.3666 162.813 69.7036 162.1 71.9216C161.529 73.6966 160.557 75.3596 159.639 77.0036C158.61 78.8486 158.355 80.6706 159.097 82.6896C161.264 88.5826 159.626 94.0176 156.877 99.2466C155.271 102.301 152.656 104.058 149.179 104.263C147.325 104.372 145.756 105.014 144.144 105.881C142.427 106.805 140.507 107.35 138.465 108.142C138.593 108.909 138.737 109.809 138.893 110.706C139.885 116.387 139.093 121.776 136.291 126.848C134.626 129.862 132.228 132.01 128.968 133.171C128.435 133.361 127.914 133.594 127.37 133.739C122.656 134.996 118.868 137.505 115.833 141.412C112.482 145.724 107.977 148.292 102.515 149.302C96.2151 150.467 90.8791 148.865 86.6411 144.138C84.9461 142.247 83.3661 141.54 80.7781 142.065C76.6961 142.894 73.1521 141.158 70.1871 138.474C68.6731 137.103 67.5341 135.312 66.2701 133.676C65.7671 133.025 65.3861 132.282 64.9651 131.605ZM97.2671 85.6476C95.7001 85.4606 94.1321 85.2736 92.0071 85.0206C93.2711 84.3086 94.0411 83.8746 94.9081 83.3856C94.6741 82.3196 94.4601 81.3436 94.2301 80.2956C91.9201 82.0996 90.9951 84.6336 91.7821 87.0186C91.9351 87.4806 92.4351 88.1376 92.8141 88.1656C94.9051 88.3186 97.1151 89.0736 98.9741 87.3686C101.473 86.2576 101.891 85.5486 101.501 82.9436C100.281 83.3746 99.0411 83.7196 97.9011 84.2706C97.5501 84.4406 97.4711 85.1726 97.2671 85.6476ZM80.3101 10.3326C80.3221 12.9636 79.0041 15.5486 79.9171 18.3666C81.7481 17.9426 83.4311 17.5516 85.2991 17.1186C84.1241 14.2626 82.7371 11.9226 80.2651 10.3736C79.3151 8.84464 77.8881 8.13164 76.0511 7.76864C74.7311 12.1236 74.8661 16.3446 75.4131 20.8046C77.1961 20.2636 77.9861 19.5286 77.9431 17.7476C77.8981 15.8976 78.2721 14.0276 78.5751 12.1846C78.7281 11.2636 79.0591 10.3166 80.3101 10.3326ZM36.8501 17.5756C37.0041 24.0456 45.3041 37.2286 51.8141 41.3596C52.7821 40.0106 53.7571 38.6526 54.7271 37.3016C53.5231 35.2756 52.2831 33.3886 51.2481 31.3946C50.1661 29.3076 49.1391 27.1686 48.3541 24.9576C47.6681 23.0226 47.2521 20.9736 46.9131 18.9416C46.7261 17.8236 46.7231 16.5726 47.9561 15.3976C48.3681 18.0896 48.5041 20.5346 49.1581 22.8326C49.8491 25.2606 50.9571 27.5836 52.0241 29.8876C53.0301 32.0586 54.0901 34.2296 55.7961 36.1356C57.6491 34.5256 59.2601 33.1256 60.8891 31.7106C58.5151 26.5356 58.1841 21.2246 58.6101 15.7006C51.0561 15.4146 43.7031 13.7446 36.8501 17.5756ZM87.1471 140.29C89.5451 143.623 92.4941 145.865 95.4531 146.574C97.8601 147.15 98.3901 146.982 99.5851 144.843C100.27 143.618 100.84 142.311 101.313 140.987C103.338 135.328 103.912 129.435 103.991 123.474C103.997 123.042 103.78 122.607 103.663 122.16C102.443 122.16 101.362 122.16 100.248 122.16C99.5131 127.495 98.3231 132.537 96.1681 137.283C95.2811 139.238 94.0591 141.049 92.8961 142.865C92.6311 143.279 91.9781 143.446 91.5041 143.726C91.3401 143.59 91.1761 143.455 91.0121 143.319C95.7851 136.86 98.2471 129.582 99.3891 121.64C98.0061 121.177 96.9071 120.809 95.8541 120.457C94.6191 124.04 93.6931 127.414 92.2991 130.581C90.8671 133.836 88.9781 136.887 87.1471 140.29ZM56.6641 58.7646C54.2661 60.9166 52.8731 63.2156 51.3431 65.4236C50.2821 66.9546 50.3271 68.2636 51.2771 69.8256C55.5111 76.7856 61.5771 81.4656 69.1001 84.3706C69.6831 84.5956 70.3201 84.6796 71.0721 84.8626C71.6641 83.6476 72.1861 82.5776 72.7201 81.4816C64.3461 76.1106 59.2081 68.5976 56.6641 58.7646ZM103.101 68.7156C105.886 62.4066 105.477 47.4606 102.448 41.7526C98.0281 41.4156 94.6871 43.4616 91.6111 46.6996C94.6561 49.4796 96.1961 52.9136 97.7781 56.3246C99.4171 59.8576 100.308 63.5696 100.366 67.5706C101.286 67.9546 102.125 68.3066 103.101 68.7156ZM76.3691 24.3886C79.1531 27.7746 81.8011 30.8226 84.2521 34.0216C86.7211 37.2436 88.1391 41.0086 89.1451 45.2176C90.7941 43.8216 92.2021 42.6306 93.5421 41.4976C93.4011 35.1196 91.0801 29.6146 87.9581 24.3936C87.2401 23.1926 86.3271 22.0806 85.3511 21.0746C84.8981 20.6076 83.9981 20.1466 83.4421 20.2786C80.6841 20.9326 78.1101 22.0096 76.3691 24.3886ZM51.1731 42.7566C42.6361 36.8026 38.3521 28.2426 35.3111 18.8706C30.2581 22.0526 30.5221 26.9746 31.4711 33.7656C39.2701 35.8746 44.3951 41.6206 49.5251 47.8926C50.1171 46.0476 50.5961 44.5546 51.1731 42.7566ZM107.525 72.0816C107.867 71.6906 108.19 71.4576 108.328 71.1436C111.388 64.1726 113.387 56.9956 112.866 49.2606C112.704 46.8546 111.725 45.1606 109.645 44.0676C108.483 43.4576 107.309 42.8526 106.086 42.3866C105.566 42.1886 104.907 42.3536 104.206 42.3536C104.618 44.0406 105.052 45.4836 105.315 46.9566C106.538 53.7946 106.552 60.6476 105.014 67.4236C104.609 69.2076 104.963 70.2906 106.365 71.2276C106.739 71.4776 107.091 71.7606 107.525 72.0816ZM100.222 146.55C103.041 146.989 105.221 145.906 107.463 145.023C109.43 144.249 110.47 142.841 110.667 140.789C110.963 137.702 111.448 134.609 111.427 131.521C111.407 128.63 110.948 125.723 110.459 122.861C110.164 121.133 109.005 120.553 107.337 121.011C106.643 121.202 106.024 121.665 105.361 122.009C105.378 130.573 104.757 138.881 100.222 146.55ZM75.3081 25.5176C73.6351 27.7436 72.1071 29.7776 70.4811 31.9406C77.4921 36.9786 81.8861 43.7876 84.5081 51.9336C88.2851 47.1176 88.3411 46.6986 86.7411 41.7686C84.6571 35.3456 80.3521 30.3526 75.3081 25.5176ZM73.3911 80.4666C73.5821 80.3176 73.7731 80.1686 73.9641 80.0196C73.4421 78.1746 72.9661 76.3156 72.3801 74.4906C72.0741 73.5356 71.7131 72.5466 71.1411 71.7396C69.1111 68.8736 67.5441 65.7936 66.5601 62.4276C65.8791 60.0986 65.2701 57.7486 64.6121 55.3446C64.0701 55.2606 63.6191 55.1476 63.1651 55.1326C62.7001 55.1176 62.2181 55.1436 61.7661 55.2466C58.5301 55.9846 57.6531 57.5226 58.5601 60.6736C60.6901 68.0686 65.0361 73.9486 70.9061 78.7846C71.6741 79.4196 72.5601 79.9096 73.3911 80.4666ZM158.841 54.6416C154.663 59.2186 150.12 61.8726 145.506 64.4186C140.925 66.9466 135.903 68.3676 130.679 69.8036C132.492 71.5656 132.947 71.5686 136.124 71.2526C144.004 70.4696 151.33 67.8546 158.499 64.6846C159.417 64.2786 160.272 63.7316 161.424 63.1046C160.581 60.3436 159.8 57.7836 158.841 54.6416ZM68.8251 104.475C71.4651 107.39 73.8111 108.881 76.4101 109.288C78.7611 101.427 81.4521 93.7096 88.7161 88.4806C88.0121 88.0446 87.3181 87.6456 86.8041 87.8116C78.2051 90.5796 72.5741 96.5376 68.8251 104.475ZM62.7221 34.2356C63.3111 34.7386 63.6361 35.0696 64.0111 35.3286C69.8161 39.3376 74.3161 44.3516 76.4051 51.2586C76.5521 51.7456 76.9051 52.3196 77.3271 52.5466C78.8781 53.3796 80.4991 54.0836 82.4251 54.9926C82.5931 54.2606 82.9411 53.5746 82.8551 52.9496C82.6511 51.4706 82.4631 49.9216 81.8741 48.5736C79.4391 43.0046 76.1401 38.0696 71.4511 34.0406C69.1521 32.0646 67.0311 31.9346 64.5401 33.1796C64.0451 33.4276 63.5801 33.7346 62.7221 34.2356ZM49.7241 70.4756C48.9551 73.4616 48.3051 75.9846 47.5491 78.9186C51.4891 83.6126 56.5441 87.3666 62.8051 89.4076C63.2961 89.5676 64.0241 89.6086 64.4181 89.3566C66.1081 88.2766 67.7141 87.0656 69.5741 85.7436C60.9321 83.2196 54.8441 77.6586 49.7241 70.4756ZM87.4541 109.883C87.2751 103.585 87.2491 97.4516 91.5111 91.8506C90.7401 91.2136 90.0591 90.6506 89.4191 90.1226C83.7851 93.9096 77.9271 104.23 77.8981 110.275C81.0041 111.388 84.0771 111.374 87.4541 109.883ZM132.629 64.2196C139.639 61.6876 150.467 52.6056 152.823 47.4096C150.501 45.2636 148.933 44.4936 145.812 44.0066C145.502 44.6376 145.189 45.3106 144.845 45.9676C142.372 50.6806 139.446 55.1336 135.169 58.3286C133.022 59.9306 132.393 61.6216 132.629 64.2196ZM75.3021 51.9786C72.8521 44.2196 67.7671 39.2356 61.4981 35.1356C59.3161 36.7826 57.4281 38.2506 56.1771 40.5336C62.4141 43.1006 66.6221 47.6066 69.5561 53.3776C71.5181 52.9006 73.2301 52.4836 75.3021 51.9786ZM117.165 118.035C120.061 116.788 121.666 115.059 122.722 112.763C123.47 111.136 123.631 109.569 122.568 107.967C120.391 104.686 118.438 101.242 116.083 98.0956C114.141 95.5006 111.754 93.2376 109.461 90.7146C108.49 91.5706 107.814 92.1686 107.41 92.5246C109.844 96.5806 112.369 100.313 114.396 104.298C116.488 108.412 117.528 112.898 117.165 118.035ZM115.569 118.705C115.717 118.235 115.852 117.976 115.873 117.708C115.925 117.052 115.973 116.39 115.939 115.734C115.517 107.362 111.819 100.406 106.525 94.1626C106.267 93.8586 105.633 93.8736 104.823 93.6386C108.38 101.725 109.192 109.726 107.506 118.012C110.215 118.859 112.751 119.36 115.569 118.705ZM62.5931 95.9186C62.9411 94.0546 63.2241 92.5336 63.5591 90.7406C56.3501 89.2996 51.3131 84.6776 46.0091 79.3846C45.5091 81.9896 45.1031 83.8936 44.7891 85.8116C44.5941 87.0016 45.0771 87.9156 45.9691 88.7936C49.3631 92.1376 53.4661 94.0836 58.0301 95.1586C59.4581 95.4946 60.9291 95.6466 62.5931 95.9186ZM112.257 83.2366C120.43 84.3006 128.116 86.5306 135.025 91.5166C135.097 90.6956 135.175 90.2356 135.172 89.7756C135.149 86.4196 133.064 83.7866 131.959 80.8106C131.839 80.4866 131.227 80.2506 130.802 80.1506C124.871 78.7556 119.01 79.4206 113.187 80.8396C112.037 81.1186 111.679 81.8646 112.257 83.2366ZM69.1041 29.4316C70.4471 27.4976 71.4021 25.8916 72.5881 24.4796C73.7131 23.1396 73.9931 21.8326 73.7231 20.0856C73.1301 16.2516 73.1361 12.3936 74.4441 8.64564C74.5481 8.34764 74.4581 7.98264 74.4581 7.62164C69.1601 8.40864 64.7211 10.7426 65.6601 16.7246C65.7181 17.0936 65.6621 17.4786 65.7001 17.8526C66.0901 21.6926 66.6701 25.4766 69.1041 29.4316ZM85.6111 139.114C89.8701 133.826 92.2471 127.929 93.9211 121.702C94.5201 119.474 94.4941 119.467 92.0471 118.177C89.9931 120.346 88.0611 122.546 86.8481 125.415C85.2381 129.225 83.2021 132.851 80.3661 135.943C79.4361 136.957 78.4811 137.949 77.3781 139.121C80.1881 139.997 82.8451 138.462 85.6111 139.114ZM110.108 89.9486C111.518 91.2896 112.935 92.5206 114.209 93.8846C115.488 95.2546 116.665 96.7266 117.813 98.2106C118.961 99.6946 120.062 101.22 121.1 102.783C122.063 104.234 122.914 105.76 123.815 107.253C124.577 103.951 125.905 101.49 129.19 100.246C124.591 93.7236 118.423 90.0876 111.385 87.3186C110.928 88.2596 110.575 88.9866 110.108 89.9486ZM154.387 48.5996C153.909 48.8656 153.697 48.9166 153.591 49.0526C147.865 56.3466 141.07 62.3076 132.526 66.1456C131.801 66.4716 131.32 67.3396 130.674 68.0096C131.082 68.2646 131.17 68.3666 131.24 68.3556C131.698 68.2816 132.158 68.2076 132.605 68.0896C140.548 65.9936 147.689 62.2626 154.193 57.3086C155.575 56.2556 156.667 54.8216 158.032 53.4206C156.677 51.6286 155.518 50.0946 154.387 48.5996ZM67.8391 103.536C72.1021 95.3686 77.6551 89.1566 86.3611 86.1986C84.6691 85.8486 83.1051 85.7916 81.5471 85.8586C76.2211 86.0856 71.3031 87.4456 67.3471 91.2586C66.6851 91.8966 65.8581 92.6616 65.7061 93.4786C65.0751 96.8686 65.0691 100.223 67.8391 103.536ZM117.653 26.0186C123.705 21.9746 128.139 17.0396 130.629 10.4876C130.803 10.0296 130.807 9.31664 130.565 8.92064C129.214 6.70864 127.373 5.14664 124.589 4.74264C123.93 12.2546 119.839 18.0316 115.757 24.0706C116.437 24.7686 117.011 25.3576 117.653 26.0186ZM85.4271 55.5176C90.3151 58.4366 92.9861 62.7746 94.7051 67.7366C96.2321 67.5226 97.5051 67.3446 99.0361 67.1296C98.2921 59.7246 95.4351 53.5136 90.7091 47.6156C88.8401 50.4116 87.2311 52.8196 85.4271 55.5176ZM101.434 20.1526C99.5721 19.8616 98.2191 20.6076 96.9781 21.3796C95.2551 22.4516 93.7071 22.4346 91.9751 21.4236C90.3781 20.4906 88.6461 19.8256 86.3301 20.2216C91.4551 26.1916 94.1921 32.9546 95.3121 40.4576C95.9571 40.3116 96.3411 40.2846 96.6701 40.1356C97.0751 39.9536 97.4341 39.6696 97.8701 39.3936C97.4031 32.6806 97.9691 26.2166 101.434 20.1526ZM156.482 93.0436C150.834 88.3746 144.318 86.5126 137.065 85.8586C137.322 87.4676 137.537 88.8176 137.748 90.1426C143.514 92.3016 148.517 95.5316 153.267 99.5376C155.049 97.6666 155.856 95.4366 156.482 93.0436ZM134.858 92.7586C129.296 88.6176 123.099 86.5266 116.603 85.1636C115.409 84.9136 114.195 84.6856 112.983 84.6346C112.519 84.6146 112.032 85.1156 110.965 85.7066C118.925 88.9116 125.59 92.8256 130.18 99.5576C132.989 98.0776 134.167 95.7326 134.858 92.7586ZM46.8701 46.5306C42.3821 41.7126 37.9621 37.0296 31.1711 35.3096C30.6581 36.7116 29.4171 37.8466 30.1421 39.3206C32.0161 43.1316 34.3521 46.5926 37.3931 48.3796C41.0001 47.6756 43.7931 47.1306 46.8701 46.5306ZM161.128 65.1456C152.084 69.5986 143.022 72.2626 133.426 72.6046C133.221 74.6786 134.279 74.8226 135.695 74.6876C143.001 73.9906 150.314 73.1696 157.636 75.3256C159.444 72.2016 161.018 69.1936 161.128 65.1456ZM107.789 40.2786C111.48 33.6086 111.48 33.6086 117.603 28.4536C115.767 26.7206 113.961 25.0156 112.048 23.2096C106.323 27.2556 104.945 33.2166 102.943 39.1856C104.774 39.5986 106.21 39.9226 107.789 40.2786ZM156.48 76.3336C149.028 74.4086 141.642 75.2416 134.182 76.0266C134.124 76.8636 134.043 77.3246 134.075 77.7786C134.106 78.2196 134.253 78.6516 134.366 79.1666C141.816 79.5036 149.012 80.5506 155.905 83.0756C156.091 80.8976 156.27 78.7986 156.48 76.3336ZM110.377 69.9996C112.677 69.4656 114.076 68.4266 115.132 66.7366C118.019 62.1166 119.715 57.0936 120.434 51.7256C120.566 50.7436 120.453 49.7286 120.453 48.6626C118.129 48.2096 116.07 47.8086 113.577 47.3226C115.086 55.2836 112.897 62.4646 110.377 69.9996ZM47.7411 99.6236C46.8981 98.5926 46.1321 97.5346 45.2261 96.6136C44.8921 96.2736 44.1861 96.0346 43.7251 96.1266C39.4391 96.9796 35.1511 98.1606 32.1451 101.48C28.1041 105.941 28.2761 106.479 32.6221 110.58C32.7411 110.693 32.9531 110.708 33.4561 110.89C36.4451 104.875 40.9781 100.561 47.7411 99.6236ZM77.0961 61.4396C77.1701 61.6576 77.2441 61.8746 77.3181 62.0916C83.0831 63.3126 86.7501 67.2216 89.7971 72.0196C90.8011 70.9386 91.5461 69.9816 92.4491 69.2096C93.3251 68.4616 93.4151 67.7046 92.9971 66.7246C91.1781 62.4686 88.2981 59.1006 84.5201 56.3416C81.9861 58.0836 79.5411 59.7616 77.0961 61.4396ZM33.8591 61.3306C36.3951 61.8546 38.9161 61.9816 41.0731 62.9326C43.2951 63.9116 45.1621 65.6946 47.2651 67.1826C48.1021 65.6146 48.9291 64.0666 49.7891 62.4546C48.4371 60.9086 47.2741 59.4296 45.9541 58.1056C43.8321 55.9766 41.2201 54.7066 38.2251 54.4066C37.4821 54.3316 36.2981 54.5186 35.9851 55.0106C34.7431 56.9626 33.6621 59.0526 33.8591 61.3306ZM42.6271 80.9246C38.4131 78.1116 34.2471 76.3336 29.4221 76.6136C28.5001 76.6676 27.4911 76.5386 27.0171 77.6476C25.9111 80.2336 25.1301 82.8866 25.2251 86.1276C30.6631 83.4396 36.0381 82.2116 41.8901 84.8266C42.1691 83.3496 42.3881 82.1916 42.6271 80.9246ZM121.764 48.7476C121.489 55.6986 119.245 61.7986 116.289 67.7516C119.906 68.1076 122.239 66.5826 123.675 63.7616C125.037 61.0866 126.346 58.3536 127.333 55.5256C128.422 52.4046 127.689 51.0606 124.7 49.6846C123.875 49.3046 122.961 49.1216 121.764 48.7476ZM25.6041 94.9376C28.5061 93.5436 30.9901 91.9416 33.7101 91.1606C36.3911 90.3906 39.3121 90.4536 42.1411 90.1486C42.0911 86.3706 41.9201 86.2316 38.3231 85.2466C34.1711 84.1106 30.3591 85.0866 26.6021 86.8056C25.2711 87.4146 24.8581 88.3646 25.0361 89.7396C25.2511 91.4086 25.4051 93.0846 25.6041 94.9376ZM156.94 91.8506C157.116 90.1536 157.282 89.1466 157.313 88.1346C157.395 85.4196 157.278 84.9746 154.724 84.2146C150.777 83.0396 146.763 82.0536 142.727 81.2316C140.195 80.7156 137.571 80.6476 134.886 80.3686C135.445 83.9856 135.837 84.4006 138.819 84.8696C145.15 85.8636 151.424 87.0166 156.94 91.8506ZM110.442 22.4216C109.56 21.9476 108.859 21.4736 108.09 21.1746C103.061 19.2166 102.701 19.2156 100.701 24.4506C99.1371 28.5446 98.8911 32.9086 99.0921 37.2746C99.1201 37.8916 99.3231 38.5006 99.4251 39.0146C101.443 39.7226 101.828 38.6126 102.25 37.1706C103.848 31.7186 105.839 26.4526 110.442 22.4216ZM131.893 11.8986C129.895 14.7586 128.249 17.6286 126.098 20.0506C123.886 22.5416 121.182 24.5956 118.593 26.9316C119.361 28.0196 120.05 28.9966 120.757 29.9966C126.71 27.6036 131.356 24.0116 134.302 18.5346C133.469 16.2416 132.682 14.0726 131.893 11.8986ZM52.9051 111.226C52.2531 109.627 51.6721 108.204 51.1051 106.814C46.3771 107.922 42.8141 110.187 40.4181 114.069C39.8981 114.91 39.2941 116.076 39.4921 116.911C40.0231 119.143 40.7041 121.41 42.6021 123.408C44.3091 117.742 47.0101 113.189 52.9051 111.226ZM50.2091 101.075C42.5051 101.659 37.4391 105.204 34.5511 112.122C35.7221 113.008 36.8951 113.897 38.3251 114.979C40.9171 109.657 45.1401 106.489 50.8951 105.237C50.6301 103.634 50.4241 102.383 50.2091 101.075ZM53.8561 112.84C49.2281 113.059 44.4581 118.997 43.8851 124.095C43.8291 124.589 44.0101 125.269 44.3401 125.62C45.6741 127.042 47.1621 128.285 49.3821 128.963C49.4781 123.409 51.3401 118.881 55.6641 115.42C55.0151 114.494 54.4401 113.673 53.8561 112.84ZM117.419 3.41864C117.049 11.2646 117.049 11.2646 112.204 21.0326C113.048 21.6356 113.923 22.2606 115.03 23.0516C118.898 17.0816 122.722 11.4546 123.254 3.90164C121.242 3.73464 119.439 3.58564 117.419 3.41864ZM52.6271 47.1436C55.5761 49.2336 58.0761 51.0056 60.4651 52.6976C62.8391 53.0196 65.1921 53.3396 67.9871 53.7186C65.0811 47.9926 61.2931 43.7886 55.0271 41.5616C54.1611 43.5776 53.3691 45.4206 52.6271 47.1436ZM27.8411 104.035C28.0681 104.031 28.2961 104.027 28.5231 104.023C30.1101 101.399 31.9691 99.0036 34.7881 97.6806C37.5671 96.3766 40.4391 95.2706 43.3341 94.0516C43.4231 93.0196 42.6821 92.7626 41.8131 92.4846C37.0941 90.9736 29.9441 92.9206 26.7791 96.6946C26.4091 97.1366 26.1191 97.9236 26.2381 98.4486C26.6691 100.335 27.2911 102.177 27.8411 104.035ZM28.4201 75.3836C34.0421 74.9416 38.7481 76.2296 43.0761 79.2626C44.0621 77.8456 44.9521 76.5656 45.8131 75.3286C42.8251 71.8366 38.1421 69.5316 34.1771 69.5496C33.7321 69.5516 33.1171 69.5886 32.8721 69.8666C31.4221 71.5126 29.5021 72.7946 28.4201 75.3836ZM97.6411 93.7146C96.5151 98.1966 95.4181 102.275 97.7901 106.459C99.2651 106.365 100.748 107.009 102.112 105.931C101.142 102.405 99.5791 99.0186 101.446 95.4296C101.888 98.6966 101.509 102.126 103.565 105.087C103.95 104.828 104.243 104.721 104.397 104.512C106.236 102.013 105.902 96.9426 103.749 94.7676C103.505 94.5206 103.137 94.2976 102.803 94.2556C101.147 94.0466 99.4841 93.9016 97.6411 93.7146ZM131.549 78.8806C131.595 78.2686 131.7 77.6296 131.682 76.9936C131.578 73.3696 130.608 72.4346 127.062 72.7816C122.436 73.2336 118.044 74.5876 113.819 76.5006C112.829 76.9496 111.855 77.4336 110.989 77.8466C111.106 79.9046 112.066 79.8106 113.353 79.4666C119.142 77.9216 124.967 77.1386 130.861 78.9606C131.022 79.0096 131.225 78.9226 131.549 78.8806ZM102.678 17.4486C102.428 13.7206 102.263 10.2476 101.916 6.79264C101.832 5.95264 101.358 4.79264 100.704 4.43564C98.5831 3.27964 96.2761 2.59664 93.7361 3.35964C96.5481 8.83064 96.8701 8.77064 97.6411 18.4756C99.2011 18.1576 100.739 17.8436 102.678 17.4486ZM53.0821 58.5266C51.8761 55.5576 50.9601 53.1156 49.8741 50.7516C49.5691 50.0886 48.8351 49.3186 48.1741 49.1776C45.1471 48.5296 42.1521 48.5946 39.5371 50.5886C38.8601 51.1046 38.2941 51.7656 37.7981 52.2436C40.5161 53.3376 43.1411 53.9976 45.3071 55.3776C47.4651 56.7526 49.1611 58.8506 51.1851 60.7486C51.9121 59.8966 52.6341 59.0506 53.0821 58.5266ZM56.8561 116.712C52.9831 119.441 50.7441 123.371 50.5981 127.486C50.5601 128.556 50.5691 129.673 51.8721 129.989C53.4741 130.377 55.0851 130.992 56.9011 130.495C57.0251 126.463 57.8791 122.765 60.4181 119.577C59.1561 118.562 58.0661 117.685 56.8561 116.712ZM89.4221 73.9396C86.5721 68.9586 82.8881 65.4056 77.7611 63.4616C75.9011 62.7566 75.1711 62.9846 74.5461 64.8596C74.0951 66.2126 74.0721 67.7096 73.8051 69.4956C79.3141 69.8146 83.8001 71.6936 87.4311 75.4016C88.1561 74.8696 88.6631 74.4966 89.4221 73.9396ZM96.1771 105.801C94.4031 101.543 95.0671 97.7856 96.3861 93.9646C94.8921 93.6346 93.6401 93.3586 92.4581 93.0986C89.0901 97.5286 87.4921 105.736 89.3191 109.021C91.4871 107.999 92.8931 105.548 96.1771 105.801ZM62.6981 97.5536C59.3631 96.6136 56.2801 96.0376 53.4461 94.8626C50.6811 93.7166 48.1691 91.9576 45.4641 90.4216C46.0451 93.2496 47.5621 95.2926 49.6741 97.0316C50.9531 98.0846 51.9911 99.4276 53.1801 100.597C53.5531 100.964 54.0291 101.328 54.5211 101.458C57.4111 102.222 60.2441 102.014 63.1951 100.827C63.0161 99.6436 62.8501 98.5496 62.6981 97.5536ZM64.3371 13.1646C63.0371 13.7966 62.2431 14.2976 61.3771 14.5786C59.8391 15.0786 59.3731 16.0946 59.5611 17.6056C59.9331 20.5926 60.1551 23.6036 60.6551 26.5686C60.9091 28.0786 61.1701 29.7096 62.3641 30.9146C64.0681 30.3456 65.6571 29.8156 67.4001 29.2346C64.3791 24.3966 63.9991 19.0846 64.3371 13.1646ZM128.531 33.3986C132.859 35.4596 136.152 34.0796 139.102 31.1996C139.771 30.5456 140.533 29.9876 141.216 29.3466C142.889 27.7796 144.047 25.9166 144.517 23.3996C143.053 22.8156 141.62 22.2446 139.958 21.5816C137.405 26.8216 133.531 30.5386 128.531 33.3986ZM67.6461 107.363C66.1321 105.474 64.8051 103.818 63.7761 102.534C60.1931 102.741 57.0421 102.924 53.6501 103.12C53.9081 104.361 54.0591 105.566 54.4161 106.707C55.4331 109.958 56.7151 110.766 60.0601 110.229C62.6801 109.807 65.1641 108.956 67.6461 107.363ZM87.4241 6.30664C88.4691 8.27964 89.5721 9.92564 90.2361 11.7336C90.9391 13.6476 91.2011 15.7206 91.7001 17.7126C91.9781 18.8246 93.9031 20.0786 94.9611 19.8436C96.3931 19.5246 96.2151 18.3016 96.1001 17.3446C95.7251 14.1996 95.3571 11.0406 94.7091 7.94564C94.3521 6.23964 93.4271 4.65964 91.6071 3.60664C90.1921 4.51964 88.8091 5.41164 87.4241 6.30664ZM135.117 19.3806C132.323 25.3756 127.137 28.5476 121.516 31.0916C121.705 31.9866 121.789 32.5406 121.944 33.0736C122.096 33.5966 122.32 34.0986 122.631 34.9276C129.635 32.1626 135.07 27.9446 138.541 21.0736C137.379 20.4996 136.399 20.0146 135.117 19.3806ZM111.146 20.3616C114.216 15.1466 116.804 10.0396 115.859 3.50664C113.598 4.04064 111.48 4.54064 109.073 5.10864C110.87 9.95064 110.224 14.4226 108.449 18.9616C109.387 19.4486 110.181 19.8606 111.146 20.3616ZM123.045 116.853C125.843 121.765 130.847 126.356 133.82 126.844C135.674 124.526 136.182 123.365 136.439 120.73C132.178 119.372 128.328 117.163 125.053 113.883C124.263 115.051 123.689 115.9 123.045 116.853ZM126.988 106.356C126.599 107.955 126.411 109.165 126.001 110.294C125.52 111.619 125.818 112.55 126.798 113.551C129.207 116.012 131.988 117.852 135.199 119.049C135.761 119.258 136.396 119.269 137.228 119.41C137.375 117.691 137.514 116.211 137.626 114.729C137.723 113.448 137.272 112.677 135.891 112.303C132.472 111.376 129.502 109.652 126.988 106.356ZM102.473 108.113C101.151 111.884 99.9631 115.273 98.6481 119.024C100.537 119.201 102.287 119.502 104.028 119.455C104.674 119.437 105.697 118.717 105.869 118.122C107.143 113.697 107.49 109.195 106.702 104.539C105.018 105.963 103.537 107.214 102.473 108.113ZM140.317 42.4486C137.396 46.6056 134.614 50.5666 131.692 54.7256C131.98 55.6646 132.354 56.8816 132.738 58.1356C137.421 55.5906 143.789 47.2066 143.949 43.4256C142.638 43.0736 141.302 42.7136 140.317 42.4486ZM131.106 52.8906C132.887 50.6286 134.498 48.6786 135.993 46.6436C136.823 45.5126 137.48 44.2516 138.175 43.0256C138.812 41.9036 138.747 40.8446 137.656 40.0246C136.257 38.9736 134.827 37.9646 133.041 36.6686C132.173 41.4516 131.18 45.6466 128.474 49.1736C129.33 50.3836 130.084 51.4476 131.106 52.8906ZM24.8681 44.8356C27.2971 48.6136 29.3371 52.2786 33.4031 54.1796C34.5951 52.6076 35.6621 51.1996 36.8741 49.6006C33.2641 47.3626 31.0121 43.9406 28.7531 40.0296C27.3421 41.7746 26.1961 43.1926 24.8681 44.8356ZM135.642 35.3526C137.005 36.2466 137.835 37.8676 139.391 37.2236C143.95 35.3366 148.086 32.8426 150.36 28.0066C149.239 26.3226 147.851 25.0496 145.809 24.1586C144.394 29.6896 139.794 32.1786 135.642 35.3526ZM86.6111 123.195C84.5971 123.55 82.8861 122.786 81.7291 124.684C79.0851 129.018 76.1801 133.143 71.3361 135.373C74.1121 138.89 75.2191 139.031 78.1341 136.213C81.8411 132.629 84.1171 128.122 86.6111 123.195ZM57.2611 111.425C57.1161 111.614 56.9701 111.803 56.8251 111.992C58.1671 113.374 59.4601 114.81 60.8811 116.105C61.2921 116.48 62.1141 116.678 62.6741 116.572C66.6041 115.83 70.0241 114.083 73.1131 111.152C72.3931 110.597 71.8631 110.252 71.4091 109.826C69.8531 108.369 68.3831 108.254 66.4121 109.355C63.6371 110.907 60.5731 111.847 57.2611 111.425ZM70.0131 134.452C75.2141 132.019 78.1261 127.993 80.9231 123.402C79.4741 122.85 78.2901 122.399 77.0221 121.916C74.2781 125.165 71.6011 128.307 67.1471 129.534C68.1901 131.323 69.0231 132.752 70.0131 134.452ZM95.9341 70.2126C96.2991 71.1706 96.6691 72.1176 97.0211 73.0716C97.4041 74.1086 97.7711 75.1526 98.1161 76.1156C99.4931 76.3716 100.676 76.5916 101.986 76.8356C102.477 75.5686 102.952 74.3416 103.428 73.1146C103.679 73.1856 103.931 73.2576 104.182 73.3286C104.017 74.5936 103.993 75.8986 103.653 77.1156C103.188 78.7766 103.252 80.2266 104.629 81.7396C106.041 81.2506 107.492 80.7486 108.93 80.2506C106.575 72.6166 101.266 68.5436 95.9341 70.2126ZM132.774 128.295C128.257 125.577 124.73 122.252 121.874 117.969C120.98 118.64 120.181 119.24 119.162 120.005C120.817 122.8 122.304 125.514 123.985 128.104C126.61 132.15 127.93 132.307 131.817 129.298C132.106 129.075 132.33 128.766 132.774 128.295ZM32.7081 55.8316C30.9621 54.2946 29.2761 53.0746 27.9301 51.5536C26.5631 50.0066 25.5311 48.1636 24.2381 46.2826C22.6541 48.8236 22.2431 51.2616 22.5951 53.8316C22.6921 54.5436 22.8831 55.4266 23.3631 55.8706C25.5891 57.9236 28.2201 59.1656 31.3441 59.5486C31.8761 58.0986 32.3181 56.8956 32.7081 55.8316ZM114.792 121.636C114.104 121.571 113.555 121.476 113.008 121.482C112.562 121.487 112.117 121.615 111.401 121.733C113.418 128.175 113.136 134.598 112.359 141.18C113.585 140.243 114.535 139.121 115.6 138.124C116.799 137.002 117.091 135.702 117.073 134.095C117.026 129.903 115.943 125.936 114.792 121.636ZM45.9361 73.3126C47.0271 70.7646 46.8891 68.7746 44.7471 67.1666C44.1501 66.7186 43.6691 66.1186 43.1091 65.6186C40.3811 63.1806 37.2181 62.5986 33.6221 63.3186C33.6221 64.9036 33.6221 66.3626 33.6221 67.9606C38.2491 68.6066 42.6301 69.5896 45.9361 73.3126ZM75.6081 78.6066C78.4781 77.7016 81.3831 77.9106 84.1761 79.0136C84.8191 77.8606 85.3581 76.8936 86.0171 75.7126C82.6041 72.8486 78.8321 71.1846 74.3651 71.1676C73.8621 74.4206 74.1681 76.2476 75.6081 78.6066ZM118.755 30.0356C113.777 32.4446 111.173 36.3036 109.217 40.9266C110.42 41.6996 111.34 42.2906 112.41 42.9776C114.313 39.2626 117.443 37.0866 121.193 35.1586C120.343 33.3736 119.61 31.8316 118.755 30.0356ZM110.647 76.9006C115.948 73.9716 121.667 71.9416 128.262 71.3506C123.68 68.3916 114.965 69.0746 110.763 72.3466C108.733 73.9256 108.703 74.2986 110.647 76.9006ZM117.779 120.588C117.241 120.812 116.607 121.076 116.067 121.302C116.957 125.947 117.802 130.359 118.673 134.908C120.721 133.99 122.902 133.012 124.969 132.085C122.587 128.276 120.301 124.62 117.779 120.588ZM107.668 5.74864C106.235 5.74864 104.799 5.74864 103.505 5.74864C103.652 9.79164 103.794 13.6856 103.939 17.6546C104.228 17.7726 104.56 17.9586 104.916 18.0416C105.721 18.2286 106.537 18.3646 107.328 18.5176C109.328 13.1186 109.428 9.03264 107.668 5.74864ZM79.4171 113.153C77.9951 112.705 76.7721 112.228 75.5051 111.963C74.9471 111.846 74.1241 111.96 73.7201 112.312C70.8281 114.823 67.4651 116.428 63.7011 117.596C70.0051 120.279 75.8991 119.949 79.4171 113.153ZM151.388 29.8426C149.471 31.6856 147.925 33.4706 146.081 34.8606C144.191 36.2856 142.011 37.3256 139.761 38.6496C141.762 40.4516 143.639 41.0236 145.928 40.0676C148.237 39.1036 150.18 37.6866 151.859 35.8466C152.56 35.0786 152.893 34.2746 152.58 33.2836C152.228 32.1636 151.814 31.0626 151.388 29.8426ZM152.212 100.383C147.891 96.3606 143.143 93.5946 137.738 91.4236C137.47 92.5486 137.279 93.3456 137.092 94.1346C138.714 95.1416 140.319 95.9616 141.711 97.0516C143.18 98.2016 144.44 99.6176 145.808 100.899C146.071 101.146 146.415 101.491 146.714 101.483C148.447 101.437 150.265 101.729 152.212 100.383ZM131.689 36.6586C129.631 36.1116 127.954 35.6616 126.473 36.5236C125.853 40.1786 125.28 43.5516 124.694 47.0106C125.627 47.4786 126.533 47.9326 127.61 48.4736C129.888 44.8536 131.218 41.0606 131.689 36.6586ZM129.129 54.6416C127.045 59.0046 125.066 63.1486 123.082 67.3006C124.667 67.5426 126.301 67.7916 127.892 68.0356C131.221 63.6756 131.079 59.2796 129.129 54.6416ZM124.783 36.4056C122.9 37.1016 121.381 37.5476 119.982 38.2366C119.442 38.5026 118.881 39.3006 118.837 39.8936C118.693 41.8206 118.783 43.7656 118.783 45.7896C120.253 46.0156 121.596 46.2226 122.99 46.4376C124.162 43.2326 125.056 40.2276 124.783 36.4056ZM71.6741 69.6316C71.9331 67.4926 72.5741 65.4286 72.3261 63.4766C71.9781 60.7326 70.9721 58.0716 70.2331 55.3256C68.9561 55.5956 67.7161 55.8566 66.4951 56.1146C67.2451 61.5506 69.2291 66.7506 71.6741 69.6316ZM135.354 97.9226C136.952 100.4 138.261 102.43 139.794 104.807C141.369 104.056 143.073 103.243 144.815 102.412C142.99 99.4056 140.309 97.3056 136.612 95.8776C136.16 96.6126 135.686 97.3836 135.354 97.9226ZM58.4691 130.893C60.5391 130.25 62.1591 129.746 63.6391 129.287C63.4961 126.803 63.3571 124.678 63.2611 122.552C63.2291 121.829 63.5621 120.826 62.5561 120.731C61.9961 120.678 61.1821 121.245 60.7971 121.766C58.9531 124.255 58.2741 127.093 58.4691 130.893ZM85.0081 83.9716C84.7501 82.9426 84.7471 81.8506 83.5581 81.1846C79.5391 78.9336 75.2191 80.7276 73.9671 85.1206C77.5051 84.7516 81.0861 84.3796 85.0081 83.9716ZM75.4051 121.703C72.1021 121.703 69.2411 121.703 66.4721 121.703C65.5151 124.485 65.5391 124.876 66.8211 127.705C70.5261 127.03 72.8941 124.546 75.4051 121.703ZM97.2741 118.467C98.9261 115.04 100.354 112.072 100.54 108.477C99.4761 108.477 98.6741 108.477 98.1091 108.477C96.7501 111.114 95.4781 113.584 94.0771 116.303C94.9561 116.897 95.9231 117.552 97.2741 118.467ZM84.8431 112.679C83.1801 113.186 81.6901 113.239 80.8081 113.998C79.2941 115.301 78.1581 117.046 76.7911 118.692C77.7061 119.087 78.4881 119.393 79.2441 119.757C80.6431 120.431 81.7371 120.171 82.6521 118.873C83.8511 117.172 84.7981 115.407 84.8431 112.679ZM30.8951 60.8946C29.6351 60.4856 28.5691 60.1566 27.5161 59.7916C26.5181 59.4456 25.5331 59.0606 24.3791 58.6326C25.3921 62.5816 28.3601 66.5896 30.8951 67.4966C30.8951 65.3276 30.8951 63.2096 30.8951 60.8946ZM84.3511 9.28664C85.5051 12.2736 86.4421 14.6946 87.5101 17.4586C88.0931 17.5026 89.0701 17.5766 90.2441 17.6666C89.9051 13.7546 88.9571 10.4356 86.3031 7.44964C85.4811 8.22364 84.8201 8.84564 84.3511 9.28664ZM88.6361 112.143C87.4121 112.253 86.2771 112.239 86.0751 113.581C85.6971 116.085 84.6461 118.289 82.9411 120.477C86.7931 120.753 88.3991 117.935 90.7261 116.098C90.0261 114.773 89.3811 113.553 88.6361 112.143ZM107.913 88.4216C106.232 88.1996 105.043 87.9546 103.849 87.9206C103.185 87.9016 102.35 88.0436 101.87 88.4456C100.105 89.9206 98.0991 90.4316 95.8671 90.3816C95.0951 90.3646 94.3211 90.4506 93.5481 90.4896C93.9251 91.0276 94.3251 91.2446 94.7401 91.2776C97.2501 91.4766 99.7621 91.7116 102.277 91.7816C104.603 91.8456 106.343 90.7016 107.913 88.4216ZM127.343 104.496C129.98 108.049 132.89 110.604 137.206 111.322C137.065 108.339 137.028 108.058 135.569 107.683C132.821 106.976 130.627 105.478 128.762 103.207C128.272 103.652 127.883 104.005 127.343 104.496ZM73.0201 62.0176C77.0151 60.1526 76.4611 57.2116 75.9741 54.1566C75.4031 54.1036 74.9471 53.9986 74.5021 54.0296C72.1791 54.1916 71.7441 54.6526 72.0351 57.0256C72.2351 58.6626 72.6661 60.2706 73.0201 62.0176ZM103.853 86.3556C105.633 86.5916 107.153 87.5066 108.863 86.8326C109.302 85.1286 109.966 83.5536 109.225 81.8776C104.768 82.6706 104.373 82.9836 103.853 86.3556ZM59.1021 53.6556C57.1471 51.7346 55.4811 49.9366 52.7091 49.1646C52.7351 52.0036 53.6781 54.0886 55.5431 56.0326C56.7161 55.2486 57.8301 54.5046 59.1021 53.6556ZM96.1221 107.843C93.3241 107.727 92.2691 109.67 90.7081 110.952C91.2831 112.509 91.8231 113.933 93.2791 115.019C94.6401 112.718 95.7891 110.634 96.1221 107.843ZM101.656 81.3966C100.368 78.0396 98.7701 77.5936 95.5821 79.5206C95.8491 80.5336 96.1281 81.5946 96.5001 83.0086C98.3111 82.4426 99.8881 81.9496 101.656 81.3966ZM86.4241 79.7216C87.8001 80.1516 88.9381 80.5066 90.1581 80.8886C91.0321 79.8576 91.8641 78.8766 92.8331 77.7326C92.3031 76.9486 91.8231 76.2396 91.1731 75.2776C89.8031 77.2076 87.0511 76.9286 86.4241 79.7216ZM153.013 37.2206C151.849 38.1136 151.002 38.8236 150.094 39.4426C149.18 40.0656 148.204 40.5986 147.1 41.2636C151.735 43.2306 153.206 42.2366 153.013 37.2206ZM137.292 104.633C136.938 102.45 135.749 101.044 134.024 99.7676C133.109 100.508 132.289 101.171 131.347 101.933C133.182 103.515 134.727 104.984 137.292 104.633ZM91.7811 73.7006C92.8851 75.0716 93.6341 76.0016 94.3531 76.8946C95.6161 76.8616 96.2441 76.2936 95.9641 75.1346C95.6251 73.7286 95.1301 72.3596 94.5001 70.3216C93.3401 71.7636 92.5871 72.6986 91.7811 73.7006ZM117.663 40.4826C117.434 40.3896 117.205 40.2976 116.976 40.2046C115.62 41.1386 114.475 42.2616 113.758 44.2016C114.89 44.6506 115.928 45.0626 117.392 45.6446C117.501 43.5846 117.582 42.0336 117.663 40.4826ZM89.0811 86.6466C89.1671 84.9946 89.2281 83.8346 89.2921 82.5916C88.3391 82.0636 87.4821 81.5896 86.2151 80.8876C86.5831 83.2716 87.2001 84.9696 89.0811 86.6466ZM77.7931 54.2376C77.7931 55.7206 77.7931 56.6566 77.7931 58.0846C79.0141 57.2376 79.8491 56.6576 81.0391 55.8306C79.8071 55.2256 79.0221 54.8406 77.7931 54.2376Z" fill="#FF6FCB"/>
<path d="M382.034 96.044C381.844 96.19 381.645 96.408 381.398 96.525C372.148 100.88 362.818 102.152 353.524 96.798C351.271 95.5 349.226 93.734 347.352 91.91C344.562 89.194 342.394 85.204 342.839 79.661C350.9 76.045 359.041 75.105 367.113 79.771C373.472 83.447 378.11 88.872 381.849 95.11C381.98 95.33 381.959 95.642 382.034 96.044ZM356.395 85.39C360.331 88.3 367.36 88.325 371.545 85.626C369.026 82.739 367.907 82.092 365.1 82.751C362.212 83.43 359.406 84.461 356.395 85.39ZM349.449 84.808C350.052 85.898 350.3 86.511 350.687 87.016C352.345 89.18 353.918 91.368 354.586 94.092C354.726 94.663 355.225 95.301 355.738 95.596C357.585 96.658 359.51 97.582 362.026 97.731C361.506 96.943 361.186 96.396 360.807 95.893C359.004 93.504 357.089 91.193 355.401 88.726C354.054 86.759 352.268 85.632 349.449 84.808ZM350.602 82.623C350.583 82.81 350.565 82.996 350.546 83.183C351.85 83.63 353.273 84.657 354.434 84.416C358.012 83.676 361.489 82.451 365.006 81.415C363.055 80.102 361.309 78.89 359.086 79.673C356.262 80.669 353.43 81.641 350.602 82.623ZM357.745 88.267C357.556 88.455 357.367 88.643 357.178 88.831C357.739 89.781 358.207 90.803 358.879 91.665C360.21 93.37 361.799 94.887 363.011 96.667C364.24 98.472 365.7 98.578 367.71 98.125C365.789 95.717 364.049 93.529 362.3 91.349C362.006 90.982 361.727 90.556 361.342 90.318C360.169 89.592 358.948 88.945 357.745 88.267ZM344.946 82.395C345.062 86.781 348.204 91.292 352.579 93.238C351.919 91.989 351.426 91.015 350.895 90.062C349.979 88.418 348.847 86.863 348.169 85.128C347.576 83.609 346.586 82.901 344.946 82.395ZM364.69 89.133C368.191 91.84 371.908 90.621 375.692 90.201C374.243 87.184 373.539 86.826 370.936 87.524C368.893 88.072 366.84 88.581 364.69 89.133ZM364.396 91.316C365.022 93.661 366.93 94.737 368.118 96.352C369.458 98.174 370.891 98.605 372.967 97.451C370.508 94.95 368.637 91.778 364.396 91.316ZM346.103 80.894C347.101 81.207 347.787 81.66 348.392 81.571C351.306 81.141 354.201 80.574 357.128 78.971C354.044 78.682 349.489 79.473 346.103 80.894ZM370.85 93.475C374.599 98.052 375.348 97.957 378.991 95.636C376.384 94.944 373.89 94.282 370.85 93.475ZM379.174 94.23C377.635 89.769 374.755 91.851 372.272 92.305C374.468 92.917 376.664 93.53 379.174 94.23Z" fill="#FF6FCB"/>
<path d="M737.148 360.816C742.845 362.988 749.028 372.088 750.921 380.439C752.82 388.818 751.669 396.54 745.61 403.607C744.101 404.028 742.296 403.539 740.583 402.36C735.813 399.078 733.16 394.473 732 388.888C731.161 384.85 731.07 380.775 732.147 376.83C733.602 371.499 735.426 366.268 737.148 360.816ZM734.589 377.175C734.37 377.289 734.152 377.403 733.933 377.516C733.76 378.63 733.595 379.745 733.411 380.857C732.982 383.452 733.602 385.747 735.518 387.57C738.152 390.076 740.859 392.506 744.044 395.438C743.967 391.871 744.245 389.053 742.019 386.617C740.632 385.099 739.635 383.232 738.364 381.599C737.175 380.072 735.853 378.646 734.589 377.175ZM743.98 401.494C744.594 399.487 744.398 397.981 743.227 396.684C742.094 395.43 740.934 394.197 739.719 393.024C738.841 392.175 737.839 391.456 736.922 390.647C736.015 389.846 735.144 389.003 733.795 387.75C735.33 394.256 737.977 399 743.98 401.494ZM742.783 385.298C743.097 378.802 740.004 374.169 736.151 369.482C735.63 371.021 735.219 372.347 734.73 373.644C734.301 374.78 734.696 375.525 735.49 376.39C737.327 378.392 739.013 380.533 740.741 382.633C741.389 383.419 741.983 384.25 742.783 385.298ZM747.955 377.345C745.443 385.494 745.258 387.68 746.666 391.624C750.42 385.494 750.562 384.131 747.955 377.345ZM744.309 370.304C743.342 374.099 743.689 378.8 745.16 381.597C746.556 377.668 748.253 373.812 744.309 370.304ZM746.977 398.79C748.975 395.783 749.776 393.083 749.523 390.05C747.999 392.521 746.579 395.026 746.977 398.79ZM738.233 364.625C738.051 364.608 737.869 364.591 737.687 364.574C737.458 365.691 736.764 366.981 737.102 367.886C737.698 369.482 738.924 370.842 739.886 372.301C740.038 372.226 740.19 372.151 740.341 372.076C739.638 369.592 738.936 367.109 738.233 364.625ZM740.108 365.257C740.735 367.178 741.363 369.098 742.102 371.36C743.778 368.314 742.266 366.681 740.108 365.257Z" fill="#FF6FCB"/>
<path d="M187.781 103.681C185.861 102.779 184.135 102.041 182.478 101.173C179.187 99.4474 176.797 96.8864 175.445 93.3784C173.819 89.1594 173.339 84.7874 173.714 80.3214C174.153 75.1044 175.616 70.1454 177.838 65.4184C178.876 63.2094 179.714 63.0854 181.286 64.9944C183.44 67.6114 185.508 70.3034 187.52 73.0324C191.928 79.0134 192.987 85.6914 191.611 92.8984C190.899 96.6244 189.815 100.184 187.781 103.681ZM185.985 95.5064C184.905 89.3994 181.665 86.2484 175.344 85.0864C175.592 86.6594 175.85 88.1144 176.046 89.5794C176.241 91.0374 177.028 91.9844 178.373 92.5124C180.807 93.4684 183.239 94.4264 185.985 95.5064ZM183.902 87.0854C183.719 85.7454 183.456 84.5654 182.492 83.5244C181.156 82.0824 179.98 80.4944 178.671 79.0274C177.981 78.2544 177.154 77.6034 175.918 76.4624C175.697 78.6544 175.552 80.1254 175.398 81.5954C175.26 82.9214 175.916 83.7054 177.088 84.1934C179.298 85.1134 181.498 86.0634 183.902 87.0854ZM185.962 86.7904C186.021 86.7704 186.157 86.7684 186.193 86.7074C186.903 85.4964 187.627 84.2934 188.295 83.0604C189.951 80.0054 189.649 78.4184 186.962 75.8084C184.815 79.3034 183.38 82.8654 185.962 86.7904ZM186.269 100.878C186.495 100.748 186.72 100.618 186.946 100.488C186.574 99.4154 186.519 97.9464 185.769 97.3424C183.537 95.5474 180.892 94.4444 177.585 93.8844C179.647 97.7824 182.622 99.7554 186.269 100.878ZM183.515 79.5134C187.149 73.8114 186.435 73.3224 183.691 71.1344C181 73.8504 182.329 76.6044 183.515 79.5134ZM190.115 83.1794C187.008 86.5214 186.148 89.7064 187.638 92.7164C189.19 89.6554 192.047 87.0854 190.115 83.1794ZM181.888 80.7294C180.78 75.2664 180.456 74.6344 177.282 71.7284C176.961 72.9664 176.664 74.1154 176.434 75.0004C178.328 76.9904 179.989 78.7344 181.888 80.7294ZM190.81 90.5874C188.225 93.6264 187.593 96.6214 189.002 99.0234C189.608 96.1944 190.147 93.6814 190.81 90.5874ZM180.186 67.2724C180.547 68.7474 180.908 70.2224 181.312 71.8744C183.208 69.5414 183.208 69.5414 180.186 67.2724ZM179.025 67.8044C177.51 69.9854 178.515 71.0174 179.802 71.9984C179.581 70.8074 179.361 69.6174 179.025 67.8044Z" fill="#FF6FCB"/>
<path d="M376.395 17.6123C376.224 19.7263 376.139 21.6013 375.907 23.4583C375.446 27.1463 373.886 30.2823 371.076 32.7793C367.696 35.7833 363.771 37.7663 359.457 38.9823C354.418 40.4023 349.26 40.7723 344.054 40.3513C341.621 40.1543 341.211 39.4133 342.447 37.2713C344.141 34.3353 345.937 31.4543 347.786 28.6133C351.839 22.3863 357.721 19.0513 364.953 17.8113C368.694 17.1693 372.407 16.9353 376.395 17.6123ZM369.371 22.1633C364.031 25.3173 362.218 29.4573 363.348 35.7843C364.733 34.9993 366.006 34.2473 367.309 33.5503C368.606 32.8563 369.217 31.7873 369.239 30.3423C369.279 27.7273 369.323 25.1133 369.371 22.1633ZM362.217 27.0683C361.026 27.7103 360.014 28.3713 359.377 29.6393C358.496 31.3963 357.421 33.0543 356.506 34.7963C356.024 35.7133 355.705 36.7163 355.07 38.2743C357.2 37.7123 358.628 37.3313 360.059 36.9593C361.349 36.6233 361.853 35.7333 361.899 34.4643C361.985 32.0713 362.103 29.6783 362.217 27.0683ZM361.217 25.2423C361.178 25.1933 361.128 25.0673 361.058 25.0553C359.675 24.8153 358.295 24.5603 356.905 24.3663C353.463 23.8873 352.083 24.7273 350.582 28.1593C354.609 28.9443 358.448 29.0383 361.217 25.2423ZM374.302 20.0123C374.101 19.8463 373.9 19.6813 373.699 19.5153C372.825 20.2413 371.469 20.8073 371.167 21.7213C370.269 24.4413 370.165 27.3053 370.801 30.5983C373.726 27.2993 374.53 23.8213 374.302 20.0123ZM355.262 30.0883C348.647 28.6863 348.44 29.5263 347.354 32.8643C350.842 34.4313 352.954 32.2193 355.262 30.0883ZM356.378 22.6213C360.598 24.3583 363.882 24.0463 366.178 21.5933C362.767 21.2143 359.358 19.4413 356.378 22.6213ZM356.971 31.1843C352.244 34.1383 351.766 34.6633 350.159 38.6563C351.43 38.5223 352.611 38.3973 353.521 38.3013C354.719 35.8303 355.77 33.6633 356.971 31.1843ZM363.071 19.3713C366.824 20.7253 369.85 20.2653 371.605 18.1043C368.744 18.5283 366.201 18.9063 363.071 19.3713ZM344.968 37.5013C346.222 36.6453 347.477 35.7903 348.882 34.8313C346.031 33.8753 346.031 33.8753 344.968 37.5013ZM345.873 38.4023C348.447 39.0553 349.061 37.7523 349.527 36.2033C348.49 36.8273 347.453 37.4513 345.873 38.4023Z" fill="#FF6FCB"/>
<path d="M254.265 77.2478C254.265 78.2968 254.25 79.2778 254.268 80.2578C254.314 82.8018 254.467 85.3488 254.396 87.8888C254.349 89.5738 254.253 91.3388 253.724 92.9138C251.836 98.5338 249.866 104.133 247.67 109.638C247.08 111.118 245.729 112.414 244.464 113.482C241.225 116.218 237.82 118.757 234.514 121.417C230.998 124.246 227.096 126.191 222.64 127.075C219.726 127.653 217 127.329 214.438 125.882C211.976 124.492 209.525 123.071 207.15 121.538C204.681 119.944 204.11 118.317 204.948 115.477C205.319 114.222 205.868 113.001 206.471 111.835C210.823 103.417 216.086 95.6308 222.471 88.5998C227.162 83.4338 231.738 78.1618 236.356 72.9288C236.524 72.7378 236.596 72.4618 236.689 72.2728C229.43 70.5508 222.251 68.7598 215.029 67.1698C211.263 66.3408 207.405 65.9378 203.614 65.2068C199.323 64.3788 195.598 62.3748 192.719 59.0688C190.121 56.0858 187.619 53.0068 185.254 49.8368C183.645 47.6798 183.973 46.2968 186.318 44.9548C192.682 41.3098 199.388 38.6838 206.845 38.3658C210.289 38.2188 213.608 38.6408 216.842 39.8398C219.569 40.8508 222.319 41.7988 225.233 42.6008C223.492 40.2358 221.329 38.2608 219.244 36.2248C217.085 34.1168 214.911 32.0178 212.652 30.0188C210.394 28.0208 208.087 26.0658 205.682 24.2498C203.201 22.3758 200.607 20.6448 198.005 18.9398C195.482 17.2868 192.933 15.6608 190.308 14.1788C187.684 12.6968 184.978 11.3508 182.258 10.0498C179.539 8.74978 176.786 7.51178 173.995 6.37278C171.263 5.25778 168.418 4.41178 165.478 2.99378C166.574 2.00478 167.389 2.30578 168.16 2.52178C171.334 3.41078 174.582 4.11078 177.658 5.26478C193.025 11.0298 206.835 19.3588 218.7 30.7608C222.768 34.6698 226.663 38.7598 230.853 42.9838C230.741 42.2448 230.669 41.6778 230.569 41.1158C229.876 37.2188 229.277 33.3008 228.452 29.4318C227.647 25.6568 226.465 21.9608 225.708 18.1788C224.867 13.9738 225.122 9.72178 225.956 5.52578C226.623 2.17278 228.345 0.956781 231.635 1.79478C234.272 2.46678 236.83 3.47078 239.388 4.42278C242.126 5.44178 244.811 6.60078 247.539 7.64678C249.51 8.40278 251.05 9.66278 251.586 11.6978C253.817 20.1628 257.328 28.2768 258.567 37.0128C258.723 38.1128 258.806 39.2228 259.321 40.4048C259.677 38.9828 260.046 37.5628 260.386 36.1378C261.151 32.9308 261.84 29.7048 262.671 26.5148C263.859 21.9568 266.156 17.9248 269.268 14.4608C270.801 12.7548 272.798 11.3368 274.83 10.2428C277.051 9.04678 279.538 8.32778 281.939 7.48778C284.161 6.70978 286.235 7.00678 287.942 8.74778C289.922 10.7678 291.892 12.7988 293.817 14.8708C295.339 16.5098 295.866 18.4378 295.206 20.6288C294.988 21.3498 294.864 22.1108 294.56 22.7928C290.573 31.7478 286.882 40.8828 279.6 47.8758C279.484 47.9868 279.476 48.2118 279.291 48.7568C284.967 47.3998 290.461 46.1698 295.908 44.7548C299.747 43.7578 303.532 42.6898 307.569 42.8198C311.17 42.9358 314.454 43.8668 317.37 45.9748C319.815 47.7428 322.241 49.5388 324.618 51.3978C326.625 52.9668 326.954 54.5488 325.859 56.8728C325.5 57.6358 325.106 58.4298 324.546 59.0428C321.307 62.5848 318.221 66.3038 314.686 69.5278C310.012 73.7908 304.394 74.8638 298.086 73.8298C291.506 72.7508 284.82 72.3168 278.086 72.0598C279.854 73.3438 281.62 74.6308 283.391 75.9108C284.98 77.0588 286.723 77.5088 288.71 77.4038C290.963 77.2838 293.236 77.3348 295.49 77.4728C298.219 77.6388 300.62 78.6718 302.502 80.7198C305.372 83.8448 308.266 86.9488 311.061 90.1408C312.171 91.4088 313.147 92.8248 314.002 94.2798C315.4 96.6598 315.756 99.1468 314.767 101.872C314.168 103.522 314.048 105.351 313.756 107.107C313.633 107.848 313.656 108.613 313.552 109.359C313.015 113.214 311.484 114.806 307.698 115.558C302.673 116.556 297.681 116.179 292.902 114.561C289.452 113.393 286.161 111.685 282.928 109.973C280.69 108.788 278.679 107.176 276.555 105.771C266.386 99.0438 259.085 90.0858 255.234 78.4328C255.117 78.0788 254.925 77.7478 254.749 77.4168C254.72 77.3598 254.588 77.3558 254.265 77.2478ZM269.67 43.5698C268.501 44.2528 268.062 45.3488 267.939 46.6248C266.683 48.8818 265.427 51.1378 264.172 53.3948C265.491 52.5878 266.555 51.5688 267.442 50.4148C270.484 46.4558 273.487 42.4668 276.454 38.4508C277.347 37.2428 278.05 35.8958 278.884 34.6418C280.341 32.4528 281.853 30.2998 283.305 28.1068C285.798 24.3418 288.274 20.5648 290.733 16.7778C291.254 15.9748 290.967 15.4218 290.348 15.1948C286.779 20.1508 283.378 24.9878 279.851 29.7308C277.384 33.0488 274.743 36.2378 272.18 39.4838C272.638 38.5708 272.979 37.5738 273.572 36.7588C277.112 31.8898 280.77 27.1058 284.258 22.2008C285.777 20.0648 287.072 17.7538 288.309 15.4368C289.191 13.7858 289.047 13.6498 287.406 12.5448C285.809 14.9638 284.523 17.6768 282.558 19.7448C276.632 25.9808 273.615 33.8058 270.097 41.3788C269.942 42.1328 269.788 42.8858 269.633 43.6398L269.67 43.5698ZM261.583 42.3248C261.999 41.5998 262.52 40.9148 262.812 40.1428C264.442 35.8358 266.186 31.5608 267.563 27.1728C269.092 22.3008 271.487 18.0418 275.136 14.4788C275.641 13.9858 276.089 13.4358 276.563 12.9128C274.244 13.2428 272.599 14.5148 271.236 16.2058C268.495 19.6088 266.228 23.2888 265.142 27.5568C263.891 32.4738 262.789 37.4288 261.625 42.3698C259.5 46.5948 257.085 50.7128 256.729 55.5878C258.617 51.2638 261.18 47.1868 261.583 42.3248ZM210.708 119.938C211.32 118.599 211.768 117.151 212.571 115.938C216.984 109.271 221.663 102.788 225.556 95.7718C227.043 93.0908 229.142 90.6998 231.208 88.3988C236.36 82.6618 241.654 77.0528 246.886 71.3878C247.054 71.2058 247.169 70.9748 247.441 70.5698C246.973 70.7278 246.694 70.7548 246.501 70.8978C241.062 74.9408 235.717 79.0418 231.367 84.3668C223.424 94.0928 216.46 104.46 210.274 115.366C209.675 116.423 209.164 117.551 208.789 118.703C208.659 119.102 208.931 119.902 209.269 120.106C209.599 120.305 210.247 119.976 210.755 119.879C210.632 121.865 212.326 121.868 213.368 122.554C220.827 115.694 239.625 86.1758 241.276 78.7638C237.407 83.1178 233.55 87.3598 229.816 91.7088C228.414 93.3418 227.098 95.1148 226.085 97.0068C222.428 103.839 217.773 110.004 213.409 116.365C212.568 117.594 211.613 118.748 210.708 119.938ZM214.755 123.222C218.723 124.985 220.372 124.81 222.814 121.996C227.441 116.665 232.099 111.339 235.83 105.312C238.766 100.57 241.199 95.5578 242.559 90.1378C243.784 85.2508 244.671 80.2798 245.707 75.3448C244.226 77.2248 242.97 79.2818 241.807 81.3898C240.899 83.0358 240.192 84.7948 239.246 86.4168C236.303 91.4558 233.403 96.5258 230.269 101.446C227.136 106.363 223.795 111.152 220.44 115.922C218.713 118.376 216.755 120.668 214.755 123.222ZM260.773 73.4928C261.378 74.2048 261.949 74.8988 262.541 75.5728C267.784 81.5378 274.428 85.6898 281.132 89.7188C284.184 91.5528 287.421 93.1328 290.707 94.5088C293.27 95.5818 295.592 96.8158 297.543 98.8438C300.987 102.423 305.569 104.004 310.106 105.604C310.603 105.779 311.192 105.692 311.689 105.723C313.131 102.341 313.037 101.732 310.395 99.9868C309.399 99.3288 308.179 99.0138 307.073 98.5168C305.456 97.7888 303.816 97.0988 302.245 96.2798C299.749 94.9788 297.319 93.5528 294.83 92.2398C291.669 90.5728 288.177 89.3678 285.356 87.2568C277.832 81.6288 268.962 78.4088 261.196 73.2588C261.163 73.2358 261.049 73.3358 260.773 73.4928ZM312.953 100.499C313.194 100.404 313.435 100.309 313.675 100.214C313.419 99.4018 313.317 98.4918 312.879 97.7938C311.056 94.8898 308.741 92.4758 305.813 90.5958C303.287 88.9748 300.877 87.1528 298.538 85.2678C296.635 83.7338 294.62 82.6968 292.143 82.6438C288.373 82.5628 284.82 81.5248 281.729 79.4538C277.334 76.5098 272.691 74.5678 267.369 74.0998C265.672 73.9508 264.054 72.9078 262.4 72.2738C262.315 72.4508 262.231 72.6288 262.147 72.8058C265.102 74.4218 267.97 76.2338 271.034 77.6058C275.448 79.5818 279.594 81.9618 283.507 84.7748C287.124 87.3748 291.069 89.3338 295.143 91.1188C297.883 92.3188 300.426 93.9648 303.068 95.3898C304.14 95.9678 305.19 96.7558 306.342 96.9818C308.928 97.4898 311.126 98.5898 312.953 100.499ZM247.574 75.8698C247.402 75.8068 247.229 75.7448 247.057 75.6828C246.467 78.0308 245.641 80.3478 245.332 82.7328C244.435 89.6528 242.365 96.1578 238.868 102.182C237.262 104.949 235.583 107.699 233.668 110.255C230.031 115.111 226.2 119.822 222.402 124.654C225.212 124.265 227.696 123.173 229.8 121.381C233.104 118.568 236.371 115.66 238.578 111.861C241.131 107.465 243.626 103.025 245.896 98.4788C248.252 93.7628 249.414 88.7558 248.541 83.4128C248.132 80.9128 247.891 78.3848 247.574 75.8698ZM245.902 62.9238C245.204 62.7028 244.514 62.4468 243.806 62.2648C237.885 60.7438 231.966 59.2108 226.034 57.7318C221.745 56.6628 217.338 55.9678 213.16 54.5778C205.913 52.1668 198.627 49.9698 191.131 48.4938C190.58 48.3858 190.015 48.3468 189.457 48.2748C191.553 50.1008 193.79 51.4838 195.902 53.0368C199.922 55.9928 204.353 57.9568 209.25 58.8598C214.432 59.8148 219.692 60.4478 224.794 61.7168C231.751 63.4468 238.743 63.6708 245.902 62.9238ZM233.909 5.82678C233.769 5.97678 233.629 6.12678 233.489 6.27678C234.031 7.03178 234.604 7.76678 235.11 8.54478C239.348 15.0588 243.038 21.8458 243.867 29.7218C244.348 34.2928 245.751 38.4998 247.476 42.7038C248.863 46.0828 249.844 49.6298 250.973 53.1128C251.54 54.8618 252.038 56.6338 252.566 58.3948C253.256 54.6918 253.53 51.0688 253.623 47.4418C253.696 44.5948 253.054 41.8698 251.965 39.2058C250.686 36.0778 249.588 32.8718 248.515 29.6648C247.202 25.7418 246.089 21.7508 244.722 17.8478C242.792 12.3348 238.462 8.95878 233.909 5.82678ZM323.98 54.5258C321.829 54.5258 319.669 54.3338 317.554 54.5618C311.154 55.2508 304.76 55.2308 298.366 54.6538C292.263 54.1028 286.367 54.8508 280.571 56.8628C276.579 58.2478 272.499 59.3858 268.431 60.5388C265.462 61.3798 261.501 63.7678 259.605 66.1248C260.176 66.0388 260.645 66.0208 261.084 65.8938C265.774 64.5328 270.461 63.1618 275.145 61.7798C279.572 60.4728 283.981 59.1488 288.68 59.1728C291.217 59.1858 293.754 58.9098 296.293 58.7818C300.988 58.5448 305.696 58.4578 310.376 58.0488C314.398 57.6968 318.389 56.9948 322.39 56.4188C323.397 56.2728 324.199 55.8548 323.98 54.5258ZM258.817 76.3528C258.7 76.4228 258.584 76.4928 258.467 76.5628C258.599 76.8628 258.717 77.1688 258.864 77.4608C261.828 83.3348 265.718 88.5308 270.812 92.6838C276.422 97.2578 282.18 101.661 288.021 105.936C289.877 107.295 292.188 108.05 294.326 109.002C296.289 109.876 298.378 110.494 300.272 111.49C303.358 113.112 306.53 113.367 309.858 112.651C310.649 112.481 311.277 112.158 311.134 111.054C310.617 110.946 310.079 110.797 309.531 110.726C303.91 109.99 298.83 107.897 294.179 104.69C293.173 103.997 292.159 103.271 291.051 102.779C286.513 100.763 282.738 97.6678 278.951 94.5488C276.049 92.1588 273.07 89.8518 270.01 87.6688C266.453 85.1308 263.239 82.2808 260.68 78.7198C260.095 77.9048 259.44 77.1408 258.817 76.3528ZM259.433 74.0198C262.001 78.7198 265.243 82.7528 269.541 85.9278C273.627 88.9458 277.533 92.2038 281.574 95.2838C283.89 97.0488 286.259 98.7608 288.712 100.328C291.165 101.895 293.774 103.217 296.276 104.711C300.78 107.401 305.531 109.331 310.836 109.627C311.097 109.642 311.366 109.506 311.735 109.415C311.735 108.705 311.735 108.024 311.735 107.403C305.402 105.6 299.7 103.118 295.128 98.4258C294.063 97.3328 292.47 96.6768 291.021 96.0488C279.842 91.2078 269.694 84.8718 261.342 75.8788C260.74 75.2288 260.072 74.6378 259.433 74.0198ZM258.092 79.3318C258.014 79.3508 257.937 79.3698 257.859 79.3888C258.133 80.1498 258.37 80.9268 258.687 81.6698C261.886 89.1728 266.649 95.5658 272.975 100.656C276.926 103.834 281.226 106.589 285.453 109.41C289.185 111.901 293.386 113.287 297.792 114.034C299.556 114.333 301.34 114.345 303.12 114.085C300.478 112.665 297.909 111.214 295.153 110.386C291.087 109.165 287.591 107.144 284.377 104.432C282.082 102.495 279.605 100.771 277.181 98.9908C272.546 95.5868 267.936 92.1428 264.31 87.6168C262.152 84.9228 260.159 82.0978 258.092 79.3318ZM317.214 63.8038C312.571 63.3438 308.184 62.8808 303.792 62.4928C302.677 62.3948 301.538 62.4918 300.415 62.5758C295.068 62.9758 289.708 63.8698 284.381 63.6978C278.075 63.4938 272.858 66.5908 266.551 67.9658C271.232 69.4248 275.132 68.7448 278.88 66.9148C280.551 66.0988 282.26 65.8198 284.083 66.0068C288.761 66.4878 293.444 66.9258 298.118 67.4418C303.118 67.9938 308.054 67.8098 312.993 66.7578C314.91 66.3488 316.205 65.4488 317.214 63.8038ZM232.302 6.76678C232.153 6.88478 232.003 7.00178 231.853 7.11978C232.688 9.00578 233.592 10.8648 234.34 12.7848C235.498 15.7598 236.841 18.7058 237.582 21.7898C238.879 27.1808 240.058 32.6318 240.77 38.1238C241.583 44.3878 243.707 49.9458 247.739 54.7938C248.841 56.1188 249.874 57.5008 251.135 59.1048C251.255 58.4278 251.357 58.2258 251.31 58.0698C249.592 52.4038 248.198 46.6488 245.656 41.2328C244.356 38.4618 243.235 35.3848 243.011 32.3728C242.327 23.1798 238.458 15.3858 233.342 8.02578C233.033 7.58078 232.651 7.18578 232.302 6.76678ZM237.453 57.3388C237.526 57.1898 237.599 57.0398 237.672 56.8898C233.997 54.4408 230.425 51.8188 226.625 49.5808C220.324 45.8698 213.32 44.1378 206.102 44.2888C201.118 44.3928 196.159 45.6958 191.189 46.4618C191.683 47.0588 192.183 47.3018 192.704 47.3678C199.047 48.1628 205.378 49.0988 211.741 49.6648C219.127 50.3228 226.273 51.6528 232.865 55.2468C234.337 56.0508 235.921 56.6478 237.453 57.3388ZM258.28 59.0928C258.485 59.1768 258.691 59.2598 258.896 59.3438C259.382 58.5578 259.924 57.8008 260.344 56.9808C264.546 48.7708 268.801 40.5878 272.887 32.3198C275.198 27.6438 277.867 23.2928 281.465 19.4608C283.24 17.5718 284.593 15.2378 285.892 12.9658C286.918 11.1698 286.733 11.0328 284.219 9.80378C282.49 11.8998 280.863 14.2208 278.889 16.1938C274.758 20.3228 272.387 25.3238 270.743 30.8278C269.941 33.5148 268.946 36.2258 267.535 38.6318C265.141 42.7148 263.191 46.9668 261.483 51.3598C260.472 53.9588 259.351 56.5158 258.28 59.0928ZM190.514 45.3648C190.583 45.5478 190.653 45.7308 190.723 45.9138C192.752 45.5808 194.783 45.2558 196.811 44.9148C201.169 44.1808 205.486 43.0838 209.974 43.6578C218.442 44.7408 226.24 47.4408 233.152 52.6278C236.078 54.8228 239.323 56.5978 242.465 58.4948C243.386 59.0508 244.451 59.3688 245.45 59.7948C244.875 58.9088 244.091 58.4298 243.343 57.8988C240.888 56.1558 238.202 54.6498 236.049 52.5888C231.008 47.7638 225.026 44.9098 218.494 42.7158C212.961 40.8578 207.498 40.3838 201.812 41.4068C197.816 42.1248 194.047 43.4108 190.514 45.3648ZM268.018 58.5128C268.121 58.8308 268.225 59.1488 268.328 59.4668C271.803 58.3728 275.339 57.4398 278.74 56.1498C284.644 53.9118 290.697 52.6648 296.985 53.2858C304.508 54.0278 312.022 53.9288 319.549 53.6008C320.415 53.5628 321.277 53.4258 322.658 53.2808C321.884 52.7678 321.674 52.5678 321.425 52.4728C315.982 50.3958 310.403 49.3458 304.557 50.1688C302.135 50.5098 299.703 50.8108 297.267 51.0138C290.216 51.6008 283.212 52.4438 276.538 54.9468C273.656 56.0268 270.855 57.3178 268.018 58.5128ZM237.469 115.773C239.051 114.607 240.595 113.385 242.224 112.289C244.441 110.797 245.783 108.776 246.533 106.222C247.326 103.519 248.055 100.741 249.302 98.2398C251.831 93.1678 252.34 87.8678 252.18 82.3248C252.072 78.5848 252.496 74.8298 252.664 71.0798C252.703 70.2088 252.67 69.3348 252.67 67.8448C250.357 69.7328 249.446 71.6968 249.328 73.8408C249.18 76.5448 249.23 79.3038 249.604 81.9818C250.24 86.5418 250.231 90.9718 248.455 95.2988C245.515 102.461 241.908 109.254 237.469 115.773ZM249.514 59.1618C249.628 59.1028 249.742 59.0448 249.857 58.9868C248.315 56.9878 246.682 55.0508 245.252 52.9748C243.389 50.2708 241.304 47.6548 240.714 44.2768C240.277 41.7718 239.919 39.2498 239.387 36.7658C238.087 30.6908 236.817 24.6058 235.31 18.5808C234.565 15.5988 232.974 12.9088 231.503 10.2008C231.579 12.7168 231.727 15.1708 232.187 17.5658C232.664 20.0508 233.249 22.5518 234.134 24.9148C235.6 28.8318 236.463 32.8388 236.966 36.9798C237.967 45.2248 241.169 52.3758 247.812 57.6978C248.395 58.1638 248.947 58.6718 249.514 59.1618ZM322.232 57.7978C316.075 59.2698 310.166 59.4388 304.23 59.3348C302.634 59.3068 301.033 59.5088 299.437 59.6318C296.06 59.8908 292.682 60.1378 289.309 60.4458C286.501 60.7018 283.647 60.7888 280.91 61.3928C276.319 62.4048 271.8 63.7468 267.264 64.9978C266.039 65.3358 264.863 65.8488 263.664 66.2808C264.319 66.7228 264.861 66.7688 265.405 66.7878C268.71 66.9038 271.685 65.6458 274.648 64.4498C277.485 63.3048 280.38 62.7638 283.44 62.6378C288.047 62.4488 292.654 62.0878 297.24 61.5998C300.624 61.2398 303.949 61.0218 307.359 61.5038C310.324 61.9228 313.359 61.8978 316.365 61.9598C319.063 62.0148 321.008 60.7768 322.232 57.7978ZM192.247 51.7238C192.154 51.7908 192.061 51.8588 191.968 51.9258C192.176 52.2418 192.326 52.6258 192.602 52.8618C194.676 54.6308 196.721 56.4398 198.881 58.0988C201.016 59.7378 203.462 60.6028 206.207 60.6888C209.982 60.8058 213.674 61.4238 217.272 62.6698C220.111 63.6528 223.001 64.5188 225.917 65.2378C229.656 66.1608 233.445 67.5288 237.212 67.5268C241.688 67.5248 246.164 66.2708 250.64 65.5588C250.628 65.3248 250.615 65.0918 250.602 64.8578C248.09 64.7628 245.577 64.6838 243.065 64.5688C238.656 64.3678 234.208 64.4408 229.85 63.8578C224.361 63.1228 218.964 61.7178 213.491 60.8298C206.409 59.6818 199.773 57.5818 194.14 52.9348C193.566 52.4618 192.881 52.1238 192.247 51.7238ZM309.6 92.1518C309.772 91.9548 309.943 91.7568 310.115 91.5598C306.939 88.1028 303.867 84.5408 300.528 81.2488C299.477 80.2128 297.76 79.5448 296.261 79.3408C293.677 78.9888 291.015 79.2508 288.406 79.0228C286.762 78.8788 285.079 78.4988 283.555 77.8768C282.372 77.3938 281.375 76.4168 280.357 75.5828C278.857 74.3548 277.193 73.5738 275.257 73.3578C271.948 72.9898 268.643 72.5978 265.336 72.2168C266.492 72.8658 267.728 73.3308 268.996 73.4498C273.096 73.8338 276.839 74.9348 280.305 77.3528C283.875 79.8428 287.846 81.5418 292.41 81.4858C294.821 81.4558 296.908 82.5568 298.834 84.0718C302.36 86.8458 306.005 89.4668 309.6 92.1518ZM203.485 49.7898C209.073 52.5178 237.066 60.2518 241.003 60.2038C238.013 58.8268 235.016 57.6798 232.248 56.1258C223.399 51.1588 213.608 50.7488 203.485 49.7898ZM311.895 68.5708C309.991 68.6928 308.612 68.7848 307.232 68.8688C300.802 69.2568 294.427 68.5858 288.104 67.5758C283.893 66.9028 279.899 66.7998 275.975 69.5388C277.455 69.6868 278.717 69.8888 279.984 69.9278C286.476 70.1258 292.968 70.1428 299.363 71.6358C301.15 72.0528 303.128 71.9218 304.982 71.7158C307.388 71.4488 309.658 70.6408 311.895 68.5708ZM189.788 51.8388C189.661 51.9538 189.535 52.0688 189.408 52.1828C190.594 53.5678 191.792 54.9418 192.962 56.3408C196.653 60.7538 201.428 63.0798 207.078 63.8198C210.434 64.2598 213.816 64.6418 217.109 65.3928C221.871 66.4778 226.558 67.8888 231.285 69.1328C235.563 70.2588 239.132 69.8928 241.715 68.2338C239.697 68.3008 237.366 68.8208 235.246 68.3638C229.005 67.0188 222.863 65.2258 216.652 63.7318C213.465 62.9648 210.235 62.1278 206.987 61.9288C203.439 61.7108 200.337 60.6958 197.588 58.5798C195.578 57.0328 193.707 55.3058 191.784 53.6478C191.104 53.0598 190.453 52.4418 189.788 51.8388ZM314.234 48.8818C313.878 48.6478 313.61 48.3638 313.288 48.2758C309.997 47.3688 306.667 46.7958 303.237 47.2758C301.09 47.5768 298.946 47.8948 296.801 48.2038C291.582 48.9568 286.305 49.4358 281.161 50.5368C275.413 51.7668 270.233 54.4228 265.828 58.4368C266.283 58.4098 266.647 58.2008 267.029 58.0298C270.633 56.4188 274.157 54.5818 277.864 53.2618C283.208 51.3588 288.784 50.4828 294.471 50.0888C300.932 49.6418 307.326 48.0428 313.866 49.0958C313.93 49.1068 314.012 49.0148 314.234 48.8818ZM207.042 118.709C207.173 118.697 207.304 118.685 207.435 118.673C210.99 112.593 214.295 106.348 218.169 100.479C222.065 94.5778 226.528 89.0508 230.743 83.3598C228.589 85.1078 226.782 87.1398 224.897 89.0968C217.963 96.2988 212.687 104.636 208.132 113.469C207.702 114.303 207.271 115.176 207.079 116.081C206.902 116.922 207.042 117.83 207.042 118.709ZM262.114 45.4798C262.298 45.5468 262.483 45.6138 262.667 45.6808C263.399 44.2768 264.036 42.8128 264.882 41.4808C267.228 37.7868 268.939 33.8278 270.057 29.6098C271.462 24.3078 273.952 19.6468 277.856 15.7308C279.11 14.4728 280.071 12.9238 281.166 11.5068C274.825 14.7248 271.062 19.9108 268.85 26.3868C267.055 31.6418 265.087 36.8378 263.212 42.0668C262.808 43.1898 262.478 44.3408 262.114 45.4798ZM240.412 9.06378C243.659 12.0548 245.587 15.7998 246.866 19.8948C249.719 29.0288 252.503 38.1848 255.195 46.9428C255.789 43.1228 255.455 40.7218 254.004 36.3998C252.179 30.9618 250.198 25.5468 248.856 19.9838C247.641 14.9498 245.275 11.1488 240.412 9.06378ZM241.972 8.45378C246.161 10.8078 248.801 13.9378 249.525 18.2698C250.89 26.4288 254.761 33.7738 256.877 41.6858C256.923 37.5948 256.165 33.6418 254.974 29.7598C253.65 25.4468 252.244 21.1578 251.008 16.8208C249.135 10.2518 249.184 10.2378 242.789 8.22978C242.721 8.20878 242.627 8.27078 241.972 8.45378ZM286.98 26.1628C286.824 26.0648 286.667 25.9668 286.511 25.8688C284.637 28.3888 282.531 30.7718 280.931 33.4548C276.289 41.2398 270.657 48.2518 264.684 55.0208C264.233 55.5318 263.81 56.0678 263.374 56.5918C265.917 55.0008 268.22 53.2258 270.457 51.3708C273.082 49.1938 275.265 46.6348 276.974 43.6608C279.877 38.6098 282.845 33.5958 285.77 28.5568C286.218 27.7838 286.579 26.9618 286.98 26.1628ZM276.737 46.7078C281.413 43.2798 284.161 38.4838 286.718 33.5358C292.387 22.5648 292.986 21.0378 292.48 18.4148C287.224 27.8618 281.981 37.2848 276.737 46.7078ZM235.324 47.2318C234.665 43.9428 233.97 41.2178 233.597 38.4498C232.89 33.2128 231.824 28.0938 230.044 23.0958C228.841 19.7178 228.408 16.1538 228.729 12.5248C228.853 11.1268 228.763 9.70378 228.691 8.29578C228.669 7.86878 228.384 7.45478 228.086 6.69178C226.827 12.8098 227.097 16.3148 228.599 22.1538C229.838 26.9698 230.785 31.8618 231.803 36.7328C232.532 40.2128 233.023 43.7608 235.324 47.2318ZM240.375 51.1168C240.183 50.7248 239.987 50.3348 239.798 49.9418C237.872 45.9428 236.125 41.9048 235.788 37.3778C235.472 33.1308 234.391 29.0568 232.944 25.0318C231.935 22.2238 231.38 19.2298 230.852 16.2778C230.324 13.3318 230.081 10.3358 229.698 7.23278C228.948 13.9528 229.93 20.2738 232.297 26.4528C233.198 28.8048 233.65 31.3438 234.153 33.8278C234.751 36.7798 235.054 39.7948 235.723 42.7278C236.45 45.9188 237.74 48.8928 240.375 51.1168ZM299.881 46.1838C304.882 45.5688 309.826 45.7598 314.686 47.1508C309.936 44.2088 304.949 44.6248 299.881 46.1838ZM242.979 71.8768C239.263 73.1398 235.593 76.5108 233.612 79.9118C236.601 77.3478 239.79 74.6118 242.979 71.8768ZM273.916 71.5698C270.373 70.8088 266.829 70.0478 263.286 69.2878C266.589 71.1598 270.216 71.4698 273.916 71.5698ZM259.831 52.9128C259.666 52.8588 259.501 52.8048 259.336 52.7508C259.029 53.5558 258.721 54.3608 258.414 55.1668C258.533 55.2138 258.652 55.2608 258.77 55.3078C259.124 54.5088 259.477 53.7108 259.831 52.9128ZM289.071 21.8528C289.184 21.9178 289.298 21.9818 289.411 22.0468C289.709 21.5338 290.006 21.0208 290.303 20.5078C290.191 20.4458 290.078 20.3838 289.966 20.3218C289.668 20.8318 289.369 21.3418 289.071 21.8528Z" fill="#FF6FCB"/>
<path d="M270.098 41.3802C270.495 41.0552 270.891 40.7312 271.288 40.4062C270.736 41.4842 270.185 42.5623 269.633 43.6413C269.789 42.8883 269.943 42.1342 270.098 41.3802Z" fill="#FF6FCB"/>
<path d="M269.67 43.5693C269.093 44.5873 268.516 45.6053 267.939 46.6233C268.062 45.3483 268.5 44.2513 269.67 43.5693Z" fill="#FF6FCB"/>
<path d="M71.6434 207.886C72.8234 211.363 73.9644 214.855 75.2094 218.308C75.5104 219.142 75.9874 220.086 76.6724 220.582C83.8634 225.795 86.7294 233.254 86.9664 241.665C87.4664 259.41 80.1844 274.001 67.8384 286.334C67.3234 286.848 66.6914 287.245 65.8424 287.91C65.0794 286.664 64.3154 285.622 63.7634 284.479C60.8954 278.543 59.5814 272.207 58.9464 265.685C58.0044 256.004 58.8124 246.477 61.3794 237.109C61.9494 235.027 62.7104 232.98 63.5664 230.995C65.9564 225.451 67.7924 223.346 72.7914 220.147C72.7424 219.576 72.7834 218.91 72.6194 218.299C70.5934 210.736 67.3194 203.803 62.2764 197.748C61.2724 196.543 60.1244 195.745 58.6094 195.281C53.7234 193.783 48.7894 192.647 43.6454 192.558C38.3924 192.467 33.3374 193.528 28.3764 195.096C20.2504 197.665 12.5544 201.195 5.29738 205.673C4.49538 206.168 3.69838 206.676 2.86738 207.12C2.05138 207.556 1.16038 208.189 0.364379 207.127C-0.290621 206.253 -0.0246194 204.525 0.854381 203.81C1.36238 203.397 1.93738 203.048 2.52038 202.745C7.53638 200.138 12.5174 197.454 17.6064 194.997C19.6144 194.027 21.3524 192.969 22.6054 191.064C23.5854 189.575 24.7954 188.228 25.9924 186.897C26.8174 185.979 27.0914 185.113 26.8214 183.837C25.0114 175.291 27.5684 167.988 33.5414 161.841C39.4184 155.793 46.8544 152.696 55.0144 151.297C65.7074 149.464 76.0534 150.844 85.9694 155.244C87.6544 155.992 89.4284 156.696 90.7784 158.275C90.3454 158.557 90.0654 158.815 89.7354 158.944C83.6214 161.329 78.1674 164.842 72.8724 168.657C66.6074 173.17 60.2804 177.596 53.9154 182.106C54.3694 182.032 54.8454 181.987 55.3034 181.873C71.8144 177.759 88.4994 174.859 105.572 174.723C108.965 174.696 112.362 174.808 115.753 174.949C117.154 175.007 118.286 174.9 119.089 173.502C119.854 172.169 121.324 171.802 122.739 171.619C124.887 171.34 127.047 171.121 129.209 171.002C134.453 170.713 137.452 168.037 137.945 162.856C138.221 159.958 138.188 157.031 138.323 154.118C138.539 149.459 140.352 145.548 143.855 142.438C144.277 142.063 144.634 141.612 145.066 141.249C152.499 134.992 157.766 127.13 161.964 118.474C162.211 117.965 162.508 117.481 162.744 116.968C163.675 114.952 165.112 114.127 167.449 114.175C169.359 114.214 171.439 113.804 173.177 113.01C179.066 110.32 184.419 111.767 189.607 114.753C192.62 116.487 194.083 119.257 194.133 122.73C194.148 123.763 194.202 124.849 193.929 125.824C192.924 129.42 192.88 133.057 192.956 136.754C192.997 138.761 192.416 140.781 192.069 143.112C193.63 142.684 195.133 142.281 196.631 141.858C201.38 140.518 206.175 139.588 211.138 140.331C215.297 140.954 218.846 142.817 221.687 145.899C225.626 150.172 226.052 155.331 222.774 160.109C221.264 162.31 220.127 164.597 219.255 167.127C216.372 175.488 207.909 181.343 199.093 181.312C197.685 181.307 196.276 181.311 194.507 181.311C195.023 181.957 195.302 182.521 195.755 182.839C198.99 185.108 202.171 187.476 205.551 189.508C207.846 190.888 209.155 192.591 209.579 195.245C210.187 199.056 211.187 202.805 211.768 206.619C212.06 208.535 212.026 210.57 211.737 212.491C211.161 216.316 208.801 218.793 205.072 219.719C202.515 220.354 200.347 221.361 198.624 223.447C196.943 225.483 194.608 226.15 191.996 225.807C191.626 225.758 191.257 225.701 190.886 225.67C190.81 225.664 190.725 225.759 190.382 225.963C190.991 226.788 191.61 227.579 192.18 228.404C194.948 232.418 196.336 236.821 195.898 241.731C195.654 244.458 194.334 246.475 192.037 247.977C190.712 248.843 189.485 249.891 188.339 250.989C186.478 252.771 184.342 253.746 181.754 253.8C177.758 253.884 174.006 252.913 170.826 250.561C167.888 248.388 165.248 245.807 162.509 243.37C161.821 242.758 161.254 242.011 160.43 241.104C160.302 243.325 160.339 245.258 160.051 247.142C159.427 251.223 158.165 255.013 154.688 257.699C149.61 261.62 143.645 261.52 139.085 256.974C135.425 253.326 132.729 248.964 132.138 243.683C131.762 240.319 131.649 236.914 131.622 233.525C131.581 228.491 130.933 223.611 129.386 218.781C127.024 211.407 127.358 203.905 129.087 196.43C129.554 194.411 130.133 192.412 130.489 190.374C131.007 187.404 130.361 186.28 127.623 185.005C126.685 184.568 125.685 184.268 124.732 183.86C121.719 182.571 118.912 181.042 117.916 177.386C91.8474 176.074 66.8894 181.215 41.6634 188.831C42.5124 189.23 42.7864 189.458 43.0764 189.481C52.4304 190.209 61.1424 193.153 69.5114 197.214C71.1364 198.003 72.5254 198.281 74.3184 197.629C79.7024 195.672 85.0834 196.198 90.3474 198.238C96.0104 200.432 100.677 204.051 104.671 208.558C112.514 217.406 116.928 227.915 119.346 239.346C119.884 241.891 120.118 244.501 120.565 247.58C119.018 247.419 117.87 247.536 116.921 247.155C114.393 246.142 111.784 245.175 109.51 243.716C105.232 240.972 101.03 238.069 97.0434 234.919C88.8064 228.41 81.3364 221.102 75.0864 212.617C73.9324 211.051 72.7674 209.493 71.6094 207.929C71.1484 205.405 70.6854 202.883 70.1754 200.102C69.2244 199.653 68.0744 198.796 66.4784 198.627C68.2914 201.881 69.9674 204.884 71.6434 207.886ZM190.011 184.592C190.959 185.346 191.906 186.101 192.854 186.855C194.841 188.41 196.841 189.948 198.81 191.525C200.424 192.818 202.027 194.127 203.574 195.497C203.978 195.854 204.159 196.464 204.66 197.338C203.904 197.008 203.618 196.945 203.409 196.783C197.687 192.329 191.931 187.918 186.278 183.378C183.962 181.518 181.509 180.042 178.671 179.17C174.621 177.925 170.598 176.592 166.541 175.371C165.203 174.968 163.784 174.518 162.42 174.569C156.495 174.79 150.577 175.187 144.657 175.535C144.519 175.543 144.392 175.732 144.103 175.962C144.443 176.179 144.705 176.439 145.016 176.531C154.727 179.405 164.503 181.715 174.743 179.825C175.206 179.74 175.681 179.631 176.144 179.655C177.947 179.747 179.744 179.935 181.153 181.241C182.707 182.682 182.324 184.639 180.279 185.109C179.136 185.372 177.826 185.267 176.664 185.005C174.833 184.592 172.974 184.095 171.294 183.286C169.605 182.473 167.923 182.246 166.112 182.249C159.384 182.259 152.739 181.729 146.451 179.026C146.125 178.886 145.73 178.905 145.392 178.854C144.969 179.216 144.578 179.49 144.265 179.835C143.921 180.215 143.65 180.66 143.209 181.265C144.436 181.644 145.4 181.974 146.381 182.239C152.412 183.869 158.148 186.191 163.631 189.207C167.169 191.153 170.901 192.745 174.468 194.642C176.362 195.649 178.243 196.793 179.853 198.194C181.868 199.947 182.133 201.911 180.944 203.099C179.726 204.316 177.809 204.215 175.912 202.376C173.962 200.486 172.34 198.261 170.516 196.235C169.65 195.274 168.773 194.225 167.686 193.576C162.012 190.189 156.097 187.286 149.791 185.245C147.399 184.471 144.988 183.754 142.549 183C141.631 185.007 142.318 186.447 143.579 187.529C145.861 189.488 148.221 191.371 150.662 193.127C155.021 196.264 159.465 199.284 163.874 202.351C164.429 202.737 164.989 203.115 165.547 203.496C164.731 202.205 163.679 201.279 162.585 200.406C161.48 199.525 160.342 198.685 159.203 197.847C158.065 197.009 156.91 196.192 155.759 195.372C154.531 194.497 153.296 193.63 152.067 192.757C150.914 191.938 149.736 191.152 148.622 190.283C147.618 189.5 146.298 189.034 145.421 187.45C146.116 187.737 146.394 187.808 146.626 187.953C157.137 194.49 167.366 201.368 175.503 210.913C176.879 212.527 178.726 213.74 180.355 215.139C180.742 215.528 181.129 215.917 181.515 216.306C183.558 217.733 185.587 219.181 187.652 220.574C188.34 221.038 189.202 221.26 189.847 221.767C192.927 224.192 195.134 223.935 197.384 220.809L197.354 220.86C199.341 219.039 201.669 217.94 204.309 217.391C207.753 216.675 209.299 214.261 209.635 210.967C209.758 209.764 209.758 208.501 209.533 207.318C208.746 203.167 207.911 199.021 206.92 194.915C206.681 193.925 205.968 192.808 205.137 192.251C203.041 190.849 200.754 189.734 198.542 188.505C195.237 185.44 191.966 182.337 188.603 179.337C187.712 178.542 186.587 177.955 185.486 177.459C179.766 174.88 173.723 173.544 167.499 172.974C166.564 172.888 165.574 172.733 164.713 173.334C166.195 173.723 167.695 173.789 169.124 174.141C172.865 175.063 176.544 176.252 180.306 177.065C183.553 177.766 186.174 179.349 188.698 181.435C191.803 184.001 195.171 186.25 198.425 188.637C199.81 189.919 201.194 191.201 202.579 192.483C201.373 192.344 200.474 191.778 199.577 191.208C197.322 189.773 195.067 188.336 192.813 186.899C191.868 186.141 190.924 185.384 189.979 184.626C187.339 181.287 184.973 179.572 182.721 179.368C185.151 181.109 187.581 182.85 190.011 184.592ZM216.699 145.062L216.743 145.098C215.164 144.345 213.647 143.383 211.991 142.882C208.549 141.839 205.021 142.298 201.649 143.191C193.809 145.266 185.895 146.868 177.883 148.139C170.95 149.239 164.77 152.079 159.932 157.487C157.424 160.291 154.583 162.799 151.862 165.408C151.032 166.204 150.101 166.894 148.892 167.903C149.577 167.814 149.768 167.836 149.911 167.763C150.917 167.249 151.923 166.731 152.912 166.186C158.99 162.837 165.551 161.25 172.435 161.255C176.546 161.258 180.652 162.286 184.772 161.242C185.207 161.132 185.716 161.236 186.176 161.32C187.816 161.618 189.205 162.379 190.166 163.764C191.305 165.406 190.747 166.956 188.803 167.419C188.103 167.586 187.253 167.612 186.593 167.371C184.924 166.761 183.182 166.172 181.734 165.186C180.012 164.013 178.207 163.416 176.203 163.384C169.445 163.276 162.848 164.206 156.56 166.784C152.38 168.497 148.245 170.319 144.108 172.135C143.699 172.314 143.42 172.787 142.589 173.61C144.15 173.61 145.051 173.675 145.938 173.596C147.532 173.454 149.126 173.272 150.707 173.023C153.589 172.568 156.508 172.236 159.327 171.521C165.486 169.959 171.485 170.993 177.516 172.201C178.79 172.456 180.124 172.549 181.424 172.506C183.964 172.423 186.499 172.178 189.038 172.024C195.52 171.629 202.052 171.727 208.401 170.031C208.762 169.935 209.171 170.018 209.557 170.018C201.063 173.784 192.005 173.039 183.119 173.851C187.188 174.77 191.316 174.581 195.379 174.287C199.488 173.99 203.556 173.117 207.642 172.497C207.683 172.71 207.724 172.922 207.766 173.135C204.775 173.835 201.813 174.726 198.786 175.181C195.735 175.64 192.619 175.666 189.016 175.917C195.646 177.496 201.639 175.927 207.688 175.287C205.138 176.575 202.382 177.085 199.615 177.399C196.932 177.703 194.217 177.733 191.516 177.883C194.022 178.352 196.541 178.68 199.062 178.704C206.797 178.777 214.36 173.582 216.93 166.279C217.883 163.571 219.139 161.134 220.774 158.79C224.317 153.711 222.483 147.748 216.699 145.062ZM138.862 188.919C138.638 189.037 138.413 189.156 138.189 189.274C138.158 189.736 138.105 190.198 138.098 190.661C137.997 197.618 139.89 204.152 143.017 210.222C148.952 221.745 156.134 232.479 164.903 242.067C166.924 244.276 169.308 246.186 171.686 248.026C174.439 250.157 177.667 251.158 181.166 251.261C183.365 251.325 185.2 250.592 186.765 249.03C187.692 248.105 188.639 247.082 189.782 246.515C193.466 244.687 194.136 241.616 193.711 237.964C193.117 232.868 190.371 228.825 187.333 224.932C187 224.505 186.489 224.154 185.988 223.932C181.756 222.06 178.531 218.905 175.224 215.79C170.837 211.657 166.462 207.463 161.708 203.777C155.039 198.605 148.026 193.875 141.38 189.113C142.398 191.095 143.596 193.385 144.755 195.696C146.445 199.065 147.938 202.545 149.819 205.802C152.672 210.742 156.007 215.243 161.686 217.422C163.988 218.305 165.86 219.994 167.212 222.124C168.474 224.112 168.453 226.049 167.235 227.031C165.981 228.042 164.177 227.763 162.396 226.145C160.191 224.142 158.695 221.658 157.65 218.873C157.368 218.122 156.964 217.294 156.367 216.802C151.456 212.745 148 207.645 145.415 201.891C144.14 199.054 142.893 196.203 141.52 193.413C140.753 191.856 139.756 190.413 138.862 188.919ZM178.925 145.152C178.955 145.277 178.985 145.403 179.015 145.528C181.505 145.088 184.009 144.71 186.477 144.169C187.148 144.022 187.796 143.47 188.308 142.958C190.09 141.177 190.722 138.933 190.555 136.482C190.315 132.972 190.535 129.534 191.483 126.121C191.828 124.878 191.814 123.502 191.772 122.193C191.693 119.763 190.581 117.817 188.472 116.596C183.963 113.985 179.333 112.801 174.189 115.013C172.167 115.883 169.855 116.285 167.644 116.438C166.19 116.538 165.396 116.968 164.791 118.19C163.746 120.302 162.645 122.386 161.536 124.465C160.717 126 159.847 127.507 158.999 129.026C159.177 129.128 159.355 129.229 159.534 129.331C162.106 125.983 163.719 122.012 166.027 118.168C166.222 118.752 166.339 118.928 166.322 119.089C166.293 119.364 166.215 119.648 166.095 119.898C162.1 128.193 157.257 135.908 150.477 142.245C148 144.561 145.353 146.695 142.77 148.897C142.033 149.525 141.096 150.032 141.65 151.413C145.279 149.357 148.362 146.908 151.052 143.973C155.076 139.582 158.663 134.862 161.73 129.745C163.523 126.754 165.402 123.815 167.271 120.872C167.638 120.294 168.138 119.799 168.576 119.266C167.828 121.536 166.648 123.522 165.494 125.523C164.316 127.564 163.222 129.656 161.983 131.659C160.794 133.581 159.521 135.457 158.182 137.278C156.787 139.176 155.317 141.024 153.792 142.819C152.354 144.511 150.803 146.107 149.302 147.745C152.89 145.429 155.696 142.379 158.115 139C160.638 135.475 162.94 131.792 165.428 128.242C167.428 125.389 169.54 122.613 171.652 119.84C172.177 119.151 172.892 118.606 173.52 117.995C173.668 118.132 173.816 118.268 173.965 118.405C166.71 126.674 162.482 137.05 154.841 145.039C157.592 143.53 160.239 141.98 162.824 140.333C163.316 140.02 163.633 139.359 163.915 138.8C165.039 136.571 166.974 135.831 169.289 135.888C170.957 135.929 172.153 136.938 172.378 138.285C172.611 139.677 171.61 141.294 169.918 141.584C168.382 141.847 166.669 141.929 165.204 141.503C163.858 141.112 162.888 141.169 161.811 141.939C153.946 147.562 147.319 154.281 143.122 163.124C142.376 164.696 141.893 166.392 141.289 168.032C142.213 167.844 142.721 167.456 143.148 166.994C146.732 163.116 150.34 159.261 153.861 155.327C156.718 152.135 160.021 149.497 163.582 147.167C168.373 144.034 178.291 140.954 183.344 141.104C180.959 141.946 178.543 142.69 176.111 143.382C169.967 145.129 164.084 147.534 159.415 151.97C153.958 157.154 148.839 162.695 143.58 168.088C143.55 168.119 143.613 168.241 143.751 168.806C147.062 165.44 150.491 162.491 153.267 159.021C159.245 151.546 166.969 147.058 176.056 144.666C178.787 143.947 181.585 143.484 184.352 142.904C184.395 143.082 184.439 143.259 184.482 143.437C182.628 144.006 180.777 144.579 178.925 145.152ZM132.476 191.948C132.11 193.528 131.748 194.989 131.434 196.46C129.856 203.849 129.462 211.259 131.793 218.545C133.366 223.463 133.97 228.458 134.057 233.575C134.107 236.494 134.287 239.413 134.476 242.327C134.789 247.167 136.924 251.334 140.203 254.656C145.591 260.113 153.051 259.46 156.646 251.989C159.051 246.992 158.475 241.898 156.762 236.85C156.52 236.138 155.879 235.562 155.423 234.923C155.636 239.287 156.547 243.457 155.349 247.676C154.912 241.871 154.545 236.086 151.776 230.28C154.215 244.274 154.538 248.734 153.283 252.23C153.09 249.506 152.956 247.075 152.737 244.651C152.508 242.118 152.304 239.575 151.892 237.069C151.513 234.766 150.872 232.506 150.346 230.227C151.031 237.194 152.078 244.063 151.209 251.059C150.947 250.474 150.807 249.872 150.754 249.262C150.397 245.132 150.229 240.977 149.678 236.874C148.634 229.107 147.021 221.611 142.604 214.764C138.118 207.811 135.721 199.92 135.4 191.527C135.391 191.29 135.183 191.061 135.022 190.736C134.196 191.129 133.447 191.485 132.476 191.948ZM61.3344 268.355C62.3244 267.225 63.1454 266.474 63.7424 265.576C66.4614 261.488 69.3604 257.556 72.8914 254.114C73.9264 253.105 74.4864 251.83 74.5614 250.326C74.6884 247.786 74.9354 245.252 75.0804 242.712C75.1054 242.266 74.8764 241.805 74.7144 241.149C72.5124 243.173 71.0094 245.269 69.7704 247.65C68.9244 249.275 67.6494 250.717 66.3864 252.073C64.9134 253.655 63.2114 255.022 61.6794 256.553C61.1724 257.06 60.5824 257.772 60.5514 258.416C60.3974 261.574 60.3644 264.747 61.3344 268.355ZM74.7694 229.488C74.5454 229.435 74.3214 229.381 74.0964 229.327C73.3814 230.505 72.6334 231.664 71.9584 232.864C70.5634 235.342 68.9664 237.625 66.8274 239.564C60.8174 245.013 60.8454 245.051 60.5294 253.086C60.5064 253.671 60.6474 254.263 60.7914 255.563C63.5444 252.635 65.9674 250.282 68.1194 247.703C70.1614 245.256 71.9294 242.579 73.7934 239.986C74.2754 239.315 75.0254 238.584 75.0364 237.871C75.0824 235.078 74.8804 232.282 74.7694 229.488ZM106.025 213.205C103.382 209.748 100.783 206.919 97.6494 204.64C96.9564 204.136 95.9074 203.955 95.0124 203.926C92.0014 203.828 88.9864 203.842 85.9734 203.864C84.7274 203.873 83.4814 204.012 81.7454 204.123C83.5094 205.385 84.8964 206.211 86.0824 207.263C88.3664 209.289 91.0284 210.181 93.9984 210.604C95.5434 210.824 97.1554 211.356 98.4784 212.169C100.733 213.555 103.033 213.693 106.025 213.205ZM41.8704 157.888C39.9054 159.317 38.4104 160.393 36.9264 161.485C35.4924 162.54 34.7654 163.929 34.4304 165.723C33.7424 169.41 32.8114 173.052 31.9634 176.709C31.6724 177.964 31.3284 179.206 31.0084 180.454C33.7844 178.392 36.1974 176.174 38.5134 173.859C38.9994 173.373 39.2404 172.555 39.4004 171.847C40.1044 168.73 40.7744 165.604 41.3774 162.466C41.6214 161.187 41.6644 159.87 41.8704 157.888ZM80.8894 264.549C82.6954 260.7 83.6884 257.138 84.4524 253.5C84.5064 253.244 84.4224 252.934 84.3274 252.677C83.5874 250.65 82.9684 248.562 82.0394 246.624C81.0044 244.464 79.6164 242.493 77.6384 240.504C77.2854 244.494 76.9564 248.027 76.6784 251.564C76.6354 252.109 76.7574 252.695 76.9224 253.225C77.8704 256.272 78.8404 259.312 79.8364 262.343C80.0294 262.933 80.3694 263.474 80.8894 264.549ZM90.8834 213.277C90.9454 216.352 91.6864 218.521 92.6294 220.701C93.4374 222.569 94.1084 224.556 94.4404 226.556C94.9834 229.834 95.9264 232.749 99.0004 234.534C100.136 235.193 100.945 236.44 102.577 236.677C102.497 236.056 102.495 235.684 102.398 235.338C101.117 230.725 99.8794 226.099 98.4904 221.518C98.1484 220.391 97.4744 219.249 96.6514 218.41C95.0164 216.745 93.1724 215.287 90.8834 213.277ZM41.1674 171.378C45.0344 169.662 47.3244 167.188 48.3524 163.641C49.0594 161.204 50.2914 159.187 52.3444 157.646C53.5804 156.718 54.3104 155.419 54.6324 153.668C53.9564 153.668 53.3824 153.536 52.8994 153.69C50.3914 154.491 47.9184 155.4 45.4104 156.201C43.8204 156.709 43.2974 157.896 43.0394 159.377C42.5564 162.156 41.9934 164.921 41.5204 167.702C41.3344 168.798 41.3014 169.921 41.1674 171.378ZM58.1634 176.041C57.0834 175.909 56.0054 175.753 54.9214 175.649C51.9284 175.362 48.9244 175.175 45.9424 174.804C41.6674 174.272 38.0414 176.287 36.1164 180.475C36.5074 180.508 36.8744 180.589 37.2344 180.563C40.9084 180.289 44.5544 180.428 48.1774 181.158C48.8974 181.303 49.7604 181.464 50.3914 181.208C53.2474 180.049 55.8074 178.372 58.1634 176.041ZM80.4934 205.771C81.1164 208.735 81.8524 211.456 83.9864 213.448C85.2294 214.608 85.8144 216.005 85.9464 217.676C86.0344 218.794 86.2424 219.908 86.4584 221.011C87.0734 224.149 90.3914 227.998 93.7734 229.34C93.2164 227.01 92.7984 224.807 92.1534 222.672C91.2324 219.627 90.1694 216.624 89.1144 213.622C88.8094 212.754 88.5374 211.684 87.8854 211.164C85.5054 209.261 82.9704 207.553 80.4934 205.771ZM62.7764 277.055C63.1454 276.995 63.2804 277.014 63.3204 276.961C66.1744 273.122 69.0224 269.279 71.8634 265.43C71.9714 265.284 72.0334 265.089 72.0704 264.907C72.6744 261.973 73.2704 259.038 73.9894 255.505C71.1924 257.809 69.0824 259.845 67.5394 262.468C66.5894 264.084 65.6794 265.885 64.2864 267.045C61.3274 269.508 61.1794 272.359 62.2814 275.63C62.4294 276.074 62.5874 276.513 62.7764 277.055ZM49.3284 165.817C55.9544 162.982 56.2614 162.738 60.5064 158.363C61.4164 157.425 62.5524 156.711 63.5604 155.865C64.7384 154.876 65.8904 153.856 67.4364 152.518C64.4124 152.518 62.0664 152.508 59.7204 152.521C57.7404 152.532 56.4234 153.434 55.4924 155.245C54.7314 156.726 53.7254 158.154 52.5544 159.333C50.8154 161.082 49.8534 163.108 49.3284 165.817ZM73.4254 222.603C68.1404 224.577 62.7504 234.02 62.5264 241.304C62.7034 241.267 62.9224 241.285 63.0524 241.186C67.8084 237.556 71.0004 232.732 73.5334 227.41C74.2674 225.869 74.0934 224.347 73.4254 222.603ZM101.06 222.952C100.874 223.04 100.689 223.128 100.503 223.217C101.087 225.478 101.675 227.737 102.253 230C102.856 232.36 103.426 234.729 104.06 237.08C104.222 237.682 104.416 238.449 104.862 238.772C106.587 240.02 108.421 241.119 110.332 242.35C110.778 233.907 107.161 227.813 101.06 222.952ZM44.0584 172.613C44.0974 172.836 44.1364 173.059 44.1754 173.282C48.4554 173.673 52.8214 173.668 56.9924 174.569C61.0284 175.441 63.1844 173.236 65.8714 170.936C65.3214 170.727 65.0854 170.575 64.8374 170.552C59.9904 170.097 55.1464 169.61 50.2914 169.258C49.4334 169.196 48.4354 169.542 47.6734 169.991C46.3954 170.741 45.2564 171.726 44.0584 172.613ZM112.424 225.037C112.629 224.806 112.835 224.576 113.04 224.345C111.611 221.928 110.204 219.498 108.744 217.1C107.671 215.337 106.101 214.514 103.996 214.715C101.576 214.946 99.3614 214.29 97.2264 213.15C95.8694 212.426 94.3964 211.916 92.3354 212.022C93.9794 213.518 95.3674 214.635 96.5784 215.918C98.2564 217.698 100.277 218.849 102.605 219.383C104.884 219.907 106.75 221.039 108.527 222.499C109.717 223.478 111.117 224.2 112.424 225.037ZM51.8274 167.236C51.8474 167.496 51.8664 167.756 51.8864 168.016C54.1844 168.235 56.4804 168.474 58.7804 168.665C60.7384 168.828 62.7904 168.617 64.6444 169.133C68.3464 170.163 70.5704 168.113 73.2884 165.691C70.0244 165.144 67.1504 164.847 64.3734 164.157C59.5634 162.963 55.5454 164.402 51.8274 167.236ZM77.3164 227.783C77.2044 227.848 77.0934 227.913 76.9814 227.978C77.1244 229.749 77.4834 231.534 77.3634 233.287C77.1354 236.598 78.1694 239.255 80.4114 241.698C82.3124 243.77 83.8274 246.183 84.2004 249.117C84.2424 249.447 84.5874 249.739 84.7914 250.048C84.9884 250.001 85.1864 249.954 85.3834 249.907C85.3834 247.101 85.3574 244.294 85.3924 241.489C85.4174 239.502 84.6954 237.917 83.3674 236.421C82.0734 234.963 81.0794 233.239 79.9604 231.626C79.0724 230.349 78.1964 229.065 77.3164 227.783ZM72.2904 201.347C71.8644 205.658 79.2144 217.063 84.6324 220.76C84.6214 218.766 84.5934 216.769 83.4214 215.297C81.2184 212.53 79.8674 209.347 78.3874 206.217C77.1764 203.656 75.1114 202.264 72.2904 201.347ZM76.2174 256.125C73.8484 262.651 73.8894 269.043 74.6144 275.573C76.4194 273.092 77.9964 270.556 79.3164 267.892C79.7254 267.066 79.6654 265.833 79.4194 264.891C78.7794 262.445 77.9344 260.051 77.1264 257.651C76.9674 257.178 76.6094 256.771 76.2174 256.125ZM116.415 234.643C116.122 231.798 115.301 229.82 114.325 227.916C114.049 227.378 113.423 226.974 112.882 226.625C110.518 225.102 108.129 223.618 105.742 222.13C104.698 221.479 103.625 220.91 101.918 220.965C104.636 224.186 106.813 227.172 109.42 229.718C111.306 231.56 113.765 232.817 116.415 234.643ZM74.5204 199.902C75.7744 200.451 77.0054 201.062 78.2854 201.537C82.7004 203.176 87.3614 201.938 91.8644 202.633C92.4404 202.722 93.0594 202.533 93.6584 202.473C87.7104 198.408 81.4604 197.038 74.5204 199.902ZM60.6694 160.195C66.6394 159.139 72.1274 157.467 76.8804 153.912C74.9794 153.318 73.1254 153.1 71.3094 152.706C69.9574 152.412 68.9054 152.828 67.9174 153.644C66.0314 155.202 64.1304 156.743 62.2834 158.345C61.6714 158.876 61.2034 159.574 60.6694 160.195ZM117.813 243.505C117.601 243.631 117.39 243.758 117.178 243.884C116.53 242.892 115.873 241.906 115.235 240.908C114.576 239.876 113.948 238.824 113.283 237.796C112.233 236.174 112.224 236.179 110.952 235.44C111.31 237.636 111.553 239.792 112.059 241.884C112.256 242.697 112.89 243.649 113.6 244.044C115.212 244.942 116.995 245.533 118.922 246.338C119.246 243.585 118.432 241.358 117.953 239.103C117.398 236.49 115.464 234.755 112.464 234.044C114.42 237.172 116.525 240.133 117.813 243.505ZM62.3084 162.434C66.1284 163.064 69.5044 163.379 72.7394 164.229C75.4854 164.95 77.0964 163.644 79.0844 161.916C73.4734 159.486 68.2134 159.114 62.3084 162.434ZM74.6104 157.233C75.9884 157.942 77.5584 157.003 78.8044 158.387C77.1124 158.552 75.6904 158.69 74.2694 158.829C75.6914 159.595 77.1304 159.875 78.5284 160.293C81.5344 161.193 82.6334 160.956 85.1204 158.697C84.5394 158.478 83.9624 158.261 83.3844 158.043C83.4254 157.929 83.4664 157.816 83.5064 157.702C84.5774 157.59 85.6494 157.478 86.9384 157.343C81.4754 153.822 79.2454 153.807 74.6104 157.233ZM47.3484 182.62C44.2964 181.609 37.2534 181.429 34.5424 182.178C33.1874 182.553 32.2724 183.319 31.7974 184.651C35.9354 186.535 41.2504 185.854 47.3484 182.62ZM65.4214 284.944C67.8954 279.889 69.5964 274.842 70.6794 269.595C68.2764 272.6 66.0114 275.649 63.7964 278.734C63.5594 279.065 63.4464 279.668 63.5734 280.045C64.1294 281.698 64.7954 283.315 65.4214 284.944ZM28.9104 182.955C30.3754 177.019 31.6824 171.721 32.9894 166.423C29.0564 171.057 27.8304 176.376 28.9104 182.955ZM76.2514 221.889C76.3114 225.351 78.7054 226.83 79.9984 228.862C81.3564 230.996 81.8784 233.731 84.5324 235.544C83.1204 230.053 80.8264 225.645 76.2514 221.889ZM72.6934 270.341C71.0664 274.844 69.5894 278.93 68.0064 283.312C72.9384 280.103 74.0034 275.874 72.6934 270.341ZM166.015 225.733C166.068 222.608 163.665 220.065 160.036 219.163C161.97 223.61 163.314 225.125 166.015 225.733ZM29.8074 186.405C28.5714 187.882 27.3914 189.291 26.2124 190.7C26.3134 190.846 26.4154 190.992 26.5164 191.138C29.3904 190.062 32.2644 188.987 35.5564 187.755C33.4044 187.25 31.7754 186.867 29.8074 186.405ZM147.469 149.508C147.429 149.445 147.389 149.382 147.349 149.319C145.724 150.492 144.101 151.669 142.473 152.838C140.411 154.319 140.243 154.857 140.974 157.789C143.151 155.014 145.31 152.261 147.469 149.508ZM154.559 136.476C152.407 138.458 148.612 141.955 144.816 145.451C148.817 142.137 152.991 139.004 154.559 136.476ZM179.818 201.749C178.71 198.853 176.552 197.764 174.131 196.66C175.131 199.768 176.957 201.469 179.818 201.749ZM153.718 160.25C155.856 158.218 158.673 155.54 161.49 152.863C158.029 154.942 155.487 157.939 153.718 160.25ZM182.711 163.468C184.764 164.947 186.3 166.118 188.617 165.285C186.703 163.253 186.274 163.111 182.711 163.468ZM170.209 138.842C168.032 137.554 167.371 137.682 166.136 139.451C168.368 139.91 168.368 139.91 170.209 138.842ZM174.583 181.774C176.397 182.751 177.701 183.351 179.774 182.867C178.093 181.699 176.754 181.246 174.583 181.774ZM175.35 177.226C175.456 177.086 175.561 176.945 175.667 176.805C174.913 176.595 174.159 176.384 173.405 176.174C173.369 176.3 173.333 176.425 173.296 176.551C173.981 176.776 174.665 177.001 175.35 177.226ZM145.587 153.856C145.677 153.93 145.768 154.004 145.858 154.077C146.111 153.769 146.364 153.46 146.617 153.152C146.525 153.079 146.432 153.006 146.34 152.932C146.089 153.24 145.838 153.548 145.587 153.856Z" fill="#FF6FCB"/>
<path d="M180.356 215.139C175.718 210.333 171.623 205.026 166.465 200.693C160.965 196.072 155.257 191.787 149.014 188.226C148.289 187.813 147.6 187.335 147.027 186.52C147.65 186.734 148.339 186.841 148.886 187.178C152.892 189.641 156.991 191.978 160.828 194.683C167.084 199.093 172.794 204.154 177.659 210.11C182.131 215.585 187.612 219.245 194.873 219.818C195.722 219.885 196.528 220.5 197.355 220.861L197.385 220.81C192.931 221.429 188.785 220.575 184.936 218.24C183.817 217.561 182.657 216.949 181.516 216.307C181.129 215.917 180.742 215.528 180.356 215.139Z" fill="#FF6FCB"/>
<path d="M217.086 147.473C209.697 145.877 202.654 147.236 195.552 149.109C188.822 150.884 181.958 152.16 175.132 153.557C172.501 154.096 170.088 154.988 167.894 156.557C164.982 158.639 161.782 160.165 158.181 160.975C158.655 160.664 159.116 160.33 159.605 160.046C162.614 158.294 165.593 156.488 168.657 154.837C170.211 153.999 171.864 153.208 173.569 152.809C183.193 150.554 192.859 148.474 202.486 146.231C207.515 145.06 212.335 145.794 217.086 147.473Z" fill="#FF6FCB"/>
<path d="M216.699 145.062C215.697 145.135 214.646 145.442 213.702 145.242C208.502 144.138 203.435 144.448 198.369 146.064C190.368 148.616 182.11 150.071 173.861 151.538C170.761 152.09 167.817 152.983 165.401 155.144C165.155 155.364 164.786 155.446 164.383 155.435C166.029 153.206 168.215 151.77 170.905 151.202C175.14 150.308 179.421 149.621 183.638 148.651C188.682 147.49 193.727 146.286 198.682 144.803C204.292 143.125 209.797 143.091 215.347 144.874C215.788 145.016 216.272 145.024 216.739 145.096C216.743 145.098 216.699 145.062 216.699 145.062Z" fill="#FF6FCB"/>
<path d="M171.427 156.115C173.69 154.212 176.451 153.929 179.115 153.584C186.516 152.627 193.761 150.983 200.952 149.053C206.592 147.539 212.154 147.983 217.675 149.631C218.095 149.756 218.47 150.032 218.756 150.631C218.06 150.543 217.353 150.508 216.67 150.357C210.771 149.058 204.932 148.986 199.065 150.712C192.18 152.738 185.092 153.787 177.988 154.736C175.78 155.031 173.613 155.646 171.427 156.115Z" fill="#FF6FCB"/>
<path d="M139.17 194.165C146.809 215.065 159.357 232.622 174.978 248.271C174.179 247.69 173.365 247.129 172.585 246.525C166.854 242.088 162.226 236.624 158.177 230.678C154.199 224.835 150.334 218.911 146.579 212.923C143.148 207.452 140.884 201.458 139.316 195.201C139.232 194.864 139.217 194.511 139.17 194.165Z" fill="#FF6FCB"/>
<path d="M148.813 196.347C153.154 199.338 157.672 202.108 161.785 205.386C165.529 208.371 168.863 211.876 172.323 215.209C175.663 218.428 179.218 221.353 183.231 223.702C185.394 224.969 187.094 226.709 188.36 228.861C190.265 232.099 191.815 235.484 192.279 239.343C191.886 238.657 191.456 237.989 191.108 237.281C190.318 235.675 189.579 234.044 188.801 232.431C187.041 228.783 184.54 225.911 180.99 223.758C174.979 220.112 170.185 214.957 165.264 210.023C162.445 207.197 159.407 204.74 156.109 202.516C153.467 200.735 151.039 198.636 148.515 196.678C148.614 196.568 148.713 196.458 148.813 196.347Z" fill="#FF6FCB"/>
<path d="M175.848 223.639C176.47 224.199 177.051 224.816 177.722 225.311C183.215 229.356 185.85 235.232 187.898 241.554C187.544 241.114 187.149 240.699 186.846 240.226C186.442 239.594 186.068 238.934 185.752 238.254C182.821 231.955 178.49 226.961 172.61 223.146C167.684 219.949 163.661 215.71 160.369 210.793C158.621 208.182 156.668 205.708 155.174 202.792C155.891 203.439 156.717 204.002 157.305 204.75C159.107 207.04 160.793 209.422 162.571 211.732C166.272 216.542 170.543 220.726 175.904 223.691L175.848 223.639Z" fill="#FF6FCB"/>
<path d="M175.903 223.691C172.093 219.796 168.26 215.925 164.488 211.993C163.212 210.663 162.094 209.183 161.273 207.381C161.799 207.808 162.367 208.191 162.842 208.668C165.565 211.402 168.254 214.171 170.979 216.903C173.976 219.908 177.095 222.742 180.904 224.751C182.032 225.346 183.049 226.324 183.846 227.34C186.529 230.76 188.222 234.729 189.67 238.925C189.302 238.502 188.863 238.123 188.579 237.65C187.319 235.553 186.042 233.462 184.886 231.308C182.87 227.551 179.726 225.174 175.846 223.64L175.903 223.691Z" fill="#FF6FCB"/>
<path d="M175.688 244.61C167.795 239.98 155.613 225.602 154.215 219.458C159.821 229.178 167.661 236.977 175.688 244.61Z" fill="#FF6FCB"/>
<path d="M148.515 196.678C147.402 195.724 146.289 194.77 145.176 193.816C145.321 193.643 145.466 193.47 145.61 193.297C146.701 194.284 147.817 195.241 148.813 196.347C148.714 196.457 148.615 196.567 148.515 196.678Z" fill="#FF6FCB"/>
<path d="M144.881 254.936C143.851 252.976 142.742 251.053 141.807 249.049C139.304 243.679 138.211 237.948 137.92 232.085C137.652 226.687 136.759 221.422 135.195 216.267C133.753 211.512 133.653 206.621 133.605 201.723C133.598 201.04 133.843 200.355 134.355 199.714C134.603 202.772 134.811 205.834 135.114 208.887C135.271 210.474 135.431 212.092 135.872 213.615C137.737 220.058 139.129 226.563 139.384 233.299C139.63 239.808 141.738 245.841 144.431 251.698C144.854 252.617 145.227 253.559 145.624 254.491C145.376 254.639 145.128 254.788 144.881 254.936Z" fill="#FF6FCB"/>
<path d="M140.792 252.47C138.617 250.548 137.903 248.538 137.273 246.488C136.157 242.859 135.731 239.13 135.656 235.348C135.6 232.524 135.758 229.663 135.356 226.886C134.86 223.461 134.174 220.003 133.043 216.743C131.384 211.964 131.255 207.145 131.756 202.244C132.031 199.55 132.544 196.88 133.406 194.248C133.161 196.744 132.975 199.248 132.656 201.734C132.098 206.091 132.197 210.382 133.737 214.548C135.981 220.622 137.121 226.877 136.901 233.359C136.699 239.294 137.755 244.974 140.241 250.382C140.453 250.844 140.51 251.377 140.792 252.47Z" fill="#FF6FCB"/>
</svg>
