<svg width="384" height="383" viewBox="0 0 384 383" fill="none" xmlns="http://www.w3.org/2000/svg">
<path d="M360.48 382.946H23.334C10.4474 382.946 0 369.451 0 352.802V183.706C0 167.058 10.4468 153.562 23.334 153.562H360.481C373.368 153.562 383.815 167.057 383.815 183.706V352.803C383.814 369.451 373.368 382.946 360.48 382.946Z" fill="#296225"/>
<path d="M350.499 373.29H33.4879C23.4877 373.29 15.3809 362.394 15.3809 348.955V189.099C15.3809 175.659 23.4877 164.764 33.4879 164.764H350.499C360.5 164.764 368.607 175.659 368.607 189.099V348.955C368.607 362.394 360.5 373.29 350.499 373.29Z" fill="#2FB926"/>
<path d="M40.1738 163.201C39.1996 163.201 38.2259 162.822 37.4935 162.068C36.0555 160.588 36.09 158.223 37.5703 156.786L187.896 10.7495C189.341 9.3441 191.641 9.33963 193.092 10.7399L343.175 155.472C344.66 156.904 344.703 159.27 343.271 160.754C341.838 162.24 339.473 162.283 337.988 160.85L190.508 18.6279L42.7761 162.144C42.0507 162.849 41.1116 163.201 40.1738 163.201Z" fill="#296225"/>
<path d="M193.977 26.7672C200.1 24.2307 203.008 17.2105 200.471 11.0872C197.935 4.96379 190.915 2.05602 184.791 4.59246C178.668 7.1289 175.76 14.1491 178.297 20.2724C180.833 26.3958 187.853 29.3036 193.977 26.7672Z" fill="#363636"/>
<path opacity="0.2" d="M191.994 382.946H23.334C10.4474 382.946 0 369.45 0 352.802V183.706C0 167.058 10.4468 153.562 23.334 153.562H191.994V382.946Z" fill="#1C8415"/>
</svg>
