<svg width="30" height="26" viewBox="0 0 30 26" fill="none" xmlns="http://www.w3.org/2000/svg">
<path d="M29.9138 1.22065C29.9718 0.872611 29.8412 0.519896 29.5707 0.293557C29.3 0.0672176 28.9297 0.00109145 28.5973 0.119767L0.730464 10.0722C0.355003 10.2063 0.0957962 10.5516 0.071765 10.9495C0.047734 11.3475 0.263516 11.7214 0.620115 11.8997L8.5821 15.8807C8.90153 16.0404 9.28208 16.0167 9.57924 15.8186L16.1885 11.4124L12.231 16.3593C12.0568 16.5771 11.9819 16.858 12.0247 17.1337C12.0675 17.4093 12.224 17.6544 12.4561 17.8091L24.3992 25.771C24.68 25.9583 25.0369 25.9903 25.3468 25.8562C25.6568 25.722 25.8773 25.4398 25.9328 25.1066L29.9138 1.22065Z" fill="#A0FF00"/>
</svg>
