<svg width="58" height="59" viewBox="0 0 58 59" fill="none" xmlns="http://www.w3.org/2000/svg">
<g filter="url(#filter0_d_59_956)">
<rect x="0.300293" y="0.375977" width="56.35" height="56.345" rx="6" fill="#DA2D89"/>
<rect x="0.954895" y="1.03058" width="55.0408" height="55.0358" rx="5.3454" stroke="white" stroke-width="1.3092"/>
</g>
<path d="M8.32735 12.9996C8.32735 9.86664 10.8671 7.3273 14.0001 7.3273H44.9175C48.0504 7.3273 50.5902 9.86663 50.5902 12.9995V13.0261V13.0526V13.0793V13.1059V13.1326V13.1593V13.1861V13.2129V13.2397V13.2666V13.2935V13.3205V13.3475V13.3745V13.4015V13.4286V13.4558V13.4829V13.5101V13.5374V13.5647V13.592V13.6193V13.6467V13.6741V13.7016V13.7291V13.7566V13.7842V13.8117V13.8394V13.867V13.8947V13.9225V13.9502V13.978V14.0059V14.0337V14.0616V14.0895V14.1175V14.1455V14.1735V14.2016V14.2297V14.2578V14.286V14.3142V14.3424V14.3706V14.3989V14.4272V14.4556V14.484V14.5124V14.5408V14.5693V14.5978V14.6263V14.6549V14.6835V14.7121V14.7408V14.7694V14.7982V14.8269V14.8557V14.8845V14.9133V14.9422V14.971V15V15.0289V15.0579V15.0869V15.1159V15.1449V15.174V15.2031V15.2323V15.2614V15.2906V15.3199V15.3491V15.3784V15.4077V15.437V15.4664V15.4957V15.5251V15.5546V15.584V15.6135V15.643V15.6725V15.7021V15.7317V15.7613V15.7909V15.8206V15.8503V15.88V15.9097V15.9394V15.9692V15.999V16.0288V16.0587V16.0886V16.1185V16.1484V16.1783V16.2083V16.2383V16.2683V16.2983V16.3283V16.3584V16.3885V16.4186V16.4488V16.4789V16.5091V16.5393V16.5695V16.5998V16.6301V16.6603V16.6906V16.721V16.7513V16.7817V16.8121V16.8425V16.8729V16.9034V16.9338V16.9643V16.9948V17.0253V17.0559V17.0864V17.117V17.1476V17.1782V17.2089V17.2395V17.2702V17.3009V17.3316V17.3623V17.393V17.4238V17.4545V17.4853V17.5161V17.547V17.5778V17.6086V17.6395V17.6704V17.7013V17.7322V17.7632V17.7941V17.8251V17.856V17.887V17.918V17.9491V17.9801V18.0112V18.0422V18.0733V18.1044V18.1355V18.1666V18.1978V18.2289V18.2601V18.2912V18.3224V18.3536V18.3848V18.4161V18.4473V18.4785V18.5098V18.5411V18.5724V18.6037V18.635V18.6663V18.6976V18.729V18.7603V18.7917V18.8231V18.8544V18.8858V18.9172V18.9487V18.9801V19.0115V19.043V19.0744V19.1059V19.1373V19.1688V19.2003V19.2318V19.2633V19.2948V19.3264V19.3579V19.3894V19.421V19.4525V19.4841V19.5157V19.5473V19.5788V19.6104V19.642V19.6737V19.7053V19.7369V19.7685V19.8001V19.8318V19.8634V19.8951V19.9267V19.9584V19.9901V20.0217V20.0534V20.0851V20.1168V20.1485V20.1802V20.2119V20.2436V20.2753V20.307V20.3387V20.3704V20.4022V20.4339V20.4656V20.4974V20.5291V20.5608V20.5926V20.6243V20.6561V20.6878V20.7196V20.7513V20.7831V20.8148V20.8466V20.8784V20.9101V20.9419V20.9737V21.0054V21.0372V21.0689V21.1007V21.1325V21.1642V21.196V21.2278V21.2595V21.2913V21.3231V21.3548V21.3866V21.4184V21.4501V21.4819V21.5136V21.5454V21.5772V21.6089V21.6407V21.6724V21.7042V21.7359V21.7676V21.7994V21.8311V21.8629V21.8946V21.9263V21.958V21.9898V22.0215V22.0532V22.0849V22.1166V22.1483V22.18V22.2117V22.2434V22.275V22.3067V22.3384V22.3701V22.4017V22.4334V22.465V22.4967V22.5283V22.5599V22.5916V22.6232V22.6548V22.6864V22.718V22.7496V22.7812V22.8127V22.8443V22.8759V22.9074V22.939V22.9705V23.002V23.0336V23.0651V23.0966V23.1281V23.1596V23.191V23.2225V23.254V23.2854V23.3169V23.3483V23.3797V23.4111V23.4425V23.4739V23.5053V23.5367V23.568V23.5994V23.6307V23.662V23.6934V23.7247V23.756V23.7872V23.8185V23.8498V23.881V23.9122V23.9435V23.9747V24.0059V24.037V24.0682V24.0994V24.1305V24.1616V24.1928V24.2239V24.2549V24.286V24.3171V24.3481V24.3792V24.4102V24.4412V24.4722V24.5031V24.5341V24.565V24.596V24.6269V24.6578V24.6887V24.7195V24.7504V24.7812V24.812V24.8428V24.8736V24.9044V24.9351V24.9658V24.9966V25.0273V25.0579V25.0886V25.1192V25.1499V25.1805V25.2111V25.2416V25.2722V25.3027V25.3332V25.3637V25.3942V25.4247V25.4551V25.4855V25.5159V25.5463V25.5767V25.607V25.6373V25.6676V25.6979V25.7282V25.7584V25.7886V25.8188V25.849V25.8791V25.9093V25.9394V25.9695V25.9995V26.0296V26.0596V26.0896V26.1196V26.1495V26.1795V26.2094V26.2393V26.2691V26.299V26.3288V26.3586V26.3883V26.4181V26.4478V26.4775V26.5072V26.5368V26.5664V26.596V26.6256V26.6552V26.6847V26.7142V26.7437V26.7731V26.8025V26.8319V26.8613V26.8906V26.9199V26.9492V26.9785V27.0077V27.0369V27.0661V27.0953V27.1244V27.1535V27.1826V27.2116V27.2406V27.2696V27.2986V27.3275V27.3564V27.3853V27.4142V27.443V27.4718V27.5005V27.5293V27.558V27.5866V27.6153V27.6439V27.6725V27.701V27.7295V27.758V27.7865V27.8149V27.8433V27.8717V27.9V27.9283V27.9566V27.9848V28.0131V28.0412V28.0694V28.0975V28.1256V28.1536V28.1816V28.2096V28.2376V28.2655V28.2934V28.3212V28.3491V28.3768V28.4046V28.4323V28.46V28.4877V28.5154V28.5432V28.5709V28.5988V28.6266V28.6545V28.6824V28.7104V28.7383V28.7664V28.7944V28.8225V28.8506V28.8788V28.9069V28.9352V28.9634V28.9917V29.02V29.0483V29.0767V29.1051V29.1335V29.162V29.1905V29.219V29.2475V29.2761V29.3047V29.3334V29.362V29.3907V29.4195V29.4482V29.477V29.5058V29.5347V29.5636V29.5925V29.6214V29.6504V29.6793V29.7084V29.7374V29.7665V29.7956V29.8247V29.8539V29.8831V29.9123V29.9415V29.9708V30.0001V30.0294V30.0587V30.0881V30.1175V30.1469V30.1763V30.2058V30.2353V30.2648V30.2944V30.324V30.3536V30.3832V30.4128V30.4425V30.4722V30.5019V30.5317V30.5614V30.5912V30.621V30.6509V30.6807V30.7106V30.7405V30.7705V30.8004V30.8304V30.8604V30.8904V30.9205V30.9505V30.9806V31.0107V31.0409V31.071V31.1012V31.1314V31.1616V31.1918V31.2221V31.2524V31.2827V31.313V31.3433V31.3737V31.4041V31.4345V31.4649V31.4953V31.5258V31.5563V31.5868V31.6173V31.6478V31.6784V31.7089V31.7395V31.7701V31.8008V31.8314V31.8621V31.8927V31.9234V31.9542V31.9849V32.0156V32.0464V32.0772V32.108V32.1388V32.1696V32.2005V32.2313V32.2622V32.2931V32.324V32.355V32.3859V32.4169V32.4478V32.4788V32.5098V32.5408V32.5719V32.6029V32.634V32.665V32.6961V32.7272V32.7584V32.7895V32.8206V32.8518V32.883V32.9141V32.9453V32.9765V33.0078V33.039V33.0702V33.1015V33.1328V33.164V33.1953V33.2266V33.258V33.2893V33.3206V33.352V33.3833V33.4147V33.4461V33.4775V33.5089V33.5403V33.5717V33.6031V33.6346V33.666V33.6975V33.729V33.7604V33.7919V33.8234V33.8549V33.8864V33.918V33.9495V33.981V34.0126V34.0441V34.0757V34.1073V34.1388V34.1704V34.202V34.2336V34.2652V34.2968V34.3284V34.3601V34.3917V34.4233V34.455V34.4866V34.5183V34.5499V34.5816V34.6133V34.645V34.6766V34.7083V34.74V34.7717V34.8034V34.8351V34.8668V34.8985V34.9302V34.962V34.9937V35.0254V35.0571V35.0889V35.1206V35.1524V35.1841V35.2158V35.2476V35.2793V35.3111V35.3428V35.3746V35.4064V35.4381V35.4699V35.5016V35.5334V35.5652V35.5969V35.6287V35.6604V35.6922V35.724V35.7557V35.7875V35.8193V35.851V35.8828V35.9146V35.9463V35.9781V36.0099V36.0416V36.0734V36.1052V36.1369V36.1687V36.2004V36.2322V36.2639V36.2957V36.3274V36.3592V36.3909V36.4226V36.4544V36.4861V36.5178V36.5496V36.5813V36.613V36.6447V36.6764V36.7081V36.7398V36.7715V36.8032V36.8349V36.8666V36.8983V36.9299V36.9616V36.9933V37.0249V37.0566V37.0882V37.1199V37.1515V37.1831V37.2147V37.2463V37.278V37.3096V37.3411V37.3727V37.4043V37.4359V37.4674V37.499V37.5306V37.5621V37.5936V37.6252V37.6567V37.6882V37.7197V37.7512V37.7826V37.8141V37.8456V37.877V37.9085V37.9399V37.9713V38.0028V38.0342V38.0656V38.0969V38.1283V38.1597V38.191V38.2224V38.2537V38.285V38.3163V38.3476V38.3789V38.4102V38.4414V38.4727V38.5039V38.5352V38.5664V38.5976V38.6288V38.6599V38.6911V38.7222V38.7534V38.7845V38.8156V38.8467V38.8778V38.9088V38.9399V38.9709V39.0019V39.033V39.064V39.0949V39.1259V39.1568V39.1878V39.2187V39.2496V39.2805V39.3113V39.3422V39.373V39.4039V39.4347V39.4655V39.4962V39.527V39.5577V39.5884V39.6191V39.6498V39.6805V39.7111V39.7418V39.7724V39.803V39.8336V39.8641V39.8947V39.9252V39.9557V39.9862V40.0166V40.0471V40.0775V40.1079V40.1383V40.1687V40.199V40.2294V40.2597V40.2899V40.3202V40.3505V40.3807V40.4109V40.4411V40.4712V40.5014V40.5315V40.5616V40.5916V40.6217V40.6517V40.6817V40.7117V40.7417V40.7716V40.8015V40.8314V40.8613V40.8912V40.921V40.9508V40.9806V41.0103V41.04V41.0697V41.0994V41.1291V41.1587V41.1883V41.2179V41.2475V41.277V41.3065V41.336V41.3654V41.3949V41.4243V41.4536V41.483V41.5123V41.5416V41.5709V41.6001V41.6294V41.6586V41.6877V41.7169V41.746V41.775V41.8041V41.8331V41.8621V41.8911V41.92V41.949V41.9778V42.0067V42.0355V42.0643V42.0931V42.1218V42.1506V42.1792V42.2079V42.2365V42.2651V42.2937V42.3222V42.3507V42.3792V42.4076V42.436V42.4644V42.4928V42.5211V42.5494V42.5776V42.6058V42.634V42.6622V42.6903V42.7184V42.7465V42.7745V42.8025V42.8304V42.8584V42.8863V42.9141V42.942V42.9698V42.9975V43.0253V43.053V43.0806V43.1082V43.1358V43.1634V43.1909V43.2184V43.2459V43.2733V43.3007V43.328V43.3553V43.3826V43.4099V43.4371V43.4642V43.4914V43.5185V43.5455V43.5725V43.5995V43.6265V43.6534V43.6803V43.7071V43.7339V43.7607V43.7874V43.8141V43.8407V43.8673V43.8939V43.9205C50.5902 47.0534 48.0504 49.5927 44.9175 49.5927H14C10.867 49.5927 8.32733 47.0534 8.32733 43.9205L8.32734 28.46L8.32735 12.9996Z" stroke="white" stroke-width="0.654602"/>
<path d="M40.5657 18.2887C40.1733 17.9548 39.5571 17.907 38.92 18.1637H38.9189C38.2488 18.4336 19.9506 26.3107 19.2057 26.6325C19.0702 26.6798 17.8869 27.1229 18.0088 28.1099C18.1176 28.9998 19.0686 29.3683 19.1847 29.4108L23.8367 31.0095C24.1454 32.0406 25.2831 35.8447 25.5347 36.6574C25.6917 37.1641 25.9475 37.8298 26.3958 37.9668C26.7891 38.119 27.1804 37.9799 27.4336 37.7804L30.2777 35.1328L34.869 38.7265L34.9784 38.7921C35.2901 38.9307 35.5888 39 35.8739 39C36.0942 39 36.3055 38.9585 36.5074 38.8756C37.1953 38.5921 37.4705 37.9342 37.4992 37.8597L40.9287 19.9692C41.138 19.0137 40.8471 18.5276 40.5657 18.2887ZM27.9395 31.6489L26.3701 35.8489L24.8008 30.5989L36.8323 21.6739L27.9395 31.6489Z" fill="white"/>
<defs>
<filter id="filter0_d_59_956" x="0.300293" y="0.375977" width="57.3501" height="58.345" filterUnits="userSpaceOnUse" color-interpolation-filters="sRGB">
<feFlood flood-opacity="0" result="BackgroundImageFix"/>
<feColorMatrix in="SourceAlpha" type="matrix" values="0 0 0 0 0 0 0 0 0 0 0 0 0 0 0 0 0 0 127 0" result="hardAlpha"/>
<feOffset dx="1" dy="2"/>
<feComposite in2="hardAlpha" operator="out"/>
<feColorMatrix type="matrix" values="0 0 0 0 1 0 0 0 0 1 0 0 0 0 1 0 0 0 1 0"/>
<feBlend mode="normal" in2="BackgroundImageFix" result="effect1_dropShadow_59_956"/>
<feBlend mode="normal" in="SourceGraphic" in2="effect1_dropShadow_59_956" result="shape"/>
</filter>
</defs>
</svg>
