<svg width="301" height="301" viewBox="0 0 301 301" fill="none" xmlns="http://www.w3.org/2000/svg">
<path d="M150.304 18C150.304 8.05888 158.392 -0.111392 168.262 1.07614C199.921 4.88534 229.723 18.6961 253.195 40.7372C281.063 66.9071 297.912 102.713 300.312 140.867C302.712 179.021 290.484 216.656 266.116 246.112C245.592 270.921 217.756 288.358 186.823 296.105C177.18 298.52 168.132 291.428 166.886 281.565L159.569 223.643C158.323 213.781 165.543 205.021 174.505 200.719C181.732 197.249 188.193 192.236 193.393 185.95C202.459 174.991 207.009 160.988 206.116 146.793C205.223 132.597 198.954 119.276 188.586 109.539C182.639 103.955 175.601 99.7907 167.996 97.2544C158.565 94.1093 150.304 86.3234 150.304 76.3823L150.304 18Z" fill="#5CE05C"/>
<path d="M156.998 282.439C157.501 292.368 149.837 300.936 139.92 300.25C122.363 299.034 105.107 294.74 88.9554 287.518C67.31 277.841 48.2612 263.179 33.3653 244.732C18.4693 226.285 8.14889 204.576 3.24709 181.378C-0.410614 164.067 -0.973744 146.295 1.53543 128.875C2.95275 119.035 12.9434 113.348 22.5431 115.931L78.9207 131.099C88.5204 133.682 93.893 143.681 94.4798 153.605C94.6435 156.374 95.0135 159.135 95.5904 161.865C97.4142 170.497 101.254 178.574 106.796 185.437C112.338 192.3 119.426 197.755 127.479 201.356C130.026 202.495 132.648 203.438 135.32 204.181C144.898 206.845 153.541 214.203 154.044 224.132L156.998 282.439Z" fill="#99C4D5"/>
<path d="M24.6505 108.885C15.2091 105.773 9.98161 95.534 14.1995 86.532C24.5161 64.5139 40.0636 45.2409 59.594 30.4584C79.1245 15.676 101.895 5.94633 125.887 1.99637C135.697 0.381462 144.131 8.19289 144.563 18.1247L147.096 76.452C147.528 86.3837 139.613 94.5209 130.328 98.0721C125.427 99.9465 120.786 102.512 116.555 105.715C112.323 108.917 108.594 112.687 105.459 116.895C99.5203 124.867 89.5396 130.274 80.0982 127.162L24.6505 108.885Z" fill="#E69965"/>
</svg>
