<svg width="1574" height="106" viewBox="0 0 1574 106" fill="none" xmlns="http://www.w3.org/2000/svg">
<path d="M36.4882 5.81675L20.4213 4.19683C10.8317 4.0886 3 11.8324 3 21.4226V39.9353C3 59.5589 18.9081 75.467 38.5317 75.467H1545.39C1559.7 75.467 1571.29 63.872 1571.29 49.5687C1571.29 34.8268 1559 22.8998 1544.26 22.5466L1543.47 22.5272C1525.9 22.0843 1532.25 21.1985 1520.65 19.9938C1494.93 18.5038 1493.45 13.9403 1471.48 9.34809C1414.49 -3.60569 1366.27 6.87164 1355.14 9.34809C1322.6 17.73 1315.67 19.4444 1277.05 22.3019C1267.61 22.9996 1258.39 22.8408 1249.59 22.1229C1206.4 18.5991 1164.53 3.18649 1121.2 3.73071C1075.99 4.29848 1051.1 14.0244 1026.34 20.3748C974.805 29.2533 924.344 15.2605 897.503 8.1974C870.663 1.13428 832.245 3.61147 824.224 4.33931C803.236 5.67367 790.001 9.19153 782.649 11.4963C758.586 17.5616 743.512 20.1033 733.386 21.4932C720.741 22.215 696.225 22.4426 685.065 21.4932C662.047 21.1767 636.413 13.1068 627.694 10.8915C618.975 8.67622 604.12 6.17079 594.909 5.04381C581.869 2.32029 545.334 4.01075 539.021 4.48032C529.809 4.10466 504.626 9.84745 500.1 10.82C437.1 26.8137 427.81 22.4002 420.925 22.4002C396.894 22.4002 386.363 20.3177 378.938 19.4601C371.513 18.6026 339.247 9.78232 332.704 8.73131C327.094 7.30242 304.154 4.00021 299.078 4.00021C294.001 4.00021 267.882 3.51624 261.202 4.00021C253.551 4.00021 244.093 5.64107 234.077 7.15572C224.062 8.67036 201.25 14.8551 197.494 15.9911C193.739 17.1271 177.331 19.891 174.434 20.5256C171.537 21.1601 143.253 23.3134 127.899 22.3414C115.615 21.5638 95.8813 18.9933 87.5497 17.8053L36.4882 5.81675Z" fill="#3FBE3F" stroke="url(#paint0_linear_245_251)" stroke-width="5"/>
<path d="M36.4882 33.649L20.4213 32.0291C10.8317 31.9209 3 39.6647 3 49.2549V67.7675C3 87.3912 18.9081 103.299 38.5317 103.299H1545.39C1559.7 103.299 1571.29 91.7043 1571.29 77.401C1571.29 62.6591 1559 50.732 1544.26 50.3788L1543.47 50.3595C1525.9 49.9166 1532.25 49.0308 1520.65 47.8261C1494.93 46.3361 1493.45 41.7726 1471.48 37.1804C1414.49 24.2266 1366.27 34.7039 1355.14 37.1804C1322.6 45.5622 1315.67 47.2767 1277.05 50.1341C1267.61 50.8319 1258.39 50.6731 1249.59 49.9551C1206.4 46.4314 1164.53 31.0188 1121.2 31.563C1075.99 32.1308 1051.1 41.8567 1026.34 48.2071C974.805 57.0856 924.344 43.0928 897.503 36.0297C870.663 28.9666 832.245 31.4437 824.224 32.1716C803.236 33.5059 790.001 37.0238 782.649 39.3286C758.586 45.3939 743.512 47.9356 733.386 49.3254C720.741 50.0473 696.225 50.2748 685.065 49.3254C662.047 49.009 636.413 40.939 627.694 38.7238C618.975 36.5085 604.12 34.0031 594.909 32.8761C581.869 30.1526 545.334 31.843 539.021 32.3126C529.809 31.9369 504.626 37.6797 500.1 38.6523C437.1 54.646 427.81 50.2325 420.925 50.2325C396.894 50.2325 386.363 48.1499 378.938 47.2924C371.513 46.4349 339.247 37.6146 332.704 36.5636C327.094 35.1347 304.154 31.8325 299.078 31.8325C294.001 31.8325 267.882 31.3485 261.202 31.8325C253.551 31.8325 244.093 33.4733 234.077 34.988C224.062 36.5026 201.25 42.6874 197.494 43.8234C193.739 44.9594 177.331 47.7233 174.434 48.3579C171.537 48.9924 143.253 51.1457 127.899 50.1737C115.615 49.396 95.8813 46.8256 87.5497 45.6375L36.4882 33.649Z" fill="#008000" stroke="url(#paint1_linear_245_251)" stroke-width="5"/>
<defs>
<linearGradient id="paint0_linear_245_251" x1="787.146" y1="9.94669" x2="787.146" y2="75.467" gradientUnits="userSpaceOnUse">
<stop/>
<stop offset="1" stop-color="#666666" stop-opacity="0"/>
</linearGradient>
<linearGradient id="paint1_linear_245_251" x1="787.146" y1="37.779" x2="787.146" y2="103.299" gradientUnits="userSpaceOnUse">
<stop/>
<stop offset="1" stop-color="#FFCA0D" stop-opacity="0"/>
</linearGradient>
</defs>
</svg>
