<svg width="34" height="28" viewBox="0 0 34 28" fill="none" xmlns="http://www.w3.org/2000/svg">
<path d="M33.2889 4.0569C32.0668 4.58789 30.7738 4.93772 29.4508 5.09532C30.8412 4.28113 31.8869 2.98763 32.3916 1.45743C31.077 2.22614 29.6412 2.76549 28.1456 3.0524C27.5158 2.39238 26.7584 1.86731 25.9194 1.50911C25.0804 1.15092 24.1773 0.967075 23.265 0.968761C19.5715 0.968761 16.5824 3.91437 16.5824 7.54547C16.5798 8.05054 16.6377 8.55411 16.7548 9.04542C14.1063 8.92126 11.5128 8.24562 9.14033 7.06172C6.76787 5.87783 4.66865 4.21175 2.97697 2.17008C2.38349 3.17058 2.06962 4.31212 2.06818 5.4754C2.06818 7.75587 3.25796 9.77164 5.0545 10.9526C3.9901 10.9273 2.94751 10.6456 2.01524 10.1314V10.2128C2.01524 13.4027 4.32285 16.0565 7.37705 16.6606C6.80272 16.8137 6.21087 16.8912 5.61648 16.8913C5.19471 16.8921 4.7739 16.8511 4.36018 16.7692C5.20925 19.3822 7.68044 21.2826 10.6077 21.3369C8.22909 23.17 5.30876 24.1608 2.30573 24.1535C1.77268 24.1527 1.24013 24.121 0.710754 24.0585C3.76575 26.0093 7.31695 27.0411 10.9416 27.0313C23.2507 27.0313 29.9754 17.0067 29.9754 8.31241C29.9754 8.02735 29.9679 7.7423 29.9544 7.46403C31.2596 6.53559 32.3888 5.38182 33.2889 4.0569Z" fill="#A0FF00"/>
</svg>
