<svg width="58" height="59" viewBox="0 0 58 59" fill="none" xmlns="http://www.w3.org/2000/svg">
<g filter="url(#filter0_d_251_441)">
<rect width="56.35" height="56.345" rx="6" fill="#189518"/>
<rect x="0.654602" y="0.654602" width="55.0408" height="55.0358" rx="5.3454" stroke="white" stroke-width="1.3092"/>
</g>
<path d="M14.0499 6.95132H44.9698C48.1028 6.95132 50.6425 9.49065 50.6425 12.6236V12.6501V12.6767V12.7033V12.7299V12.7566V12.7833V12.8101V12.8369V12.8638V12.8906V12.9175V12.9445V12.9715V12.9985V13.0256V13.0527V13.0798V13.107V13.1342V13.1614V13.1887V13.216V13.2433V13.2707V13.2982V13.3256V13.3531V13.3806V13.4082V13.4358V13.4634V13.4911V13.5188V13.5465V13.5743V13.602V13.6299V13.6577V13.6856V13.7136V13.7415V13.7695V13.7976V13.8256V13.8537V13.8818V13.91V13.9382V13.9664V13.9947V14.023V14.0513V14.0796V14.108V14.1364V14.1648V14.1933V14.2218V14.2504V14.2789V14.3075V14.3361V14.3648V14.3935V14.4222V14.4509V14.4797V14.5085V14.5373V14.5662V14.5951V14.624V14.6529V14.6819V14.7109V14.7399V14.769V14.7981V14.8272V14.8563V14.8855V14.9147V14.9439V14.9731V15.0024V15.0317V15.061V15.0904V15.1198V15.1492V15.1786V15.208V15.2375V15.267V15.2966V15.3261V15.3557V15.3853V15.4149V15.4446V15.4743V15.504V15.5337V15.5635V15.5932V15.623V15.6529V15.6827V15.7126V15.7425V15.7724V15.8023V15.8323V15.8623V15.8923V15.9223V15.9524V15.9824V16.0125V16.0427V16.0728V16.103V16.1331V16.1633V16.1936V16.2238V16.2541V16.2844V16.3147V16.345V16.3753V16.4057V16.4361V16.4665V16.4969V16.5274V16.5578V16.5883V16.6188V16.6494V16.6799V16.7105V16.741V16.7716V16.8022V16.8329V16.8635V16.8942V16.9249V16.9556V16.9863V17.017V17.0478V17.0786V17.1094V17.1402V17.171V17.2018V17.2327V17.2635V17.2944V17.3253V17.3562V17.3872V17.4181V17.4491V17.4801V17.5111V17.5421V17.5731V17.6041V17.6352V17.6662V17.6973V17.7284V17.7595V17.7906V17.8218V17.8529V17.8841V17.9153V17.9464V17.9776V18.0089V18.0401V18.0713V18.1026V18.1338V18.1651V18.1964V18.2277V18.259V18.2903V18.3216V18.353V18.3843V18.4157V18.4471V18.4785V18.5099V18.5413V18.5727V18.6041V18.6355V18.667V18.6984V18.7299V18.7614V18.7929V18.8243V18.8558V18.8873V18.9189V18.9504V18.9819V19.0135V19.045V19.0766V19.1081V19.1397V19.1713V19.2029V19.2345V19.2661V19.2977V19.3293V19.3609V19.3925V19.4242V19.4558V19.4875V19.5191V19.5508V19.5824V19.6141V19.6458V19.6774V19.7091V19.7408V19.7725V19.8042V19.8359V19.8676V19.8993V19.931V19.9627V19.9945V20.0262V20.0579V20.0897V20.1214V20.1531V20.1849V20.2166V20.2484V20.2801V20.3118V20.3436V20.3754V20.4071V20.4389V20.4706V20.5024V20.5341V20.5659V20.5977V20.6294V20.6612V20.693V20.7247V20.7565V20.7883V20.82V20.8518V20.8836V20.9153V20.9471V20.9789V21.0106V21.0424V21.0742V21.1059V21.1377V21.1694V21.2012V21.2329V21.2647V21.2964V21.3282V21.3599V21.3917V21.4234V21.4551V21.4869V21.5186V21.5503V21.5821V21.6138V21.6455V21.6772V21.7089V21.7406V21.7723V21.804V21.8357V21.8674V21.8991V21.9307V21.9624V21.9941V22.0257V22.0574V22.089V22.1207V22.1523V22.184V22.2156V22.2472V22.2788V22.3104V22.342V22.3736V22.4052V22.4368V22.4683V22.4999V22.5315V22.563V22.5945V22.6261V22.6576V22.6891V22.7206V22.7521V22.7836V22.8151V22.8465V22.878V22.9094V22.9409V22.9723V23.0037V23.0352V23.0666V23.0979V23.1293V23.1607V23.1921V23.2234V23.2547V23.2861V23.3174V23.3487V23.38V23.4113V23.4425V23.4738V23.505V23.5363V23.5675V23.5987V23.6299V23.6611V23.6922V23.7234V23.7545V23.7857V23.8168V23.8479V23.879V23.91V23.9411V23.9722V24.0032V24.0342V24.0652V24.0962V24.1272V24.1581V24.1891V24.22V24.2509V24.2818V24.3127V24.3435V24.3744V24.4052V24.436V24.4668V24.4976V24.5284V24.5591V24.5899V24.6206V24.6513V24.682V24.7126V24.7433V24.7739V24.8045V24.8351V24.8657V24.8962V24.9267V24.9573V24.9878V25.0182V25.0487V25.0791V25.1096V25.14V25.1703V25.2007V25.231V25.2614V25.2917V25.3219V25.3522V25.3824V25.4126V25.4428V25.473V25.5032V25.5333V25.5634V25.5935V25.6236V25.6536V25.6836V25.7136V25.7436V25.7736V25.8035V25.8334V25.8633V25.8931V25.923V25.9528V25.9826V26.0124V26.0421V26.0718V26.1015V26.1312V26.1608V26.1905V26.2201V26.2496V26.2792V26.3087V26.3382V26.3677V26.3971V26.4265V26.4559V26.4853V26.5147V26.544V26.5733V26.6025V26.6318V26.661V26.6901V26.7193V26.7484V26.7775V26.8066V26.8357V26.8647V26.8937V26.9226V26.9516V26.9805V27.0093V27.0382V27.067V27.0958V27.1245V27.1533V27.182V27.2107V27.2393V27.2679V27.2965V27.325V27.3536V27.3821V27.4105V27.4389V27.4673V27.4957V27.524V27.5524V27.5806V27.6089V27.6371V27.6653V27.6934V27.7215V27.7496V27.7777V27.8057V27.8337V27.8616V27.8895V27.9174V27.9453V27.9731V28.0009V28.0286V28.0563V28.084V28.1117V28.1394V28.1672V28.195V28.2228V28.2506V28.2785V28.3064V28.3344V28.3624V28.3904V28.4184V28.4465V28.4746V28.5028V28.531V28.5592V28.5874V28.6157V28.644V28.6723V28.7007V28.7291V28.7575V28.786V28.8145V28.843V28.8716V28.9001V28.9287V28.9574V28.9861V29.0148V29.0435V29.0723V29.101V29.1299V29.1587V29.1876V29.2165V29.2454V29.2744V29.3034V29.3324V29.3614V29.3905V29.4196V29.4487V29.4779V29.5071V29.5363V29.5655V29.5948V29.6241V29.6534V29.6827V29.7121V29.7415V29.7709V29.8004V29.8298V29.8593V29.8889V29.9184V29.948V29.9776V30.0072V30.0368V30.0665V30.0962V30.1259V30.1557V30.1854V30.2152V30.2451V30.2749V30.3048V30.3346V30.3646V30.3945V30.4244V30.4544V30.4844V30.5144V30.5445V30.5745V30.6046V30.6347V30.6649V30.695V30.7252V30.7554V30.7856V30.8159V30.8461V30.8764V30.9067V30.937V30.9674V30.9977V31.0281V31.0585V31.0889V31.1193V31.1498V31.1803V31.2108V31.2413V31.2718V31.3024V31.333V31.3635V31.3942V31.4248V31.4554V31.4861V31.5168V31.5475V31.5782V31.6089V31.6397V31.6704V31.7012V31.732V31.7628V31.7936V31.8245V31.8554V31.8862V31.9171V31.948V31.979V32.0099V32.0409V32.0718V32.1028V32.1338V32.1649V32.1959V32.2269V32.258V32.2891V32.3202V32.3513V32.3824V32.4135V32.4446V32.4758V32.507V32.5382V32.5694V32.6006V32.6318V32.663V32.6943V32.7255V32.7568V32.7881V32.8194V32.8507V32.882V32.9133V32.9446V32.976V33.0073V33.0387V33.0701V33.1015V33.1329V33.1643V33.1957V33.2272V33.2586V33.29V33.3215V33.353V33.3845V33.4159V33.4474V33.4789V33.5105V33.542V33.5735V33.605V33.6366V33.6681V33.6997V33.7313V33.7629V33.7944V33.826V33.8576V33.8892V33.9208V33.9525V33.9841V34.0157V34.0474V34.079V34.1106V34.1423V34.174V34.2056V34.2373V34.269V34.3007V34.3323V34.364V34.3957V34.4274V34.4591V34.4908V34.5226V34.5543V34.586V34.6177V34.6494V34.6812V34.7129V34.7446V34.7764V34.8081V34.8399V34.8716V34.9034V34.9351V34.9669V34.9986V35.0304V35.0621V35.0939V35.1257V35.1574V35.1892V35.2209V35.2527V35.2845V35.3162V35.348V35.3798V35.4115V35.4433V35.4751V35.5068V35.5386V35.5704V35.6021V35.6339V35.6657V35.6974V35.7292V35.7609V35.7927V35.8244V35.8562V35.8879V35.9197V35.9514V35.9832V36.0149V36.0467V36.0784V36.1101V36.1418V36.1736V36.2053V36.237V36.2687V36.3004V36.3321V36.3638V36.3955V36.4272V36.4589V36.4906V36.5223V36.554V36.5856V36.6173V36.6489V36.6806V36.7122V36.7439V36.7755V36.8071V36.8388V36.8704V36.902V36.9336V36.9652V36.9968V37.0283V37.0599V37.0915V37.123V37.1546V37.1861V37.2177V37.2492V37.2807V37.3122V37.3437V37.3752V37.4067V37.4381V37.4696V37.5011V37.5325V37.5639V37.5954V37.6268V37.6582V37.6896V37.721V37.7523V37.7837V37.8151V37.8464V37.8777V37.909V37.9404V37.9717V38.0029V38.0342V38.0655V38.0967V38.128V38.1592V38.1904V38.2216V38.2528V38.284V38.3151V38.3463V38.3774V38.4085V38.4396V38.4707V38.5018V38.5329V38.5639V38.595V38.626V38.657V38.688V38.719V38.7499V38.7809V38.8118V38.8427V38.8736V38.9045V38.9354V38.9662V38.9971V39.0279V39.0587V39.0895V39.1203V39.151V39.1817V39.2125V39.2432V39.2738V39.3045V39.3352V39.3658V39.3964V39.427V39.4576V39.4881V39.5187V39.5492V39.5797V39.6102V39.6407V39.6711V39.7015V39.7319V39.7623V39.7927V39.823V39.8534V39.8837V39.914V39.9442V39.9745V40.0047V40.0349V40.0651V40.0952V40.1254V40.1555V40.1856V40.2157V40.2457V40.2758V40.3058V40.3357V40.3657V40.3956V40.4256V40.4555V40.4853V40.5152V40.545V40.5748V40.6046V40.6343V40.6641V40.6938V40.7234V40.7531V40.7827V40.8123V40.8419V40.8715V40.901V40.9305V40.96V40.9895V41.0189V41.0483V41.0777V41.107V41.1363V41.1656V41.1949V41.2242V41.2534V41.2826V41.3117V41.3409V41.37V41.3991V41.4281V41.4572V41.4862V41.5151V41.5441V41.573V41.6019V41.6307V41.6596V41.6884V41.7171V41.7459V41.7746V41.8033V41.8319V41.8605V41.8891V41.9177V41.9462V41.9747V42.0032V42.0316V42.06V42.0884V42.1168V42.1451V42.1734V42.2016V42.2299V42.258V42.2862V42.3143V42.3424V42.3705V42.3985V42.4265V42.4545V42.4824V42.5103V42.5382V42.566V42.5938V42.6216V42.6493V42.677V42.7046V42.7323V42.7599V42.7874V42.8149V42.8424V42.8699V42.8973V42.9247V42.952V42.9794V43.0066V43.0339V43.0611V43.0882V43.1154V43.1425V43.1695V43.1966V43.2236V43.2505V43.2774V43.3043V43.3311V43.3579V43.3847V43.4114V43.4381V43.4648V43.4914V43.5179V43.5445C50.6425 46.6774 48.1028 49.2167 44.9698 49.2167H14.0498C10.9169 49.2167 8.37714 46.6774 8.37713 43.5445L8.37714 28.084L8.37716 12.6236C8.37715 9.49066 10.9169 6.95132 14.0499 6.95132Z" stroke="white" stroke-width="0.654602"/>
<g clip-path="url(#clip0_251_441)">
<path d="M35.5882 18.6328H38.8082L31.7732 26.6741L40.0498 37.6142H33.5696L28.4946 30.9782L22.6863 37.6142H19.4646L26.9896 29.0129L19.0498 18.6337H25.6946L30.2822 24.6992L35.5882 18.6328ZM34.4586 35.6874H36.2427L24.7251 20.4589H22.8106L34.4586 35.6874Z" fill="white"/>
</g>
<defs>
<filter id="filter0_d_251_441" x="0" y="0" width="57.3501" height="58.345" filterUnits="userSpaceOnUse" color-interpolation-filters="sRGB">
<feFlood flood-opacity="0" result="BackgroundImageFix"/>
<feColorMatrix in="SourceAlpha" type="matrix" values="0 0 0 0 0 0 0 0 0 0 0 0 0 0 0 0 0 0 127 0" result="hardAlpha"/>
<feOffset dx="1" dy="2"/>
<feComposite in2="hardAlpha" operator="out"/>
<feColorMatrix type="matrix" values="0 0 0 0 1 0 0 0 0 1 0 0 0 0 1 0 0 0 1 0"/>
<feBlend mode="normal" in2="BackgroundImageFix" result="effect1_dropShadow_251_441"/>
<feBlend mode="normal" in="SourceGraphic" in2="effect1_dropShadow_251_441" result="shape"/>
</filter>
<clipPath id="clip0_251_441">
<rect width="21" height="21" fill="white" transform="translate(19.0498 17.624)"/>
</clipPath>
</defs>
</svg>
